solid OpenSCAD_Model
  facet normal -1 0 0
    outer loop
      vertex 0 2.41621 -5
      vertex 0 4.05 5
      vertex 0 4.05 -5
    endloop
  endfacet
  facet normal -1 -0 0
    outer loop
      vertex 0 4.05 5
      vertex 0 2.41621 -5
      vertex 0 2.41621 5
    endloop
  endfacet
  facet normal -1 0 0
    outer loop
      vertex 0 -4.05 -5
      vertex 0 -2.41621 5
      vertex 0 -2.41621 -5
    endloop
  endfacet
  facet normal -1 -0 0
    outer loop
      vertex 0 -2.41621 5
      vertex 0 -4.05 -5
      vertex 0 -4.05 5
    endloop
  endfacet
  facet normal -1 0 0
    outer loop
      vertex -2.325 -3.62432 -5
      vertex -2.325 3.62432 5
      vertex -2.325 3.62432 -5
    endloop
  endfacet
  facet normal -1 -0 0
    outer loop
      vertex -2.325 3.62432 5
      vertex -2.325 -3.62432 -5
      vertex -2.325 -3.62432 5
    endloop
  endfacet
  facet normal 0.461085 0.887356 -0
    outer loop
      vertex 0 2.41621 -5
      vertex -2.325 3.62432 5
      vertex 0 2.41621 5
    endloop
  endfacet
  facet normal 0.461085 0.887356 0
    outer loop
      vertex -2.325 3.62432 5
      vertex 0 2.41621 -5
      vertex -2.325 3.62432 -5
    endloop
  endfacet
  facet normal 0.461085 -0.887356 0
    outer loop
      vertex -2.325 -3.62432 -5
      vertex 0 -2.41621 5
      vertex -2.325 -3.62432 5
    endloop
  endfacet
  facet normal 0.461085 -0.887356 0
    outer loop
      vertex 0 -2.41621 5
      vertex -2.325 -3.62432 -5
      vertex 0 -2.41621 -5
    endloop
  endfacet
  facet normal 1 -0 0
    outer loop
      vertex 3.5 -4.05 5
      vertex 3.5 4.05 -5
      vertex 3.5 4.05 5
    endloop
  endfacet
  facet normal 1 0 0
    outer loop
      vertex 3.5 4.05 -5
      vertex 3.5 -4.05 5
      vertex 3.5 -4.05 -5
    endloop
  endfacet
  facet normal 0 0 1
    outer loop
      vertex -2.325 3.62432 5
      vertex 0 -2.41621 5
      vertex 0 2.41621 5
    endloop
  endfacet
  facet normal 0 0 1
    outer loop
      vertex 0 -2.41621 5
      vertex -2.325 3.62432 5
      vertex -2.325 -3.62432 5
    endloop
  endfacet
  facet normal 0 0 1
    outer loop
      vertex 0 2.41621 5
      vertex 3.5 4.05 5
      vertex 0 4.05 5
    endloop
  endfacet
  facet normal 0 0 1
    outer loop
      vertex 3.5 4.05 5
      vertex 0 2.41621 5
      vertex 3.5 -4.05 5
    endloop
  endfacet
  facet normal -0 0 1
    outer loop
      vertex 0 -2.41621 5
      vertex 3.5 -4.05 5
      vertex 0 2.41621 5
    endloop
  endfacet
  facet normal 0 0 1
    outer loop
      vertex 3.5 -4.05 5
      vertex 0 -2.41621 5
      vertex 0 -4.05 5
    endloop
  endfacet
  facet normal 0 0 -1
    outer loop
      vertex -2.325 -3.62432 -5
      vertex 0 2.41621 -5
      vertex 0 -2.41621 -5
    endloop
  endfacet
  facet normal -0 0 -1
    outer loop
      vertex 0 2.41621 -5
      vertex -2.325 -3.62432 -5
      vertex -2.325 3.62432 -5
    endloop
  endfacet
  facet normal 0 0 -1
    outer loop
      vertex 0 -2.41621 -5
      vertex 3.5 -4.05 -5
      vertex 0 -4.05 -5
    endloop
  endfacet
  facet normal 0 0 -1
    outer loop
      vertex 3.5 -4.05 -5
      vertex 0 -2.41621 -5
      vertex 3.5 4.05 -5
    endloop
  endfacet
  facet normal 0 0 -1
    outer loop
      vertex 0 2.41621 -5
      vertex 3.5 4.05 -5
      vertex 0 -2.41621 -5
    endloop
  endfacet
  facet normal -0 0 -1
    outer loop
      vertex 3.5 4.05 -5
      vertex 0 2.41621 -5
      vertex 0 4.05 -5
    endloop
  endfacet
  facet normal 0 1 -0
    outer loop
      vertex 3.5 4.05 -5
      vertex 0 4.05 5
      vertex 3.5 4.05 5
    endloop
  endfacet
  facet normal 0 1 0
    outer loop
      vertex 0 4.05 5
      vertex 3.5 4.05 -5
      vertex 0 4.05 -5
    endloop
  endfacet
  facet normal 0 -1 0
    outer loop
      vertex 0 -4.05 -5
      vertex 3.5 -4.05 5
      vertex 0 -4.05 5
    endloop
  endfacet
  facet normal 0 -1 -0
    outer loop
      vertex 3.5 -4.05 5
      vertex 0 -4.05 -5
      vertex 3.5 -4.05 -5
    endloop
  endfacet
endsolid OpenSCAD_Model
