solid OpenSCAD_Model
  facet normal 0 0.290282 -0.956941
    outer loop
      vertex 0 -0.727098 1.75537
      vertex 4.5 -0.370671 1.86349
      vertex 4.5 -0.727098 1.75537
    endloop
  endfacet
  facet normal 0 0.290282 -0.956941
    outer loop
      vertex 4.5 -0.370671 1.86349
      vertex 0 -0.727098 1.75537
      vertex 0 -0.370671 1.86349
    endloop
  endfacet
  facet normal 0 0.290282 -0.956941
    outer loop
      vertex 5.5 -0.727098 1.75537
      vertex 10 -0.370671 1.86349
      vertex 10 -0.727098 1.75537
    endloop
  endfacet
  facet normal 0 0.290282 -0.956941
    outer loop
      vertex 10 -0.370671 1.86349
      vertex 5.5 -0.727098 1.75537
      vertex 5.5 -0.370671 1.86349
    endloop
  endfacet
  facet normal 0 -0.956941 -0.290282
    outer loop
      vertex 0 1.86349 0.370671
      vertex 4.5 1.75537 0.727098
      vertex 0 1.75537 0.727098
    endloop
  endfacet
  facet normal 0 -0.956941 -0.290282
    outer loop
      vertex 4.5 1.75537 0.727098
      vertex 0 1.86349 0.370671
      vertex 4.5 1.86349 0.370671
    endloop
  endfacet
  facet normal 0 -0.956941 -0.290282
    outer loop
      vertex 5.5 1.86349 0.370671
      vertex 10 1.75537 0.727098
      vertex 5.5 1.75537 0.727098
    endloop
  endfacet
  facet normal 0 -0.956941 -0.290282
    outer loop
      vertex 10 1.75537 0.727098
      vertex 5.5 1.86349 0.370671
      vertex 10 1.86349 0.370671
    endloop
  endfacet
  facet normal 0 -0.995184 -0.0980227
    outer loop
      vertex 0 1.9 0
      vertex 4.5 1.86349 0.370671
      vertex 0 1.86349 0.370671
    endloop
  endfacet
  facet normal 0 -0.995184 -0.0980227
    outer loop
      vertex 4.5 1.86349 0.370671
      vertex 0 1.9 0
      vertex 4.5 1.9 0
    endloop
  endfacet
  facet normal 0 -0.995184 -0.0980227
    outer loop
      vertex 5.5 1.9 0
      vertex 10 1.86349 0.370671
      vertex 5.5 1.86349 0.370671
    endloop
  endfacet
  facet normal 0 -0.995184 -0.0980227
    outer loop
      vertex 10 1.86349 0.370671
      vertex 5.5 1.9 0
      vertex 10 1.9 0
    endloop
  endfacet
  facet normal 0 -0.881918 -0.471402
    outer loop
      vertex 0 1.75537 0.727098
      vertex 4.5 1.57979 1.05558
      vertex 0 1.57979 1.05558
    endloop
  endfacet
  facet normal 0 -0.881918 -0.471402
    outer loop
      vertex 4.5 1.57979 1.05558
      vertex 0 1.75537 0.727098
      vertex 4.5 1.75537 0.727098
    endloop
  endfacet
  facet normal 0 -0.881918 -0.471402
    outer loop
      vertex 5.5 1.75537 0.727098
      vertex 10 1.57979 1.05558
      vertex 5.5 1.57979 1.05558
    endloop
  endfacet
  facet normal 0 -0.881918 -0.471402
    outer loop
      vertex 10 1.57979 1.05558
      vertex 5.5 1.75537 0.727098
      vertex 10 1.75537 0.727098
    endloop
  endfacet
  facet normal 0 0.995184 0.0980227
    outer loop
      vertex 4.5 -1.86349 -0.370671
      vertex 0 -1.9 0
      vertex 4.5 -1.9 0
    endloop
  endfacet
  facet normal 0 0.995184 0.0980227
    outer loop
      vertex 0 -1.9 0
      vertex 4.5 -1.86349 -0.370671
      vertex 0 -1.86349 -0.370671
    endloop
  endfacet
  facet normal 0 0.995184 0.0980227
    outer loop
      vertex 10 -1.86349 -0.370671
      vertex 5.5 -1.9 0
      vertex 10 -1.9 0
    endloop
  endfacet
  facet normal 0 0.995184 0.0980227
    outer loop
      vertex 5.5 -1.9 0
      vertex 10 -1.86349 -0.370671
      vertex 5.5 -1.86349 -0.370671
    endloop
  endfacet
  facet normal 0 -0.634394 0.77301
    outer loop
      vertex 0 1.3435 -1.3435
      vertex 4.5 1.05558 -1.57979
      vertex 4.5 1.3435 -1.3435
    endloop
  endfacet
  facet normal 0 -0.634394 0.77301
    outer loop
      vertex 4.5 1.05558 -1.57979
      vertex 0 1.3435 -1.3435
      vertex 0 1.05558 -1.57979
    endloop
  endfacet
  facet normal 0 -0.634394 0.77301
    outer loop
      vertex 5.5 1.3435 -1.3435
      vertex 10 1.05558 -1.57979
      vertex 10 1.3435 -1.3435
    endloop
  endfacet
  facet normal 0 -0.634394 0.77301
    outer loop
      vertex 10 1.05558 -1.57979
      vertex 5.5 1.3435 -1.3435
      vertex 5.5 1.05558 -1.57979
    endloop
  endfacet
  facet normal 0 -0.995184 0.0980227
    outer loop
      vertex 0 1.86349 -0.370671
      vertex 4.5 1.9 0
      vertex 0 1.9 0
    endloop
  endfacet
  facet normal 0 -0.995184 0.0980227
    outer loop
      vertex 4.5 1.9 0
      vertex 0 1.86349 -0.370671
      vertex 4.5 1.86349 -0.370671
    endloop
  endfacet
  facet normal 0 -0.995184 0.0980227
    outer loop
      vertex 5.5 1.86349 -0.370671
      vertex 10 1.9 0
      vertex 5.5 1.9 0
    endloop
  endfacet
  facet normal 0 -0.995184 0.0980227
    outer loop
      vertex 10 1.9 0
      vertex 5.5 1.86349 -0.370671
      vertex 10 1.86349 -0.370671
    endloop
  endfacet
  facet normal 0 -0.290282 0.956941
    outer loop
      vertex 0 0.727098 -1.75537
      vertex 4.5 0.370671 -1.86349
      vertex 4.5 0.727098 -1.75537
    endloop
  endfacet
  facet normal 0 -0.290282 0.956941
    outer loop
      vertex 4.5 0.370671 -1.86349
      vertex 0 0.727098 -1.75537
      vertex 0 0.370671 -1.86349
    endloop
  endfacet
  facet normal 0 -0.290282 0.956941
    outer loop
      vertex 5.5 0.727098 -1.75537
      vertex 10 0.370671 -1.86349
      vertex 10 0.727098 -1.75537
    endloop
  endfacet
  facet normal 0 -0.290282 0.956941
    outer loop
      vertex 10 0.370671 -1.86349
      vertex 5.5 0.727098 -1.75537
      vertex 5.5 0.370671 -1.86349
    endloop
  endfacet
  facet normal 0 -0.77301 -0.634394
    outer loop
      vertex 0 1.57979 1.05558
      vertex 4.5 1.3435 1.3435
      vertex 0 1.3435 1.3435
    endloop
  endfacet
  facet normal 0 -0.77301 -0.634394
    outer loop
      vertex 4.5 1.3435 1.3435
      vertex 0 1.57979 1.05558
      vertex 4.5 1.57979 1.05558
    endloop
  endfacet
  facet normal 0 -0.77301 -0.634394
    outer loop
      vertex 5.5 1.57979 1.05558
      vertex 10 1.3435 1.3435
      vertex 5.5 1.3435 1.3435
    endloop
  endfacet
  facet normal 0 -0.77301 -0.634394
    outer loop
      vertex 10 1.3435 1.3435
      vertex 5.5 1.57979 1.05558
      vertex 10 1.57979 1.05558
    endloop
  endfacet
  facet normal 0 0.881918 0.471402
    outer loop
      vertex 4.5 -1.57979 -1.05558
      vertex 0 -1.75537 -0.727098
      vertex 4.5 -1.75537 -0.727098
    endloop
  endfacet
  facet normal 0 0.881918 0.471402
    outer loop
      vertex 0 -1.75537 -0.727098
      vertex 4.5 -1.57979 -1.05558
      vertex 0 -1.57979 -1.05558
    endloop
  endfacet
  facet normal 0 0.881918 0.471402
    outer loop
      vertex 10 -1.57979 -1.05558
      vertex 5.5 -1.75537 -0.727098
      vertex 10 -1.75537 -0.727098
    endloop
  endfacet
  facet normal 0 0.881918 0.471402
    outer loop
      vertex 5.5 -1.75537 -0.727098
      vertex 10 -1.57979 -1.05558
      vertex 5.5 -1.57979 -1.05558
    endloop
  endfacet
  facet normal 0 0.77301 -0.634394
    outer loop
      vertex 4.5 -1.57979 1.05558
      vertex 0 -1.3435 1.3435
      vertex 4.5 -1.3435 1.3435
    endloop
  endfacet
  facet normal 0 0.77301 -0.634394
    outer loop
      vertex 0 -1.3435 1.3435
      vertex 4.5 -1.57979 1.05558
      vertex 0 -1.57979 1.05558
    endloop
  endfacet
  facet normal 0 0.77301 -0.634394
    outer loop
      vertex 10 -1.57979 1.05558
      vertex 5.5 -1.3435 1.3435
      vertex 10 -1.3435 1.3435
    endloop
  endfacet
  facet normal 0 0.77301 -0.634394
    outer loop
      vertex 5.5 -1.3435 1.3435
      vertex 10 -1.57979 1.05558
      vertex 5.5 -1.57979 1.05558
    endloop
  endfacet
  facet normal 0 -0.881918 0.471402
    outer loop
      vertex 0 1.57979 -1.05558
      vertex 4.5 1.75537 -0.727098
      vertex 0 1.75537 -0.727098
    endloop
  endfacet
  facet normal 0 -0.881918 0.471402
    outer loop
      vertex 4.5 1.75537 -0.727098
      vertex 0 1.57979 -1.05558
      vertex 4.5 1.57979 -1.05558
    endloop
  endfacet
  facet normal 0 -0.881918 0.471402
    outer loop
      vertex 5.5 1.57979 -1.05558
      vertex 10 1.75537 -0.727098
      vertex 5.5 1.75537 -0.727098
    endloop
  endfacet
  facet normal 0 -0.881918 0.471402
    outer loop
      vertex 10 1.75537 -0.727098
      vertex 5.5 1.57979 -1.05558
      vertex 10 1.57979 -1.05558
    endloop
  endfacet
  facet normal 0 -0.0980227 -0.995184
    outer loop
      vertex 0 0 1.9
      vertex 4.5 0.370671 1.86349
      vertex 4.5 0 1.9
    endloop
  endfacet
  facet normal -0 -0.0980227 -0.995184
    outer loop
      vertex 4.5 0.370671 1.86349
      vertex 0 0 1.9
      vertex 0 0.370671 1.86349
    endloop
  endfacet
  facet normal 0 -0.0980227 -0.995184
    outer loop
      vertex 5.5 0 1.9
      vertex 10 0.370671 1.86349
      vertex 10 0 1.9
    endloop
  endfacet
  facet normal -0 -0.0980227 -0.995184
    outer loop
      vertex 10 0.370671 1.86349
      vertex 5.5 0 1.9
      vertex 5.5 0.370671 1.86349
    endloop
  endfacet
  facet normal 0 -0.956941 0.290282
    outer loop
      vertex 0 1.75537 -0.727098
      vertex 4.5 1.86349 -0.370671
      vertex 0 1.86349 -0.370671
    endloop
  endfacet
  facet normal 0 -0.956941 0.290282
    outer loop
      vertex 4.5 1.86349 -0.370671
      vertex 0 1.75537 -0.727098
      vertex 4.5 1.75537 -0.727098
    endloop
  endfacet
  facet normal 0 -0.956941 0.290282
    outer loop
      vertex 5.5 1.75537 -0.727098
      vertex 10 1.86349 -0.370671
      vertex 5.5 1.86349 -0.370671
    endloop
  endfacet
  facet normal 0 -0.956941 0.290282
    outer loop
      vertex 10 1.86349 -0.370671
      vertex 5.5 1.75537 -0.727098
      vertex 10 1.75537 -0.727098
    endloop
  endfacet
  facet normal 0 0.0980227 -0.995184
    outer loop
      vertex 0 -0.370671 1.86349
      vertex 4.5 0 1.9
      vertex 4.5 -0.370671 1.86349
    endloop
  endfacet
  facet normal 0 0.0980227 -0.995184
    outer loop
      vertex 4.5 0 1.9
      vertex 0 -0.370671 1.86349
      vertex 0 0 1.9
    endloop
  endfacet
  facet normal 0 0.0980227 -0.995184
    outer loop
      vertex 5.5 -0.370671 1.86349
      vertex 10 0 1.9
      vertex 10 -0.370671 1.86349
    endloop
  endfacet
  facet normal 0 0.0980227 -0.995184
    outer loop
      vertex 10 0 1.9
      vertex 5.5 -0.370671 1.86349
      vertex 5.5 0 1.9
    endloop
  endfacet
  facet normal 0 0.956941 -0.290282
    outer loop
      vertex 4.5 -1.86349 0.370671
      vertex 0 -1.75537 0.727098
      vertex 4.5 -1.75537 0.727098
    endloop
  endfacet
  facet normal 0 0.956941 -0.290282
    outer loop
      vertex 0 -1.75537 0.727098
      vertex 4.5 -1.86349 0.370671
      vertex 0 -1.86349 0.370671
    endloop
  endfacet
  facet normal 0 0.956941 -0.290282
    outer loop
      vertex 10 -1.86349 0.370671
      vertex 5.5 -1.75537 0.727098
      vertex 10 -1.75537 0.727098
    endloop
  endfacet
  facet normal 0 0.956941 -0.290282
    outer loop
      vertex 5.5 -1.75537 0.727098
      vertex 10 -1.86349 0.370671
      vertex 5.5 -1.86349 0.370671
    endloop
  endfacet
  facet normal -0 0.290282 0.956941
    outer loop
      vertex 0 -0.370671 -1.86349
      vertex 4.5 -0.727098 -1.75537
      vertex 4.5 -0.370671 -1.86349
    endloop
  endfacet
  facet normal 0 0.290282 0.956941
    outer loop
      vertex 4.5 -0.727098 -1.75537
      vertex 0 -0.370671 -1.86349
      vertex 0 -0.727098 -1.75537
    endloop
  endfacet
  facet normal -0 0.290282 0.956941
    outer loop
      vertex 5.5 -0.370671 -1.86349
      vertex 10 -0.727098 -1.75537
      vertex 10 -0.370671 -1.86349
    endloop
  endfacet
  facet normal 0 0.290282 0.956941
    outer loop
      vertex 10 -0.727098 -1.75537
      vertex 5.5 -0.370671 -1.86349
      vertex 5.5 -0.727098 -1.75537
    endloop
  endfacet
  facet normal 0 0.471402 -0.881918
    outer loop
      vertex 0 -1.05558 1.57979
      vertex 4.5 -0.727098 1.75537
      vertex 4.5 -1.05558 1.57979
    endloop
  endfacet
  facet normal 0 0.471402 -0.881918
    outer loop
      vertex 4.5 -0.727098 1.75537
      vertex 0 -1.05558 1.57979
      vertex 0 -0.727098 1.75537
    endloop
  endfacet
  facet normal 0 0.471402 -0.881918
    outer loop
      vertex 5.5 -1.05558 1.57979
      vertex 10 -0.727098 1.75537
      vertex 10 -1.05558 1.57979
    endloop
  endfacet
  facet normal 0 0.471402 -0.881918
    outer loop
      vertex 10 -0.727098 1.75537
      vertex 5.5 -1.05558 1.57979
      vertex 5.5 -0.727098 1.75537
    endloop
  endfacet
  facet normal -0 0.0980227 0.995184
    outer loop
      vertex 0 0 -1.9
      vertex 4.5 -0.370671 -1.86349
      vertex 4.5 0 -1.9
    endloop
  endfacet
  facet normal 0 0.0980227 0.995184
    outer loop
      vertex 4.5 -0.370671 -1.86349
      vertex 0 0 -1.9
      vertex 0 -0.370671 -1.86349
    endloop
  endfacet
  facet normal -0 0.0980227 0.995184
    outer loop
      vertex 5.5 0 -1.9
      vertex 10 -0.370671 -1.86349
      vertex 10 0 -1.9
    endloop
  endfacet
  facet normal 0 0.0980227 0.995184
    outer loop
      vertex 10 -0.370671 -1.86349
      vertex 5.5 0 -1.9
      vertex 5.5 -0.370671 -1.86349
    endloop
  endfacet
  facet normal 0 -0.471402 -0.881918
    outer loop
      vertex 0 0.727098 1.75537
      vertex 4.5 1.05558 1.57979
      vertex 4.5 0.727098 1.75537
    endloop
  endfacet
  facet normal -0 -0.471402 -0.881918
    outer loop
      vertex 4.5 1.05558 1.57979
      vertex 0 0.727098 1.75537
      vertex 0 1.05558 1.57979
    endloop
  endfacet
  facet normal 0 -0.471402 -0.881918
    outer loop
      vertex 5.5 0.727098 1.75537
      vertex 10 1.05558 1.57979
      vertex 10 0.727098 1.75537
    endloop
  endfacet
  facet normal -0 -0.471402 -0.881918
    outer loop
      vertex 10 1.05558 1.57979
      vertex 5.5 0.727098 1.75537
      vertex 5.5 1.05558 1.57979
    endloop
  endfacet
  facet normal 0 -0.290282 -0.956941
    outer loop
      vertex 0 0.370671 1.86349
      vertex 4.5 0.727098 1.75537
      vertex 4.5 0.370671 1.86349
    endloop
  endfacet
  facet normal -0 -0.290282 -0.956941
    outer loop
      vertex 4.5 0.727098 1.75537
      vertex 0 0.370671 1.86349
      vertex 0 0.727098 1.75537
    endloop
  endfacet
  facet normal 0 -0.290282 -0.956941
    outer loop
      vertex 5.5 0.370671 1.86349
      vertex 10 0.727098 1.75537
      vertex 10 0.370671 1.86349
    endloop
  endfacet
  facet normal -0 -0.290282 -0.956941
    outer loop
      vertex 10 0.727098 1.75537
      vertex 5.5 0.370671 1.86349
      vertex 5.5 0.727098 1.75537
    endloop
  endfacet
  facet normal 0 -0.471402 0.881918
    outer loop
      vertex 0 1.05558 -1.57979
      vertex 4.5 0.727098 -1.75537
      vertex 4.5 1.05558 -1.57979
    endloop
  endfacet
  facet normal 0 -0.471402 0.881918
    outer loop
      vertex 4.5 0.727098 -1.75537
      vertex 0 1.05558 -1.57979
      vertex 0 0.727098 -1.75537
    endloop
  endfacet
  facet normal 0 -0.471402 0.881918
    outer loop
      vertex 5.5 1.05558 -1.57979
      vertex 10 0.727098 -1.75537
      vertex 10 1.05558 -1.57979
    endloop
  endfacet
  facet normal 0 -0.471402 0.881918
    outer loop
      vertex 10 0.727098 -1.75537
      vertex 5.5 1.05558 -1.57979
      vertex 5.5 0.727098 -1.75537
    endloop
  endfacet
  facet normal 0 0.881918 -0.471402
    outer loop
      vertex 4.5 -1.75537 0.727098
      vertex 0 -1.57979 1.05558
      vertex 4.5 -1.57979 1.05558
    endloop
  endfacet
  facet normal 0 0.881918 -0.471402
    outer loop
      vertex 0 -1.57979 1.05558
      vertex 4.5 -1.75537 0.727098
      vertex 0 -1.75537 0.727098
    endloop
  endfacet
  facet normal 0 0.881918 -0.471402
    outer loop
      vertex 10 -1.75537 0.727098
      vertex 5.5 -1.57979 1.05558
      vertex 10 -1.57979 1.05558
    endloop
  endfacet
  facet normal 0 0.881918 -0.471402
    outer loop
      vertex 5.5 -1.57979 1.05558
      vertex 10 -1.75537 0.727098
      vertex 5.5 -1.75537 0.727098
    endloop
  endfacet
  facet normal 0 0.634394 -0.77301
    outer loop
      vertex 0 -1.3435 1.3435
      vertex 4.5 -1.05558 1.57979
      vertex 4.5 -1.3435 1.3435
    endloop
  endfacet
  facet normal 0 0.634394 -0.77301
    outer loop
      vertex 4.5 -1.05558 1.57979
      vertex 0 -1.3435 1.3435
      vertex 0 -1.05558 1.57979
    endloop
  endfacet
  facet normal 0 0.634394 -0.77301
    outer loop
      vertex 5.5 -1.3435 1.3435
      vertex 10 -1.05558 1.57979
      vertex 10 -1.3435 1.3435
    endloop
  endfacet
  facet normal 0 0.634394 -0.77301
    outer loop
      vertex 10 -1.05558 1.57979
      vertex 5.5 -1.3435 1.3435
      vertex 5.5 -1.05558 1.57979
    endloop
  endfacet
  facet normal -0 0.471402 0.881918
    outer loop
      vertex 0 -0.727098 -1.75537
      vertex 4.5 -1.05558 -1.57979
      vertex 4.5 -0.727098 -1.75537
    endloop
  endfacet
  facet normal 0 0.471402 0.881918
    outer loop
      vertex 4.5 -1.05558 -1.57979
      vertex 0 -0.727098 -1.75537
      vertex 0 -1.05558 -1.57979
    endloop
  endfacet
  facet normal -0 0.471402 0.881918
    outer loop
      vertex 5.5 -0.727098 -1.75537
      vertex 10 -1.05558 -1.57979
      vertex 10 -0.727098 -1.75537
    endloop
  endfacet
  facet normal 0 0.471402 0.881918
    outer loop
      vertex 10 -1.05558 -1.57979
      vertex 5.5 -0.727098 -1.75537
      vertex 5.5 -1.05558 -1.57979
    endloop
  endfacet
  facet normal 0 -0.634394 -0.77301
    outer loop
      vertex 0 1.05558 1.57979
      vertex 4.5 1.3435 1.3435
      vertex 4.5 1.05558 1.57979
    endloop
  endfacet
  facet normal -0 -0.634394 -0.77301
    outer loop
      vertex 4.5 1.3435 1.3435
      vertex 0 1.05558 1.57979
      vertex 0 1.3435 1.3435
    endloop
  endfacet
  facet normal 0 -0.634394 -0.77301
    outer loop
      vertex 5.5 1.05558 1.57979
      vertex 10 1.3435 1.3435
      vertex 10 1.05558 1.57979
    endloop
  endfacet
  facet normal -0 -0.634394 -0.77301
    outer loop
      vertex 10 1.3435 1.3435
      vertex 5.5 1.05558 1.57979
      vertex 5.5 1.3435 1.3435
    endloop
  endfacet
  facet normal 0 0.77301 0.634394
    outer loop
      vertex 4.5 -1.3435 -1.3435
      vertex 0 -1.57979 -1.05558
      vertex 4.5 -1.57979 -1.05558
    endloop
  endfacet
  facet normal 0 0.77301 0.634394
    outer loop
      vertex 0 -1.57979 -1.05558
      vertex 4.5 -1.3435 -1.3435
      vertex 0 -1.3435 -1.3435
    endloop
  endfacet
  facet normal 0 0.77301 0.634394
    outer loop
      vertex 10 -1.3435 -1.3435
      vertex 5.5 -1.57979 -1.05558
      vertex 10 -1.57979 -1.05558
    endloop
  endfacet
  facet normal 0 0.77301 0.634394
    outer loop
      vertex 5.5 -1.57979 -1.05558
      vertex 10 -1.3435 -1.3435
      vertex 5.5 -1.3435 -1.3435
    endloop
  endfacet
  facet normal -0 0.634394 0.77301
    outer loop
      vertex 0 -1.05558 -1.57979
      vertex 4.5 -1.3435 -1.3435
      vertex 4.5 -1.05558 -1.57979
    endloop
  endfacet
  facet normal 0 0.634394 0.77301
    outer loop
      vertex 4.5 -1.3435 -1.3435
      vertex 0 -1.05558 -1.57979
      vertex 0 -1.3435 -1.3435
    endloop
  endfacet
  facet normal -0 0.634394 0.77301
    outer loop
      vertex 5.5 -1.05558 -1.57979
      vertex 10 -1.3435 -1.3435
      vertex 10 -1.05558 -1.57979
    endloop
  endfacet
  facet normal 0 0.634394 0.77301
    outer loop
      vertex 10 -1.3435 -1.3435
      vertex 5.5 -1.05558 -1.57979
      vertex 5.5 -1.3435 -1.3435
    endloop
  endfacet
  facet normal 0 -0.0980227 0.995184
    outer loop
      vertex 0 0.370671 -1.86349
      vertex 4.5 0 -1.9
      vertex 4.5 0.370671 -1.86349
    endloop
  endfacet
  facet normal 0 -0.0980227 0.995184
    outer loop
      vertex 4.5 0 -1.9
      vertex 0 0.370671 -1.86349
      vertex 0 0 -1.9
    endloop
  endfacet
  facet normal 0 -0.0980227 0.995184
    outer loop
      vertex 5.5 0.370671 -1.86349
      vertex 10 0 -1.9
      vertex 10 0.370671 -1.86349
    endloop
  endfacet
  facet normal 0 -0.0980227 0.995184
    outer loop
      vertex 10 0 -1.9
      vertex 5.5 0.370671 -1.86349
      vertex 5.5 0 -1.9
    endloop
  endfacet
  facet normal 0 0.956941 0.290282
    outer loop
      vertex 4.5 -1.75537 -0.727098
      vertex 0 -1.86349 -0.370671
      vertex 4.5 -1.86349 -0.370671
    endloop
  endfacet
  facet normal 0 0.956941 0.290282
    outer loop
      vertex 0 -1.86349 -0.370671
      vertex 4.5 -1.75537 -0.727098
      vertex 0 -1.75537 -0.727098
    endloop
  endfacet
  facet normal 0 0.956941 0.290282
    outer loop
      vertex 10 -1.75537 -0.727098
      vertex 5.5 -1.86349 -0.370671
      vertex 10 -1.86349 -0.370671
    endloop
  endfacet
  facet normal 0 0.956941 0.290282
    outer loop
      vertex 5.5 -1.86349 -0.370671
      vertex 10 -1.75537 -0.727098
      vertex 5.5 -1.75537 -0.727098
    endloop
  endfacet
  facet normal 0 -0.77301 0.634394
    outer loop
      vertex 0 1.3435 -1.3435
      vertex 4.5 1.57979 -1.05558
      vertex 0 1.57979 -1.05558
    endloop
  endfacet
  facet normal 0 -0.77301 0.634394
    outer loop
      vertex 4.5 1.57979 -1.05558
      vertex 0 1.3435 -1.3435
      vertex 4.5 1.3435 -1.3435
    endloop
  endfacet
  facet normal 0 -0.77301 0.634394
    outer loop
      vertex 5.5 1.3435 -1.3435
      vertex 10 1.57979 -1.05558
      vertex 5.5 1.57979 -1.05558
    endloop
  endfacet
  facet normal 0 -0.77301 0.634394
    outer loop
      vertex 10 1.57979 -1.05558
      vertex 5.5 1.3435 -1.3435
      vertex 10 1.3435 -1.3435
    endloop
  endfacet
  facet normal 0 0.995184 -0.0980227
    outer loop
      vertex 4.5 -1.9 0
      vertex 0 -1.86349 0.370671
      vertex 4.5 -1.86349 0.370671
    endloop
  endfacet
  facet normal 0 0.995184 -0.0980227
    outer loop
      vertex 0 -1.86349 0.370671
      vertex 4.5 -1.9 0
      vertex 0 -1.9 0
    endloop
  endfacet
  facet normal 0 0.995184 -0.0980227
    outer loop
      vertex 10 -1.9 0
      vertex 5.5 -1.86349 0.370671
      vertex 10 -1.86349 0.370671
    endloop
  endfacet
  facet normal 0 0.995184 -0.0980227
    outer loop
      vertex 5.5 -1.86349 0.370671
      vertex 10 -1.9 0
      vertex 5.5 -1.9 0
    endloop
  endfacet
  facet normal 0 0 -1
    outer loop
      vertex 4.5 -1.71173 2.96481
      vertex 5.5 5 2.96481
      vertex 5.5 -1.71173 2.96481
    endloop
  endfacet
  facet normal -0 0 -1
    outer loop
      vertex 5.5 5 2.96481
      vertex 4.5 -1.71173 2.96481
      vertex 4.5 5 2.96481
    endloop
  endfacet
  facet normal 0 0.866026 0.499999
    outer loop
      vertex 5.5 -1.71173 -2.96481
      vertex 4.5 -3.42346 0
      vertex 5.5 -3.42346 0
    endloop
  endfacet
  facet normal 0 0.866026 0.499999
    outer loop
      vertex 4.5 -3.42346 0
      vertex 5.5 -1.71173 -2.96481
      vertex 4.5 -1.71173 -2.96481
    endloop
  endfacet
  facet normal -0 0 1
    outer loop
      vertex 4.5 5 -2.96481
      vertex 5.5 -1.71173 -2.96481
      vertex 5.5 5 -2.96481
    endloop
  endfacet
  facet normal 0 0 1
    outer loop
      vertex 5.5 -1.71173 -2.96481
      vertex 4.5 5 -2.96481
      vertex 4.5 -1.71173 -2.96481
    endloop
  endfacet
  facet normal 1 0 0
    outer loop
      vertex 4.5 5 2.96481
      vertex 4.5 1.9 0
      vertex 4.5 5 -2.96481
    endloop
  endfacet
  facet normal 1 0 0
    outer loop
      vertex 4.5 5 2.96481
      vertex 4.5 1.86349 0.370671
      vertex 4.5 1.9 0
    endloop
  endfacet
  facet normal 1 0 0
    outer loop
      vertex 4.5 5 2.96481
      vertex 4.5 1.75537 0.727098
      vertex 4.5 1.86349 0.370671
    endloop
  endfacet
  facet normal 1 0 0
    outer loop
      vertex 4.5 5 2.96481
      vertex 4.5 1.57979 1.05558
      vertex 4.5 1.75537 0.727098
    endloop
  endfacet
  facet normal 1 0 0
    outer loop
      vertex 4.5 5 2.96481
      vertex 4.5 1.3435 1.3435
      vertex 4.5 1.57979 1.05558
    endloop
  endfacet
  facet normal 1 0 0
    outer loop
      vertex 4.5 5 2.96481
      vertex 4.5 1.05558 1.57979
      vertex 4.5 1.3435 1.3435
    endloop
  endfacet
  facet normal 1 0 0
    outer loop
      vertex 4.5 5 2.96481
      vertex 4.5 0.727098 1.75537
      vertex 4.5 1.05558 1.57979
    endloop
  endfacet
  facet normal 1 0 0
    outer loop
      vertex 4.5 5 2.96481
      vertex 4.5 0.370671 1.86349
      vertex 4.5 0.727098 1.75537
    endloop
  endfacet
  facet normal 1 -0 0
    outer loop
      vertex 4.5 -1.71173 2.96481
      vertex 4.5 0.370671 1.86349
      vertex 4.5 5 2.96481
    endloop
  endfacet
  facet normal 1 0 0
    outer loop
      vertex 4.5 0.370671 1.86349
      vertex 4.5 -1.71173 2.96481
      vertex 4.5 0 1.9
    endloop
  endfacet
  facet normal 1 0 0
    outer loop
      vertex 4.5 0 1.9
      vertex 4.5 -1.71173 2.96481
      vertex 4.5 -0.370671 1.86349
    endloop
  endfacet
  facet normal 1 0 0
    outer loop
      vertex 4.5 -1.71173 2.96481
      vertex 4.5 -0.727098 1.75537
      vertex 4.5 -0.370671 1.86349
    endloop
  endfacet
  facet normal 1 0 0
    outer loop
      vertex 4.5 -1.71173 2.96481
      vertex 4.5 -1.05558 1.57979
      vertex 4.5 -0.727098 1.75537
    endloop
  endfacet
  facet normal 1 0 0
    outer loop
      vertex 4.5 -1.71173 2.96481
      vertex 4.5 -1.3435 1.3435
      vertex 4.5 -1.05558 1.57979
    endloop
  endfacet
  facet normal 1 0 0
    outer loop
      vertex 4.5 -1.71173 2.96481
      vertex 4.5 -1.57979 1.05558
      vertex 4.5 -1.3435 1.3435
    endloop
  endfacet
  facet normal 1 0 0
    outer loop
      vertex 4.5 -3.42346 0
      vertex 4.5 -1.57979 1.05558
      vertex 4.5 -1.71173 2.96481
    endloop
  endfacet
  facet normal 1 0 0
    outer loop
      vertex 4.5 -1.57979 1.05558
      vertex 4.5 -3.42346 0
      vertex 4.5 -1.75537 0.727098
    endloop
  endfacet
  facet normal 1 0 0
    outer loop
      vertex 4.5 -1.75537 0.727098
      vertex 4.5 -3.42346 0
      vertex 4.5 -1.86349 0.370671
    endloop
  endfacet
  facet normal 1 0 0
    outer loop
      vertex 4.5 -1.86349 0.370671
      vertex 4.5 -3.42346 0
      vertex 4.5 -1.9 0
    endloop
  endfacet
  facet normal 1 -0 0
    outer loop
      vertex 4.5 1.86349 -0.370671
      vertex 4.5 5 -2.96481
      vertex 4.5 1.9 0
    endloop
  endfacet
  facet normal 1 -0 0
    outer loop
      vertex 4.5 1.75537 -0.727098
      vertex 4.5 5 -2.96481
      vertex 4.5 1.86349 -0.370671
    endloop
  endfacet
  facet normal 1 -0 0
    outer loop
      vertex 4.5 1.57979 -1.05558
      vertex 4.5 5 -2.96481
      vertex 4.5 1.75537 -0.727098
    endloop
  endfacet
  facet normal 1 -0 0
    outer loop
      vertex 4.5 1.3435 -1.3435
      vertex 4.5 5 -2.96481
      vertex 4.5 1.57979 -1.05558
    endloop
  endfacet
  facet normal 1 -0 0
    outer loop
      vertex 4.5 1.05558 -1.57979
      vertex 4.5 5 -2.96481
      vertex 4.5 1.3435 -1.3435
    endloop
  endfacet
  facet normal 1 -0 0
    outer loop
      vertex 4.5 0.727098 -1.75537
      vertex 4.5 5 -2.96481
      vertex 4.5 1.05558 -1.57979
    endloop
  endfacet
  facet normal 1 -0 0
    outer loop
      vertex 4.5 0.370671 -1.86349
      vertex 4.5 5 -2.96481
      vertex 4.5 0.727098 -1.75537
    endloop
  endfacet
  facet normal 1 0 0
    outer loop
      vertex 4.5 -1.71173 -2.96481
      vertex 4.5 0.370671 -1.86349
      vertex 4.5 0 -1.9
    endloop
  endfacet
  facet normal 1 0 0
    outer loop
      vertex 4.5 -1.71173 -2.96481
      vertex 4.5 0 -1.9
      vertex 4.5 -0.370671 -1.86349
    endloop
  endfacet
  facet normal 1 0 0
    outer loop
      vertex 4.5 0.370671 -1.86349
      vertex 4.5 -1.71173 -2.96481
      vertex 4.5 5 -2.96481
    endloop
  endfacet
  facet normal 1 0 0
    outer loop
      vertex 4.5 -0.727098 -1.75537
      vertex 4.5 -1.71173 -2.96481
      vertex 4.5 -0.370671 -1.86349
    endloop
  endfacet
  facet normal 1 0 0
    outer loop
      vertex 4.5 -1.05558 -1.57979
      vertex 4.5 -1.71173 -2.96481
      vertex 4.5 -0.727098 -1.75537
    endloop
  endfacet
  facet normal 1 0 0
    outer loop
      vertex 4.5 -1.3435 -1.3435
      vertex 4.5 -1.71173 -2.96481
      vertex 4.5 -1.05558 -1.57979
    endloop
  endfacet
  facet normal 1 0 0
    outer loop
      vertex 4.5 -1.57979 -1.05558
      vertex 4.5 -1.71173 -2.96481
      vertex 4.5 -1.3435 -1.3435
    endloop
  endfacet
  facet normal 1 0 0
    outer loop
      vertex 4.5 -3.42346 0
      vertex 4.5 -1.57979 -1.05558
      vertex 4.5 -1.75537 -0.727098
    endloop
  endfacet
  facet normal 1 0 0
    outer loop
      vertex 4.5 -3.42346 0
      vertex 4.5 -1.75537 -0.727098
      vertex 4.5 -1.86349 -0.370671
    endloop
  endfacet
  facet normal 1 -0 0
    outer loop
      vertex 4.5 -3.42346 0
      vertex 4.5 -1.86349 -0.370671
      vertex 4.5 -1.9 0
    endloop
  endfacet
  facet normal 1 0 0
    outer loop
      vertex 4.5 -1.57979 -1.05558
      vertex 4.5 -3.42346 0
      vertex 4.5 -1.71173 -2.96481
    endloop
  endfacet
  facet normal -1 0 0
    outer loop
      vertex 5.5 5 -2.96481
      vertex 5.5 1.9 0
      vertex 5.5 5 2.96481
    endloop
  endfacet
  facet normal -1 0 0
    outer loop
      vertex 5.5 5 -2.96481
      vertex 5.5 1.86349 -0.370671
      vertex 5.5 1.9 0
    endloop
  endfacet
  facet normal -1 0 0
    outer loop
      vertex 5.5 5 -2.96481
      vertex 5.5 1.75537 -0.727098
      vertex 5.5 1.86349 -0.370671
    endloop
  endfacet
  facet normal -1 0 0
    outer loop
      vertex 5.5 5 -2.96481
      vertex 5.5 1.57979 -1.05558
      vertex 5.5 1.75537 -0.727098
    endloop
  endfacet
  facet normal -1 0 0
    outer loop
      vertex 5.5 5 -2.96481
      vertex 5.5 1.3435 -1.3435
      vertex 5.5 1.57979 -1.05558
    endloop
  endfacet
  facet normal -1 0 0
    outer loop
      vertex 5.5 5 -2.96481
      vertex 5.5 1.05558 -1.57979
      vertex 5.5 1.3435 -1.3435
    endloop
  endfacet
  facet normal -1 0 0
    outer loop
      vertex 5.5 5 -2.96481
      vertex 5.5 0.727098 -1.75537
      vertex 5.5 1.05558 -1.57979
    endloop
  endfacet
  facet normal -1 0 0
    outer loop
      vertex 5.5 5 -2.96481
      vertex 5.5 0.370671 -1.86349
      vertex 5.5 0.727098 -1.75537
    endloop
  endfacet
  facet normal -1 0 0
    outer loop
      vertex 5.5 -1.71173 -2.96481
      vertex 5.5 0.370671 -1.86349
      vertex 5.5 5 -2.96481
    endloop
  endfacet
  facet normal -1 0 0
    outer loop
      vertex 5.5 0.370671 -1.86349
      vertex 5.5 -1.71173 -2.96481
      vertex 5.5 0 -1.9
    endloop
  endfacet
  facet normal -1 -0 0
    outer loop
      vertex 5.5 0 -1.9
      vertex 5.5 -1.71173 -2.96481
      vertex 5.5 -0.370671 -1.86349
    endloop
  endfacet
  facet normal -1 0 0
    outer loop
      vertex 5.5 -1.71173 -2.96481
      vertex 5.5 -0.727098 -1.75537
      vertex 5.5 -0.370671 -1.86349
    endloop
  endfacet
  facet normal -1 0 0
    outer loop
      vertex 5.5 -1.71173 -2.96481
      vertex 5.5 -1.05558 -1.57979
      vertex 5.5 -0.727098 -1.75537
    endloop
  endfacet
  facet normal -1 0 0
    outer loop
      vertex 5.5 -1.71173 -2.96481
      vertex 5.5 -1.3435 -1.3435
      vertex 5.5 -1.05558 -1.57979
    endloop
  endfacet
  facet normal -1 0 0
    outer loop
      vertex 5.5 -1.71173 -2.96481
      vertex 5.5 -1.57979 -1.05558
      vertex 5.5 -1.3435 -1.3435
    endloop
  endfacet
  facet normal -1 0 0
    outer loop
      vertex 5.5 -3.42346 0
      vertex 5.5 -1.57979 -1.05558
      vertex 5.5 -1.71173 -2.96481
    endloop
  endfacet
  facet normal -1 0 0
    outer loop
      vertex 5.5 -1.57979 -1.05558
      vertex 5.5 -3.42346 0
      vertex 5.5 -1.75537 -0.727098
    endloop
  endfacet
  facet normal -1 0 0
    outer loop
      vertex 5.5 -1.75537 -0.727098
      vertex 5.5 -3.42346 0
      vertex 5.5 -1.86349 -0.370671
    endloop
  endfacet
  facet normal -1 0 0
    outer loop
      vertex 5.5 -1.86349 -0.370671
      vertex 5.5 -3.42346 0
      vertex 5.5 -1.9 0
    endloop
  endfacet
  facet normal -1 0 0
    outer loop
      vertex 5.5 1.86349 0.370671
      vertex 5.5 5 2.96481
      vertex 5.5 1.9 0
    endloop
  endfacet
  facet normal -1 0 0
    outer loop
      vertex 5.5 1.75537 0.727098
      vertex 5.5 5 2.96481
      vertex 5.5 1.86349 0.370671
    endloop
  endfacet
  facet normal -1 0 0
    outer loop
      vertex 5.5 1.57979 1.05558
      vertex 5.5 5 2.96481
      vertex 5.5 1.75537 0.727098
    endloop
  endfacet
  facet normal -1 0 0
    outer loop
      vertex 5.5 1.3435 1.3435
      vertex 5.5 5 2.96481
      vertex 5.5 1.57979 1.05558
    endloop
  endfacet
  facet normal -1 0 0
    outer loop
      vertex 5.5 1.05558 1.57979
      vertex 5.5 5 2.96481
      vertex 5.5 1.3435 1.3435
    endloop
  endfacet
  facet normal -1 0 0
    outer loop
      vertex 5.5 0.727098 1.75537
      vertex 5.5 5 2.96481
      vertex 5.5 1.05558 1.57979
    endloop
  endfacet
  facet normal -1 0 0
    outer loop
      vertex 5.5 0.370671 1.86349
      vertex 5.5 5 2.96481
      vertex 5.5 0.727098 1.75537
    endloop
  endfacet
  facet normal -1 0 0
    outer loop
      vertex 5.5 -1.71173 2.96481
      vertex 5.5 0.370671 1.86349
      vertex 5.5 0 1.9
    endloop
  endfacet
  facet normal -1 0 0
    outer loop
      vertex 5.5 -1.71173 2.96481
      vertex 5.5 0 1.9
      vertex 5.5 -0.370671 1.86349
    endloop
  endfacet
  facet normal -1 0 0
    outer loop
      vertex 5.5 0.370671 1.86349
      vertex 5.5 -1.71173 2.96481
      vertex 5.5 5 2.96481
    endloop
  endfacet
  facet normal -1 0 0
    outer loop
      vertex 5.5 -0.727098 1.75537
      vertex 5.5 -1.71173 2.96481
      vertex 5.5 -0.370671 1.86349
    endloop
  endfacet
  facet normal -1 0 0
    outer loop
      vertex 5.5 -1.05558 1.57979
      vertex 5.5 -1.71173 2.96481
      vertex 5.5 -0.727098 1.75537
    endloop
  endfacet
  facet normal -1 0 0
    outer loop
      vertex 5.5 -1.3435 1.3435
      vertex 5.5 -1.71173 2.96481
      vertex 5.5 -1.05558 1.57979
    endloop
  endfacet
  facet normal -1 0 0
    outer loop
      vertex 5.5 -1.57979 1.05558
      vertex 5.5 -1.71173 2.96481
      vertex 5.5 -1.3435 1.3435
    endloop
  endfacet
  facet normal -1 0 0
    outer loop
      vertex 5.5 -3.42346 0
      vertex 5.5 -1.57979 1.05558
      vertex 5.5 -1.75537 0.727098
    endloop
  endfacet
  facet normal -1 0 0
    outer loop
      vertex 5.5 -3.42346 0
      vertex 5.5 -1.75537 0.727098
      vertex 5.5 -1.86349 0.370671
    endloop
  endfacet
  facet normal -1 0 0
    outer loop
      vertex 5.5 -3.42346 0
      vertex 5.5 -1.86349 0.370671
      vertex 5.5 -1.9 0
    endloop
  endfacet
  facet normal -1 -0 0
    outer loop
      vertex 5.5 -1.57979 1.05558
      vertex 5.5 -3.42346 0
      vertex 5.5 -1.71173 2.96481
    endloop
  endfacet
  facet normal 0 0.866026 -0.499999
    outer loop
      vertex 5.5 -3.42346 0
      vertex 4.5 -1.71173 2.96481
      vertex 5.5 -1.71173 2.96481
    endloop
  endfacet
  facet normal 0 0.866026 -0.499999
    outer loop
      vertex 4.5 -1.71173 2.96481
      vertex 5.5 -3.42346 0
      vertex 4.5 -3.42346 0
    endloop
  endfacet
  facet normal -1 0 0
    outer loop
      vertex 10 62 -7
      vertex 10 72 8
      vertex 10 72 -7
    endloop
  endfacet
  facet normal -1 -0 0
    outer loop
      vertex 10 72 8
      vertex 10 62 -7
      vertex 10 62 8
    endloop
  endfacet
  facet normal -1 0 0
    outer loop
      vertex 10 -15 -7
      vertex 10 -5 8
      vertex 10 -5 -7
    endloop
  endfacet
  facet normal -1 -0 0
    outer loop
      vertex 10 -5 8
      vertex 10 -15 -7
      vertex 10 -15 8
    endloop
  endfacet
  facet normal -1 0 0
    outer loop
      vertex 10 5 -7
      vertex 10 52 8
      vertex 10 52 -7
    endloop
  endfacet
  facet normal -1 -0 0
    outer loop
      vertex 10 52 8
      vertex 10 5 -7
      vertex 10 5 8
    endloop
  endfacet
  facet normal -1 0 0
    outer loop
      vertex 10 1.86349 -0.370671
      vertex 10 1.86349 0.370671
      vertex 10 1.9 0
    endloop
  endfacet
  facet normal -1 0 0
    outer loop
      vertex 10 1.75537 -0.727098
      vertex 10 1.86349 0.370671
      vertex 10 1.86349 -0.370671
    endloop
  endfacet
  facet normal -1 0 0
    outer loop
      vertex 10 1.75537 -0.727098
      vertex 10 1.75537 0.727098
      vertex 10 1.86349 0.370671
    endloop
  endfacet
  facet normal -1 0 0
    outer loop
      vertex 10 1.57979 -1.05558
      vertex 10 1.75537 0.727098
      vertex 10 1.75537 -0.727098
    endloop
  endfacet
  facet normal -1 0 0
    outer loop
      vertex 10 1.57979 -1.05558
      vertex 10 1.57979 1.05558
      vertex 10 1.75537 0.727098
    endloop
  endfacet
  facet normal -1 0 0
    outer loop
      vertex 10 1.3435 -1.3435
      vertex 10 1.57979 1.05558
      vertex 10 1.57979 -1.05558
    endloop
  endfacet
  facet normal -1 0 0
    outer loop
      vertex 10 1.3435 -1.3435
      vertex 10 1.3435 1.3435
      vertex 10 1.57979 1.05558
    endloop
  endfacet
  facet normal -1 0 0
    outer loop
      vertex 10 1.05558 -1.57979
      vertex 10 1.3435 1.3435
      vertex 10 1.3435 -1.3435
    endloop
  endfacet
  facet normal -1 0 0
    outer loop
      vertex 10 1.05558 -1.57979
      vertex 10 1.05558 1.57979
      vertex 10 1.3435 1.3435
    endloop
  endfacet
  facet normal -1 0 0
    outer loop
      vertex 10 0.727098 -1.75537
      vertex 10 1.05558 1.57979
      vertex 10 1.05558 -1.57979
    endloop
  endfacet
  facet normal -1 0 0
    outer loop
      vertex 10 0.727098 -1.75537
      vertex 10 0.727098 1.75537
      vertex 10 1.05558 1.57979
    endloop
  endfacet
  facet normal -1 0 0
    outer loop
      vertex 10 0.370671 -1.86349
      vertex 10 0.727098 1.75537
      vertex 10 0.727098 -1.75537
    endloop
  endfacet
  facet normal -1 0 0
    outer loop
      vertex 10 0.370671 -1.86349
      vertex 10 0.370671 1.86349
      vertex 10 0.727098 1.75537
    endloop
  endfacet
  facet normal -1 0 0
    outer loop
      vertex 10 0 -1.9
      vertex 10 0.370671 1.86349
      vertex 10 0.370671 -1.86349
    endloop
  endfacet
  facet normal -1 0 0
    outer loop
      vertex 10 0 -1.9
      vertex 10 0 1.9
      vertex 10 0.370671 1.86349
    endloop
  endfacet
  facet normal -1 0 0
    outer loop
      vertex 10 -0.370671 -1.86349
      vertex 10 0 1.9
      vertex 10 0 -1.9
    endloop
  endfacet
  facet normal -1 0 0
    outer loop
      vertex 10 -0.370671 -1.86349
      vertex 10 -0.370671 1.86349
      vertex 10 0 1.9
    endloop
  endfacet
  facet normal -1 0 0
    outer loop
      vertex 10 -0.727098 -1.75537
      vertex 10 -0.370671 1.86349
      vertex 10 -0.370671 -1.86349
    endloop
  endfacet
  facet normal -1 0 0
    outer loop
      vertex 10 -0.727098 -1.75537
      vertex 10 -0.727098 1.75537
      vertex 10 -0.370671 1.86349
    endloop
  endfacet
  facet normal -1 0 0
    outer loop
      vertex 10 -1.05558 -1.57979
      vertex 10 -0.727098 1.75537
      vertex 10 -0.727098 -1.75537
    endloop
  endfacet
  facet normal -1 0 0
    outer loop
      vertex 10 -1.05558 -1.57979
      vertex 10 -1.05558 1.57979
      vertex 10 -0.727098 1.75537
    endloop
  endfacet
  facet normal -1 0 0
    outer loop
      vertex 10 -1.3435 -1.3435
      vertex 10 -1.05558 1.57979
      vertex 10 -1.05558 -1.57979
    endloop
  endfacet
  facet normal -1 0 0
    outer loop
      vertex 10 -1.3435 -1.3435
      vertex 10 -1.3435 1.3435
      vertex 10 -1.05558 1.57979
    endloop
  endfacet
  facet normal -1 0 0
    outer loop
      vertex 10 -1.57979 -1.05558
      vertex 10 -1.3435 1.3435
      vertex 10 -1.3435 -1.3435
    endloop
  endfacet
  facet normal -1 0 0
    outer loop
      vertex 10 -1.57979 -1.05558
      vertex 10 -1.57979 1.05558
      vertex 10 -1.3435 1.3435
    endloop
  endfacet
  facet normal -1 0 0
    outer loop
      vertex 10 -1.75537 -0.727098
      vertex 10 -1.57979 1.05558
      vertex 10 -1.57979 -1.05558
    endloop
  endfacet
  facet normal -1 0 0
    outer loop
      vertex 10 -1.75537 -0.727098
      vertex 10 -1.75537 0.727098
      vertex 10 -1.57979 1.05558
    endloop
  endfacet
  facet normal -1 0 0
    outer loop
      vertex 10 -1.86349 -0.370671
      vertex 10 -1.75537 0.727098
      vertex 10 -1.75537 -0.727098
    endloop
  endfacet
  facet normal -1 0 0
    outer loop
      vertex 10 -1.86349 -0.370671
      vertex 10 -1.86349 0.370671
      vertex 10 -1.75537 0.727098
    endloop
  endfacet
  facet normal -1 0 -0
    outer loop
      vertex 10 -1.86349 0.370671
      vertex 10 -1.86349 -0.370671
      vertex 10 -1.9 0
    endloop
  endfacet
  facet normal -1 0 0
    outer loop
      vertex 10 58.8635 -0.370671
      vertex 10 58.8635 0.370671
      vertex 10 58.9 0
    endloop
  endfacet
  facet normal -1 0 0
    outer loop
      vertex 10 58.7554 -0.727098
      vertex 10 58.8635 0.370671
      vertex 10 58.8635 -0.370671
    endloop
  endfacet
  facet normal -1 0 0
    outer loop
      vertex 10 58.7554 -0.727098
      vertex 10 58.7554 0.727098
      vertex 10 58.8635 0.370671
    endloop
  endfacet
  facet normal -1 0 0
    outer loop
      vertex 10 58.5798 -1.05558
      vertex 10 58.7554 0.727098
      vertex 10 58.7554 -0.727098
    endloop
  endfacet
  facet normal -1 0 0
    outer loop
      vertex 10 58.5798 -1.05558
      vertex 10 58.5798 1.05558
      vertex 10 58.7554 0.727098
    endloop
  endfacet
  facet normal -1 0 0
    outer loop
      vertex 10 58.3435 -1.3435
      vertex 10 58.5798 1.05558
      vertex 10 58.5798 -1.05558
    endloop
  endfacet
  facet normal -1 0 0
    outer loop
      vertex 10 58.3435 -1.3435
      vertex 10 58.3435 1.3435
      vertex 10 58.5798 1.05558
    endloop
  endfacet
  facet normal -1 0 0
    outer loop
      vertex 10 58.0556 -1.57979
      vertex 10 58.3435 1.3435
      vertex 10 58.3435 -1.3435
    endloop
  endfacet
  facet normal -1 0 0
    outer loop
      vertex 10 58.0556 -1.57979
      vertex 10 58.0556 1.57979
      vertex 10 58.3435 1.3435
    endloop
  endfacet
  facet normal -1 0 0
    outer loop
      vertex 10 57.7271 -1.75537
      vertex 10 58.0556 1.57979
      vertex 10 58.0556 -1.57979
    endloop
  endfacet
  facet normal -1 0 0
    outer loop
      vertex 10 57.7271 -1.75537
      vertex 10 57.7271 1.75537
      vertex 10 58.0556 1.57979
    endloop
  endfacet
  facet normal -1 0 0
    outer loop
      vertex 10 57.3707 -1.86349
      vertex 10 57.7271 1.75537
      vertex 10 57.7271 -1.75537
    endloop
  endfacet
  facet normal -1 0 0
    outer loop
      vertex 10 57.3707 -1.86349
      vertex 10 57.3707 1.86349
      vertex 10 57.7271 1.75537
    endloop
  endfacet
  facet normal -1 0 0
    outer loop
      vertex 10 57 -1.9
      vertex 10 57.3707 1.86349
      vertex 10 57.3707 -1.86349
    endloop
  endfacet
  facet normal -1 0 0
    outer loop
      vertex 10 57 -1.9
      vertex 10 57 1.9
      vertex 10 57.3707 1.86349
    endloop
  endfacet
  facet normal -1 0 0
    outer loop
      vertex 10 56.6293 -1.86349
      vertex 10 57 1.9
      vertex 10 57 -1.9
    endloop
  endfacet
  facet normal -1 0 0
    outer loop
      vertex 10 56.6293 -1.86349
      vertex 10 56.6293 1.86349
      vertex 10 57 1.9
    endloop
  endfacet
  facet normal -1 0 0
    outer loop
      vertex 10 56.2729 -1.75537
      vertex 10 56.6293 1.86349
      vertex 10 56.6293 -1.86349
    endloop
  endfacet
  facet normal -1 0 0
    outer loop
      vertex 10 56.2729 -1.75537
      vertex 10 56.2729 1.75537
      vertex 10 56.6293 1.86349
    endloop
  endfacet
  facet normal -1 0 0
    outer loop
      vertex 10 55.9444 -1.57979
      vertex 10 56.2729 1.75537
      vertex 10 56.2729 -1.75537
    endloop
  endfacet
  facet normal -1 0 0
    outer loop
      vertex 10 55.9444 -1.57979
      vertex 10 55.9444 1.57979
      vertex 10 56.2729 1.75537
    endloop
  endfacet
  facet normal -1 0 0
    outer loop
      vertex 10 55.6565 -1.3435
      vertex 10 55.9444 1.57979
      vertex 10 55.9444 -1.57979
    endloop
  endfacet
  facet normal -1 0 0
    outer loop
      vertex 10 55.6565 -1.3435
      vertex 10 55.6565 1.3435
      vertex 10 55.9444 1.57979
    endloop
  endfacet
  facet normal -1 0 0
    outer loop
      vertex 10 55.4202 -1.05558
      vertex 10 55.6565 1.3435
      vertex 10 55.6565 -1.3435
    endloop
  endfacet
  facet normal -1 0 0
    outer loop
      vertex 10 55.4202 -1.05558
      vertex 10 55.4202 1.05558
      vertex 10 55.6565 1.3435
    endloop
  endfacet
  facet normal -1 0 0
    outer loop
      vertex 10 55.2446 -0.727098
      vertex 10 55.4202 1.05558
      vertex 10 55.4202 -1.05558
    endloop
  endfacet
  facet normal -1 0 0
    outer loop
      vertex 10 55.2446 -0.727098
      vertex 10 55.2446 0.727098
      vertex 10 55.4202 1.05558
    endloop
  endfacet
  facet normal -1 0 0
    outer loop
      vertex 10 55.1365 -0.370671
      vertex 10 55.2446 0.727098
      vertex 10 55.2446 -0.727098
    endloop
  endfacet
  facet normal -1 0 0
    outer loop
      vertex 10 55.1365 -0.370671
      vertex 10 55.1365 0.370671
      vertex 10 55.2446 0.727098
    endloop
  endfacet
  facet normal -1 0 -0
    outer loop
      vertex 10 55.1365 0.370671
      vertex 10 55.1365 -0.370671
      vertex 10 55.1 0
    endloop
  endfacet
  facet normal -0 0 1
    outer loop
      vertex 0 5 8
      vertex 10 -5 8
      vertex 10 5 8
    endloop
  endfacet
  facet normal 0 0 1
    outer loop
      vertex 10 -5 8
      vertex 0 5 8
      vertex 0 -5 8
    endloop
  endfacet
  facet normal -0 0 1
    outer loop
      vertex 0 62 8
      vertex 10 52 8
      vertex 10 62 8
    endloop
  endfacet
  facet normal 0 0 1
    outer loop
      vertex 10 52 8
      vertex 0 62 8
      vertex 0 52 8
    endloop
  endfacet
  facet normal 0 0 1
    outer loop
      vertex 28 72 8
      vertex 12 69 8
      vertex 28 69 8
    endloop
  endfacet
  facet normal -0 0 1
    outer loop
      vertex 10 72 8
      vertex 12 69 8
      vertex 28 72 8
    endloop
  endfacet
  facet normal 0 0 1
    outer loop
      vertex 10 62 8
      vertex 12 69 8
      vertex 10 72 8
    endloop
  endfacet
  facet normal 0 0 1
    outer loop
      vertex 10 52 8
      vertex 12 69 8
      vertex 10 62 8
    endloop
  endfacet
  facet normal 0 0 1
    outer loop
      vertex 10 5 8
      vertex 12 69 8
      vertex 10 52 8
    endloop
  endfacet
  facet normal 0 0 1
    outer loop
      vertex 12 69 8
      vertex 10 5 8
      vertex 12 -15 8
    endloop
  endfacet
  facet normal -0 0 1
    outer loop
      vertex 10 -5 8
      vertex 12 -15 8
      vertex 10 5 8
    endloop
  endfacet
  facet normal 0 0 1
    outer loop
      vertex 12 -15 8
      vertex 10 -5 8
      vertex 10 -15 8
    endloop
  endfacet
  facet normal 0 0 -1
    outer loop
      vertex 0 52 -7
      vertex 10 62 -7
      vertex 10 52 -7
    endloop
  endfacet
  facet normal -0 0 -1
    outer loop
      vertex 10 62 -7
      vertex 0 52 -7
      vertex 0 62 -7
    endloop
  endfacet
  facet normal 0 0 -1
    outer loop
      vertex 0 -5 -7
      vertex 10 5 -7
      vertex 10 -5 -7
    endloop
  endfacet
  facet normal -0 0 -1
    outer loop
      vertex 10 5 -7
      vertex 0 -5 -7
      vertex 0 5 -7
    endloop
  endfacet
  facet normal 0 0 -1
    outer loop
      vertex 10 -5 -7
      vertex 28 -15 -7
      vertex 10 -15 -7
    endloop
  endfacet
  facet normal 0 0 -1
    outer loop
      vertex 10 5 -7
      vertex 28 -15 -7
      vertex 10 -5 -7
    endloop
  endfacet
  facet normal 0 0 -1
    outer loop
      vertex 28 -15 -7
      vertex 10 5 -7
      vertex 28 72 -7
    endloop
  endfacet
  facet normal 0 0 -1
    outer loop
      vertex 10 52 -7
      vertex 28 72 -7
      vertex 10 5 -7
    endloop
  endfacet
  facet normal 0 0 -1
    outer loop
      vertex 10 62 -7
      vertex 28 72 -7
      vertex 10 52 -7
    endloop
  endfacet
  facet normal -0 0 -1
    outer loop
      vertex 28 72 -7
      vertex 10 62 -7
      vertex 10 72 -7
    endloop
  endfacet
  facet normal -1 0 0
    outer loop
      vertex 0 5 -7
      vertex 0 1.9 0
      vertex 0 5 8
    endloop
  endfacet
  facet normal -1 0 0
    outer loop
      vertex 0 5 -7
      vertex 0 1.86349 -0.370671
      vertex 0 1.9 0
    endloop
  endfacet
  facet normal -1 0 0
    outer loop
      vertex 0 5 -7
      vertex 0 1.75537 -0.727098
      vertex 0 1.86349 -0.370671
    endloop
  endfacet
  facet normal -1 0 0
    outer loop
      vertex 0 5 -7
      vertex 0 1.57979 -1.05558
      vertex 0 1.75537 -0.727098
    endloop
  endfacet
  facet normal -1 0 0
    outer loop
      vertex 0 5 -7
      vertex 0 1.3435 -1.3435
      vertex 0 1.57979 -1.05558
    endloop
  endfacet
  facet normal -1 0 0
    outer loop
      vertex 0 5 -7
      vertex 0 1.05558 -1.57979
      vertex 0 1.3435 -1.3435
    endloop
  endfacet
  facet normal -1 0 0
    outer loop
      vertex 0 5 -7
      vertex 0 0.727098 -1.75537
      vertex 0 1.05558 -1.57979
    endloop
  endfacet
  facet normal -1 0 0
    outer loop
      vertex 0 5 -7
      vertex 0 0.370671 -1.86349
      vertex 0 0.727098 -1.75537
    endloop
  endfacet
  facet normal -1 0 0
    outer loop
      vertex 0 5 -7
      vertex 0 0 -1.9
      vertex 0 0.370671 -1.86349
    endloop
  endfacet
  facet normal -1 0 0
    outer loop
      vertex 0 -5 -7
      vertex 0 0 -1.9
      vertex 0 5 -7
    endloop
  endfacet
  facet normal -1 -0 0
    outer loop
      vertex 0 0 -1.9
      vertex 0 -5 -7
      vertex 0 -0.370671 -1.86349
    endloop
  endfacet
  facet normal -1 -0 0
    outer loop
      vertex 0 -0.370671 -1.86349
      vertex 0 -5 -7
      vertex 0 -0.727098 -1.75537
    endloop
  endfacet
  facet normal -1 -0 0
    outer loop
      vertex 0 -0.727098 -1.75537
      vertex 0 -5 -7
      vertex 0 -1.05558 -1.57979
    endloop
  endfacet
  facet normal -1 -0 0
    outer loop
      vertex 0 -1.86349 -0.370671
      vertex 0 -5 -7
      vertex 0 -1.9 0
    endloop
  endfacet
  facet normal -1 -0 0
    outer loop
      vertex 0 -1.75537 -0.727098
      vertex 0 -5 -7
      vertex 0 -1.86349 -0.370671
    endloop
  endfacet
  facet normal -1 -0 0
    outer loop
      vertex 0 -1.57979 -1.05558
      vertex 0 -5 -7
      vertex 0 -1.75537 -0.727098
    endloop
  endfacet
  facet normal -1 -0 0
    outer loop
      vertex 0 -1.3435 -1.3435
      vertex 0 -5 -7
      vertex 0 -1.57979 -1.05558
    endloop
  endfacet
  facet normal -1 -0 0
    outer loop
      vertex 0 -1.05558 -1.57979
      vertex 0 -5 -7
      vertex 0 -1.3435 -1.3435
    endloop
  endfacet
  facet normal -1 0 0
    outer loop
      vertex 0 1.86349 0.370671
      vertex 0 5 8
      vertex 0 1.9 0
    endloop
  endfacet
  facet normal -1 0 0
    outer loop
      vertex 0 1.75537 0.727098
      vertex 0 5 8
      vertex 0 1.86349 0.370671
    endloop
  endfacet
  facet normal -1 0 0
    outer loop
      vertex 0 1.57979 1.05558
      vertex 0 5 8
      vertex 0 1.75537 0.727098
    endloop
  endfacet
  facet normal -1 0 0
    outer loop
      vertex 0 1.3435 1.3435
      vertex 0 5 8
      vertex 0 1.57979 1.05558
    endloop
  endfacet
  facet normal -1 0 0
    outer loop
      vertex 0 1.05558 1.57979
      vertex 0 5 8
      vertex 0 1.3435 1.3435
    endloop
  endfacet
  facet normal -1 0 0
    outer loop
      vertex 0 0.727098 1.75537
      vertex 0 5 8
      vertex 0 1.05558 1.57979
    endloop
  endfacet
  facet normal -1 0 0
    outer loop
      vertex 0 0.370671 1.86349
      vertex 0 5 8
      vertex 0 0.727098 1.75537
    endloop
  endfacet
  facet normal -1 0 0
    outer loop
      vertex 0 0 1.9
      vertex 0 5 8
      vertex 0 0.370671 1.86349
    endloop
  endfacet
  facet normal -1 0 0
    outer loop
      vertex 0 -5 8
      vertex 0 0 1.9
      vertex 0 -0.370671 1.86349
    endloop
  endfacet
  facet normal -1 0 0
    outer loop
      vertex 0 -5 8
      vertex 0 -0.370671 1.86349
      vertex 0 -0.727098 1.75537
    endloop
  endfacet
  facet normal -1 0 0
    outer loop
      vertex 0 -5 8
      vertex 0 -0.727098 1.75537
      vertex 0 -1.05558 1.57979
    endloop
  endfacet
  facet normal -1 0 0
    outer loop
      vertex 0 -5 8
      vertex 0 -1.05558 1.57979
      vertex 0 -1.3435 1.3435
    endloop
  endfacet
  facet normal -1 0 0
    outer loop
      vertex 0 -5 8
      vertex 0 -1.9 0
      vertex 0 -5 -7
    endloop
  endfacet
  facet normal -1 0 0
    outer loop
      vertex 0 -1.9 0
      vertex 0 -5 8
      vertex 0 -1.86349 0.370671
    endloop
  endfacet
  facet normal -1 0 0
    outer loop
      vertex 0 0 1.9
      vertex 0 -5 8
      vertex 0 5 8
    endloop
  endfacet
  facet normal -1 0 0
    outer loop
      vertex 0 -1.57979 1.05558
      vertex 0 -5 8
      vertex 0 -1.3435 1.3435
    endloop
  endfacet
  facet normal -1 0 0
    outer loop
      vertex 0 -1.75537 0.727098
      vertex 0 -5 8
      vertex 0 -1.57979 1.05558
    endloop
  endfacet
  facet normal -1 0 0
    outer loop
      vertex 0 -1.86349 0.370671
      vertex 0 -5 8
      vertex 0 -1.75537 0.727098
    endloop
  endfacet
  facet normal 0 1 0
    outer loop
      vertex 10 5 8
      vertex 5.5 5 2.96481
      vertex 0 5 8
    endloop
  endfacet
  facet normal 0 1 -0
    outer loop
      vertex 10 5 -7
      vertex 5.5 5 2.96481
      vertex 10 5 8
    endloop
  endfacet
  facet normal 0 1 0
    outer loop
      vertex 5.5 5 -2.96481
      vertex 10 5 -7
      vertex 4.5 5 -2.96481
    endloop
  endfacet
  facet normal 0 1 0
    outer loop
      vertex 5.5 5 2.96481
      vertex 10 5 -7
      vertex 5.5 5 -2.96481
    endloop
  endfacet
  facet normal 0 1 -0
    outer loop
      vertex 4.5 5 2.96481
      vertex 0 5 8
      vertex 5.5 5 2.96481
    endloop
  endfacet
  facet normal 0 1 0
    outer loop
      vertex 0 5 -7
      vertex 4.5 5 2.96481
      vertex 4.5 5 -2.96481
    endloop
  endfacet
  facet normal 0 1 0
    outer loop
      vertex 4.5 5 2.96481
      vertex 0 5 -7
      vertex 0 5 8
    endloop
  endfacet
  facet normal 0 1 0
    outer loop
      vertex 0 5 -7
      vertex 4.5 5 -2.96481
      vertex 10 5 -7
    endloop
  endfacet
  facet normal 0 -1 0
    outer loop
      vertex 0 -5 -7
      vertex 10 -5 8
      vertex 0 -5 8
    endloop
  endfacet
  facet normal 0 -1 -0
    outer loop
      vertex 10 -5 8
      vertex 0 -5 -7
      vertex 10 -5 -7
    endloop
  endfacet
  facet normal 0 0.290302 -0.956935
    outer loop
      vertex 0 56.2729 1.75537
      vertex 4.5 56.6293 1.86349
      vertex 4.5 56.2729 1.75537
    endloop
  endfacet
  facet normal 0 0.290302 -0.956935
    outer loop
      vertex 4.5 56.6293 1.86349
      vertex 0 56.2729 1.75537
      vertex 0 56.6293 1.86349
    endloop
  endfacet
  facet normal 0 0.290302 -0.956935
    outer loop
      vertex 5.5 56.2729 1.75537
      vertex 10 56.6293 1.86349
      vertex 10 56.2729 1.75537
    endloop
  endfacet
  facet normal 0 0.290302 -0.956935
    outer loop
      vertex 10 56.6293 1.86349
      vertex 5.5 56.2729 1.75537
      vertex 5.5 56.6293 1.86349
    endloop
  endfacet
  facet normal 0 -0.956956 -0.290233
    outer loop
      vertex 0 58.8635 0.370671
      vertex 4.5 58.7554 0.727098
      vertex 0 58.7554 0.727098
    endloop
  endfacet
  facet normal 0 -0.956956 -0.290233
    outer loop
      vertex 4.5 58.7554 0.727098
      vertex 0 58.8635 0.370671
      vertex 4.5 58.8635 0.370671
    endloop
  endfacet
  facet normal 0 -0.956956 -0.290233
    outer loop
      vertex 5.5 58.8635 0.370671
      vertex 10 58.7554 0.727098
      vertex 5.5 58.7554 0.727098
    endloop
  endfacet
  facet normal 0 -0.956956 -0.290233
    outer loop
      vertex 10 58.7554 0.727098
      vertex 5.5 58.8635 0.370671
      vertex 10 58.8635 0.370671
    endloop
  endfacet
  facet normal 0 -0.995187 -0.0979961
    outer loop
      vertex 0 58.9 0
      vertex 4.5 58.8635 0.370671
      vertex 0 58.8635 0.370671
    endloop
  endfacet
  facet normal 0 -0.995187 -0.0979961
    outer loop
      vertex 4.5 58.8635 0.370671
      vertex 0 58.9 0
      vertex 4.5 58.9 0
    endloop
  endfacet
  facet normal 0 -0.995187 -0.0979961
    outer loop
      vertex 5.5 58.9 0
      vertex 10 58.8635 0.370671
      vertex 5.5 58.8635 0.370671
    endloop
  endfacet
  facet normal 0 -0.995187 -0.0979961
    outer loop
      vertex 10 58.8635 0.370671
      vertex 5.5 58.9 0
      vertex 10 58.9 0
    endloop
  endfacet
  facet normal 0 -0.881896 -0.471444
    outer loop
      vertex 0 58.7554 0.727098
      vertex 4.5 58.5798 1.05558
      vertex 0 58.5798 1.05558
    endloop
  endfacet
  facet normal 0 -0.881896 -0.471444
    outer loop
      vertex 4.5 58.5798 1.05558
      vertex 0 58.7554 0.727098
      vertex 4.5 58.7554 0.727098
    endloop
  endfacet
  facet normal 0 -0.881896 -0.471444
    outer loop
      vertex 5.5 58.7554 0.727098
      vertex 10 58.5798 1.05558
      vertex 5.5 58.5798 1.05558
    endloop
  endfacet
  facet normal 0 -0.881896 -0.471444
    outer loop
      vertex 10 58.5798 1.05558
      vertex 5.5 58.7554 0.727098
      vertex 10 58.7554 0.727098
    endloop
  endfacet
  facet normal 0 0.995187 0.0979961
    outer loop
      vertex 4.5 55.1365 -0.370671
      vertex 0 55.1 0
      vertex 4.5 55.1 0
    endloop
  endfacet
  facet normal 0 0.995187 0.0979961
    outer loop
      vertex 0 55.1 0
      vertex 4.5 55.1365 -0.370671
      vertex 0 55.1365 -0.370671
    endloop
  endfacet
  facet normal 0 0.995187 0.0979961
    outer loop
      vertex 10 55.1365 -0.370671
      vertex 5.5 55.1 0
      vertex 10 55.1 0
    endloop
  endfacet
  facet normal 0 0.995187 0.0979961
    outer loop
      vertex 5.5 55.1 0
      vertex 10 55.1365 -0.370671
      vertex 5.5 55.1365 -0.370671
    endloop
  endfacet
  facet normal 0 -0.63442 0.772989
    outer loop
      vertex 0 58.3435 -1.3435
      vertex 4.5 58.0556 -1.57979
      vertex 4.5 58.3435 -1.3435
    endloop
  endfacet
  facet normal 0 -0.63442 0.772989
    outer loop
      vertex 4.5 58.0556 -1.57979
      vertex 0 58.3435 -1.3435
      vertex 0 58.0556 -1.57979
    endloop
  endfacet
  facet normal 0 -0.63442 0.772989
    outer loop
      vertex 5.5 58.3435 -1.3435
      vertex 10 58.0556 -1.57979
      vertex 10 58.3435 -1.3435
    endloop
  endfacet
  facet normal 0 -0.63442 0.772989
    outer loop
      vertex 10 58.0556 -1.57979
      vertex 5.5 58.3435 -1.3435
      vertex 5.5 58.0556 -1.57979
    endloop
  endfacet
  facet normal 0 -0.995187 0.0979961
    outer loop
      vertex 0 58.8635 -0.370671
      vertex 4.5 58.9 0
      vertex 0 58.9 0
    endloop
  endfacet
  facet normal 0 -0.995187 0.0979961
    outer loop
      vertex 4.5 58.9 0
      vertex 0 58.8635 -0.370671
      vertex 4.5 58.8635 -0.370671
    endloop
  endfacet
  facet normal 0 -0.995187 0.0979961
    outer loop
      vertex 5.5 58.8635 -0.370671
      vertex 10 58.9 0
      vertex 5.5 58.9 0
    endloop
  endfacet
  facet normal 0 -0.995187 0.0979961
    outer loop
      vertex 10 58.9 0
      vertex 5.5 58.8635 -0.370671
      vertex 10 58.8635 -0.370671
    endloop
  endfacet
  facet normal 0 -0.290302 0.956935
    outer loop
      vertex 0 57.7271 -1.75537
      vertex 4.5 57.3707 -1.86349
      vertex 4.5 57.7271 -1.75537
    endloop
  endfacet
  facet normal 0 -0.290302 0.956935
    outer loop
      vertex 4.5 57.3707 -1.86349
      vertex 0 57.7271 -1.75537
      vertex 0 57.3707 -1.86349
    endloop
  endfacet
  facet normal 0 -0.290302 0.956935
    outer loop
      vertex 5.5 57.7271 -1.75537
      vertex 10 57.3707 -1.86349
      vertex 10 57.7271 -1.75537
    endloop
  endfacet
  facet normal 0 -0.290302 0.956935
    outer loop
      vertex 10 57.3707 -1.86349
      vertex 5.5 57.7271 -1.75537
      vertex 5.5 57.3707 -1.86349
    endloop
  endfacet
  facet normal 0 -0.772997 -0.63441
    outer loop
      vertex 0 58.5798 1.05558
      vertex 4.5 58.3435 1.3435
      vertex 0 58.3435 1.3435
    endloop
  endfacet
  facet normal 0 -0.772997 -0.63441
    outer loop
      vertex 4.5 58.3435 1.3435
      vertex 0 58.5798 1.05558
      vertex 4.5 58.5798 1.05558
    endloop
  endfacet
  facet normal 0 -0.772997 -0.63441
    outer loop
      vertex 5.5 58.5798 1.05558
      vertex 10 58.3435 1.3435
      vertex 5.5 58.3435 1.3435
    endloop
  endfacet
  facet normal 0 -0.772997 -0.63441
    outer loop
      vertex 10 58.3435 1.3435
      vertex 5.5 58.5798 1.05558
      vertex 10 58.5798 1.05558
    endloop
  endfacet
  facet normal 0 0.881896 0.471444
    outer loop
      vertex 4.5 55.4202 -1.05558
      vertex 0 55.2446 -0.727098
      vertex 4.5 55.2446 -0.727098
    endloop
  endfacet
  facet normal 0 0.881896 0.471444
    outer loop
      vertex 0 55.2446 -0.727098
      vertex 4.5 55.4202 -1.05558
      vertex 0 55.4202 -1.05558
    endloop
  endfacet
  facet normal 0 0.881896 0.471444
    outer loop
      vertex 10 55.4202 -1.05558
      vertex 5.5 55.2446 -0.727098
      vertex 10 55.2446 -0.727098
    endloop
  endfacet
  facet normal 0 0.881896 0.471444
    outer loop
      vertex 5.5 55.2446 -0.727098
      vertex 10 55.4202 -1.05558
      vertex 5.5 55.4202 -1.05558
    endloop
  endfacet
  facet normal 0 0.772997 -0.63441
    outer loop
      vertex 4.5 55.4202 1.05558
      vertex 0 55.6565 1.3435
      vertex 4.5 55.6565 1.3435
    endloop
  endfacet
  facet normal 0 0.772997 -0.63441
    outer loop
      vertex 0 55.6565 1.3435
      vertex 4.5 55.4202 1.05558
      vertex 0 55.4202 1.05558
    endloop
  endfacet
  facet normal 0 0.772997 -0.63441
    outer loop
      vertex 10 55.4202 1.05558
      vertex 5.5 55.6565 1.3435
      vertex 10 55.6565 1.3435
    endloop
  endfacet
  facet normal 0 0.772997 -0.63441
    outer loop
      vertex 5.5 55.6565 1.3435
      vertex 10 55.4202 1.05558
      vertex 5.5 55.4202 1.05558
    endloop
  endfacet
  facet normal 0 -0.881896 0.471444
    outer loop
      vertex 0 58.5798 -1.05558
      vertex 4.5 58.7554 -0.727098
      vertex 0 58.7554 -0.727098
    endloop
  endfacet
  facet normal 0 -0.881896 0.471444
    outer loop
      vertex 4.5 58.7554 -0.727098
      vertex 0 58.5798 -1.05558
      vertex 4.5 58.5798 -1.05558
    endloop
  endfacet
  facet normal 0 -0.881896 0.471444
    outer loop
      vertex 5.5 58.5798 -1.05558
      vertex 10 58.7554 -0.727098
      vertex 5.5 58.7554 -0.727098
    endloop
  endfacet
  facet normal 0 -0.881896 0.471444
    outer loop
      vertex 10 58.7554 -0.727098
      vertex 5.5 58.5798 -1.05558
      vertex 10 58.5798 -1.05558
    endloop
  endfacet
  facet normal 0 -0.0980151 -0.995185
    outer loop
      vertex 0 57 1.9
      vertex 4.5 57.3707 1.86349
      vertex 4.5 57 1.9
    endloop
  endfacet
  facet normal -0 -0.0980151 -0.995185
    outer loop
      vertex 4.5 57.3707 1.86349
      vertex 0 57 1.9
      vertex 0 57.3707 1.86349
    endloop
  endfacet
  facet normal 0 -0.0980151 -0.995185
    outer loop
      vertex 5.5 57 1.9
      vertex 10 57.3707 1.86349
      vertex 10 57 1.9
    endloop
  endfacet
  facet normal -0 -0.0980151 -0.995185
    outer loop
      vertex 10 57.3707 1.86349
      vertex 5.5 57 1.9
      vertex 5.5 57.3707 1.86349
    endloop
  endfacet
  facet normal 0 -0.956956 0.290233
    outer loop
      vertex 0 58.7554 -0.727098
      vertex 4.5 58.8635 -0.370671
      vertex 0 58.8635 -0.370671
    endloop
  endfacet
  facet normal 0 -0.956956 0.290233
    outer loop
      vertex 4.5 58.8635 -0.370671
      vertex 0 58.7554 -0.727098
      vertex 4.5 58.7554 -0.727098
    endloop
  endfacet
  facet normal 0 -0.956956 0.290233
    outer loop
      vertex 5.5 58.7554 -0.727098
      vertex 10 58.8635 -0.370671
      vertex 5.5 58.8635 -0.370671
    endloop
  endfacet
  facet normal 0 -0.956956 0.290233
    outer loop
      vertex 10 58.8635 -0.370671
      vertex 5.5 58.7554 -0.727098
      vertex 10 58.7554 -0.727098
    endloop
  endfacet
  facet normal 0 0.0980151 -0.995185
    outer loop
      vertex 0 56.6293 1.86349
      vertex 4.5 57 1.9
      vertex 4.5 56.6293 1.86349
    endloop
  endfacet
  facet normal 0 0.0980151 -0.995185
    outer loop
      vertex 4.5 57 1.9
      vertex 0 56.6293 1.86349
      vertex 0 57 1.9
    endloop
  endfacet
  facet normal 0 0.0980151 -0.995185
    outer loop
      vertex 5.5 56.6293 1.86349
      vertex 10 57 1.9
      vertex 10 56.6293 1.86349
    endloop
  endfacet
  facet normal 0 0.0980151 -0.995185
    outer loop
      vertex 10 57 1.9
      vertex 5.5 56.6293 1.86349
      vertex 5.5 57 1.9
    endloop
  endfacet
  facet normal 0 0.956956 -0.290233
    outer loop
      vertex 4.5 55.1365 0.370671
      vertex 0 55.2446 0.727098
      vertex 4.5 55.2446 0.727098
    endloop
  endfacet
  facet normal 0 0.956956 -0.290233
    outer loop
      vertex 0 55.2446 0.727098
      vertex 4.5 55.1365 0.370671
      vertex 0 55.1365 0.370671
    endloop
  endfacet
  facet normal 0 0.956956 -0.290233
    outer loop
      vertex 10 55.1365 0.370671
      vertex 5.5 55.2446 0.727098
      vertex 10 55.2446 0.727098
    endloop
  endfacet
  facet normal 0 0.956956 -0.290233
    outer loop
      vertex 5.5 55.2446 0.727098
      vertex 10 55.1365 0.370671
      vertex 5.5 55.1365 0.370671
    endloop
  endfacet
  facet normal -0 0.290302 0.956935
    outer loop
      vertex 0 56.6293 -1.86349
      vertex 4.5 56.2729 -1.75537
      vertex 4.5 56.6293 -1.86349
    endloop
  endfacet
  facet normal 0 0.290302 0.956935
    outer loop
      vertex 4.5 56.2729 -1.75537
      vertex 0 56.6293 -1.86349
      vertex 0 56.2729 -1.75537
    endloop
  endfacet
  facet normal -0 0.290302 0.956935
    outer loop
      vertex 5.5 56.6293 -1.86349
      vertex 10 56.2729 -1.75537
      vertex 10 56.6293 -1.86349
    endloop
  endfacet
  facet normal 0 0.290302 0.956935
    outer loop
      vertex 10 56.2729 -1.75537
      vertex 5.5 56.6293 -1.86349
      vertex 5.5 56.2729 -1.75537
    endloop
  endfacet
  facet normal 0 0.471382 -0.881929
    outer loop
      vertex 0 55.9444 1.57979
      vertex 4.5 56.2729 1.75537
      vertex 4.5 55.9444 1.57979
    endloop
  endfacet
  facet normal 0 0.471382 -0.881929
    outer loop
      vertex 4.5 56.2729 1.75537
      vertex 0 55.9444 1.57979
      vertex 0 56.2729 1.75537
    endloop
  endfacet
  facet normal 0 0.471382 -0.881929
    outer loop
      vertex 5.5 55.9444 1.57979
      vertex 10 56.2729 1.75537
      vertex 10 55.9444 1.57979
    endloop
  endfacet
  facet normal 0 0.471382 -0.881929
    outer loop
      vertex 10 56.2729 1.75537
      vertex 5.5 55.9444 1.57979
      vertex 5.5 56.2729 1.75537
    endloop
  endfacet
  facet normal -0 0.0980151 0.995185
    outer loop
      vertex 0 57 -1.9
      vertex 4.5 56.6293 -1.86349
      vertex 4.5 57 -1.9
    endloop
  endfacet
  facet normal 0 0.0980151 0.995185
    outer loop
      vertex 4.5 56.6293 -1.86349
      vertex 0 57 -1.9
      vertex 0 56.6293 -1.86349
    endloop
  endfacet
  facet normal -0 0.0980151 0.995185
    outer loop
      vertex 5.5 57 -1.9
      vertex 10 56.6293 -1.86349
      vertex 10 57 -1.9
    endloop
  endfacet
  facet normal 0 0.0980151 0.995185
    outer loop
      vertex 10 56.6293 -1.86349
      vertex 5.5 57 -1.9
      vertex 5.5 56.6293 -1.86349
    endloop
  endfacet
  facet normal 0 -0.471382 -0.881929
    outer loop
      vertex 0 57.7271 1.75537
      vertex 4.5 58.0556 1.57979
      vertex 4.5 57.7271 1.75537
    endloop
  endfacet
  facet normal -0 -0.471382 -0.881929
    outer loop
      vertex 4.5 58.0556 1.57979
      vertex 0 57.7271 1.75537
      vertex 0 58.0556 1.57979
    endloop
  endfacet
  facet normal 0 -0.471382 -0.881929
    outer loop
      vertex 5.5 57.7271 1.75537
      vertex 10 58.0556 1.57979
      vertex 10 57.7271 1.75537
    endloop
  endfacet
  facet normal -0 -0.471382 -0.881929
    outer loop
      vertex 10 58.0556 1.57979
      vertex 5.5 57.7271 1.75537
      vertex 5.5 58.0556 1.57979
    endloop
  endfacet
  facet normal 0 -0.290302 -0.956935
    outer loop
      vertex 0 57.3707 1.86349
      vertex 4.5 57.7271 1.75537
      vertex 4.5 57.3707 1.86349
    endloop
  endfacet
  facet normal -0 -0.290302 -0.956935
    outer loop
      vertex 4.5 57.7271 1.75537
      vertex 0 57.3707 1.86349
      vertex 0 57.7271 1.75537
    endloop
  endfacet
  facet normal 0 -0.290302 -0.956935
    outer loop
      vertex 5.5 57.3707 1.86349
      vertex 10 57.7271 1.75537
      vertex 10 57.3707 1.86349
    endloop
  endfacet
  facet normal -0 -0.290302 -0.956935
    outer loop
      vertex 10 57.7271 1.75537
      vertex 5.5 57.3707 1.86349
      vertex 5.5 57.7271 1.75537
    endloop
  endfacet
  facet normal 0 -0.471382 0.881929
    outer loop
      vertex 0 58.0556 -1.57979
      vertex 4.5 57.7271 -1.75537
      vertex 4.5 58.0556 -1.57979
    endloop
  endfacet
  facet normal 0 -0.471382 0.881929
    outer loop
      vertex 4.5 57.7271 -1.75537
      vertex 0 58.0556 -1.57979
      vertex 0 57.7271 -1.75537
    endloop
  endfacet
  facet normal 0 -0.471382 0.881929
    outer loop
      vertex 5.5 58.0556 -1.57979
      vertex 10 57.7271 -1.75537
      vertex 10 58.0556 -1.57979
    endloop
  endfacet
  facet normal 0 -0.471382 0.881929
    outer loop
      vertex 10 57.7271 -1.75537
      vertex 5.5 58.0556 -1.57979
      vertex 5.5 57.7271 -1.75537
    endloop
  endfacet
  facet normal 0 0.881896 -0.471444
    outer loop
      vertex 4.5 55.2446 0.727098
      vertex 0 55.4202 1.05558
      vertex 4.5 55.4202 1.05558
    endloop
  endfacet
  facet normal 0 0.881896 -0.471444
    outer loop
      vertex 0 55.4202 1.05558
      vertex 4.5 55.2446 0.727098
      vertex 0 55.2446 0.727098
    endloop
  endfacet
  facet normal 0 0.881896 -0.471444
    outer loop
      vertex 10 55.2446 0.727098
      vertex 5.5 55.4202 1.05558
      vertex 10 55.4202 1.05558
    endloop
  endfacet
  facet normal 0 0.881896 -0.471444
    outer loop
      vertex 5.5 55.4202 1.05558
      vertex 10 55.2446 0.727098
      vertex 5.5 55.2446 0.727098
    endloop
  endfacet
  facet normal 0 0.63442 -0.772989
    outer loop
      vertex 0 55.6565 1.3435
      vertex 4.5 55.9444 1.57979
      vertex 4.5 55.6565 1.3435
    endloop
  endfacet
  facet normal 0 0.63442 -0.772989
    outer loop
      vertex 4.5 55.9444 1.57979
      vertex 0 55.6565 1.3435
      vertex 0 55.9444 1.57979
    endloop
  endfacet
  facet normal 0 0.63442 -0.772989
    outer loop
      vertex 5.5 55.6565 1.3435
      vertex 10 55.9444 1.57979
      vertex 10 55.6565 1.3435
    endloop
  endfacet
  facet normal 0 0.63442 -0.772989
    outer loop
      vertex 10 55.9444 1.57979
      vertex 5.5 55.6565 1.3435
      vertex 5.5 55.9444 1.57979
    endloop
  endfacet
  facet normal -0 0.471382 0.881929
    outer loop
      vertex 0 56.2729 -1.75537
      vertex 4.5 55.9444 -1.57979
      vertex 4.5 56.2729 -1.75537
    endloop
  endfacet
  facet normal 0 0.471382 0.881929
    outer loop
      vertex 4.5 55.9444 -1.57979
      vertex 0 56.2729 -1.75537
      vertex 0 55.9444 -1.57979
    endloop
  endfacet
  facet normal -0 0.471382 0.881929
    outer loop
      vertex 5.5 56.2729 -1.75537
      vertex 10 55.9444 -1.57979
      vertex 10 56.2729 -1.75537
    endloop
  endfacet
  facet normal 0 0.471382 0.881929
    outer loop
      vertex 10 55.9444 -1.57979
      vertex 5.5 56.2729 -1.75537
      vertex 5.5 55.9444 -1.57979
    endloop
  endfacet
  facet normal 0 -0.63442 -0.772989
    outer loop
      vertex 0 58.0556 1.57979
      vertex 4.5 58.3435 1.3435
      vertex 4.5 58.0556 1.57979
    endloop
  endfacet
  facet normal -0 -0.63442 -0.772989
    outer loop
      vertex 4.5 58.3435 1.3435
      vertex 0 58.0556 1.57979
      vertex 0 58.3435 1.3435
    endloop
  endfacet
  facet normal 0 -0.63442 -0.772989
    outer loop
      vertex 5.5 58.0556 1.57979
      vertex 10 58.3435 1.3435
      vertex 10 58.0556 1.57979
    endloop
  endfacet
  facet normal -0 -0.63442 -0.772989
    outer loop
      vertex 10 58.3435 1.3435
      vertex 5.5 58.0556 1.57979
      vertex 5.5 58.3435 1.3435
    endloop
  endfacet
  facet normal 0 0.772997 0.63441
    outer loop
      vertex 4.5 55.6565 -1.3435
      vertex 0 55.4202 -1.05558
      vertex 4.5 55.4202 -1.05558
    endloop
  endfacet
  facet normal 0 0.772997 0.63441
    outer loop
      vertex 0 55.4202 -1.05558
      vertex 4.5 55.6565 -1.3435
      vertex 0 55.6565 -1.3435
    endloop
  endfacet
  facet normal 0 0.772997 0.63441
    outer loop
      vertex 10 55.6565 -1.3435
      vertex 5.5 55.4202 -1.05558
      vertex 10 55.4202 -1.05558
    endloop
  endfacet
  facet normal 0 0.772997 0.63441
    outer loop
      vertex 5.5 55.4202 -1.05558
      vertex 10 55.6565 -1.3435
      vertex 5.5 55.6565 -1.3435
    endloop
  endfacet
  facet normal -0 0.63442 0.772989
    outer loop
      vertex 0 55.9444 -1.57979
      vertex 4.5 55.6565 -1.3435
      vertex 4.5 55.9444 -1.57979
    endloop
  endfacet
  facet normal 0 0.63442 0.772989
    outer loop
      vertex 4.5 55.6565 -1.3435
      vertex 0 55.9444 -1.57979
      vertex 0 55.6565 -1.3435
    endloop
  endfacet
  facet normal -0 0.63442 0.772989
    outer loop
      vertex 5.5 55.9444 -1.57979
      vertex 10 55.6565 -1.3435
      vertex 10 55.9444 -1.57979
    endloop
  endfacet
  facet normal 0 0.63442 0.772989
    outer loop
      vertex 10 55.6565 -1.3435
      vertex 5.5 55.9444 -1.57979
      vertex 5.5 55.6565 -1.3435
    endloop
  endfacet
  facet normal 0 -0.0980151 0.995185
    outer loop
      vertex 0 57.3707 -1.86349
      vertex 4.5 57 -1.9
      vertex 4.5 57.3707 -1.86349
    endloop
  endfacet
  facet normal 0 -0.0980151 0.995185
    outer loop
      vertex 4.5 57 -1.9
      vertex 0 57.3707 -1.86349
      vertex 0 57 -1.9
    endloop
  endfacet
  facet normal 0 -0.0980151 0.995185
    outer loop
      vertex 5.5 57.3707 -1.86349
      vertex 10 57 -1.9
      vertex 10 57.3707 -1.86349
    endloop
  endfacet
  facet normal 0 -0.0980151 0.995185
    outer loop
      vertex 10 57 -1.9
      vertex 5.5 57.3707 -1.86349
      vertex 5.5 57 -1.9
    endloop
  endfacet
  facet normal 0 0.956956 0.290233
    outer loop
      vertex 4.5 55.2446 -0.727098
      vertex 0 55.1365 -0.370671
      vertex 4.5 55.1365 -0.370671
    endloop
  endfacet
  facet normal 0 0.956956 0.290233
    outer loop
      vertex 0 55.1365 -0.370671
      vertex 4.5 55.2446 -0.727098
      vertex 0 55.2446 -0.727098
    endloop
  endfacet
  facet normal 0 0.956956 0.290233
    outer loop
      vertex 10 55.2446 -0.727098
      vertex 5.5 55.1365 -0.370671
      vertex 10 55.1365 -0.370671
    endloop
  endfacet
  facet normal 0 0.956956 0.290233
    outer loop
      vertex 5.5 55.1365 -0.370671
      vertex 10 55.2446 -0.727098
      vertex 5.5 55.2446 -0.727098
    endloop
  endfacet
  facet normal 0 -0.772997 0.63441
    outer loop
      vertex 0 58.3435 -1.3435
      vertex 4.5 58.5798 -1.05558
      vertex 0 58.5798 -1.05558
    endloop
  endfacet
  facet normal 0 -0.772997 0.63441
    outer loop
      vertex 4.5 58.5798 -1.05558
      vertex 0 58.3435 -1.3435
      vertex 4.5 58.3435 -1.3435
    endloop
  endfacet
  facet normal 0 -0.772997 0.63441
    outer loop
      vertex 5.5 58.3435 -1.3435
      vertex 10 58.5798 -1.05558
      vertex 5.5 58.5798 -1.05558
    endloop
  endfacet
  facet normal 0 -0.772997 0.63441
    outer loop
      vertex 10 58.5798 -1.05558
      vertex 5.5 58.3435 -1.3435
      vertex 10 58.3435 -1.3435
    endloop
  endfacet
  facet normal 0 0.995187 -0.0979961
    outer loop
      vertex 4.5 55.1 0
      vertex 0 55.1365 0.370671
      vertex 4.5 55.1365 0.370671
    endloop
  endfacet
  facet normal 0 0.995187 -0.0979961
    outer loop
      vertex 0 55.1365 0.370671
      vertex 4.5 55.1 0
      vertex 0 55.1 0
    endloop
  endfacet
  facet normal 0 0.995187 -0.0979961
    outer loop
      vertex 10 55.1 0
      vertex 5.5 55.1365 0.370671
      vertex 10 55.1365 0.370671
    endloop
  endfacet
  facet normal 0 0.995187 -0.0979961
    outer loop
      vertex 5.5 55.1365 0.370671
      vertex 10 55.1 0
      vertex 5.5 55.1 0
    endloop
  endfacet
  facet normal 0 0 -1
    outer loop
      vertex 4.5 55.2883 2.96481
      vertex 5.5 62 2.96481
      vertex 5.5 55.2883 2.96481
    endloop
  endfacet
  facet normal -0 0 -1
    outer loop
      vertex 5.5 62 2.96481
      vertex 4.5 55.2883 2.96481
      vertex 4.5 62 2.96481
    endloop
  endfacet
  facet normal 0 0.866017 0.500014
    outer loop
      vertex 5.5 55.2883 -2.96481
      vertex 4.5 53.5765 0
      vertex 5.5 53.5765 0
    endloop
  endfacet
  facet normal 0 0.866017 0.500014
    outer loop
      vertex 4.5 53.5765 0
      vertex 5.5 55.2883 -2.96481
      vertex 4.5 55.2883 -2.96481
    endloop
  endfacet
  facet normal -0 0 1
    outer loop
      vertex 4.5 62 -2.96481
      vertex 5.5 55.2883 -2.96481
      vertex 5.5 62 -2.96481
    endloop
  endfacet
  facet normal 0 0 1
    outer loop
      vertex 5.5 55.2883 -2.96481
      vertex 4.5 62 -2.96481
      vertex 4.5 55.2883 -2.96481
    endloop
  endfacet
  facet normal 1 0 0
    outer loop
      vertex 4.5 62 2.96481
      vertex 4.5 58.9 0
      vertex 4.5 62 -2.96481
    endloop
  endfacet
  facet normal 1 0 0
    outer loop
      vertex 4.5 62 2.96481
      vertex 4.5 58.8635 0.370671
      vertex 4.5 58.9 0
    endloop
  endfacet
  facet normal 1 0 0
    outer loop
      vertex 4.5 62 2.96481
      vertex 4.5 58.7554 0.727098
      vertex 4.5 58.8635 0.370671
    endloop
  endfacet
  facet normal 1 0 0
    outer loop
      vertex 4.5 62 2.96481
      vertex 4.5 58.5798 1.05558
      vertex 4.5 58.7554 0.727098
    endloop
  endfacet
  facet normal 1 0 0
    outer loop
      vertex 4.5 62 2.96481
      vertex 4.5 58.3435 1.3435
      vertex 4.5 58.5798 1.05558
    endloop
  endfacet
  facet normal 1 0 0
    outer loop
      vertex 4.5 62 2.96481
      vertex 4.5 58.0556 1.57979
      vertex 4.5 58.3435 1.3435
    endloop
  endfacet
  facet normal 1 0 0
    outer loop
      vertex 4.5 62 2.96481
      vertex 4.5 57.7271 1.75537
      vertex 4.5 58.0556 1.57979
    endloop
  endfacet
  facet normal 1 0 0
    outer loop
      vertex 4.5 62 2.96481
      vertex 4.5 57.3707 1.86349
      vertex 4.5 57.7271 1.75537
    endloop
  endfacet
  facet normal 1 -0 0
    outer loop
      vertex 4.5 55.2883 2.96481
      vertex 4.5 57.3707 1.86349
      vertex 4.5 62 2.96481
    endloop
  endfacet
  facet normal 1 0 0
    outer loop
      vertex 4.5 57.3707 1.86349
      vertex 4.5 55.2883 2.96481
      vertex 4.5 57 1.9
    endloop
  endfacet
  facet normal 1 0 0
    outer loop
      vertex 4.5 57 1.9
      vertex 4.5 55.2883 2.96481
      vertex 4.5 56.6293 1.86349
    endloop
  endfacet
  facet normal 1 0 0
    outer loop
      vertex 4.5 55.2883 2.96481
      vertex 4.5 56.2729 1.75537
      vertex 4.5 56.6293 1.86349
    endloop
  endfacet
  facet normal 1 0 0
    outer loop
      vertex 4.5 55.2883 2.96481
      vertex 4.5 55.9444 1.57979
      vertex 4.5 56.2729 1.75537
    endloop
  endfacet
  facet normal 1 0 0
    outer loop
      vertex 4.5 55.2883 2.96481
      vertex 4.5 55.6565 1.3435
      vertex 4.5 55.9444 1.57979
    endloop
  endfacet
  facet normal 1 0 0
    outer loop
      vertex 4.5 55.2883 2.96481
      vertex 4.5 55.4202 1.05558
      vertex 4.5 55.6565 1.3435
    endloop
  endfacet
  facet normal 1 0 0
    outer loop
      vertex 4.5 53.5765 0
      vertex 4.5 55.4202 1.05558
      vertex 4.5 55.2883 2.96481
    endloop
  endfacet
  facet normal 1 0 0
    outer loop
      vertex 4.5 55.4202 1.05558
      vertex 4.5 53.5765 0
      vertex 4.5 55.2446 0.727098
    endloop
  endfacet
  facet normal 1 0 0
    outer loop
      vertex 4.5 55.2446 0.727098
      vertex 4.5 53.5765 0
      vertex 4.5 55.1365 0.370671
    endloop
  endfacet
  facet normal 1 0 0
    outer loop
      vertex 4.5 55.1365 0.370671
      vertex 4.5 53.5765 0
      vertex 4.5 55.1 0
    endloop
  endfacet
  facet normal 1 -0 0
    outer loop
      vertex 4.5 58.8635 -0.370671
      vertex 4.5 62 -2.96481
      vertex 4.5 58.9 0
    endloop
  endfacet
  facet normal 1 -0 0
    outer loop
      vertex 4.5 58.7554 -0.727098
      vertex 4.5 62 -2.96481
      vertex 4.5 58.8635 -0.370671
    endloop
  endfacet
  facet normal 1 -0 0
    outer loop
      vertex 4.5 58.5798 -1.05558
      vertex 4.5 62 -2.96481
      vertex 4.5 58.7554 -0.727098
    endloop
  endfacet
  facet normal 1 -0 0
    outer loop
      vertex 4.5 58.3435 -1.3435
      vertex 4.5 62 -2.96481
      vertex 4.5 58.5798 -1.05558
    endloop
  endfacet
  facet normal 1 -0 0
    outer loop
      vertex 4.5 58.0556 -1.57979
      vertex 4.5 62 -2.96481
      vertex 4.5 58.3435 -1.3435
    endloop
  endfacet
  facet normal 1 -0 0
    outer loop
      vertex 4.5 57.7271 -1.75537
      vertex 4.5 62 -2.96481
      vertex 4.5 58.0556 -1.57979
    endloop
  endfacet
  facet normal 1 -0 0
    outer loop
      vertex 4.5 57.3707 -1.86349
      vertex 4.5 62 -2.96481
      vertex 4.5 57.7271 -1.75537
    endloop
  endfacet
  facet normal 1 0 0
    outer loop
      vertex 4.5 55.2883 -2.96481
      vertex 4.5 57.3707 -1.86349
      vertex 4.5 57 -1.9
    endloop
  endfacet
  facet normal 1 0 0
    outer loop
      vertex 4.5 55.2883 -2.96481
      vertex 4.5 57 -1.9
      vertex 4.5 56.6293 -1.86349
    endloop
  endfacet
  facet normal 1 0 0
    outer loop
      vertex 4.5 57.3707 -1.86349
      vertex 4.5 55.2883 -2.96481
      vertex 4.5 62 -2.96481
    endloop
  endfacet
  facet normal 1 0 0
    outer loop
      vertex 4.5 56.2729 -1.75537
      vertex 4.5 55.2883 -2.96481
      vertex 4.5 56.6293 -1.86349
    endloop
  endfacet
  facet normal 1 0 0
    outer loop
      vertex 4.5 55.9444 -1.57979
      vertex 4.5 55.2883 -2.96481
      vertex 4.5 56.2729 -1.75537
    endloop
  endfacet
  facet normal 1 0 0
    outer loop
      vertex 4.5 55.6565 -1.3435
      vertex 4.5 55.2883 -2.96481
      vertex 4.5 55.9444 -1.57979
    endloop
  endfacet
  facet normal 1 0 0
    outer loop
      vertex 4.5 55.4202 -1.05558
      vertex 4.5 55.2883 -2.96481
      vertex 4.5 55.6565 -1.3435
    endloop
  endfacet
  facet normal 1 0 0
    outer loop
      vertex 4.5 53.5765 0
      vertex 4.5 55.4202 -1.05558
      vertex 4.5 55.2446 -0.727098
    endloop
  endfacet
  facet normal 1 0 0
    outer loop
      vertex 4.5 53.5765 0
      vertex 4.5 55.2446 -0.727098
      vertex 4.5 55.1365 -0.370671
    endloop
  endfacet
  facet normal 1 -0 0
    outer loop
      vertex 4.5 53.5765 0
      vertex 4.5 55.1365 -0.370671
      vertex 4.5 55.1 0
    endloop
  endfacet
  facet normal 1 0 0
    outer loop
      vertex 4.5 55.4202 -1.05558
      vertex 4.5 53.5765 0
      vertex 4.5 55.2883 -2.96481
    endloop
  endfacet
  facet normal -1 0 0
    outer loop
      vertex 5.5 62 -2.96481
      vertex 5.5 58.9 0
      vertex 5.5 62 2.96481
    endloop
  endfacet
  facet normal -1 0 0
    outer loop
      vertex 5.5 62 -2.96481
      vertex 5.5 58.8635 -0.370671
      vertex 5.5 58.9 0
    endloop
  endfacet
  facet normal -1 0 0
    outer loop
      vertex 5.5 62 -2.96481
      vertex 5.5 58.7554 -0.727098
      vertex 5.5 58.8635 -0.370671
    endloop
  endfacet
  facet normal -1 0 0
    outer loop
      vertex 5.5 62 -2.96481
      vertex 5.5 58.5798 -1.05558
      vertex 5.5 58.7554 -0.727098
    endloop
  endfacet
  facet normal -1 0 0
    outer loop
      vertex 5.5 62 -2.96481
      vertex 5.5 58.3435 -1.3435
      vertex 5.5 58.5798 -1.05558
    endloop
  endfacet
  facet normal -1 0 0
    outer loop
      vertex 5.5 62 -2.96481
      vertex 5.5 58.0556 -1.57979
      vertex 5.5 58.3435 -1.3435
    endloop
  endfacet
  facet normal -1 0 0
    outer loop
      vertex 5.5 62 -2.96481
      vertex 5.5 57.7271 -1.75537
      vertex 5.5 58.0556 -1.57979
    endloop
  endfacet
  facet normal -1 0 0
    outer loop
      vertex 5.5 62 -2.96481
      vertex 5.5 57.3707 -1.86349
      vertex 5.5 57.7271 -1.75537
    endloop
  endfacet
  facet normal -1 0 0
    outer loop
      vertex 5.5 55.2883 -2.96481
      vertex 5.5 57.3707 -1.86349
      vertex 5.5 62 -2.96481
    endloop
  endfacet
  facet normal -1 0 0
    outer loop
      vertex 5.5 57.3707 -1.86349
      vertex 5.5 55.2883 -2.96481
      vertex 5.5 57 -1.9
    endloop
  endfacet
  facet normal -1 -0 0
    outer loop
      vertex 5.5 57 -1.9
      vertex 5.5 55.2883 -2.96481
      vertex 5.5 56.6293 -1.86349
    endloop
  endfacet
  facet normal -1 0 0
    outer loop
      vertex 5.5 55.2883 -2.96481
      vertex 5.5 56.2729 -1.75537
      vertex 5.5 56.6293 -1.86349
    endloop
  endfacet
  facet normal -1 0 0
    outer loop
      vertex 5.5 55.2883 -2.96481
      vertex 5.5 55.9444 -1.57979
      vertex 5.5 56.2729 -1.75537
    endloop
  endfacet
  facet normal -1 0 0
    outer loop
      vertex 5.5 55.2883 -2.96481
      vertex 5.5 55.6565 -1.3435
      vertex 5.5 55.9444 -1.57979
    endloop
  endfacet
  facet normal -1 0 0
    outer loop
      vertex 5.5 55.2883 -2.96481
      vertex 5.5 55.4202 -1.05558
      vertex 5.5 55.6565 -1.3435
    endloop
  endfacet
  facet normal -1 0 0
    outer loop
      vertex 5.5 53.5765 0
      vertex 5.5 55.4202 -1.05558
      vertex 5.5 55.2883 -2.96481
    endloop
  endfacet
  facet normal -1 0 0
    outer loop
      vertex 5.5 55.4202 -1.05558
      vertex 5.5 53.5765 0
      vertex 5.5 55.2446 -0.727098
    endloop
  endfacet
  facet normal -1 0 0
    outer loop
      vertex 5.5 55.2446 -0.727098
      vertex 5.5 53.5765 0
      vertex 5.5 55.1365 -0.370671
    endloop
  endfacet
  facet normal -1 0 0
    outer loop
      vertex 5.5 55.1365 -0.370671
      vertex 5.5 53.5765 0
      vertex 5.5 55.1 0
    endloop
  endfacet
  facet normal -1 0 0
    outer loop
      vertex 5.5 58.8635 0.370671
      vertex 5.5 62 2.96481
      vertex 5.5 58.9 0
    endloop
  endfacet
  facet normal -1 0 0
    outer loop
      vertex 5.5 58.7554 0.727098
      vertex 5.5 62 2.96481
      vertex 5.5 58.8635 0.370671
    endloop
  endfacet
  facet normal -1 0 0
    outer loop
      vertex 5.5 58.5798 1.05558
      vertex 5.5 62 2.96481
      vertex 5.5 58.7554 0.727098
    endloop
  endfacet
  facet normal -1 0 0
    outer loop
      vertex 5.5 58.3435 1.3435
      vertex 5.5 62 2.96481
      vertex 5.5 58.5798 1.05558
    endloop
  endfacet
  facet normal -1 0 0
    outer loop
      vertex 5.5 58.0556 1.57979
      vertex 5.5 62 2.96481
      vertex 5.5 58.3435 1.3435
    endloop
  endfacet
  facet normal -1 0 0
    outer loop
      vertex 5.5 57.7271 1.75537
      vertex 5.5 62 2.96481
      vertex 5.5 58.0556 1.57979
    endloop
  endfacet
  facet normal -1 0 0
    outer loop
      vertex 5.5 57.3707 1.86349
      vertex 5.5 62 2.96481
      vertex 5.5 57.7271 1.75537
    endloop
  endfacet
  facet normal -1 0 0
    outer loop
      vertex 5.5 55.2883 2.96481
      vertex 5.5 57.3707 1.86349
      vertex 5.5 57 1.9
    endloop
  endfacet
  facet normal -1 0 0
    outer loop
      vertex 5.5 55.2883 2.96481
      vertex 5.5 57 1.9
      vertex 5.5 56.6293 1.86349
    endloop
  endfacet
  facet normal -1 0 0
    outer loop
      vertex 5.5 57.3707 1.86349
      vertex 5.5 55.2883 2.96481
      vertex 5.5 62 2.96481
    endloop
  endfacet
  facet normal -1 0 0
    outer loop
      vertex 5.5 56.2729 1.75537
      vertex 5.5 55.2883 2.96481
      vertex 5.5 56.6293 1.86349
    endloop
  endfacet
  facet normal -1 0 0
    outer loop
      vertex 5.5 55.9444 1.57979
      vertex 5.5 55.2883 2.96481
      vertex 5.5 56.2729 1.75537
    endloop
  endfacet
  facet normal -1 0 0
    outer loop
      vertex 5.5 55.6565 1.3435
      vertex 5.5 55.2883 2.96481
      vertex 5.5 55.9444 1.57979
    endloop
  endfacet
  facet normal -1 0 0
    outer loop
      vertex 5.5 55.4202 1.05558
      vertex 5.5 55.2883 2.96481
      vertex 5.5 55.6565 1.3435
    endloop
  endfacet
  facet normal -1 0 0
    outer loop
      vertex 5.5 53.5765 0
      vertex 5.5 55.4202 1.05558
      vertex 5.5 55.2446 0.727098
    endloop
  endfacet
  facet normal -1 0 0
    outer loop
      vertex 5.5 53.5765 0
      vertex 5.5 55.2446 0.727098
      vertex 5.5 55.1365 0.370671
    endloop
  endfacet
  facet normal -1 0 0
    outer loop
      vertex 5.5 53.5765 0
      vertex 5.5 55.1365 0.370671
      vertex 5.5 55.1 0
    endloop
  endfacet
  facet normal -1 -0 0
    outer loop
      vertex 5.5 55.4202 1.05558
      vertex 5.5 53.5765 0
      vertex 5.5 55.2883 2.96481
    endloop
  endfacet
  facet normal 0 0.866017 -0.500014
    outer loop
      vertex 5.5 53.5765 0
      vertex 4.5 55.2883 2.96481
      vertex 5.5 55.2883 2.96481
    endloop
  endfacet
  facet normal 0 0.866017 -0.500014
    outer loop
      vertex 4.5 55.2883 2.96481
      vertex 5.5 53.5765 0
      vertex 4.5 53.5765 0
    endloop
  endfacet
  facet normal -1 0 0
    outer loop
      vertex 0 62 -7
      vertex 0 58.9 0
      vertex 0 62 8
    endloop
  endfacet
  facet normal -1 0 0
    outer loop
      vertex 0 62 -7
      vertex 0 58.8635 -0.370671
      vertex 0 58.9 0
    endloop
  endfacet
  facet normal -1 0 0
    outer loop
      vertex 0 62 -7
      vertex 0 58.7554 -0.727098
      vertex 0 58.8635 -0.370671
    endloop
  endfacet
  facet normal -1 0 0
    outer loop
      vertex 0 62 -7
      vertex 0 58.5798 -1.05558
      vertex 0 58.7554 -0.727098
    endloop
  endfacet
  facet normal -1 0 0
    outer loop
      vertex 0 62 -7
      vertex 0 58.3435 -1.3435
      vertex 0 58.5798 -1.05558
    endloop
  endfacet
  facet normal -1 0 0
    outer loop
      vertex 0 62 -7
      vertex 0 58.0556 -1.57979
      vertex 0 58.3435 -1.3435
    endloop
  endfacet
  facet normal -1 0 0
    outer loop
      vertex 0 62 -7
      vertex 0 57.7271 -1.75537
      vertex 0 58.0556 -1.57979
    endloop
  endfacet
  facet normal -1 0 0
    outer loop
      vertex 0 62 -7
      vertex 0 57.3707 -1.86349
      vertex 0 57.7271 -1.75537
    endloop
  endfacet
  facet normal -1 0 0
    outer loop
      vertex 0 62 -7
      vertex 0 57 -1.9
      vertex 0 57.3707 -1.86349
    endloop
  endfacet
  facet normal -1 0 0
    outer loop
      vertex 0 52 -7
      vertex 0 57 -1.9
      vertex 0 62 -7
    endloop
  endfacet
  facet normal -1 -0 0
    outer loop
      vertex 0 57 -1.9
      vertex 0 52 -7
      vertex 0 56.6293 -1.86349
    endloop
  endfacet
  facet normal -1 -0 0
    outer loop
      vertex 0 56.6293 -1.86349
      vertex 0 52 -7
      vertex 0 56.2729 -1.75537
    endloop
  endfacet
  facet normal -1 -0 0
    outer loop
      vertex 0 56.2729 -1.75537
      vertex 0 52 -7
      vertex 0 55.9444 -1.57979
    endloop
  endfacet
  facet normal -1 -0 0
    outer loop
      vertex 0 55.1365 -0.370671
      vertex 0 52 -7
      vertex 0 55.1 0
    endloop
  endfacet
  facet normal -1 -0 0
    outer loop
      vertex 0 55.2446 -0.727098
      vertex 0 52 -7
      vertex 0 55.1365 -0.370671
    endloop
  endfacet
  facet normal -1 -0 0
    outer loop
      vertex 0 55.4202 -1.05558
      vertex 0 52 -7
      vertex 0 55.2446 -0.727098
    endloop
  endfacet
  facet normal -1 -0 0
    outer loop
      vertex 0 55.6565 -1.3435
      vertex 0 52 -7
      vertex 0 55.4202 -1.05558
    endloop
  endfacet
  facet normal -1 -0 0
    outer loop
      vertex 0 55.9444 -1.57979
      vertex 0 52 -7
      vertex 0 55.6565 -1.3435
    endloop
  endfacet
  facet normal -1 0 0
    outer loop
      vertex 0 58.8635 0.370671
      vertex 0 62 8
      vertex 0 58.9 0
    endloop
  endfacet
  facet normal -1 0 0
    outer loop
      vertex 0 58.7554 0.727098
      vertex 0 62 8
      vertex 0 58.8635 0.370671
    endloop
  endfacet
  facet normal -1 0 0
    outer loop
      vertex 0 58.5798 1.05558
      vertex 0 62 8
      vertex 0 58.7554 0.727098
    endloop
  endfacet
  facet normal -1 0 0
    outer loop
      vertex 0 58.3435 1.3435
      vertex 0 62 8
      vertex 0 58.5798 1.05558
    endloop
  endfacet
  facet normal -1 0 0
    outer loop
      vertex 0 58.0556 1.57979
      vertex 0 62 8
      vertex 0 58.3435 1.3435
    endloop
  endfacet
  facet normal -1 0 0
    outer loop
      vertex 0 57.7271 1.75537
      vertex 0 62 8
      vertex 0 58.0556 1.57979
    endloop
  endfacet
  facet normal -1 0 0
    outer loop
      vertex 0 57.3707 1.86349
      vertex 0 62 8
      vertex 0 57.7271 1.75537
    endloop
  endfacet
  facet normal -1 0 0
    outer loop
      vertex 0 57 1.9
      vertex 0 62 8
      vertex 0 57.3707 1.86349
    endloop
  endfacet
  facet normal -1 0 0
    outer loop
      vertex 0 52 8
      vertex 0 57 1.9
      vertex 0 56.6293 1.86349
    endloop
  endfacet
  facet normal -1 0 0
    outer loop
      vertex 0 52 8
      vertex 0 56.6293 1.86349
      vertex 0 56.2729 1.75537
    endloop
  endfacet
  facet normal -1 0 0
    outer loop
      vertex 0 52 8
      vertex 0 56.2729 1.75537
      vertex 0 55.9444 1.57979
    endloop
  endfacet
  facet normal -1 0 0
    outer loop
      vertex 0 52 8
      vertex 0 55.9444 1.57979
      vertex 0 55.6565 1.3435
    endloop
  endfacet
  facet normal -1 0 0
    outer loop
      vertex 0 52 8
      vertex 0 55.1 0
      vertex 0 52 -7
    endloop
  endfacet
  facet normal -1 0 0
    outer loop
      vertex 0 55.1 0
      vertex 0 52 8
      vertex 0 55.1365 0.370671
    endloop
  endfacet
  facet normal -1 0 0
    outer loop
      vertex 0 57 1.9
      vertex 0 52 8
      vertex 0 62 8
    endloop
  endfacet
  facet normal -1 0 0
    outer loop
      vertex 0 55.4202 1.05558
      vertex 0 52 8
      vertex 0 55.6565 1.3435
    endloop
  endfacet
  facet normal -1 0 0
    outer loop
      vertex 0 55.2446 0.727098
      vertex 0 52 8
      vertex 0 55.4202 1.05558
    endloop
  endfacet
  facet normal -1 0 0
    outer loop
      vertex 0 55.1365 0.370671
      vertex 0 52 8
      vertex 0 55.2446 0.727098
    endloop
  endfacet
  facet normal 0 1 0
    outer loop
      vertex 10 62 8
      vertex 5.5 62 2.96481
      vertex 0 62 8
    endloop
  endfacet
  facet normal 0 1 -0
    outer loop
      vertex 10 62 -7
      vertex 5.5 62 2.96481
      vertex 10 62 8
    endloop
  endfacet
  facet normal 0 1 0
    outer loop
      vertex 5.5 62 -2.96481
      vertex 10 62 -7
      vertex 4.5 62 -2.96481
    endloop
  endfacet
  facet normal 0 1 0
    outer loop
      vertex 5.5 62 2.96481
      vertex 10 62 -7
      vertex 5.5 62 -2.96481
    endloop
  endfacet
  facet normal 0 1 -0
    outer loop
      vertex 4.5 62 2.96481
      vertex 0 62 8
      vertex 5.5 62 2.96481
    endloop
  endfacet
  facet normal 0 1 0
    outer loop
      vertex 0 62 -7
      vertex 4.5 62 2.96481
      vertex 4.5 62 -2.96481
    endloop
  endfacet
  facet normal 0 1 0
    outer loop
      vertex 4.5 62 2.96481
      vertex 0 62 -7
      vertex 0 62 8
    endloop
  endfacet
  facet normal 0 1 0
    outer loop
      vertex 0 62 -7
      vertex 4.5 62 -2.96481
      vertex 10 62 -7
    endloop
  endfacet
  facet normal 0 -1 0
    outer loop
      vertex 0 52 -7
      vertex 10 52 8
      vertex 0 52 8
    endloop
  endfacet
  facet normal 0 -1 -0
    outer loop
      vertex 10 52 8
      vertex 0 52 -7
      vertex 10 52 -7
    endloop
  endfacet
  facet normal 1 0 0
    outer loop
      vertex 28 69 -5
      vertex 28 72 8
      vertex 28 69 8
    endloop
  endfacet
  facet normal 1 0 0
    outer loop
      vertex 28 72 8
      vertex 28 69 -5
      vertex 28 72 -7
    endloop
  endfacet
  facet normal 1 0 0
    outer loop
      vertex 28 -15 -7
      vertex 28 69 -5
      vertex 28 -15 -5
    endloop
  endfacet
  facet normal 1 0 0
    outer loop
      vertex 28 69 -5
      vertex 28 -15 -7
      vertex 28 72 -7
    endloop
  endfacet
  facet normal -0 0 1
    outer loop
      vertex 12 69 -5
      vertex 28 -15 -5
      vertex 28 69 -5
    endloop
  endfacet
  facet normal 0 0 1
    outer loop
      vertex 28 -15 -5
      vertex 12 69 -5
      vertex 12 -15 -5
    endloop
  endfacet
  facet normal 0 1 -0
    outer loop
      vertex 28 72 -7
      vertex 10 72 8
      vertex 28 72 8
    endloop
  endfacet
  facet normal 0 1 0
    outer loop
      vertex 10 72 8
      vertex 28 72 -7
      vertex 10 72 -7
    endloop
  endfacet
  facet normal 0 -1 0
    outer loop
      vertex 10 -15 8
      vertex 12 -15 -5
      vertex 12 -15 8
    endloop
  endfacet
  facet normal 0 -1 0
    outer loop
      vertex 10 -15 -7
      vertex 12 -15 -5
      vertex 10 -15 8
    endloop
  endfacet
  facet normal 0 -1 0
    outer loop
      vertex 28 -15 -7
      vertex 12 -15 -5
      vertex 10 -15 -7
    endloop
  endfacet
  facet normal 0 -1 0
    outer loop
      vertex 12 -15 -5
      vertex 28 -15 -7
      vertex 28 -15 -5
    endloop
  endfacet
  facet normal 1 -0 0
    outer loop
      vertex 12 -15 8
      vertex 12 69 -5
      vertex 12 69 8
    endloop
  endfacet
  facet normal 1 0 0
    outer loop
      vertex 12 69 -5
      vertex 12 -15 8
      vertex 12 -15 -5
    endloop
  endfacet
  facet normal 0 -1 0
    outer loop
      vertex 12 69 -5
      vertex 28 69 8
      vertex 12 69 8
    endloop
  endfacet
  facet normal 0 -1 -0
    outer loop
      vertex 28 69 8
      vertex 12 69 -5
      vertex 28 69 -5
    endloop
  endfacet
endsolid OpenSCAD_Model
