solid OpenSCAD_Model
  facet normal 0 0 -1
    outer loop
      vertex -6.25 -1.71173 2.96481
      vertex -3.75 5 2.96481
      vertex -3.75 -1.71173 2.96481
    endloop
  endfacet
  facet normal -0 0 -1
    outer loop
      vertex -3.75 5 2.96481
      vertex -6.25 -1.71173 2.96481
      vertex -6.25 5 2.96481
    endloop
  endfacet
  facet normal 0 0.866026 0.499999
    outer loop
      vertex -3.75 -1.71173 -2.96481
      vertex -6.25 -3.42346 0
      vertex -3.75 -3.42346 0
    endloop
  endfacet
  facet normal 0 0.866026 0.499999
    outer loop
      vertex -6.25 -3.42346 0
      vertex -3.75 -1.71173 -2.96481
      vertex -6.25 -1.71173 -2.96481
    endloop
  endfacet
  facet normal -0 0 1
    outer loop
      vertex -6.25 5 -2.96481
      vertex -3.75 -1.71173 -2.96481
      vertex -3.75 5 -2.96481
    endloop
  endfacet
  facet normal 0 0 1
    outer loop
      vertex -3.75 -1.71173 -2.96481
      vertex -6.25 5 -2.96481
      vertex -6.25 -1.71173 -2.96481
    endloop
  endfacet
  facet normal -1 0 0
    outer loop
      vertex -3.75 5 -2.96481
      vertex -3.75 1.9 0
      vertex -3.75 5 2.96481
    endloop
  endfacet
  facet normal -1 0 0
    outer loop
      vertex -3.75 5 -2.96481
      vertex -3.75 1.86349 -0.370671
      vertex -3.75 1.9 0
    endloop
  endfacet
  facet normal -1 0 0
    outer loop
      vertex -3.75 5 -2.96481
      vertex -3.75 1.75537 -0.727098
      vertex -3.75 1.86349 -0.370671
    endloop
  endfacet
  facet normal -1 0 0
    outer loop
      vertex -3.75 5 -2.96481
      vertex -3.75 1.57979 -1.05558
      vertex -3.75 1.75537 -0.727098
    endloop
  endfacet
  facet normal -1 0 0
    outer loop
      vertex -3.75 5 -2.96481
      vertex -3.75 1.3435 -1.3435
      vertex -3.75 1.57979 -1.05558
    endloop
  endfacet
  facet normal -1 0 0
    outer loop
      vertex -3.75 5 -2.96481
      vertex -3.75 1.05558 -1.57979
      vertex -3.75 1.3435 -1.3435
    endloop
  endfacet
  facet normal -1 0 0
    outer loop
      vertex -3.75 5 -2.96481
      vertex -3.75 0.727098 -1.75537
      vertex -3.75 1.05558 -1.57979
    endloop
  endfacet
  facet normal -1 0 0
    outer loop
      vertex -3.75 5 -2.96481
      vertex -3.75 0.370671 -1.86349
      vertex -3.75 0.727098 -1.75537
    endloop
  endfacet
  facet normal -1 0 0
    outer loop
      vertex -3.75 -1.71173 -2.96481
      vertex -3.75 0.370671 -1.86349
      vertex -3.75 5 -2.96481
    endloop
  endfacet
  facet normal -1 0 0
    outer loop
      vertex -3.75 0.370671 -1.86349
      vertex -3.75 -1.71173 -2.96481
      vertex -3.75 0 -1.9
    endloop
  endfacet
  facet normal -1 -0 0
    outer loop
      vertex -3.75 0 -1.9
      vertex -3.75 -1.71173 -2.96481
      vertex -3.75 -0.370671 -1.86349
    endloop
  endfacet
  facet normal -1 0 0
    outer loop
      vertex -3.75 -1.71173 -2.96481
      vertex -3.75 -0.727098 -1.75537
      vertex -3.75 -0.370671 -1.86349
    endloop
  endfacet
  facet normal -1 0 0
    outer loop
      vertex -3.75 -1.71173 -2.96481
      vertex -3.75 -1.05558 -1.57979
      vertex -3.75 -0.727098 -1.75537
    endloop
  endfacet
  facet normal -1 0 0
    outer loop
      vertex -3.75 -1.71173 -2.96481
      vertex -3.75 -1.3435 -1.3435
      vertex -3.75 -1.05558 -1.57979
    endloop
  endfacet
  facet normal -1 0 0
    outer loop
      vertex -3.75 -1.71173 -2.96481
      vertex -3.75 -1.57979 -1.05558
      vertex -3.75 -1.3435 -1.3435
    endloop
  endfacet
  facet normal -1 0 0
    outer loop
      vertex -3.75 -3.42346 0
      vertex -3.75 -1.57979 -1.05558
      vertex -3.75 -1.71173 -2.96481
    endloop
  endfacet
  facet normal -1 0 0
    outer loop
      vertex -3.75 -1.57979 -1.05558
      vertex -3.75 -3.42346 0
      vertex -3.75 -1.75537 -0.727098
    endloop
  endfacet
  facet normal -1 0 0
    outer loop
      vertex -3.75 -1.75537 -0.727098
      vertex -3.75 -3.42346 0
      vertex -3.75 -1.86349 -0.370671
    endloop
  endfacet
  facet normal -1 0 0
    outer loop
      vertex -3.75 -1.86349 -0.370671
      vertex -3.75 -3.42346 0
      vertex -3.75 -1.9 0
    endloop
  endfacet
  facet normal -1 0 0
    outer loop
      vertex -3.75 1.86349 0.370671
      vertex -3.75 5 2.96481
      vertex -3.75 1.9 0
    endloop
  endfacet
  facet normal -1 0 0
    outer loop
      vertex -3.75 1.75537 0.727098
      vertex -3.75 5 2.96481
      vertex -3.75 1.86349 0.370671
    endloop
  endfacet
  facet normal -1 0 0
    outer loop
      vertex -3.75 1.57979 1.05558
      vertex -3.75 5 2.96481
      vertex -3.75 1.75537 0.727098
    endloop
  endfacet
  facet normal -1 0 0
    outer loop
      vertex -3.75 1.3435 1.3435
      vertex -3.75 5 2.96481
      vertex -3.75 1.57979 1.05558
    endloop
  endfacet
  facet normal -1 0 0
    outer loop
      vertex -3.75 1.05558 1.57979
      vertex -3.75 5 2.96481
      vertex -3.75 1.3435 1.3435
    endloop
  endfacet
  facet normal -1 0 0
    outer loop
      vertex -3.75 0.727098 1.75537
      vertex -3.75 5 2.96481
      vertex -3.75 1.05558 1.57979
    endloop
  endfacet
  facet normal -1 0 0
    outer loop
      vertex -3.75 0.370671 1.86349
      vertex -3.75 5 2.96481
      vertex -3.75 0.727098 1.75537
    endloop
  endfacet
  facet normal -1 0 0
    outer loop
      vertex -3.75 -1.71173 2.96481
      vertex -3.75 0.370671 1.86349
      vertex -3.75 0 1.9
    endloop
  endfacet
  facet normal -1 0 0
    outer loop
      vertex -3.75 -1.71173 2.96481
      vertex -3.75 0 1.9
      vertex -3.75 -0.370671 1.86349
    endloop
  endfacet
  facet normal -1 0 0
    outer loop
      vertex -3.75 0.370671 1.86349
      vertex -3.75 -1.71173 2.96481
      vertex -3.75 5 2.96481
    endloop
  endfacet
  facet normal -1 0 0
    outer loop
      vertex -3.75 -0.727098 1.75537
      vertex -3.75 -1.71173 2.96481
      vertex -3.75 -0.370671 1.86349
    endloop
  endfacet
  facet normal -1 0 0
    outer loop
      vertex -3.75 -1.05558 1.57979
      vertex -3.75 -1.71173 2.96481
      vertex -3.75 -0.727098 1.75537
    endloop
  endfacet
  facet normal -1 0 0
    outer loop
      vertex -3.75 -1.3435 1.3435
      vertex -3.75 -1.71173 2.96481
      vertex -3.75 -1.05558 1.57979
    endloop
  endfacet
  facet normal -1 0 0
    outer loop
      vertex -3.75 -1.57979 1.05558
      vertex -3.75 -1.71173 2.96481
      vertex -3.75 -1.3435 1.3435
    endloop
  endfacet
  facet normal -1 0 0
    outer loop
      vertex -3.75 -3.42346 0
      vertex -3.75 -1.57979 1.05558
      vertex -3.75 -1.75537 0.727098
    endloop
  endfacet
  facet normal -1 0 0
    outer loop
      vertex -3.75 -3.42346 0
      vertex -3.75 -1.75537 0.727098
      vertex -3.75 -1.86349 0.370671
    endloop
  endfacet
  facet normal -1 0 0
    outer loop
      vertex -3.75 -3.42346 0
      vertex -3.75 -1.86349 0.370671
      vertex -3.75 -1.9 0
    endloop
  endfacet
  facet normal -1 -0 0
    outer loop
      vertex -3.75 -1.57979 1.05558
      vertex -3.75 -3.42346 0
      vertex -3.75 -1.71173 2.96481
    endloop
  endfacet
  facet normal 1 0 0
    outer loop
      vertex -6.25 5 2.96481
      vertex -6.25 1.9 0
      vertex -6.25 5 -2.96481
    endloop
  endfacet
  facet normal 1 0 0
    outer loop
      vertex -6.25 5 2.96481
      vertex -6.25 1.86349 0.370671
      vertex -6.25 1.9 0
    endloop
  endfacet
  facet normal 1 0 0
    outer loop
      vertex -6.25 5 2.96481
      vertex -6.25 1.75537 0.727098
      vertex -6.25 1.86349 0.370671
    endloop
  endfacet
  facet normal 1 0 0
    outer loop
      vertex -6.25 5 2.96481
      vertex -6.25 1.57979 1.05558
      vertex -6.25 1.75537 0.727098
    endloop
  endfacet
  facet normal 1 0 0
    outer loop
      vertex -6.25 5 2.96481
      vertex -6.25 1.3435 1.3435
      vertex -6.25 1.57979 1.05558
    endloop
  endfacet
  facet normal 1 0 0
    outer loop
      vertex -6.25 5 2.96481
      vertex -6.25 1.05558 1.57979
      vertex -6.25 1.3435 1.3435
    endloop
  endfacet
  facet normal 1 0 0
    outer loop
      vertex -6.25 5 2.96481
      vertex -6.25 0.727098 1.75537
      vertex -6.25 1.05558 1.57979
    endloop
  endfacet
  facet normal 1 0 0
    outer loop
      vertex -6.25 5 2.96481
      vertex -6.25 0.370671 1.86349
      vertex -6.25 0.727098 1.75537
    endloop
  endfacet
  facet normal 1 -0 0
    outer loop
      vertex -6.25 -1.71173 2.96481
      vertex -6.25 0.370671 1.86349
      vertex -6.25 5 2.96481
    endloop
  endfacet
  facet normal 1 0 0
    outer loop
      vertex -6.25 0.370671 1.86349
      vertex -6.25 -1.71173 2.96481
      vertex -6.25 0 1.9
    endloop
  endfacet
  facet normal 1 0 0
    outer loop
      vertex -6.25 0 1.9
      vertex -6.25 -1.71173 2.96481
      vertex -6.25 -0.370671 1.86349
    endloop
  endfacet
  facet normal 1 0 0
    outer loop
      vertex -6.25 -1.71173 2.96481
      vertex -6.25 -0.727098 1.75537
      vertex -6.25 -0.370671 1.86349
    endloop
  endfacet
  facet normal 1 0 0
    outer loop
      vertex -6.25 -1.71173 2.96481
      vertex -6.25 -1.05558 1.57979
      vertex -6.25 -0.727098 1.75537
    endloop
  endfacet
  facet normal 1 0 0
    outer loop
      vertex -6.25 -1.71173 2.96481
      vertex -6.25 -1.3435 1.3435
      vertex -6.25 -1.05558 1.57979
    endloop
  endfacet
  facet normal 1 0 0
    outer loop
      vertex -6.25 -1.71173 2.96481
      vertex -6.25 -1.57979 1.05558
      vertex -6.25 -1.3435 1.3435
    endloop
  endfacet
  facet normal 1 0 0
    outer loop
      vertex -6.25 -3.42346 0
      vertex -6.25 -1.57979 1.05558
      vertex -6.25 -1.71173 2.96481
    endloop
  endfacet
  facet normal 1 0 0
    outer loop
      vertex -6.25 -1.57979 1.05558
      vertex -6.25 -3.42346 0
      vertex -6.25 -1.75537 0.727098
    endloop
  endfacet
  facet normal 1 0 0
    outer loop
      vertex -6.25 -1.75537 0.727098
      vertex -6.25 -3.42346 0
      vertex -6.25 -1.86349 0.370671
    endloop
  endfacet
  facet normal 1 0 0
    outer loop
      vertex -6.25 -1.86349 0.370671
      vertex -6.25 -3.42346 0
      vertex -6.25 -1.9 0
    endloop
  endfacet
  facet normal 1 -0 0
    outer loop
      vertex -6.25 1.86349 -0.370671
      vertex -6.25 5 -2.96481
      vertex -6.25 1.9 0
    endloop
  endfacet
  facet normal 1 -0 0
    outer loop
      vertex -6.25 1.75537 -0.727098
      vertex -6.25 5 -2.96481
      vertex -6.25 1.86349 -0.370671
    endloop
  endfacet
  facet normal 1 -0 0
    outer loop
      vertex -6.25 1.57979 -1.05558
      vertex -6.25 5 -2.96481
      vertex -6.25 1.75537 -0.727098
    endloop
  endfacet
  facet normal 1 -0 0
    outer loop
      vertex -6.25 1.3435 -1.3435
      vertex -6.25 5 -2.96481
      vertex -6.25 1.57979 -1.05558
    endloop
  endfacet
  facet normal 1 -0 0
    outer loop
      vertex -6.25 1.05558 -1.57979
      vertex -6.25 5 -2.96481
      vertex -6.25 1.3435 -1.3435
    endloop
  endfacet
  facet normal 1 -0 0
    outer loop
      vertex -6.25 0.727098 -1.75537
      vertex -6.25 5 -2.96481
      vertex -6.25 1.05558 -1.57979
    endloop
  endfacet
  facet normal 1 -0 0
    outer loop
      vertex -6.25 0.370671 -1.86349
      vertex -6.25 5 -2.96481
      vertex -6.25 0.727098 -1.75537
    endloop
  endfacet
  facet normal 1 0 0
    outer loop
      vertex -6.25 -1.71173 -2.96481
      vertex -6.25 0.370671 -1.86349
      vertex -6.25 0 -1.9
    endloop
  endfacet
  facet normal 1 0 0
    outer loop
      vertex -6.25 -1.71173 -2.96481
      vertex -6.25 0 -1.9
      vertex -6.25 -0.370671 -1.86349
    endloop
  endfacet
  facet normal 1 0 0
    outer loop
      vertex -6.25 0.370671 -1.86349
      vertex -6.25 -1.71173 -2.96481
      vertex -6.25 5 -2.96481
    endloop
  endfacet
  facet normal 1 0 0
    outer loop
      vertex -6.25 -0.727098 -1.75537
      vertex -6.25 -1.71173 -2.96481
      vertex -6.25 -0.370671 -1.86349
    endloop
  endfacet
  facet normal 1 0 0
    outer loop
      vertex -6.25 -1.05558 -1.57979
      vertex -6.25 -1.71173 -2.96481
      vertex -6.25 -0.727098 -1.75537
    endloop
  endfacet
  facet normal 1 0 0
    outer loop
      vertex -6.25 -1.3435 -1.3435
      vertex -6.25 -1.71173 -2.96481
      vertex -6.25 -1.05558 -1.57979
    endloop
  endfacet
  facet normal 1 0 0
    outer loop
      vertex -6.25 -1.57979 -1.05558
      vertex -6.25 -1.71173 -2.96481
      vertex -6.25 -1.3435 -1.3435
    endloop
  endfacet
  facet normal 1 0 0
    outer loop
      vertex -6.25 -3.42346 0
      vertex -6.25 -1.57979 -1.05558
      vertex -6.25 -1.75537 -0.727098
    endloop
  endfacet
  facet normal 1 0 0
    outer loop
      vertex -6.25 -3.42346 0
      vertex -6.25 -1.75537 -0.727098
      vertex -6.25 -1.86349 -0.370671
    endloop
  endfacet
  facet normal 1 -0 0
    outer loop
      vertex -6.25 -3.42346 0
      vertex -6.25 -1.86349 -0.370671
      vertex -6.25 -1.9 0
    endloop
  endfacet
  facet normal 1 0 0
    outer loop
      vertex -6.25 -1.57979 -1.05558
      vertex -6.25 -3.42346 0
      vertex -6.25 -1.71173 -2.96481
    endloop
  endfacet
  facet normal 0 0.866026 -0.499999
    outer loop
      vertex -3.75 -3.42346 0
      vertex -6.25 -1.71173 2.96481
      vertex -3.75 -1.71173 2.96481
    endloop
  endfacet
  facet normal 0 0.866026 -0.499999
    outer loop
      vertex -6.25 -1.71173 2.96481
      vertex -3.75 -3.42346 0
      vertex -6.25 -3.42346 0
    endloop
  endfacet
  facet normal 0 0.290282 -0.956941
    outer loop
      vertex -3.75 -0.727098 1.75537
      vertex 0 -0.370671 1.86349
      vertex 0 -0.727098 1.75537
    endloop
  endfacet
  facet normal 0 0.290282 -0.956941
    outer loop
      vertex 0 -0.370671 1.86349
      vertex -3.75 -0.727098 1.75537
      vertex -3.75 -0.370671 1.86349
    endloop
  endfacet
  facet normal 0 0.290282 -0.956941
    outer loop
      vertex -10 -0.727098 1.75537
      vertex -6.25 -0.370671 1.86349
      vertex -6.25 -0.727098 1.75537
    endloop
  endfacet
  facet normal 0 0.290282 -0.956941
    outer loop
      vertex -6.25 -0.370671 1.86349
      vertex -10 -0.727098 1.75537
      vertex -10 -0.370671 1.86349
    endloop
  endfacet
  facet normal 0 -0.956941 -0.290282
    outer loop
      vertex -3.75 1.86349 0.370671
      vertex 0 1.75537 0.727098
      vertex -3.75 1.75537 0.727098
    endloop
  endfacet
  facet normal 0 -0.956941 -0.290282
    outer loop
      vertex 0 1.75537 0.727098
      vertex -3.75 1.86349 0.370671
      vertex 0 1.86349 0.370671
    endloop
  endfacet
  facet normal 0 -0.956941 -0.290282
    outer loop
      vertex -10 1.86349 0.370671
      vertex -6.25 1.75537 0.727098
      vertex -10 1.75537 0.727098
    endloop
  endfacet
  facet normal 0 -0.956941 -0.290282
    outer loop
      vertex -6.25 1.75537 0.727098
      vertex -10 1.86349 0.370671
      vertex -6.25 1.86349 0.370671
    endloop
  endfacet
  facet normal 0 -0.995184 -0.0980227
    outer loop
      vertex -3.75 1.9 0
      vertex 0 1.86349 0.370671
      vertex -3.75 1.86349 0.370671
    endloop
  endfacet
  facet normal 0 -0.995184 -0.0980227
    outer loop
      vertex 0 1.86349 0.370671
      vertex -3.75 1.9 0
      vertex 0 1.9 0
    endloop
  endfacet
  facet normal 0 -0.995184 -0.0980227
    outer loop
      vertex -10 1.9 0
      vertex -6.25 1.86349 0.370671
      vertex -10 1.86349 0.370671
    endloop
  endfacet
  facet normal 0 -0.995184 -0.0980227
    outer loop
      vertex -6.25 1.86349 0.370671
      vertex -10 1.9 0
      vertex -6.25 1.9 0
    endloop
  endfacet
  facet normal 0 -0.881918 -0.471402
    outer loop
      vertex -10 1.75537 0.727098
      vertex -6.25 1.57979 1.05558
      vertex -10 1.57979 1.05558
    endloop
  endfacet
  facet normal 0 -0.881918 -0.471402
    outer loop
      vertex -6.25 1.57979 1.05558
      vertex -10 1.75537 0.727098
      vertex -6.25 1.75537 0.727098
    endloop
  endfacet
  facet normal 0 -0.881918 -0.471402
    outer loop
      vertex -3.75 1.75537 0.727098
      vertex 0 1.57979 1.05558
      vertex -3.75 1.57979 1.05558
    endloop
  endfacet
  facet normal 0 -0.881918 -0.471402
    outer loop
      vertex 0 1.57979 1.05558
      vertex -3.75 1.75537 0.727098
      vertex 0 1.75537 0.727098
    endloop
  endfacet
  facet normal 0 0.995184 0.0980227
    outer loop
      vertex 0 -1.86349 -0.370671
      vertex -3.75 -1.9 0
      vertex 0 -1.9 0
    endloop
  endfacet
  facet normal 0 0.995184 0.0980227
    outer loop
      vertex -3.75 -1.9 0
      vertex 0 -1.86349 -0.370671
      vertex -3.75 -1.86349 -0.370671
    endloop
  endfacet
  facet normal 0 0.995184 0.0980227
    outer loop
      vertex -6.25 -1.86349 -0.370671
      vertex -10 -1.9 0
      vertex -6.25 -1.9 0
    endloop
  endfacet
  facet normal 0 0.995184 0.0980227
    outer loop
      vertex -10 -1.9 0
      vertex -6.25 -1.86349 -0.370671
      vertex -10 -1.86349 -0.370671
    endloop
  endfacet
  facet normal 0 -0.634394 0.77301
    outer loop
      vertex -3.75 1.3435 -1.3435
      vertex 0 1.05558 -1.57979
      vertex 0 1.3435 -1.3435
    endloop
  endfacet
  facet normal 0 -0.634394 0.77301
    outer loop
      vertex 0 1.05558 -1.57979
      vertex -3.75 1.3435 -1.3435
      vertex -3.75 1.05558 -1.57979
    endloop
  endfacet
  facet normal 0 -0.634394 0.77301
    outer loop
      vertex -10 1.3435 -1.3435
      vertex -6.25 1.05558 -1.57979
      vertex -6.25 1.3435 -1.3435
    endloop
  endfacet
  facet normal 0 -0.634394 0.77301
    outer loop
      vertex -6.25 1.05558 -1.57979
      vertex -10 1.3435 -1.3435
      vertex -10 1.05558 -1.57979
    endloop
  endfacet
  facet normal 0 -0.995184 0.0980227
    outer loop
      vertex -3.75 1.86349 -0.370671
      vertex 0 1.9 0
      vertex -3.75 1.9 0
    endloop
  endfacet
  facet normal 0 -0.995184 0.0980227
    outer loop
      vertex 0 1.9 0
      vertex -3.75 1.86349 -0.370671
      vertex 0 1.86349 -0.370671
    endloop
  endfacet
  facet normal 0 -0.995184 0.0980227
    outer loop
      vertex -10 1.86349 -0.370671
      vertex -6.25 1.9 0
      vertex -10 1.9 0
    endloop
  endfacet
  facet normal 0 -0.995184 0.0980227
    outer loop
      vertex -6.25 1.9 0
      vertex -10 1.86349 -0.370671
      vertex -6.25 1.86349 -0.370671
    endloop
  endfacet
  facet normal 0 -0.290282 0.956941
    outer loop
      vertex -10 0.727098 -1.75537
      vertex -6.25 0.370671 -1.86349
      vertex -6.25 0.727098 -1.75537
    endloop
  endfacet
  facet normal 0 -0.290282 0.956941
    outer loop
      vertex -6.25 0.370671 -1.86349
      vertex -10 0.727098 -1.75537
      vertex -10 0.370671 -1.86349
    endloop
  endfacet
  facet normal 0 -0.290282 0.956941
    outer loop
      vertex -3.75 0.727098 -1.75537
      vertex 0 0.370671 -1.86349
      vertex 0 0.727098 -1.75537
    endloop
  endfacet
  facet normal 0 -0.290282 0.956941
    outer loop
      vertex 0 0.370671 -1.86349
      vertex -3.75 0.727098 -1.75537
      vertex -3.75 0.370671 -1.86349
    endloop
  endfacet
  facet normal 0 -0.77301 -0.634394
    outer loop
      vertex -3.75 1.57979 1.05558
      vertex 0 1.3435 1.3435
      vertex -3.75 1.3435 1.3435
    endloop
  endfacet
  facet normal 0 -0.77301 -0.634394
    outer loop
      vertex 0 1.3435 1.3435
      vertex -3.75 1.57979 1.05558
      vertex 0 1.57979 1.05558
    endloop
  endfacet
  facet normal 0 -0.77301 -0.634394
    outer loop
      vertex -10 1.57979 1.05558
      vertex -6.25 1.3435 1.3435
      vertex -10 1.3435 1.3435
    endloop
  endfacet
  facet normal 0 -0.77301 -0.634394
    outer loop
      vertex -6.25 1.3435 1.3435
      vertex -10 1.57979 1.05558
      vertex -6.25 1.57979 1.05558
    endloop
  endfacet
  facet normal 0 0.881918 0.471402
    outer loop
      vertex -6.25 -1.57979 -1.05558
      vertex -10 -1.75537 -0.727098
      vertex -6.25 -1.75537 -0.727098
    endloop
  endfacet
  facet normal 0 0.881918 0.471402
    outer loop
      vertex -10 -1.75537 -0.727098
      vertex -6.25 -1.57979 -1.05558
      vertex -10 -1.57979 -1.05558
    endloop
  endfacet
  facet normal 0 0.881918 0.471402
    outer loop
      vertex 0 -1.57979 -1.05558
      vertex -3.75 -1.75537 -0.727098
      vertex 0 -1.75537 -0.727098
    endloop
  endfacet
  facet normal 0 0.881918 0.471402
    outer loop
      vertex -3.75 -1.75537 -0.727098
      vertex 0 -1.57979 -1.05558
      vertex -3.75 -1.57979 -1.05558
    endloop
  endfacet
  facet normal 0 0.77301 -0.634394
    outer loop
      vertex 0 -1.57979 1.05558
      vertex -3.75 -1.3435 1.3435
      vertex 0 -1.3435 1.3435
    endloop
  endfacet
  facet normal 0 0.77301 -0.634394
    outer loop
      vertex -3.75 -1.3435 1.3435
      vertex 0 -1.57979 1.05558
      vertex -3.75 -1.57979 1.05558
    endloop
  endfacet
  facet normal 0 0.77301 -0.634394
    outer loop
      vertex -6.25 -1.57979 1.05558
      vertex -10 -1.3435 1.3435
      vertex -6.25 -1.3435 1.3435
    endloop
  endfacet
  facet normal 0 0.77301 -0.634394
    outer loop
      vertex -10 -1.3435 1.3435
      vertex -6.25 -1.57979 1.05558
      vertex -10 -1.57979 1.05558
    endloop
  endfacet
  facet normal 0 -0.881918 0.471402
    outer loop
      vertex -10 1.57979 -1.05558
      vertex -6.25 1.75537 -0.727098
      vertex -10 1.75537 -0.727098
    endloop
  endfacet
  facet normal 0 -0.881918 0.471402
    outer loop
      vertex -6.25 1.75537 -0.727098
      vertex -10 1.57979 -1.05558
      vertex -6.25 1.57979 -1.05558
    endloop
  endfacet
  facet normal 0 -0.881918 0.471402
    outer loop
      vertex -3.75 1.57979 -1.05558
      vertex 0 1.75537 -0.727098
      vertex -3.75 1.75537 -0.727098
    endloop
  endfacet
  facet normal 0 -0.881918 0.471402
    outer loop
      vertex 0 1.75537 -0.727098
      vertex -3.75 1.57979 -1.05558
      vertex 0 1.57979 -1.05558
    endloop
  endfacet
  facet normal 0 -0.0980227 -0.995184
    outer loop
      vertex -3.75 0 1.9
      vertex 0 0.370671 1.86349
      vertex 0 0 1.9
    endloop
  endfacet
  facet normal -0 -0.0980227 -0.995184
    outer loop
      vertex 0 0.370671 1.86349
      vertex -3.75 0 1.9
      vertex -3.75 0.370671 1.86349
    endloop
  endfacet
  facet normal 0 -0.0980227 -0.995184
    outer loop
      vertex -10 0 1.9
      vertex -6.25 0.370671 1.86349
      vertex -6.25 0 1.9
    endloop
  endfacet
  facet normal -0 -0.0980227 -0.995184
    outer loop
      vertex -6.25 0.370671 1.86349
      vertex -10 0 1.9
      vertex -10 0.370671 1.86349
    endloop
  endfacet
  facet normal 0 -0.956941 0.290282
    outer loop
      vertex -10 1.75537 -0.727098
      vertex -6.25 1.86349 -0.370671
      vertex -10 1.86349 -0.370671
    endloop
  endfacet
  facet normal 0 -0.956941 0.290282
    outer loop
      vertex -6.25 1.86349 -0.370671
      vertex -10 1.75537 -0.727098
      vertex -6.25 1.75537 -0.727098
    endloop
  endfacet
  facet normal 0 -0.956941 0.290282
    outer loop
      vertex -3.75 1.75537 -0.727098
      vertex 0 1.86349 -0.370671
      vertex -3.75 1.86349 -0.370671
    endloop
  endfacet
  facet normal 0 -0.956941 0.290282
    outer loop
      vertex 0 1.86349 -0.370671
      vertex -3.75 1.75537 -0.727098
      vertex 0 1.75537 -0.727098
    endloop
  endfacet
  facet normal 0 0.0980227 -0.995184
    outer loop
      vertex -10 -0.370671 1.86349
      vertex -6.25 0 1.9
      vertex -6.25 -0.370671 1.86349
    endloop
  endfacet
  facet normal 0 0.0980227 -0.995184
    outer loop
      vertex -6.25 0 1.9
      vertex -10 -0.370671 1.86349
      vertex -10 0 1.9
    endloop
  endfacet
  facet normal 0 0.0980227 -0.995184
    outer loop
      vertex -3.75 -0.370671 1.86349
      vertex 0 0 1.9
      vertex 0 -0.370671 1.86349
    endloop
  endfacet
  facet normal 0 0.0980227 -0.995184
    outer loop
      vertex 0 0 1.9
      vertex -3.75 -0.370671 1.86349
      vertex -3.75 0 1.9
    endloop
  endfacet
  facet normal 0 0.956941 -0.290282
    outer loop
      vertex -6.25 -1.86349 0.370671
      vertex -10 -1.75537 0.727098
      vertex -6.25 -1.75537 0.727098
    endloop
  endfacet
  facet normal 0 0.956941 -0.290282
    outer loop
      vertex -10 -1.75537 0.727098
      vertex -6.25 -1.86349 0.370671
      vertex -10 -1.86349 0.370671
    endloop
  endfacet
  facet normal 0 0.956941 -0.290282
    outer loop
      vertex 0 -1.86349 0.370671
      vertex -3.75 -1.75537 0.727098
      vertex 0 -1.75537 0.727098
    endloop
  endfacet
  facet normal 0 0.956941 -0.290282
    outer loop
      vertex -3.75 -1.75537 0.727098
      vertex 0 -1.86349 0.370671
      vertex -3.75 -1.86349 0.370671
    endloop
  endfacet
  facet normal -0 0.290282 0.956941
    outer loop
      vertex -10 -0.370671 -1.86349
      vertex -6.25 -0.727098 -1.75537
      vertex -6.25 -0.370671 -1.86349
    endloop
  endfacet
  facet normal 0 0.290282 0.956941
    outer loop
      vertex -6.25 -0.727098 -1.75537
      vertex -10 -0.370671 -1.86349
      vertex -10 -0.727098 -1.75537
    endloop
  endfacet
  facet normal -0 0.290282 0.956941
    outer loop
      vertex -3.75 -0.370671 -1.86349
      vertex 0 -0.727098 -1.75537
      vertex 0 -0.370671 -1.86349
    endloop
  endfacet
  facet normal 0 0.290282 0.956941
    outer loop
      vertex 0 -0.727098 -1.75537
      vertex -3.75 -0.370671 -1.86349
      vertex -3.75 -0.727098 -1.75537
    endloop
  endfacet
  facet normal 0 0.471402 -0.881918
    outer loop
      vertex -3.75 -1.05558 1.57979
      vertex 0 -0.727098 1.75537
      vertex 0 -1.05558 1.57979
    endloop
  endfacet
  facet normal 0 0.471402 -0.881918
    outer loop
      vertex 0 -0.727098 1.75537
      vertex -3.75 -1.05558 1.57979
      vertex -3.75 -0.727098 1.75537
    endloop
  endfacet
  facet normal 0 0.471402 -0.881918
    outer loop
      vertex -10 -1.05558 1.57979
      vertex -6.25 -0.727098 1.75537
      vertex -6.25 -1.05558 1.57979
    endloop
  endfacet
  facet normal 0 0.471402 -0.881918
    outer loop
      vertex -6.25 -0.727098 1.75537
      vertex -10 -1.05558 1.57979
      vertex -10 -0.727098 1.75537
    endloop
  endfacet
  facet normal -0 0.0980227 0.995184
    outer loop
      vertex -3.75 0 -1.9
      vertex 0 -0.370671 -1.86349
      vertex 0 0 -1.9
    endloop
  endfacet
  facet normal 0 0.0980227 0.995184
    outer loop
      vertex 0 -0.370671 -1.86349
      vertex -3.75 0 -1.9
      vertex -3.75 -0.370671 -1.86349
    endloop
  endfacet
  facet normal -0 0.0980227 0.995184
    outer loop
      vertex -10 0 -1.9
      vertex -6.25 -0.370671 -1.86349
      vertex -6.25 0 -1.9
    endloop
  endfacet
  facet normal 0 0.0980227 0.995184
    outer loop
      vertex -6.25 -0.370671 -1.86349
      vertex -10 0 -1.9
      vertex -10 -0.370671 -1.86349
    endloop
  endfacet
  facet normal 0 -0.471402 -0.881918
    outer loop
      vertex -10 0.727098 1.75537
      vertex -6.25 1.05558 1.57979
      vertex -6.25 0.727098 1.75537
    endloop
  endfacet
  facet normal -0 -0.471402 -0.881918
    outer loop
      vertex -6.25 1.05558 1.57979
      vertex -10 0.727098 1.75537
      vertex -10 1.05558 1.57979
    endloop
  endfacet
  facet normal 0 -0.471402 -0.881918
    outer loop
      vertex -3.75 0.727098 1.75537
      vertex 0 1.05558 1.57979
      vertex 0 0.727098 1.75537
    endloop
  endfacet
  facet normal -0 -0.471402 -0.881918
    outer loop
      vertex 0 1.05558 1.57979
      vertex -3.75 0.727098 1.75537
      vertex -3.75 1.05558 1.57979
    endloop
  endfacet
  facet normal -0 0.634394 0.77301
    outer loop
      vertex -10 -1.05558 -1.57979
      vertex -6.25 -1.3435 -1.3435
      vertex -6.25 -1.05558 -1.57979
    endloop
  endfacet
  facet normal 0 0.634394 0.77301
    outer loop
      vertex -6.25 -1.3435 -1.3435
      vertex -10 -1.05558 -1.57979
      vertex -10 -1.3435 -1.3435
    endloop
  endfacet
  facet normal -0 0.634394 0.77301
    outer loop
      vertex -3.75 -1.05558 -1.57979
      vertex 0 -1.3435 -1.3435
      vertex 0 -1.05558 -1.57979
    endloop
  endfacet
  facet normal 0 0.634394 0.77301
    outer loop
      vertex 0 -1.3435 -1.3435
      vertex -3.75 -1.05558 -1.57979
      vertex -3.75 -1.3435 -1.3435
    endloop
  endfacet
  facet normal 0 -0.290282 -0.956941
    outer loop
      vertex -3.75 0.370671 1.86349
      vertex 0 0.727098 1.75537
      vertex 0 0.370671 1.86349
    endloop
  endfacet
  facet normal -0 -0.290282 -0.956941
    outer loop
      vertex 0 0.727098 1.75537
      vertex -3.75 0.370671 1.86349
      vertex -3.75 0.727098 1.75537
    endloop
  endfacet
  facet normal 0 -0.290282 -0.956941
    outer loop
      vertex -10 0.370671 1.86349
      vertex -6.25 0.727098 1.75537
      vertex -6.25 0.370671 1.86349
    endloop
  endfacet
  facet normal -0 -0.290282 -0.956941
    outer loop
      vertex -6.25 0.727098 1.75537
      vertex -10 0.370671 1.86349
      vertex -10 0.727098 1.75537
    endloop
  endfacet
  facet normal 0 -0.471402 0.881918
    outer loop
      vertex -10 1.05558 -1.57979
      vertex -6.25 0.727098 -1.75537
      vertex -6.25 1.05558 -1.57979
    endloop
  endfacet
  facet normal 0 -0.471402 0.881918
    outer loop
      vertex -6.25 0.727098 -1.75537
      vertex -10 1.05558 -1.57979
      vertex -10 0.727098 -1.75537
    endloop
  endfacet
  facet normal 0 -0.471402 0.881918
    outer loop
      vertex -3.75 1.05558 -1.57979
      vertex 0 0.727098 -1.75537
      vertex 0 1.05558 -1.57979
    endloop
  endfacet
  facet normal 0 -0.471402 0.881918
    outer loop
      vertex 0 0.727098 -1.75537
      vertex -3.75 1.05558 -1.57979
      vertex -3.75 0.727098 -1.75537
    endloop
  endfacet
  facet normal 0 0.881918 -0.471402
    outer loop
      vertex -6.25 -1.75537 0.727098
      vertex -10 -1.57979 1.05558
      vertex -6.25 -1.57979 1.05558
    endloop
  endfacet
  facet normal 0 0.881918 -0.471402
    outer loop
      vertex -10 -1.57979 1.05558
      vertex -6.25 -1.75537 0.727098
      vertex -10 -1.75537 0.727098
    endloop
  endfacet
  facet normal 0 0.881918 -0.471402
    outer loop
      vertex 0 -1.75537 0.727098
      vertex -3.75 -1.57979 1.05558
      vertex 0 -1.57979 1.05558
    endloop
  endfacet
  facet normal 0 0.881918 -0.471402
    outer loop
      vertex -3.75 -1.57979 1.05558
      vertex 0 -1.75537 0.727098
      vertex -3.75 -1.75537 0.727098
    endloop
  endfacet
  facet normal 0 0.634394 -0.77301
    outer loop
      vertex -3.75 -1.3435 1.3435
      vertex 0 -1.05558 1.57979
      vertex 0 -1.3435 1.3435
    endloop
  endfacet
  facet normal 0 0.634394 -0.77301
    outer loop
      vertex 0 -1.05558 1.57979
      vertex -3.75 -1.3435 1.3435
      vertex -3.75 -1.05558 1.57979
    endloop
  endfacet
  facet normal 0 0.634394 -0.77301
    outer loop
      vertex -10 -1.3435 1.3435
      vertex -6.25 -1.05558 1.57979
      vertex -6.25 -1.3435 1.3435
    endloop
  endfacet
  facet normal 0 0.634394 -0.77301
    outer loop
      vertex -6.25 -1.05558 1.57979
      vertex -10 -1.3435 1.3435
      vertex -10 -1.05558 1.57979
    endloop
  endfacet
  facet normal -0 0.471402 0.881918
    outer loop
      vertex -10 -0.727098 -1.75537
      vertex -6.25 -1.05558 -1.57979
      vertex -6.25 -0.727098 -1.75537
    endloop
  endfacet
  facet normal 0 0.471402 0.881918
    outer loop
      vertex -6.25 -1.05558 -1.57979
      vertex -10 -0.727098 -1.75537
      vertex -10 -1.05558 -1.57979
    endloop
  endfacet
  facet normal -0 0.471402 0.881918
    outer loop
      vertex -3.75 -0.727098 -1.75537
      vertex 0 -1.05558 -1.57979
      vertex 0 -0.727098 -1.75537
    endloop
  endfacet
  facet normal 0 0.471402 0.881918
    outer loop
      vertex 0 -1.05558 -1.57979
      vertex -3.75 -0.727098 -1.75537
      vertex -3.75 -1.05558 -1.57979
    endloop
  endfacet
  facet normal 0 -0.634394 -0.77301
    outer loop
      vertex -3.75 1.05558 1.57979
      vertex 0 1.3435 1.3435
      vertex 0 1.05558 1.57979
    endloop
  endfacet
  facet normal -0 -0.634394 -0.77301
    outer loop
      vertex 0 1.3435 1.3435
      vertex -3.75 1.05558 1.57979
      vertex -3.75 1.3435 1.3435
    endloop
  endfacet
  facet normal 0 -0.634394 -0.77301
    outer loop
      vertex -10 1.05558 1.57979
      vertex -6.25 1.3435 1.3435
      vertex -6.25 1.05558 1.57979
    endloop
  endfacet
  facet normal -0 -0.634394 -0.77301
    outer loop
      vertex -6.25 1.3435 1.3435
      vertex -10 1.05558 1.57979
      vertex -10 1.3435 1.3435
    endloop
  endfacet
  facet normal 0 0.77301 0.634394
    outer loop
      vertex -6.25 -1.3435 -1.3435
      vertex -10 -1.57979 -1.05558
      vertex -6.25 -1.57979 -1.05558
    endloop
  endfacet
  facet normal 0 0.77301 0.634394
    outer loop
      vertex -10 -1.57979 -1.05558
      vertex -6.25 -1.3435 -1.3435
      vertex -10 -1.3435 -1.3435
    endloop
  endfacet
  facet normal 0 0.77301 0.634394
    outer loop
      vertex 0 -1.3435 -1.3435
      vertex -3.75 -1.57979 -1.05558
      vertex 0 -1.57979 -1.05558
    endloop
  endfacet
  facet normal 0 0.77301 0.634394
    outer loop
      vertex -3.75 -1.57979 -1.05558
      vertex 0 -1.3435 -1.3435
      vertex -3.75 -1.3435 -1.3435
    endloop
  endfacet
  facet normal 0 -0.0980227 0.995184
    outer loop
      vertex -10 0.370671 -1.86349
      vertex -6.25 0 -1.9
      vertex -6.25 0.370671 -1.86349
    endloop
  endfacet
  facet normal 0 -0.0980227 0.995184
    outer loop
      vertex -6.25 0 -1.9
      vertex -10 0.370671 -1.86349
      vertex -10 0 -1.9
    endloop
  endfacet
  facet normal 0 -0.0980227 0.995184
    outer loop
      vertex -3.75 0.370671 -1.86349
      vertex 0 0 -1.9
      vertex 0 0.370671 -1.86349
    endloop
  endfacet
  facet normal 0 -0.0980227 0.995184
    outer loop
      vertex 0 0 -1.9
      vertex -3.75 0.370671 -1.86349
      vertex -3.75 0 -1.9
    endloop
  endfacet
  facet normal 0 0.956941 0.290282
    outer loop
      vertex -6.25 -1.75537 -0.727098
      vertex -10 -1.86349 -0.370671
      vertex -6.25 -1.86349 -0.370671
    endloop
  endfacet
  facet normal 0 0.956941 0.290282
    outer loop
      vertex -10 -1.86349 -0.370671
      vertex -6.25 -1.75537 -0.727098
      vertex -10 -1.75537 -0.727098
    endloop
  endfacet
  facet normal 0 0.956941 0.290282
    outer loop
      vertex 0 -1.75537 -0.727098
      vertex -3.75 -1.86349 -0.370671
      vertex 0 -1.86349 -0.370671
    endloop
  endfacet
  facet normal 0 0.956941 0.290282
    outer loop
      vertex -3.75 -1.86349 -0.370671
      vertex 0 -1.75537 -0.727098
      vertex -3.75 -1.75537 -0.727098
    endloop
  endfacet
  facet normal 0 -0.77301 0.634394
    outer loop
      vertex -10 1.3435 -1.3435
      vertex -6.25 1.57979 -1.05558
      vertex -10 1.57979 -1.05558
    endloop
  endfacet
  facet normal 0 -0.77301 0.634394
    outer loop
      vertex -6.25 1.57979 -1.05558
      vertex -10 1.3435 -1.3435
      vertex -6.25 1.3435 -1.3435
    endloop
  endfacet
  facet normal 0 -0.77301 0.634394
    outer loop
      vertex -3.75 1.3435 -1.3435
      vertex 0 1.57979 -1.05558
      vertex -3.75 1.57979 -1.05558
    endloop
  endfacet
  facet normal 0 -0.77301 0.634394
    outer loop
      vertex 0 1.57979 -1.05558
      vertex -3.75 1.3435 -1.3435
      vertex 0 1.3435 -1.3435
    endloop
  endfacet
  facet normal 0 0.995184 -0.0980227
    outer loop
      vertex 0 -1.9 0
      vertex -3.75 -1.86349 0.370671
      vertex 0 -1.86349 0.370671
    endloop
  endfacet
  facet normal 0 0.995184 -0.0980227
    outer loop
      vertex -3.75 -1.86349 0.370671
      vertex 0 -1.9 0
      vertex -3.75 -1.9 0
    endloop
  endfacet
  facet normal 0 0.995184 -0.0980227
    outer loop
      vertex -6.25 -1.9 0
      vertex -10 -1.86349 0.370671
      vertex -6.25 -1.86349 0.370671
    endloop
  endfacet
  facet normal 0 0.995184 -0.0980227
    outer loop
      vertex -10 -1.86349 0.370671
      vertex -6.25 -1.9 0
      vertex -10 -1.9 0
    endloop
  endfacet
  facet normal 1 -0 0
    outer loop
      vertex -10 162 8
      vertex -10 172 -7
      vertex -10 172 8
    endloop
  endfacet
  facet normal 1 0 0
    outer loop
      vertex -10 172 -7
      vertex -10 162 8
      vertex -10 162 -7
    endloop
  endfacet
  facet normal 1 -0 0
    outer loop
      vertex -10 -15 8
      vertex -10 -5 -7
      vertex -10 -5 8
    endloop
  endfacet
  facet normal 1 0 0
    outer loop
      vertex -10 -5 -7
      vertex -10 -15 8
      vertex -10 -15 -7
    endloop
  endfacet
  facet normal 1 -0 0
    outer loop
      vertex -10 5 8
      vertex -10 152 -7
      vertex -10 152 8
    endloop
  endfacet
  facet normal 1 0 0
    outer loop
      vertex -10 152 -7
      vertex -10 5 8
      vertex -10 5 -7
    endloop
  endfacet
  facet normal 1 0 0
    outer loop
      vertex -10 1.86349 0.370671
      vertex -10 1.86349 -0.370671
      vertex -10 1.9 0
    endloop
  endfacet
  facet normal 1 0 0
    outer loop
      vertex -10 1.75537 0.727098
      vertex -10 1.86349 -0.370671
      vertex -10 1.86349 0.370671
    endloop
  endfacet
  facet normal 1 0 0
    outer loop
      vertex -10 1.75537 0.727098
      vertex -10 1.75537 -0.727098
      vertex -10 1.86349 -0.370671
    endloop
  endfacet
  facet normal 1 0 0
    outer loop
      vertex -10 1.57979 1.05558
      vertex -10 1.75537 -0.727098
      vertex -10 1.75537 0.727098
    endloop
  endfacet
  facet normal 1 0 0
    outer loop
      vertex -10 1.57979 1.05558
      vertex -10 1.57979 -1.05558
      vertex -10 1.75537 -0.727098
    endloop
  endfacet
  facet normal 1 0 0
    outer loop
      vertex -10 1.3435 1.3435
      vertex -10 1.57979 -1.05558
      vertex -10 1.57979 1.05558
    endloop
  endfacet
  facet normal 1 0 0
    outer loop
      vertex -10 1.3435 1.3435
      vertex -10 1.3435 -1.3435
      vertex -10 1.57979 -1.05558
    endloop
  endfacet
  facet normal 1 0 0
    outer loop
      vertex -10 1.05558 1.57979
      vertex -10 1.3435 -1.3435
      vertex -10 1.3435 1.3435
    endloop
  endfacet
  facet normal 1 0 0
    outer loop
      vertex -10 1.05558 1.57979
      vertex -10 1.05558 -1.57979
      vertex -10 1.3435 -1.3435
    endloop
  endfacet
  facet normal 1 0 0
    outer loop
      vertex -10 0.727098 1.75537
      vertex -10 1.05558 -1.57979
      vertex -10 1.05558 1.57979
    endloop
  endfacet
  facet normal 1 0 0
    outer loop
      vertex -10 0.727098 1.75537
      vertex -10 0.727098 -1.75537
      vertex -10 1.05558 -1.57979
    endloop
  endfacet
  facet normal 1 0 0
    outer loop
      vertex -10 0.370671 1.86349
      vertex -10 0.727098 -1.75537
      vertex -10 0.727098 1.75537
    endloop
  endfacet
  facet normal 1 0 0
    outer loop
      vertex -10 0.370671 1.86349
      vertex -10 0.370671 -1.86349
      vertex -10 0.727098 -1.75537
    endloop
  endfacet
  facet normal 1 0 0
    outer loop
      vertex -10 0 1.9
      vertex -10 0.370671 -1.86349
      vertex -10 0.370671 1.86349
    endloop
  endfacet
  facet normal 1 0 0
    outer loop
      vertex -10 0 1.9
      vertex -10 0 -1.9
      vertex -10 0.370671 -1.86349
    endloop
  endfacet
  facet normal 1 -0 0
    outer loop
      vertex -10 -0.370671 1.86349
      vertex -10 0 -1.9
      vertex -10 0 1.9
    endloop
  endfacet
  facet normal 1 0 0
    outer loop
      vertex -10 -0.370671 1.86349
      vertex -10 -0.370671 -1.86349
      vertex -10 0 -1.9
    endloop
  endfacet
  facet normal 1 -0 0
    outer loop
      vertex -10 -0.727098 1.75537
      vertex -10 -0.370671 -1.86349
      vertex -10 -0.370671 1.86349
    endloop
  endfacet
  facet normal 1 0 0
    outer loop
      vertex -10 -0.727098 1.75537
      vertex -10 -0.727098 -1.75537
      vertex -10 -0.370671 -1.86349
    endloop
  endfacet
  facet normal 1 -0 0
    outer loop
      vertex -10 -1.05558 1.57979
      vertex -10 -0.727098 -1.75537
      vertex -10 -0.727098 1.75537
    endloop
  endfacet
  facet normal 1 0 0
    outer loop
      vertex -10 -1.05558 1.57979
      vertex -10 -1.05558 -1.57979
      vertex -10 -0.727098 -1.75537
    endloop
  endfacet
  facet normal 1 -0 0
    outer loop
      vertex -10 -1.3435 1.3435
      vertex -10 -1.05558 -1.57979
      vertex -10 -1.05558 1.57979
    endloop
  endfacet
  facet normal 1 0 0
    outer loop
      vertex -10 -1.3435 1.3435
      vertex -10 -1.3435 -1.3435
      vertex -10 -1.05558 -1.57979
    endloop
  endfacet
  facet normal 1 -0 0
    outer loop
      vertex -10 -1.57979 1.05558
      vertex -10 -1.3435 -1.3435
      vertex -10 -1.3435 1.3435
    endloop
  endfacet
  facet normal 1 0 0
    outer loop
      vertex -10 -1.57979 1.05558
      vertex -10 -1.57979 -1.05558
      vertex -10 -1.3435 -1.3435
    endloop
  endfacet
  facet normal 1 -0 0
    outer loop
      vertex -10 -1.75537 0.727098
      vertex -10 -1.57979 -1.05558
      vertex -10 -1.57979 1.05558
    endloop
  endfacet
  facet normal 1 0 0
    outer loop
      vertex -10 -1.75537 0.727098
      vertex -10 -1.75537 -0.727098
      vertex -10 -1.57979 -1.05558
    endloop
  endfacet
  facet normal 1 -0 0
    outer loop
      vertex -10 -1.86349 0.370671
      vertex -10 -1.75537 -0.727098
      vertex -10 -1.75537 0.727098
    endloop
  endfacet
  facet normal 1 0 0
    outer loop
      vertex -10 -1.86349 0.370671
      vertex -10 -1.86349 -0.370671
      vertex -10 -1.75537 -0.727098
    endloop
  endfacet
  facet normal 1 0 -0
    outer loop
      vertex -10 -1.86349 -0.370671
      vertex -10 -1.86349 0.370671
      vertex -10 -1.9 0
    endloop
  endfacet
  facet normal 1 0 0
    outer loop
      vertex -10 158.863 0.370671
      vertex -10 158.863 -0.370671
      vertex -10 158.9 0
    endloop
  endfacet
  facet normal 1 0 0
    outer loop
      vertex -10 158.755 0.727098
      vertex -10 158.863 -0.370671
      vertex -10 158.863 0.370671
    endloop
  endfacet
  facet normal 1 0 0
    outer loop
      vertex -10 158.755 0.727098
      vertex -10 158.755 -0.727098
      vertex -10 158.863 -0.370671
    endloop
  endfacet
  facet normal 1 0 0
    outer loop
      vertex -10 158.58 1.05558
      vertex -10 158.755 -0.727098
      vertex -10 158.755 0.727098
    endloop
  endfacet
  facet normal 1 0 0
    outer loop
      vertex -10 158.58 1.05558
      vertex -10 158.58 -1.05558
      vertex -10 158.755 -0.727098
    endloop
  endfacet
  facet normal 1 0 0
    outer loop
      vertex -10 158.344 1.3435
      vertex -10 158.58 -1.05558
      vertex -10 158.58 1.05558
    endloop
  endfacet
  facet normal 1 0 0
    outer loop
      vertex -10 158.344 1.3435
      vertex -10 158.344 -1.3435
      vertex -10 158.58 -1.05558
    endloop
  endfacet
  facet normal 1 0 0
    outer loop
      vertex -10 158.056 1.57979
      vertex -10 158.344 -1.3435
      vertex -10 158.344 1.3435
    endloop
  endfacet
  facet normal 1 0 0
    outer loop
      vertex -10 158.056 1.57979
      vertex -10 158.056 -1.57979
      vertex -10 158.344 -1.3435
    endloop
  endfacet
  facet normal 1 0 0
    outer loop
      vertex -10 157.727 1.75537
      vertex -10 158.056 -1.57979
      vertex -10 158.056 1.57979
    endloop
  endfacet
  facet normal 1 0 0
    outer loop
      vertex -10 157.727 1.75537
      vertex -10 157.727 -1.75537
      vertex -10 158.056 -1.57979
    endloop
  endfacet
  facet normal 1 0 0
    outer loop
      vertex -10 157.371 1.86349
      vertex -10 157.727 -1.75537
      vertex -10 157.727 1.75537
    endloop
  endfacet
  facet normal 1 0 0
    outer loop
      vertex -10 157.371 1.86349
      vertex -10 157.371 -1.86349
      vertex -10 157.727 -1.75537
    endloop
  endfacet
  facet normal 1 0 0
    outer loop
      vertex -10 157 1.9
      vertex -10 157.371 -1.86349
      vertex -10 157.371 1.86349
    endloop
  endfacet
  facet normal 1 0 0
    outer loop
      vertex -10 157 1.9
      vertex -10 157 -1.9
      vertex -10 157.371 -1.86349
    endloop
  endfacet
  facet normal 1 -0 0
    outer loop
      vertex -10 156.629 1.86349
      vertex -10 157 -1.9
      vertex -10 157 1.9
    endloop
  endfacet
  facet normal 1 0 0
    outer loop
      vertex -10 156.629 1.86349
      vertex -10 156.629 -1.86349
      vertex -10 157 -1.9
    endloop
  endfacet
  facet normal 1 -0 0
    outer loop
      vertex -10 156.273 1.75537
      vertex -10 156.629 -1.86349
      vertex -10 156.629 1.86349
    endloop
  endfacet
  facet normal 1 0 0
    outer loop
      vertex -10 156.273 1.75537
      vertex -10 156.273 -1.75537
      vertex -10 156.629 -1.86349
    endloop
  endfacet
  facet normal 1 -0 0
    outer loop
      vertex -10 155.944 1.57979
      vertex -10 156.273 -1.75537
      vertex -10 156.273 1.75537
    endloop
  endfacet
  facet normal 1 0 0
    outer loop
      vertex -10 155.944 1.57979
      vertex -10 155.944 -1.57979
      vertex -10 156.273 -1.75537
    endloop
  endfacet
  facet normal 1 -0 0
    outer loop
      vertex -10 155.656 1.3435
      vertex -10 155.944 -1.57979
      vertex -10 155.944 1.57979
    endloop
  endfacet
  facet normal 1 0 0
    outer loop
      vertex -10 155.656 1.3435
      vertex -10 155.656 -1.3435
      vertex -10 155.944 -1.57979
    endloop
  endfacet
  facet normal 1 -0 0
    outer loop
      vertex -10 155.42 1.05558
      vertex -10 155.656 -1.3435
      vertex -10 155.656 1.3435
    endloop
  endfacet
  facet normal 1 0 0
    outer loop
      vertex -10 155.42 1.05558
      vertex -10 155.42 -1.05558
      vertex -10 155.656 -1.3435
    endloop
  endfacet
  facet normal 1 -0 0
    outer loop
      vertex -10 155.245 0.727098
      vertex -10 155.42 -1.05558
      vertex -10 155.42 1.05558
    endloop
  endfacet
  facet normal 1 0 0
    outer loop
      vertex -10 155.245 0.727098
      vertex -10 155.245 -0.727098
      vertex -10 155.42 -1.05558
    endloop
  endfacet
  facet normal 1 -0 0
    outer loop
      vertex -10 155.137 0.370671
      vertex -10 155.245 -0.727098
      vertex -10 155.245 0.727098
    endloop
  endfacet
  facet normal 1 0 0
    outer loop
      vertex -10 155.137 0.370671
      vertex -10 155.137 -0.370671
      vertex -10 155.245 -0.727098
    endloop
  endfacet
  facet normal 1 0 -0
    outer loop
      vertex -10 155.137 -0.370671
      vertex -10 155.137 0.370671
      vertex -10 155.1 0
    endloop
  endfacet
  facet normal -0 0 1
    outer loop
      vertex -12 169 8
      vertex -10 162 8
      vertex -10 172 8
    endloop
  endfacet
  facet normal 0 0 1
    outer loop
      vertex -10 162 8
      vertex -12 169 8
      vertex -10 152 8
    endloop
  endfacet
  facet normal 0 0 1
    outer loop
      vertex -10 152 8
      vertex -12 169 8
      vertex -10 5 8
    endloop
  endfacet
  facet normal 0 0 1
    outer loop
      vertex -12 -15 8
      vertex -10 5 8
      vertex -12 169 8
    endloop
  endfacet
  facet normal 0 0 1
    outer loop
      vertex -10 5 8
      vertex -12 -15 8
      vertex -10 -5 8
    endloop
  endfacet
  facet normal -0 0 1
    outer loop
      vertex -28 172 8
      vertex -12 169 8
      vertex -10 172 8
    endloop
  endfacet
  facet normal 0 0 1
    outer loop
      vertex -12 169 8
      vertex -28 172 8
      vertex -28 169 8
    endloop
  endfacet
  facet normal -0 0 1
    outer loop
      vertex -10 162 8
      vertex 0 152 8
      vertex 0 162 8
    endloop
  endfacet
  facet normal 0 0 1
    outer loop
      vertex 0 152 8
      vertex -10 162 8
      vertex -10 152 8
    endloop
  endfacet
  facet normal -0 0 1
    outer loop
      vertex -10 5 8
      vertex 0 -5 8
      vertex 0 5 8
    endloop
  endfacet
  facet normal 0 0 1
    outer loop
      vertex 0 -5 8
      vertex -10 5 8
      vertex -10 -5 8
    endloop
  endfacet
  facet normal 0 0 1
    outer loop
      vertex -10 -5 8
      vertex -12 -15 8
      vertex -10 -15 8
    endloop
  endfacet
  facet normal 0 0 -1
    outer loop
      vertex -28 -15 -7
      vertex -10 -5 -7
      vertex -10 -15 -7
    endloop
  endfacet
  facet normal -0 0 -1
    outer loop
      vertex -10 -5 -7
      vertex -28 -15 -7
      vertex -10 5 -7
    endloop
  endfacet
  facet normal -0 0 -1
    outer loop
      vertex -10 5 -7
      vertex -28 -15 -7
      vertex -10 152 -7
    endloop
  endfacet
  facet normal 0 0 -1
    outer loop
      vertex -28 172 -7
      vertex -10 152 -7
      vertex -28 -15 -7
    endloop
  endfacet
  facet normal 0 0 -1
    outer loop
      vertex -10 152 -7
      vertex -28 172 -7
      vertex -10 162 -7
    endloop
  endfacet
  facet normal 0 0 -1
    outer loop
      vertex -10 162 -7
      vertex -28 172 -7
      vertex -10 172 -7
    endloop
  endfacet
  facet normal 0 0 -1
    outer loop
      vertex -10 -5 -7
      vertex 0 5 -7
      vertex 0 -5 -7
    endloop
  endfacet
  facet normal -0 0 -1
    outer loop
      vertex 0 5 -7
      vertex -10 -5 -7
      vertex -10 5 -7
    endloop
  endfacet
  facet normal 0 0 -1
    outer loop
      vertex -10 152 -7
      vertex 0 162 -7
      vertex 0 152 -7
    endloop
  endfacet
  facet normal -0 0 -1
    outer loop
      vertex 0 162 -7
      vertex -10 152 -7
      vertex -10 162 -7
    endloop
  endfacet
  facet normal 1 0 0
    outer loop
      vertex 0 5 8
      vertex 0 1.9 0
      vertex 0 5 -7
    endloop
  endfacet
  facet normal 1 0 0
    outer loop
      vertex 0 5 8
      vertex 0 1.86349 0.370671
      vertex 0 1.9 0
    endloop
  endfacet
  facet normal 1 0 0
    outer loop
      vertex 0 5 8
      vertex 0 1.75537 0.727098
      vertex 0 1.86349 0.370671
    endloop
  endfacet
  facet normal 1 0 0
    outer loop
      vertex 0 5 8
      vertex 0 1.57979 1.05558
      vertex 0 1.75537 0.727098
    endloop
  endfacet
  facet normal 1 0 0
    outer loop
      vertex 0 5 8
      vertex 0 1.3435 1.3435
      vertex 0 1.57979 1.05558
    endloop
  endfacet
  facet normal 1 0 0
    outer loop
      vertex 0 5 8
      vertex 0 1.05558 1.57979
      vertex 0 1.3435 1.3435
    endloop
  endfacet
  facet normal 1 0 0
    outer loop
      vertex 0 5 8
      vertex 0 0.727098 1.75537
      vertex 0 1.05558 1.57979
    endloop
  endfacet
  facet normal 1 0 0
    outer loop
      vertex 0 5 8
      vertex 0 0.370671 1.86349
      vertex 0 0.727098 1.75537
    endloop
  endfacet
  facet normal 1 0 0
    outer loop
      vertex 0 5 8
      vertex 0 0 1.9
      vertex 0 0.370671 1.86349
    endloop
  endfacet
  facet normal 1 -0 0
    outer loop
      vertex 0 -5 8
      vertex 0 0 1.9
      vertex 0 5 8
    endloop
  endfacet
  facet normal 1 0 0
    outer loop
      vertex 0 0 1.9
      vertex 0 -5 8
      vertex 0 -0.370671 1.86349
    endloop
  endfacet
  facet normal 1 0 0
    outer loop
      vertex 0 -0.370671 1.86349
      vertex 0 -5 8
      vertex 0 -0.727098 1.75537
    endloop
  endfacet
  facet normal 1 0 0
    outer loop
      vertex 0 -0.727098 1.75537
      vertex 0 -5 8
      vertex 0 -1.05558 1.57979
    endloop
  endfacet
  facet normal 1 0 0
    outer loop
      vertex 0 -1.86349 0.370671
      vertex 0 -5 8
      vertex 0 -1.9 0
    endloop
  endfacet
  facet normal 1 0 0
    outer loop
      vertex 0 -1.75537 0.727098
      vertex 0 -5 8
      vertex 0 -1.86349 0.370671
    endloop
  endfacet
  facet normal 1 0 0
    outer loop
      vertex 0 -1.57979 1.05558
      vertex 0 -5 8
      vertex 0 -1.75537 0.727098
    endloop
  endfacet
  facet normal 1 0 0
    outer loop
      vertex 0 -1.3435 1.3435
      vertex 0 -5 8
      vertex 0 -1.57979 1.05558
    endloop
  endfacet
  facet normal 1 0 0
    outer loop
      vertex 0 -1.05558 1.57979
      vertex 0 -5 8
      vertex 0 -1.3435 1.3435
    endloop
  endfacet
  facet normal 1 -0 0
    outer loop
      vertex 0 1.86349 -0.370671
      vertex 0 5 -7
      vertex 0 1.9 0
    endloop
  endfacet
  facet normal 1 -0 0
    outer loop
      vertex 0 1.75537 -0.727098
      vertex 0 5 -7
      vertex 0 1.86349 -0.370671
    endloop
  endfacet
  facet normal 1 -0 0
    outer loop
      vertex 0 1.57979 -1.05558
      vertex 0 5 -7
      vertex 0 1.75537 -0.727098
    endloop
  endfacet
  facet normal 1 -0 0
    outer loop
      vertex 0 1.3435 -1.3435
      vertex 0 5 -7
      vertex 0 1.57979 -1.05558
    endloop
  endfacet
  facet normal 1 -0 0
    outer loop
      vertex 0 1.05558 -1.57979
      vertex 0 5 -7
      vertex 0 1.3435 -1.3435
    endloop
  endfacet
  facet normal 1 -0 0
    outer loop
      vertex 0 0.727098 -1.75537
      vertex 0 5 -7
      vertex 0 1.05558 -1.57979
    endloop
  endfacet
  facet normal 1 -0 0
    outer loop
      vertex 0 0.370671 -1.86349
      vertex 0 5 -7
      vertex 0 0.727098 -1.75537
    endloop
  endfacet
  facet normal 1 -0 0
    outer loop
      vertex 0 0 -1.9
      vertex 0 5 -7
      vertex 0 0.370671 -1.86349
    endloop
  endfacet
  facet normal 1 0 0
    outer loop
      vertex 0 -5 -7
      vertex 0 0 -1.9
      vertex 0 -0.370671 -1.86349
    endloop
  endfacet
  facet normal 1 0 0
    outer loop
      vertex 0 -5 -7
      vertex 0 -0.370671 -1.86349
      vertex 0 -0.727098 -1.75537
    endloop
  endfacet
  facet normal 1 0 0
    outer loop
      vertex 0 -5 -7
      vertex 0 -0.727098 -1.75537
      vertex 0 -1.05558 -1.57979
    endloop
  endfacet
  facet normal 1 0 0
    outer loop
      vertex 0 -5 -7
      vertex 0 -1.05558 -1.57979
      vertex 0 -1.3435 -1.3435
    endloop
  endfacet
  facet normal 1 0 0
    outer loop
      vertex 0 -5 -7
      vertex 0 -1.9 0
      vertex 0 -5 8
    endloop
  endfacet
  facet normal 1 0 0
    outer loop
      vertex 0 -1.9 0
      vertex 0 -5 -7
      vertex 0 -1.86349 -0.370671
    endloop
  endfacet
  facet normal 1 0 0
    outer loop
      vertex 0 0 -1.9
      vertex 0 -5 -7
      vertex 0 5 -7
    endloop
  endfacet
  facet normal 1 0 0
    outer loop
      vertex 0 -1.57979 -1.05558
      vertex 0 -5 -7
      vertex 0 -1.3435 -1.3435
    endloop
  endfacet
  facet normal 1 0 0
    outer loop
      vertex 0 -1.75537 -0.727098
      vertex 0 -5 -7
      vertex 0 -1.57979 -1.05558
    endloop
  endfacet
  facet normal 1 0 0
    outer loop
      vertex 0 -1.86349 -0.370671
      vertex 0 -5 -7
      vertex 0 -1.75537 -0.727098
    endloop
  endfacet
  facet normal 0 1 0
    outer loop
      vertex 0 5 8
      vertex -3.75 5 2.96481
      vertex -10 5 8
    endloop
  endfacet
  facet normal 0 1 -0
    outer loop
      vertex 0 5 -7
      vertex -3.75 5 2.96481
      vertex 0 5 8
    endloop
  endfacet
  facet normal 0 1 0
    outer loop
      vertex -3.75 5 -2.96481
      vertex 0 5 -7
      vertex -6.25 5 -2.96481
    endloop
  endfacet
  facet normal 0 1 0
    outer loop
      vertex -3.75 5 2.96481
      vertex 0 5 -7
      vertex -3.75 5 -2.96481
    endloop
  endfacet
  facet normal 0 1 -0
    outer loop
      vertex -6.25 5 2.96481
      vertex -10 5 8
      vertex -3.75 5 2.96481
    endloop
  endfacet
  facet normal 0 1 0
    outer loop
      vertex -10 5 -7
      vertex -6.25 5 2.96481
      vertex -6.25 5 -2.96481
    endloop
  endfacet
  facet normal 0 1 0
    outer loop
      vertex -6.25 5 2.96481
      vertex -10 5 -7
      vertex -10 5 8
    endloop
  endfacet
  facet normal 0 1 0
    outer loop
      vertex -10 5 -7
      vertex -6.25 5 -2.96481
      vertex 0 5 -7
    endloop
  endfacet
  facet normal 0 -1 0
    outer loop
      vertex -10 -5 -7
      vertex 0 -5 8
      vertex -10 -5 8
    endloop
  endfacet
  facet normal 0 -1 -0
    outer loop
      vertex 0 -5 8
      vertex -10 -5 -7
      vertex 0 -5 -7
    endloop
  endfacet
  facet normal 0 0 -1
    outer loop
      vertex -6.25 155.288 2.96481
      vertex -3.75 162 2.96481
      vertex -3.75 155.288 2.96481
    endloop
  endfacet
  facet normal -0 0 -1
    outer loop
      vertex -3.75 162 2.96481
      vertex -6.25 155.288 2.96481
      vertex -6.25 162 2.96481
    endloop
  endfacet
  facet normal 0 0.866118 0.499839
    outer loop
      vertex -3.75 155.288 -2.96481
      vertex -6.25 153.577 0
      vertex -3.75 153.577 0
    endloop
  endfacet
  facet normal 0 0.866118 0.499839
    outer loop
      vertex -6.25 153.577 0
      vertex -3.75 155.288 -2.96481
      vertex -6.25 155.288 -2.96481
    endloop
  endfacet
  facet normal -0 0 1
    outer loop
      vertex -6.25 162 -2.96481
      vertex -3.75 155.288 -2.96481
      vertex -3.75 162 -2.96481
    endloop
  endfacet
  facet normal 0 0 1
    outer loop
      vertex -3.75 155.288 -2.96481
      vertex -6.25 162 -2.96481
      vertex -6.25 155.288 -2.96481
    endloop
  endfacet
  facet normal -1 0 0
    outer loop
      vertex -3.75 162 -2.96481
      vertex -3.75 158.9 0
      vertex -3.75 162 2.96481
    endloop
  endfacet
  facet normal -1 0 0
    outer loop
      vertex -3.75 162 -2.96481
      vertex -3.75 158.863 -0.370671
      vertex -3.75 158.9 0
    endloop
  endfacet
  facet normal -1 0 0
    outer loop
      vertex -3.75 162 -2.96481
      vertex -3.75 158.755 -0.727098
      vertex -3.75 158.863 -0.370671
    endloop
  endfacet
  facet normal -1 0 0
    outer loop
      vertex -3.75 162 -2.96481
      vertex -3.75 158.58 -1.05558
      vertex -3.75 158.755 -0.727098
    endloop
  endfacet
  facet normal -1 0 0
    outer loop
      vertex -3.75 162 -2.96481
      vertex -3.75 158.344 -1.3435
      vertex -3.75 158.58 -1.05558
    endloop
  endfacet
  facet normal -1 0 0
    outer loop
      vertex -3.75 162 -2.96481
      vertex -3.75 158.056 -1.57979
      vertex -3.75 158.344 -1.3435
    endloop
  endfacet
  facet normal -1 0 0
    outer loop
      vertex -3.75 162 -2.96481
      vertex -3.75 157.727 -1.75537
      vertex -3.75 158.056 -1.57979
    endloop
  endfacet
  facet normal -1 0 0
    outer loop
      vertex -3.75 162 -2.96481
      vertex -3.75 157.371 -1.86349
      vertex -3.75 157.727 -1.75537
    endloop
  endfacet
  facet normal -1 0 0
    outer loop
      vertex -3.75 155.288 -2.96481
      vertex -3.75 157.371 -1.86349
      vertex -3.75 162 -2.96481
    endloop
  endfacet
  facet normal -1 0 0
    outer loop
      vertex -3.75 157.371 -1.86349
      vertex -3.75 155.288 -2.96481
      vertex -3.75 157 -1.9
    endloop
  endfacet
  facet normal -1 -0 0
    outer loop
      vertex -3.75 157 -1.9
      vertex -3.75 155.288 -2.96481
      vertex -3.75 156.629 -1.86349
    endloop
  endfacet
  facet normal -1 0 0
    outer loop
      vertex -3.75 155.288 -2.96481
      vertex -3.75 156.273 -1.75537
      vertex -3.75 156.629 -1.86349
    endloop
  endfacet
  facet normal -1 0 0
    outer loop
      vertex -3.75 155.288 -2.96481
      vertex -3.75 155.944 -1.57979
      vertex -3.75 156.273 -1.75537
    endloop
  endfacet
  facet normal -1 0 0
    outer loop
      vertex -3.75 155.288 -2.96481
      vertex -3.75 155.656 -1.3435
      vertex -3.75 155.944 -1.57979
    endloop
  endfacet
  facet normal -1 0 0
    outer loop
      vertex -3.75 155.288 -2.96481
      vertex -3.75 155.42 -1.05558
      vertex -3.75 155.656 -1.3435
    endloop
  endfacet
  facet normal -1 0 0
    outer loop
      vertex -3.75 153.577 0
      vertex -3.75 155.42 -1.05558
      vertex -3.75 155.288 -2.96481
    endloop
  endfacet
  facet normal -1 0 0
    outer loop
      vertex -3.75 155.42 -1.05558
      vertex -3.75 153.577 0
      vertex -3.75 155.245 -0.727098
    endloop
  endfacet
  facet normal -1 0 0
    outer loop
      vertex -3.75 155.245 -0.727098
      vertex -3.75 153.577 0
      vertex -3.75 155.137 -0.370671
    endloop
  endfacet
  facet normal -1 0 0
    outer loop
      vertex -3.75 155.137 -0.370671
      vertex -3.75 153.577 0
      vertex -3.75 155.1 0
    endloop
  endfacet
  facet normal -1 0 0
    outer loop
      vertex -3.75 158.863 0.370671
      vertex -3.75 162 2.96481
      vertex -3.75 158.9 0
    endloop
  endfacet
  facet normal -1 0 0
    outer loop
      vertex -3.75 158.755 0.727098
      vertex -3.75 162 2.96481
      vertex -3.75 158.863 0.370671
    endloop
  endfacet
  facet normal -1 0 0
    outer loop
      vertex -3.75 158.58 1.05558
      vertex -3.75 162 2.96481
      vertex -3.75 158.755 0.727098
    endloop
  endfacet
  facet normal -1 0 0
    outer loop
      vertex -3.75 158.344 1.3435
      vertex -3.75 162 2.96481
      vertex -3.75 158.58 1.05558
    endloop
  endfacet
  facet normal -1 0 0
    outer loop
      vertex -3.75 158.056 1.57979
      vertex -3.75 162 2.96481
      vertex -3.75 158.344 1.3435
    endloop
  endfacet
  facet normal -1 0 0
    outer loop
      vertex -3.75 157.727 1.75537
      vertex -3.75 162 2.96481
      vertex -3.75 158.056 1.57979
    endloop
  endfacet
  facet normal -1 0 0
    outer loop
      vertex -3.75 157.371 1.86349
      vertex -3.75 162 2.96481
      vertex -3.75 157.727 1.75537
    endloop
  endfacet
  facet normal -1 0 0
    outer loop
      vertex -3.75 155.288 2.96481
      vertex -3.75 157.371 1.86349
      vertex -3.75 157 1.9
    endloop
  endfacet
  facet normal -1 0 0
    outer loop
      vertex -3.75 155.288 2.96481
      vertex -3.75 157 1.9
      vertex -3.75 156.629 1.86349
    endloop
  endfacet
  facet normal -1 0 0
    outer loop
      vertex -3.75 157.371 1.86349
      vertex -3.75 155.288 2.96481
      vertex -3.75 162 2.96481
    endloop
  endfacet
  facet normal -1 0 0
    outer loop
      vertex -3.75 156.273 1.75537
      vertex -3.75 155.288 2.96481
      vertex -3.75 156.629 1.86349
    endloop
  endfacet
  facet normal -1 0 0
    outer loop
      vertex -3.75 155.944 1.57979
      vertex -3.75 155.288 2.96481
      vertex -3.75 156.273 1.75537
    endloop
  endfacet
  facet normal -1 0 0
    outer loop
      vertex -3.75 155.656 1.3435
      vertex -3.75 155.288 2.96481
      vertex -3.75 155.944 1.57979
    endloop
  endfacet
  facet normal -1 0 0
    outer loop
      vertex -3.75 155.42 1.05558
      vertex -3.75 155.288 2.96481
      vertex -3.75 155.656 1.3435
    endloop
  endfacet
  facet normal -1 0 0
    outer loop
      vertex -3.75 153.577 0
      vertex -3.75 155.42 1.05558
      vertex -3.75 155.245 0.727098
    endloop
  endfacet
  facet normal -1 0 0
    outer loop
      vertex -3.75 153.577 0
      vertex -3.75 155.245 0.727098
      vertex -3.75 155.137 0.370671
    endloop
  endfacet
  facet normal -1 0 0
    outer loop
      vertex -3.75 153.577 0
      vertex -3.75 155.137 0.370671
      vertex -3.75 155.1 0
    endloop
  endfacet
  facet normal -1 -0 0
    outer loop
      vertex -3.75 155.42 1.05558
      vertex -3.75 153.577 0
      vertex -3.75 155.288 2.96481
    endloop
  endfacet
  facet normal 1 0 0
    outer loop
      vertex -6.25 162 2.96481
      vertex -6.25 158.9 0
      vertex -6.25 162 -2.96481
    endloop
  endfacet
  facet normal 1 0 0
    outer loop
      vertex -6.25 162 2.96481
      vertex -6.25 158.863 0.370671
      vertex -6.25 158.9 0
    endloop
  endfacet
  facet normal 1 0 0
    outer loop
      vertex -6.25 162 2.96481
      vertex -6.25 158.755 0.727098
      vertex -6.25 158.863 0.370671
    endloop
  endfacet
  facet normal 1 0 0
    outer loop
      vertex -6.25 162 2.96481
      vertex -6.25 158.58 1.05558
      vertex -6.25 158.755 0.727098
    endloop
  endfacet
  facet normal 1 0 0
    outer loop
      vertex -6.25 162 2.96481
      vertex -6.25 158.344 1.3435
      vertex -6.25 158.58 1.05558
    endloop
  endfacet
  facet normal 1 0 0
    outer loop
      vertex -6.25 162 2.96481
      vertex -6.25 158.056 1.57979
      vertex -6.25 158.344 1.3435
    endloop
  endfacet
  facet normal 1 0 0
    outer loop
      vertex -6.25 162 2.96481
      vertex -6.25 157.727 1.75537
      vertex -6.25 158.056 1.57979
    endloop
  endfacet
  facet normal 1 0 0
    outer loop
      vertex -6.25 162 2.96481
      vertex -6.25 157.371 1.86349
      vertex -6.25 157.727 1.75537
    endloop
  endfacet
  facet normal 1 -0 0
    outer loop
      vertex -6.25 155.288 2.96481
      vertex -6.25 157.371 1.86349
      vertex -6.25 162 2.96481
    endloop
  endfacet
  facet normal 1 0 0
    outer loop
      vertex -6.25 157.371 1.86349
      vertex -6.25 155.288 2.96481
      vertex -6.25 157 1.9
    endloop
  endfacet
  facet normal 1 0 0
    outer loop
      vertex -6.25 157 1.9
      vertex -6.25 155.288 2.96481
      vertex -6.25 156.629 1.86349
    endloop
  endfacet
  facet normal 1 0 0
    outer loop
      vertex -6.25 155.288 2.96481
      vertex -6.25 156.273 1.75537
      vertex -6.25 156.629 1.86349
    endloop
  endfacet
  facet normal 1 0 0
    outer loop
      vertex -6.25 155.288 2.96481
      vertex -6.25 155.944 1.57979
      vertex -6.25 156.273 1.75537
    endloop
  endfacet
  facet normal 1 0 0
    outer loop
      vertex -6.25 155.288 2.96481
      vertex -6.25 155.656 1.3435
      vertex -6.25 155.944 1.57979
    endloop
  endfacet
  facet normal 1 0 0
    outer loop
      vertex -6.25 155.288 2.96481
      vertex -6.25 155.42 1.05558
      vertex -6.25 155.656 1.3435
    endloop
  endfacet
  facet normal 1 0 0
    outer loop
      vertex -6.25 153.577 0
      vertex -6.25 155.42 1.05558
      vertex -6.25 155.288 2.96481
    endloop
  endfacet
  facet normal 1 0 0
    outer loop
      vertex -6.25 155.42 1.05558
      vertex -6.25 153.577 0
      vertex -6.25 155.245 0.727098
    endloop
  endfacet
  facet normal 1 0 0
    outer loop
      vertex -6.25 155.245 0.727098
      vertex -6.25 153.577 0
      vertex -6.25 155.137 0.370671
    endloop
  endfacet
  facet normal 1 0 0
    outer loop
      vertex -6.25 155.137 0.370671
      vertex -6.25 153.577 0
      vertex -6.25 155.1 0
    endloop
  endfacet
  facet normal 1 -0 0
    outer loop
      vertex -6.25 158.863 -0.370671
      vertex -6.25 162 -2.96481
      vertex -6.25 158.9 0
    endloop
  endfacet
  facet normal 1 -0 0
    outer loop
      vertex -6.25 158.755 -0.727098
      vertex -6.25 162 -2.96481
      vertex -6.25 158.863 -0.370671
    endloop
  endfacet
  facet normal 1 -0 0
    outer loop
      vertex -6.25 158.58 -1.05558
      vertex -6.25 162 -2.96481
      vertex -6.25 158.755 -0.727098
    endloop
  endfacet
  facet normal 1 -0 0
    outer loop
      vertex -6.25 158.344 -1.3435
      vertex -6.25 162 -2.96481
      vertex -6.25 158.58 -1.05558
    endloop
  endfacet
  facet normal 1 -0 0
    outer loop
      vertex -6.25 158.056 -1.57979
      vertex -6.25 162 -2.96481
      vertex -6.25 158.344 -1.3435
    endloop
  endfacet
  facet normal 1 -0 0
    outer loop
      vertex -6.25 157.727 -1.75537
      vertex -6.25 162 -2.96481
      vertex -6.25 158.056 -1.57979
    endloop
  endfacet
  facet normal 1 -0 0
    outer loop
      vertex -6.25 157.371 -1.86349
      vertex -6.25 162 -2.96481
      vertex -6.25 157.727 -1.75537
    endloop
  endfacet
  facet normal 1 0 0
    outer loop
      vertex -6.25 155.288 -2.96481
      vertex -6.25 157.371 -1.86349
      vertex -6.25 157 -1.9
    endloop
  endfacet
  facet normal 1 0 0
    outer loop
      vertex -6.25 155.288 -2.96481
      vertex -6.25 157 -1.9
      vertex -6.25 156.629 -1.86349
    endloop
  endfacet
  facet normal 1 0 0
    outer loop
      vertex -6.25 157.371 -1.86349
      vertex -6.25 155.288 -2.96481
      vertex -6.25 162 -2.96481
    endloop
  endfacet
  facet normal 1 0 0
    outer loop
      vertex -6.25 156.273 -1.75537
      vertex -6.25 155.288 -2.96481
      vertex -6.25 156.629 -1.86349
    endloop
  endfacet
  facet normal 1 0 0
    outer loop
      vertex -6.25 155.944 -1.57979
      vertex -6.25 155.288 -2.96481
      vertex -6.25 156.273 -1.75537
    endloop
  endfacet
  facet normal 1 0 0
    outer loop
      vertex -6.25 155.656 -1.3435
      vertex -6.25 155.288 -2.96481
      vertex -6.25 155.944 -1.57979
    endloop
  endfacet
  facet normal 1 0 0
    outer loop
      vertex -6.25 155.42 -1.05558
      vertex -6.25 155.288 -2.96481
      vertex -6.25 155.656 -1.3435
    endloop
  endfacet
  facet normal 1 0 0
    outer loop
      vertex -6.25 153.577 0
      vertex -6.25 155.42 -1.05558
      vertex -6.25 155.245 -0.727098
    endloop
  endfacet
  facet normal 1 0 0
    outer loop
      vertex -6.25 153.577 0
      vertex -6.25 155.245 -0.727098
      vertex -6.25 155.137 -0.370671
    endloop
  endfacet
  facet normal 1 -0 0
    outer loop
      vertex -6.25 153.577 0
      vertex -6.25 155.137 -0.370671
      vertex -6.25 155.1 0
    endloop
  endfacet
  facet normal 1 0 0
    outer loop
      vertex -6.25 155.42 -1.05558
      vertex -6.25 153.577 0
      vertex -6.25 155.288 -2.96481
    endloop
  endfacet
  facet normal 0 0.866118 -0.499839
    outer loop
      vertex -3.75 153.577 0
      vertex -6.25 155.288 2.96481
      vertex -3.75 155.288 2.96481
    endloop
  endfacet
  facet normal 0 0.866118 -0.499839
    outer loop
      vertex -6.25 155.288 2.96481
      vertex -3.75 153.577 0
      vertex -6.25 153.577 0
    endloop
  endfacet
  facet normal 0 0.290601 -0.956844
    outer loop
      vertex -3.75 156.273 1.75537
      vertex 0 156.629 1.86349
      vertex 0 156.273 1.75537
    endloop
  endfacet
  facet normal 0 0.290601 -0.956844
    outer loop
      vertex 0 156.629 1.86349
      vertex -3.75 156.273 1.75537
      vertex -3.75 156.629 1.86349
    endloop
  endfacet
  facet normal 0 0.290601 -0.956844
    outer loop
      vertex -10 156.273 1.75537
      vertex -6.25 156.629 1.86349
      vertex -6.25 156.273 1.75537
    endloop
  endfacet
  facet normal 0 0.290601 -0.956844
    outer loop
      vertex -6.25 156.629 1.86349
      vertex -10 156.273 1.75537
      vertex -10 156.629 1.86349
    endloop
  endfacet
  facet normal 0 -0.957031 -0.289987
    outer loop
      vertex -3.75 158.863 0.370671
      vertex 0 158.755 0.727098
      vertex -3.75 158.755 0.727098
    endloop
  endfacet
  facet normal 0 -0.957031 -0.289987
    outer loop
      vertex 0 158.755 0.727098
      vertex -3.75 158.863 0.370671
      vertex 0 158.863 0.370671
    endloop
  endfacet
  facet normal 0 -0.957031 -0.289987
    outer loop
      vertex -10 158.863 0.370671
      vertex -6.25 158.755 0.727098
      vertex -10 158.755 0.727098
    endloop
  endfacet
  facet normal 0 -0.957031 -0.289987
    outer loop
      vertex -6.25 158.755 0.727098
      vertex -10 158.863 0.370671
      vertex -6.25 158.863 0.370671
    endloop
  endfacet
  facet normal 0 -0.995055 -0.0993254
    outer loop
      vertex -3.75 158.9 0
      vertex 0 158.863 0.370671
      vertex -3.75 158.863 0.370671
    endloop
  endfacet
  facet normal 0 -0.995055 -0.0993254
    outer loop
      vertex 0 158.863 0.370671
      vertex -3.75 158.9 0
      vertex 0 158.9 0
    endloop
  endfacet
  facet normal 0 -0.995055 -0.0993254
    outer loop
      vertex -10 158.9 0
      vertex -6.25 158.863 0.370671
      vertex -10 158.863 0.370671
    endloop
  endfacet
  facet normal 0 -0.995055 -0.0993254
    outer loop
      vertex -6.25 158.863 0.370671
      vertex -10 158.9 0
      vertex -6.25 158.9 0
    endloop
  endfacet
  facet normal 0 -0.882565 -0.47019
    outer loop
      vertex -10 158.755 0.727098
      vertex -6.25 158.58 1.05558
      vertex -10 158.58 1.05558
    endloop
  endfacet
  facet normal 0 -0.882565 -0.47019
    outer loop
      vertex -6.25 158.58 1.05558
      vertex -10 158.755 0.727098
      vertex -6.25 158.755 0.727098
    endloop
  endfacet
  facet normal 0 -0.882565 -0.47019
    outer loop
      vertex -3.75 158.755 0.727098
      vertex 0 158.58 1.05558
      vertex -3.75 158.58 1.05558
    endloop
  endfacet
  facet normal 0 -0.882565 -0.47019
    outer loop
      vertex 0 158.58 1.05558
      vertex -3.75 158.755 0.727098
      vertex 0 158.755 0.727098
    endloop
  endfacet
  facet normal 0 0.995055 0.0993254
    outer loop
      vertex 0 155.137 -0.370671
      vertex -3.75 155.1 0
      vertex 0 155.1 0
    endloop
  endfacet
  facet normal 0 0.995055 0.0993254
    outer loop
      vertex -3.75 155.1 0
      vertex 0 155.137 -0.370671
      vertex -3.75 155.137 -0.370671
    endloop
  endfacet
  facet normal 0 0.995055 0.0993254
    outer loop
      vertex -6.25 155.137 -0.370671
      vertex -10 155.1 0
      vertex -6.25 155.1 0
    endloop
  endfacet
  facet normal 0 0.995055 0.0993254
    outer loop
      vertex -10 155.1 0
      vertex -6.25 155.137 -0.370671
      vertex -10 155.137 -0.370671
    endloop
  endfacet
  facet normal 0 -0.634288 0.773097
    outer loop
      vertex -3.75 158.344 -1.3435
      vertex 0 158.056 -1.57979
      vertex 0 158.344 -1.3435
    endloop
  endfacet
  facet normal 0 -0.634288 0.773097
    outer loop
      vertex 0 158.056 -1.57979
      vertex -3.75 158.344 -1.3435
      vertex -3.75 158.056 -1.57979
    endloop
  endfacet
  facet normal 0 -0.634288 0.773097
    outer loop
      vertex -10 158.344 -1.3435
      vertex -6.25 158.056 -1.57979
      vertex -6.25 158.344 -1.3435
    endloop
  endfacet
  facet normal 0 -0.634288 0.773097
    outer loop
      vertex -6.25 158.056 -1.57979
      vertex -10 158.344 -1.3435
      vertex -10 158.056 -1.57979
    endloop
  endfacet
  facet normal 0 -0.995055 0.0993254
    outer loop
      vertex -3.75 158.863 -0.370671
      vertex 0 158.9 0
      vertex -3.75 158.9 0
    endloop
  endfacet
  facet normal 0 -0.995055 0.0993254
    outer loop
      vertex 0 158.9 0
      vertex -3.75 158.863 -0.370671
      vertex 0 158.863 -0.370671
    endloop
  endfacet
  facet normal 0 -0.995055 0.0993254
    outer loop
      vertex -10 158.863 -0.370671
      vertex -6.25 158.9 0
      vertex -10 158.9 0
    endloop
  endfacet
  facet normal 0 -0.995055 0.0993254
    outer loop
      vertex -6.25 158.9 0
      vertex -10 158.863 -0.370671
      vertex -6.25 158.863 -0.370671
    endloop
  endfacet
  facet normal 0 -0.290601 0.956844
    outer loop
      vertex -10 157.727 -1.75537
      vertex -6.25 157.371 -1.86349
      vertex -6.25 157.727 -1.75537
    endloop
  endfacet
  facet normal 0 -0.290601 0.956844
    outer loop
      vertex -6.25 157.371 -1.86349
      vertex -10 157.727 -1.75537
      vertex -10 157.371 -1.86349
    endloop
  endfacet
  facet normal 0 -0.290601 0.956844
    outer loop
      vertex -3.75 157.727 -1.75537
      vertex 0 157.371 -1.86349
      vertex 0 157.727 -1.75537
    endloop
  endfacet
  facet normal 0 -0.290601 0.956844
    outer loop
      vertex 0 157.371 -1.86349
      vertex -3.75 157.727 -1.75537
      vertex -3.75 157.371 -1.86349
    endloop
  endfacet
  facet normal 0 -0.773392 -0.633928
    outer loop
      vertex -3.75 158.58 1.05558
      vertex 0 158.344 1.3435
      vertex -3.75 158.344 1.3435
    endloop
  endfacet
  facet normal 0 -0.773392 -0.633928
    outer loop
      vertex 0 158.344 1.3435
      vertex -3.75 158.58 1.05558
      vertex 0 158.58 1.05558
    endloop
  endfacet
  facet normal 0 -0.773392 -0.633928
    outer loop
      vertex -10 158.58 1.05558
      vertex -6.25 158.344 1.3435
      vertex -10 158.344 1.3435
    endloop
  endfacet
  facet normal 0 -0.773392 -0.633928
    outer loop
      vertex -6.25 158.344 1.3435
      vertex -10 158.58 1.05558
      vertex -6.25 158.58 1.05558
    endloop
  endfacet
  facet normal 0 0.882565 0.47019
    outer loop
      vertex -6.25 155.42 -1.05558
      vertex -10 155.245 -0.727098
      vertex -6.25 155.245 -0.727098
    endloop
  endfacet
  facet normal 0 0.882565 0.47019
    outer loop
      vertex -10 155.245 -0.727098
      vertex -6.25 155.42 -1.05558
      vertex -10 155.42 -1.05558
    endloop
  endfacet
  facet normal 0 0.882565 0.47019
    outer loop
      vertex 0 155.42 -1.05558
      vertex -3.75 155.245 -0.727098
      vertex 0 155.245 -0.727098
    endloop
  endfacet
  facet normal 0 0.882565 0.47019
    outer loop
      vertex -3.75 155.245 -0.727098
      vertex 0 155.42 -1.05558
      vertex -3.75 155.42 -1.05558
    endloop
  endfacet
  facet normal 0 0.773392 -0.633928
    outer loop
      vertex 0 155.42 1.05558
      vertex -3.75 155.656 1.3435
      vertex 0 155.656 1.3435
    endloop
  endfacet
  facet normal 0 0.773392 -0.633928
    outer loop
      vertex -3.75 155.656 1.3435
      vertex 0 155.42 1.05558
      vertex -3.75 155.42 1.05558
    endloop
  endfacet
  facet normal 0 0.773392 -0.633928
    outer loop
      vertex -6.25 155.42 1.05558
      vertex -10 155.656 1.3435
      vertex -6.25 155.656 1.3435
    endloop
  endfacet
  facet normal 0 0.773392 -0.633928
    outer loop
      vertex -10 155.656 1.3435
      vertex -6.25 155.42 1.05558
      vertex -10 155.42 1.05558
    endloop
  endfacet
  facet normal 0 -0.882565 0.47019
    outer loop
      vertex -10 158.58 -1.05558
      vertex -6.25 158.755 -0.727098
      vertex -10 158.755 -0.727098
    endloop
  endfacet
  facet normal 0 -0.882565 0.47019
    outer loop
      vertex -6.25 158.755 -0.727098
      vertex -10 158.58 -1.05558
      vertex -6.25 158.58 -1.05558
    endloop
  endfacet
  facet normal 0 -0.882565 0.47019
    outer loop
      vertex -3.75 158.58 -1.05558
      vertex 0 158.755 -0.727098
      vertex -3.75 158.755 -0.727098
    endloop
  endfacet
  facet normal 0 -0.882565 0.47019
    outer loop
      vertex 0 158.755 -0.727098
      vertex -3.75 158.58 -1.05558
      vertex 0 158.58 -1.05558
    endloop
  endfacet
  facet normal 0 -0.0979366 -0.995193
    outer loop
      vertex -3.75 157 1.9
      vertex 0 157.371 1.86349
      vertex 0 157 1.9
    endloop
  endfacet
  facet normal -0 -0.0979366 -0.995193
    outer loop
      vertex 0 157.371 1.86349
      vertex -3.75 157 1.9
      vertex -3.75 157.371 1.86349
    endloop
  endfacet
  facet normal 0 -0.0979366 -0.995193
    outer loop
      vertex -10 157 1.9
      vertex -6.25 157.371 1.86349
      vertex -6.25 157 1.9
    endloop
  endfacet
  facet normal -0 -0.0979366 -0.995193
    outer loop
      vertex -6.25 157.371 1.86349
      vertex -10 157 1.9
      vertex -10 157.371 1.86349
    endloop
  endfacet
  facet normal 0 -0.957031 0.289987
    outer loop
      vertex -10 158.755 -0.727098
      vertex -6.25 158.863 -0.370671
      vertex -10 158.863 -0.370671
    endloop
  endfacet
  facet normal 0 -0.957031 0.289987
    outer loop
      vertex -6.25 158.863 -0.370671
      vertex -10 158.755 -0.727098
      vertex -6.25 158.755 -0.727098
    endloop
  endfacet
  facet normal 0 -0.957031 0.289987
    outer loop
      vertex -3.75 158.755 -0.727098
      vertex 0 158.863 -0.370671
      vertex -3.75 158.863 -0.370671
    endloop
  endfacet
  facet normal 0 -0.957031 0.289987
    outer loop
      vertex 0 158.863 -0.370671
      vertex -3.75 158.755 -0.727098
      vertex 0 158.755 -0.727098
    endloop
  endfacet
  facet normal 0 0.0979366 -0.995193
    outer loop
      vertex -10 156.629 1.86349
      vertex -6.25 157 1.9
      vertex -6.25 156.629 1.86349
    endloop
  endfacet
  facet normal 0 0.0979366 -0.995193
    outer loop
      vertex -6.25 157 1.9
      vertex -10 156.629 1.86349
      vertex -10 157 1.9
    endloop
  endfacet
  facet normal 0 0.0979366 -0.995193
    outer loop
      vertex -3.75 156.629 1.86349
      vertex 0 157 1.9
      vertex 0 156.629 1.86349
    endloop
  endfacet
  facet normal 0 0.0979366 -0.995193
    outer loop
      vertex 0 157 1.9
      vertex -3.75 156.629 1.86349
      vertex -3.75 157 1.9
    endloop
  endfacet
  facet normal 0 0.957031 -0.289987
    outer loop
      vertex -6.25 155.137 0.370671
      vertex -10 155.245 0.727098
      vertex -6.25 155.245 0.727098
    endloop
  endfacet
  facet normal 0 0.957031 -0.289987
    outer loop
      vertex -10 155.245 0.727098
      vertex -6.25 155.137 0.370671
      vertex -10 155.137 0.370671
    endloop
  endfacet
  facet normal 0 0.957031 -0.289987
    outer loop
      vertex 0 155.137 0.370671
      vertex -3.75 155.245 0.727098
      vertex 0 155.245 0.727098
    endloop
  endfacet
  facet normal 0 0.957031 -0.289987
    outer loop
      vertex -3.75 155.245 0.727098
      vertex 0 155.137 0.370671
      vertex -3.75 155.137 0.370671
    endloop
  endfacet
  facet normal -0 0.290601 0.956844
    outer loop
      vertex -10 156.629 -1.86349
      vertex -6.25 156.273 -1.75537
      vertex -6.25 156.629 -1.86349
    endloop
  endfacet
  facet normal 0 0.290601 0.956844
    outer loop
      vertex -6.25 156.273 -1.75537
      vertex -10 156.629 -1.86349
      vertex -10 156.273 -1.75537
    endloop
  endfacet
  facet normal -0 0.290601 0.956844
    outer loop
      vertex -3.75 156.629 -1.86349
      vertex 0 156.273 -1.75537
      vertex 0 156.629 -1.86349
    endloop
  endfacet
  facet normal 0 0.290601 0.956844
    outer loop
      vertex 0 156.273 -1.75537
      vertex -3.75 156.629 -1.86349
      vertex -3.75 156.273 -1.75537
    endloop
  endfacet
  facet normal 0 0.470825 -0.882227
    outer loop
      vertex -3.75 155.944 1.57979
      vertex 0 156.273 1.75537
      vertex 0 155.944 1.57979
    endloop
  endfacet
  facet normal 0 0.470825 -0.882227
    outer loop
      vertex 0 156.273 1.75537
      vertex -3.75 155.944 1.57979
      vertex -3.75 156.273 1.75537
    endloop
  endfacet
  facet normal 0 0.470825 -0.882227
    outer loop
      vertex -10 155.944 1.57979
      vertex -6.25 156.273 1.75537
      vertex -6.25 155.944 1.57979
    endloop
  endfacet
  facet normal 0 0.470825 -0.882227
    outer loop
      vertex -6.25 156.273 1.75537
      vertex -10 155.944 1.57979
      vertex -10 156.273 1.75537
    endloop
  endfacet
  facet normal -0 0.0979366 0.995193
    outer loop
      vertex -3.75 157 -1.9
      vertex 0 156.629 -1.86349
      vertex 0 157 -1.9
    endloop
  endfacet
  facet normal 0 0.0979366 0.995193
    outer loop
      vertex 0 156.629 -1.86349
      vertex -3.75 157 -1.9
      vertex -3.75 156.629 -1.86349
    endloop
  endfacet
  facet normal -0 0.0979366 0.995193
    outer loop
      vertex -10 157 -1.9
      vertex -6.25 156.629 -1.86349
      vertex -6.25 157 -1.9
    endloop
  endfacet
  facet normal 0 0.0979366 0.995193
    outer loop
      vertex -6.25 156.629 -1.86349
      vertex -10 157 -1.9
      vertex -10 156.629 -1.86349
    endloop
  endfacet
  facet normal 0 -0.470825 -0.882227
    outer loop
      vertex -10 157.727 1.75537
      vertex -6.25 158.056 1.57979
      vertex -6.25 157.727 1.75537
    endloop
  endfacet
  facet normal -0 -0.470825 -0.882227
    outer loop
      vertex -6.25 158.056 1.57979
      vertex -10 157.727 1.75537
      vertex -10 158.056 1.57979
    endloop
  endfacet
  facet normal 0 -0.470825 -0.882227
    outer loop
      vertex -3.75 157.727 1.75537
      vertex 0 158.056 1.57979
      vertex 0 157.727 1.75537
    endloop
  endfacet
  facet normal -0 -0.470825 -0.882227
    outer loop
      vertex 0 158.056 1.57979
      vertex -3.75 157.727 1.75537
      vertex -3.75 158.056 1.57979
    endloop
  endfacet
  facet normal -0 0.634288 0.773097
    outer loop
      vertex -10 155.944 -1.57979
      vertex -6.25 155.656 -1.3435
      vertex -6.25 155.944 -1.57979
    endloop
  endfacet
  facet normal 0 0.634288 0.773097
    outer loop
      vertex -6.25 155.656 -1.3435
      vertex -10 155.944 -1.57979
      vertex -10 155.656 -1.3435
    endloop
  endfacet
  facet normal -0 0.634288 0.773097
    outer loop
      vertex -3.75 155.944 -1.57979
      vertex 0 155.656 -1.3435
      vertex 0 155.944 -1.57979
    endloop
  endfacet
  facet normal 0 0.634288 0.773097
    outer loop
      vertex 0 155.656 -1.3435
      vertex -3.75 155.944 -1.57979
      vertex -3.75 155.656 -1.3435
    endloop
  endfacet
  facet normal 0 -0.290601 -0.956844
    outer loop
      vertex -3.75 157.371 1.86349
      vertex 0 157.727 1.75537
      vertex 0 157.371 1.86349
    endloop
  endfacet
  facet normal -0 -0.290601 -0.956844
    outer loop
      vertex 0 157.727 1.75537
      vertex -3.75 157.371 1.86349
      vertex -3.75 157.727 1.75537
    endloop
  endfacet
  facet normal 0 -0.290601 -0.956844
    outer loop
      vertex -10 157.371 1.86349
      vertex -6.25 157.727 1.75537
      vertex -6.25 157.371 1.86349
    endloop
  endfacet
  facet normal -0 -0.290601 -0.956844
    outer loop
      vertex -6.25 157.727 1.75537
      vertex -10 157.371 1.86349
      vertex -10 157.727 1.75537
    endloop
  endfacet
  facet normal 0 -0.470825 0.882227
    outer loop
      vertex -10 158.056 -1.57979
      vertex -6.25 157.727 -1.75537
      vertex -6.25 158.056 -1.57979
    endloop
  endfacet
  facet normal 0 -0.470825 0.882227
    outer loop
      vertex -6.25 157.727 -1.75537
      vertex -10 158.056 -1.57979
      vertex -10 157.727 -1.75537
    endloop
  endfacet
  facet normal 0 -0.470825 0.882227
    outer loop
      vertex -3.75 158.056 -1.57979
      vertex 0 157.727 -1.75537
      vertex 0 158.056 -1.57979
    endloop
  endfacet
  facet normal 0 -0.470825 0.882227
    outer loop
      vertex 0 157.727 -1.75537
      vertex -3.75 158.056 -1.57979
      vertex -3.75 157.727 -1.75537
    endloop
  endfacet
  facet normal 0 0.882565 -0.47019
    outer loop
      vertex -6.25 155.245 0.727098
      vertex -10 155.42 1.05558
      vertex -6.25 155.42 1.05558
    endloop
  endfacet
  facet normal 0 0.882565 -0.47019
    outer loop
      vertex -10 155.42 1.05558
      vertex -6.25 155.245 0.727098
      vertex -10 155.245 0.727098
    endloop
  endfacet
  facet normal 0 0.882565 -0.47019
    outer loop
      vertex 0 155.245 0.727098
      vertex -3.75 155.42 1.05558
      vertex 0 155.42 1.05558
    endloop
  endfacet
  facet normal 0 0.882565 -0.47019
    outer loop
      vertex -3.75 155.42 1.05558
      vertex 0 155.245 0.727098
      vertex -3.75 155.245 0.727098
    endloop
  endfacet
  facet normal 0 0.634288 -0.773097
    outer loop
      vertex -3.75 155.656 1.3435
      vertex 0 155.944 1.57979
      vertex 0 155.656 1.3435
    endloop
  endfacet
  facet normal 0 0.634288 -0.773097
    outer loop
      vertex 0 155.944 1.57979
      vertex -3.75 155.656 1.3435
      vertex -3.75 155.944 1.57979
    endloop
  endfacet
  facet normal 0 0.634288 -0.773097
    outer loop
      vertex -10 155.656 1.3435
      vertex -6.25 155.944 1.57979
      vertex -6.25 155.656 1.3435
    endloop
  endfacet
  facet normal 0 0.634288 -0.773097
    outer loop
      vertex -6.25 155.944 1.57979
      vertex -10 155.656 1.3435
      vertex -10 155.944 1.57979
    endloop
  endfacet
  facet normal -0 0.470825 0.882227
    outer loop
      vertex -10 156.273 -1.75537
      vertex -6.25 155.944 -1.57979
      vertex -6.25 156.273 -1.75537
    endloop
  endfacet
  facet normal 0 0.470825 0.882227
    outer loop
      vertex -6.25 155.944 -1.57979
      vertex -10 156.273 -1.75537
      vertex -10 155.944 -1.57979
    endloop
  endfacet
  facet normal -0 0.470825 0.882227
    outer loop
      vertex -3.75 156.273 -1.75537
      vertex 0 155.944 -1.57979
      vertex 0 156.273 -1.75537
    endloop
  endfacet
  facet normal 0 0.470825 0.882227
    outer loop
      vertex 0 155.944 -1.57979
      vertex -3.75 156.273 -1.75537
      vertex -3.75 155.944 -1.57979
    endloop
  endfacet
  facet normal 0 -0.634288 -0.773097
    outer loop
      vertex -3.75 158.056 1.57979
      vertex 0 158.344 1.3435
      vertex 0 158.056 1.57979
    endloop
  endfacet
  facet normal -0 -0.634288 -0.773097
    outer loop
      vertex 0 158.344 1.3435
      vertex -3.75 158.056 1.57979
      vertex -3.75 158.344 1.3435
    endloop
  endfacet
  facet normal 0 -0.634288 -0.773097
    outer loop
      vertex -10 158.056 1.57979
      vertex -6.25 158.344 1.3435
      vertex -6.25 158.056 1.57979
    endloop
  endfacet
  facet normal -0 -0.634288 -0.773097
    outer loop
      vertex -6.25 158.344 1.3435
      vertex -10 158.056 1.57979
      vertex -10 158.344 1.3435
    endloop
  endfacet
  facet normal 0 0.773392 0.633928
    outer loop
      vertex -6.25 155.656 -1.3435
      vertex -10 155.42 -1.05558
      vertex -6.25 155.42 -1.05558
    endloop
  endfacet
  facet normal 0 0.773392 0.633928
    outer loop
      vertex -10 155.42 -1.05558
      vertex -6.25 155.656 -1.3435
      vertex -10 155.656 -1.3435
    endloop
  endfacet
  facet normal 0 0.773392 0.633928
    outer loop
      vertex 0 155.656 -1.3435
      vertex -3.75 155.42 -1.05558
      vertex 0 155.42 -1.05558
    endloop
  endfacet
  facet normal 0 0.773392 0.633928
    outer loop
      vertex -3.75 155.42 -1.05558
      vertex 0 155.656 -1.3435
      vertex -3.75 155.656 -1.3435
    endloop
  endfacet
  facet normal 0 -0.0979366 0.995193
    outer loop
      vertex -10 157.371 -1.86349
      vertex -6.25 157 -1.9
      vertex -6.25 157.371 -1.86349
    endloop
  endfacet
  facet normal 0 -0.0979366 0.995193
    outer loop
      vertex -6.25 157 -1.9
      vertex -10 157.371 -1.86349
      vertex -10 157 -1.9
    endloop
  endfacet
  facet normal 0 -0.0979366 0.995193
    outer loop
      vertex -3.75 157.371 -1.86349
      vertex 0 157 -1.9
      vertex 0 157.371 -1.86349
    endloop
  endfacet
  facet normal 0 -0.0979366 0.995193
    outer loop
      vertex 0 157 -1.9
      vertex -3.75 157.371 -1.86349
      vertex -3.75 157 -1.9
    endloop
  endfacet
  facet normal 0 0.957031 0.289987
    outer loop
      vertex -6.25 155.245 -0.727098
      vertex -10 155.137 -0.370671
      vertex -6.25 155.137 -0.370671
    endloop
  endfacet
  facet normal 0 0.957031 0.289987
    outer loop
      vertex -10 155.137 -0.370671
      vertex -6.25 155.245 -0.727098
      vertex -10 155.245 -0.727098
    endloop
  endfacet
  facet normal 0 0.957031 0.289987
    outer loop
      vertex 0 155.245 -0.727098
      vertex -3.75 155.137 -0.370671
      vertex 0 155.137 -0.370671
    endloop
  endfacet
  facet normal 0 0.957031 0.289987
    outer loop
      vertex -3.75 155.137 -0.370671
      vertex 0 155.245 -0.727098
      vertex -3.75 155.245 -0.727098
    endloop
  endfacet
  facet normal 0 -0.773392 0.633928
    outer loop
      vertex -10 158.344 -1.3435
      vertex -6.25 158.58 -1.05558
      vertex -10 158.58 -1.05558
    endloop
  endfacet
  facet normal 0 -0.773392 0.633928
    outer loop
      vertex -6.25 158.58 -1.05558
      vertex -10 158.344 -1.3435
      vertex -6.25 158.344 -1.3435
    endloop
  endfacet
  facet normal 0 -0.773392 0.633928
    outer loop
      vertex -3.75 158.344 -1.3435
      vertex 0 158.58 -1.05558
      vertex -3.75 158.58 -1.05558
    endloop
  endfacet
  facet normal 0 -0.773392 0.633928
    outer loop
      vertex 0 158.58 -1.05558
      vertex -3.75 158.344 -1.3435
      vertex 0 158.344 -1.3435
    endloop
  endfacet
  facet normal 0 0.995055 -0.0993254
    outer loop
      vertex 0 155.1 0
      vertex -3.75 155.137 0.370671
      vertex 0 155.137 0.370671
    endloop
  endfacet
  facet normal 0 0.995055 -0.0993254
    outer loop
      vertex -3.75 155.137 0.370671
      vertex 0 155.1 0
      vertex -3.75 155.1 0
    endloop
  endfacet
  facet normal 0 0.995055 -0.0993254
    outer loop
      vertex -6.25 155.1 0
      vertex -10 155.137 0.370671
      vertex -6.25 155.137 0.370671
    endloop
  endfacet
  facet normal 0 0.995055 -0.0993254
    outer loop
      vertex -10 155.137 0.370671
      vertex -6.25 155.1 0
      vertex -10 155.1 0
    endloop
  endfacet
  facet normal 1 0 0
    outer loop
      vertex 0 162 8
      vertex 0 158.9 0
      vertex 0 162 -7
    endloop
  endfacet
  facet normal 1 0 0
    outer loop
      vertex 0 162 8
      vertex 0 158.863 0.370671
      vertex 0 158.9 0
    endloop
  endfacet
  facet normal 1 0 0
    outer loop
      vertex 0 162 8
      vertex 0 158.755 0.727098
      vertex 0 158.863 0.370671
    endloop
  endfacet
  facet normal 1 0 0
    outer loop
      vertex 0 162 8
      vertex 0 158.58 1.05558
      vertex 0 158.755 0.727098
    endloop
  endfacet
  facet normal 1 0 0
    outer loop
      vertex 0 162 8
      vertex 0 158.344 1.3435
      vertex 0 158.58 1.05558
    endloop
  endfacet
  facet normal 1 0 0
    outer loop
      vertex 0 162 8
      vertex 0 158.056 1.57979
      vertex 0 158.344 1.3435
    endloop
  endfacet
  facet normal 1 0 0
    outer loop
      vertex 0 162 8
      vertex 0 157.727 1.75537
      vertex 0 158.056 1.57979
    endloop
  endfacet
  facet normal 1 0 0
    outer loop
      vertex 0 162 8
      vertex 0 157.371 1.86349
      vertex 0 157.727 1.75537
    endloop
  endfacet
  facet normal 1 0 0
    outer loop
      vertex 0 162 8
      vertex 0 157 1.9
      vertex 0 157.371 1.86349
    endloop
  endfacet
  facet normal 1 -0 0
    outer loop
      vertex 0 152 8
      vertex 0 157 1.9
      vertex 0 162 8
    endloop
  endfacet
  facet normal 1 0 0
    outer loop
      vertex 0 157 1.9
      vertex 0 152 8
      vertex 0 156.629 1.86349
    endloop
  endfacet
  facet normal 1 0 0
    outer loop
      vertex 0 156.629 1.86349
      vertex 0 152 8
      vertex 0 156.273 1.75537
    endloop
  endfacet
  facet normal 1 0 0
    outer loop
      vertex 0 156.273 1.75537
      vertex 0 152 8
      vertex 0 155.944 1.57979
    endloop
  endfacet
  facet normal 1 0 0
    outer loop
      vertex 0 155.137 0.370671
      vertex 0 152 8
      vertex 0 155.1 0
    endloop
  endfacet
  facet normal 1 0 0
    outer loop
      vertex 0 155.245 0.727098
      vertex 0 152 8
      vertex 0 155.137 0.370671
    endloop
  endfacet
  facet normal 1 0 0
    outer loop
      vertex 0 155.42 1.05558
      vertex 0 152 8
      vertex 0 155.245 0.727098
    endloop
  endfacet
  facet normal 1 0 0
    outer loop
      vertex 0 155.656 1.3435
      vertex 0 152 8
      vertex 0 155.42 1.05558
    endloop
  endfacet
  facet normal 1 0 0
    outer loop
      vertex 0 155.944 1.57979
      vertex 0 152 8
      vertex 0 155.656 1.3435
    endloop
  endfacet
  facet normal 1 -0 0
    outer loop
      vertex 0 158.863 -0.370671
      vertex 0 162 -7
      vertex 0 158.9 0
    endloop
  endfacet
  facet normal 1 -0 0
    outer loop
      vertex 0 158.755 -0.727098
      vertex 0 162 -7
      vertex 0 158.863 -0.370671
    endloop
  endfacet
  facet normal 1 -0 0
    outer loop
      vertex 0 158.58 -1.05558
      vertex 0 162 -7
      vertex 0 158.755 -0.727098
    endloop
  endfacet
  facet normal 1 -0 0
    outer loop
      vertex 0 158.344 -1.3435
      vertex 0 162 -7
      vertex 0 158.58 -1.05558
    endloop
  endfacet
  facet normal 1 -0 0
    outer loop
      vertex 0 158.056 -1.57979
      vertex 0 162 -7
      vertex 0 158.344 -1.3435
    endloop
  endfacet
  facet normal 1 -0 0
    outer loop
      vertex 0 157.727 -1.75537
      vertex 0 162 -7
      vertex 0 158.056 -1.57979
    endloop
  endfacet
  facet normal 1 -0 0
    outer loop
      vertex 0 157.371 -1.86349
      vertex 0 162 -7
      vertex 0 157.727 -1.75537
    endloop
  endfacet
  facet normal 1 -0 0
    outer loop
      vertex 0 157 -1.9
      vertex 0 162 -7
      vertex 0 157.371 -1.86349
    endloop
  endfacet
  facet normal 1 0 0
    outer loop
      vertex 0 152 -7
      vertex 0 157 -1.9
      vertex 0 156.629 -1.86349
    endloop
  endfacet
  facet normal 1 0 0
    outer loop
      vertex 0 152 -7
      vertex 0 156.629 -1.86349
      vertex 0 156.273 -1.75537
    endloop
  endfacet
  facet normal 1 0 0
    outer loop
      vertex 0 152 -7
      vertex 0 156.273 -1.75537
      vertex 0 155.944 -1.57979
    endloop
  endfacet
  facet normal 1 0 0
    outer loop
      vertex 0 152 -7
      vertex 0 155.944 -1.57979
      vertex 0 155.656 -1.3435
    endloop
  endfacet
  facet normal 1 0 0
    outer loop
      vertex 0 152 -7
      vertex 0 155.1 0
      vertex 0 152 8
    endloop
  endfacet
  facet normal 1 0 0
    outer loop
      vertex 0 155.1 0
      vertex 0 152 -7
      vertex 0 155.137 -0.370671
    endloop
  endfacet
  facet normal 1 0 0
    outer loop
      vertex 0 157 -1.9
      vertex 0 152 -7
      vertex 0 162 -7
    endloop
  endfacet
  facet normal 1 0 0
    outer loop
      vertex 0 155.42 -1.05558
      vertex 0 152 -7
      vertex 0 155.656 -1.3435
    endloop
  endfacet
  facet normal 1 0 0
    outer loop
      vertex 0 155.245 -0.727098
      vertex 0 152 -7
      vertex 0 155.42 -1.05558
    endloop
  endfacet
  facet normal 1 0 0
    outer loop
      vertex 0 155.137 -0.370671
      vertex 0 152 -7
      vertex 0 155.245 -0.727098
    endloop
  endfacet
  facet normal 0 1 0
    outer loop
      vertex 0 162 8
      vertex -3.75 162 2.96481
      vertex -10 162 8
    endloop
  endfacet
  facet normal 0 1 -0
    outer loop
      vertex 0 162 -7
      vertex -3.75 162 2.96481
      vertex 0 162 8
    endloop
  endfacet
  facet normal 0 1 0
    outer loop
      vertex -3.75 162 -2.96481
      vertex 0 162 -7
      vertex -6.25 162 -2.96481
    endloop
  endfacet
  facet normal 0 1 0
    outer loop
      vertex -3.75 162 2.96481
      vertex 0 162 -7
      vertex -3.75 162 -2.96481
    endloop
  endfacet
  facet normal 0 1 -0
    outer loop
      vertex -6.25 162 2.96481
      vertex -10 162 8
      vertex -3.75 162 2.96481
    endloop
  endfacet
  facet normal 0 1 0
    outer loop
      vertex -10 162 -7
      vertex -6.25 162 2.96481
      vertex -6.25 162 -2.96481
    endloop
  endfacet
  facet normal 0 1 0
    outer loop
      vertex -6.25 162 2.96481
      vertex -10 162 -7
      vertex -10 162 8
    endloop
  endfacet
  facet normal 0 1 0
    outer loop
      vertex -10 162 -7
      vertex -6.25 162 -2.96481
      vertex 0 162 -7
    endloop
  endfacet
  facet normal 0 -1 0
    outer loop
      vertex -10 152 -7
      vertex 0 152 8
      vertex -10 152 8
    endloop
  endfacet
  facet normal 0 -1 -0
    outer loop
      vertex 0 152 8
      vertex -10 152 -7
      vertex 0 152 -7
    endloop
  endfacet
  facet normal -1 0 0
    outer loop
      vertex -28 172 -7
      vertex -28 169 -5
      vertex -28 172 8
    endloop
  endfacet
  facet normal -1 0 0
    outer loop
      vertex -28 -15 -7
      vertex -28 169 -5
      vertex -28 172 -7
    endloop
  endfacet
  facet normal -1 -0 0
    outer loop
      vertex -28 169 -5
      vertex -28 -15 -7
      vertex -28 -15 -5
    endloop
  endfacet
  facet normal -1 -0 0
    outer loop
      vertex -28 172 8
      vertex -28 169 -5
      vertex -28 169 8
    endloop
  endfacet
  facet normal -0 0 1
    outer loop
      vertex -28 169 -5
      vertex -12 -15 -5
      vertex -12 169 -5
    endloop
  endfacet
  facet normal 0 0 1
    outer loop
      vertex -12 -15 -5
      vertex -28 169 -5
      vertex -28 -15 -5
    endloop
  endfacet
  facet normal 0 1 -0
    outer loop
      vertex -10 172 -7
      vertex -28 172 8
      vertex -10 172 8
    endloop
  endfacet
  facet normal 0 1 0
    outer loop
      vertex -28 172 8
      vertex -10 172 -7
      vertex -28 172 -7
    endloop
  endfacet
  facet normal 0 -1 0
    outer loop
      vertex -28 -15 -5
      vertex -28 -15 -7
      vertex -12 -15 -5
    endloop
  endfacet
  facet normal 0 -1 0
    outer loop
      vertex -12 -15 -5
      vertex -10 -15 8
      vertex -12 -15 8
    endloop
  endfacet
  facet normal 0 -1 0
    outer loop
      vertex -12 -15 -5
      vertex -10 -15 -7
      vertex -10 -15 8
    endloop
  endfacet
  facet normal 0 -1 0
    outer loop
      vertex -10 -15 -7
      vertex -12 -15 -5
      vertex -28 -15 -7
    endloop
  endfacet
  facet normal -1 0 0
    outer loop
      vertex -12 -15 -5
      vertex -12 169 8
      vertex -12 169 -5
    endloop
  endfacet
  facet normal -1 -0 0
    outer loop
      vertex -12 169 8
      vertex -12 -15 -5
      vertex -12 -15 8
    endloop
  endfacet
  facet normal 0 -1 0
    outer loop
      vertex -28 169 -5
      vertex -12 169 8
      vertex -28 169 8
    endloop
  endfacet
  facet normal 0 -1 -0
    outer loop
      vertex -12 169 8
      vertex -28 169 -5
      vertex -12 169 -5
    endloop
  endfacet
endsolid OpenSCAD_Model
