solid OpenSCAD_Model
  facet normal 1 0 0
    outer loop
      vertex 5 5 5
      vertex 5 2.25 2.25
      vertex 5 5 -5
    endloop
  endfacet
  facet normal 1 0 0
    outer loop
      vertex 5 5 5
      vertex 5 -2.25 2.25
      vertex 5 2.25 2.25
    endloop
  endfacet
  facet normal 1 0 0
    outer loop
      vertex 5 -2.25 2.25
      vertex 5 -5 5
      vertex 5 -2.25 -2.25
    endloop
  endfacet
  facet normal 1 -0 0
    outer loop
      vertex 5 -5 5
      vertex 5 -2.25 2.25
      vertex 5 5 5
    endloop
  endfacet
  facet normal 1 -0 0
    outer loop
      vertex 5 2.25 -2.25
      vertex 5 5 -5
      vertex 5 2.25 2.25
    endloop
  endfacet
  facet normal 1 -0 0
    outer loop
      vertex 5 -2.25 -2.25
      vertex 5 5 -5
      vertex 5 2.25 -2.25
    endloop
  endfacet
  facet normal 1 0 0
    outer loop
      vertex 5 -2.25 -2.25
      vertex 5 -5 -5
      vertex 5 5 -5
    endloop
  endfacet
  facet normal 1 0 0
    outer loop
      vertex 5 -5 -5
      vertex 5 -2.25 -2.25
      vertex 5 -5 5
    endloop
  endfacet
  facet normal -0 0 1
    outer loop
      vertex -5 5 5
      vertex 5 -5 5
      vertex 5 5 5
    endloop
  endfacet
  facet normal 0 0 1
    outer loop
      vertex 5 -5 5
      vertex -5 5 5
      vertex -5 -5 5
    endloop
  endfacet
  facet normal 0 0 -1
    outer loop
      vertex -5 -5 -5
      vertex 5 5 -5
      vertex 5 -5 -5
    endloop
  endfacet
  facet normal -0 0 -1
    outer loop
      vertex 5 5 -5
      vertex -5 -5 -5
      vertex -5 5 -5
    endloop
  endfacet
  facet normal -1 0 0
    outer loop
      vertex -5 -5 -5
      vertex -5 5 5
      vertex -5 5 -5
    endloop
  endfacet
  facet normal -1 -0 0
    outer loop
      vertex -5 5 5
      vertex -5 -5 -5
      vertex -5 -5 5
    endloop
  endfacet
  facet normal 0 1 -0
    outer loop
      vertex 5 5 -5
      vertex -5 5 5
      vertex 5 5 5
    endloop
  endfacet
  facet normal 0 1 0
    outer loop
      vertex -5 5 5
      vertex 5 5 -5
      vertex -5 5 -5
    endloop
  endfacet
  facet normal 0 -1 0
    outer loop
      vertex -5 -5 -5
      vertex 5 -5 5
      vertex -5 -5 5
    endloop
  endfacet
  facet normal 0 -1 -0
    outer loop
      vertex 5 -5 5
      vertex -5 -5 -5
      vertex 5 -5 -5
    endloop
  endfacet
  facet normal 1 -0 0
    outer loop
      vertex 9.5 -2.25 2.25
      vertex 9.5 2.25 -2.25
      vertex 9.5 2.25 2.25
    endloop
  endfacet
  facet normal 1 0 0
    outer loop
      vertex 9.5 2.25 -2.25
      vertex 9.5 -2.25 2.25
      vertex 9.5 -2.25 -2.25
    endloop
  endfacet
  facet normal -0 0 1
    outer loop
      vertex 5 2.25 2.25
      vertex 9.5 -2.25 2.25
      vertex 9.5 2.25 2.25
    endloop
  endfacet
  facet normal 0 0 1
    outer loop
      vertex 9.5 -2.25 2.25
      vertex 5 2.25 2.25
      vertex 5 -2.25 2.25
    endloop
  endfacet
  facet normal 0 0 -1
    outer loop
      vertex 5 -2.25 -2.25
      vertex 9.5 2.25 -2.25
      vertex 9.5 -2.25 -2.25
    endloop
  endfacet
  facet normal -0 0 -1
    outer loop
      vertex 9.5 2.25 -2.25
      vertex 5 -2.25 -2.25
      vertex 5 2.25 -2.25
    endloop
  endfacet
  facet normal 0 1 -0
    outer loop
      vertex 9.5 2.25 -2.25
      vertex 5 2.25 2.25
      vertex 9.5 2.25 2.25
    endloop
  endfacet
  facet normal 0 1 0
    outer loop
      vertex 5 2.25 2.25
      vertex 9.5 2.25 -2.25
      vertex 5 2.25 -2.25
    endloop
  endfacet
  facet normal 0 -1 0
    outer loop
      vertex 5 -2.25 -2.25
      vertex 9.5 -2.25 2.25
      vertex 5 -2.25 2.25
    endloop
  endfacet
  facet normal 0 -1 -0
    outer loop
      vertex 9.5 -2.25 2.25
      vertex 5 -2.25 -2.25
      vertex 9.5 -2.25 -2.25
    endloop
  endfacet
  facet normal 1 0 0
    outer loop
      vertex 5 20 5
      vertex 5 17.375 2.375
      vertex 5 20 -5
    endloop
  endfacet
  facet normal 1 0 0
    outer loop
      vertex 5 20 5
      vertex 5 12.625 2.375
      vertex 5 17.375 2.375
    endloop
  endfacet
  facet normal 1 0 0
    outer loop
      vertex 5 12.625 2.375
      vertex 5 10 5
      vertex 5 12.625 -2.375
    endloop
  endfacet
  facet normal 1 -0 0
    outer loop
      vertex 5 10 5
      vertex 5 12.625 2.375
      vertex 5 20 5
    endloop
  endfacet
  facet normal 1 -0 0
    outer loop
      vertex 5 17.375 -2.375
      vertex 5 20 -5
      vertex 5 17.375 2.375
    endloop
  endfacet
  facet normal 1 -0 0
    outer loop
      vertex 5 12.625 -2.375
      vertex 5 20 -5
      vertex 5 17.375 -2.375
    endloop
  endfacet
  facet normal 1 0 0
    outer loop
      vertex 5 12.625 -2.375
      vertex 5 10 -5
      vertex 5 20 -5
    endloop
  endfacet
  facet normal 1 0 0
    outer loop
      vertex 5 10 -5
      vertex 5 12.625 -2.375
      vertex 5 10 5
    endloop
  endfacet
  facet normal -0 0 1
    outer loop
      vertex -5 20 5
      vertex 5 10 5
      vertex 5 20 5
    endloop
  endfacet
  facet normal 0 0 1
    outer loop
      vertex 5 10 5
      vertex -5 20 5
      vertex -5 10 5
    endloop
  endfacet
  facet normal 0 0 -1
    outer loop
      vertex -5 10 -5
      vertex 5 20 -5
      vertex 5 10 -5
    endloop
  endfacet
  facet normal -0 0 -1
    outer loop
      vertex 5 20 -5
      vertex -5 10 -5
      vertex -5 20 -5
    endloop
  endfacet
  facet normal -1 0 0
    outer loop
      vertex -5 10 -5
      vertex -5 20 5
      vertex -5 20 -5
    endloop
  endfacet
  facet normal -1 -0 0
    outer loop
      vertex -5 20 5
      vertex -5 10 -5
      vertex -5 10 5
    endloop
  endfacet
  facet normal 0 1 -0
    outer loop
      vertex 5 20 -5
      vertex -5 20 5
      vertex 5 20 5
    endloop
  endfacet
  facet normal 0 1 0
    outer loop
      vertex -5 20 5
      vertex 5 20 -5
      vertex -5 20 -5
    endloop
  endfacet
  facet normal 0 -1 0
    outer loop
      vertex -5 10 -5
      vertex 5 10 5
      vertex -5 10 5
    endloop
  endfacet
  facet normal 0 -1 -0
    outer loop
      vertex 5 10 5
      vertex -5 10 -5
      vertex 5 10 -5
    endloop
  endfacet
  facet normal 1 -0 0
    outer loop
      vertex 9.75 12.625 2.375
      vertex 9.75 17.375 -2.375
      vertex 9.75 17.375 2.375
    endloop
  endfacet
  facet normal 1 0 0
    outer loop
      vertex 9.75 17.375 -2.375
      vertex 9.75 12.625 2.375
      vertex 9.75 12.625 -2.375
    endloop
  endfacet
  facet normal -0 0 1
    outer loop
      vertex 5 17.375 2.375
      vertex 9.75 12.625 2.375
      vertex 9.75 17.375 2.375
    endloop
  endfacet
  facet normal 0 0 1
    outer loop
      vertex 9.75 12.625 2.375
      vertex 5 17.375 2.375
      vertex 5 12.625 2.375
    endloop
  endfacet
  facet normal 0 0 -1
    outer loop
      vertex 5 12.625 -2.375
      vertex 9.75 17.375 -2.375
      vertex 9.75 12.625 -2.375
    endloop
  endfacet
  facet normal -0 0 -1
    outer loop
      vertex 9.75 17.375 -2.375
      vertex 5 12.625 -2.375
      vertex 5 17.375 -2.375
    endloop
  endfacet
  facet normal 0 1 -0
    outer loop
      vertex 9.75 17.375 -2.375
      vertex 5 17.375 2.375
      vertex 9.75 17.375 2.375
    endloop
  endfacet
  facet normal 0 1 0
    outer loop
      vertex 5 17.375 2.375
      vertex 9.75 17.375 -2.375
      vertex 5 17.375 -2.375
    endloop
  endfacet
  facet normal 0 -1 0
    outer loop
      vertex 5 12.625 -2.375
      vertex 9.75 12.625 2.375
      vertex 5 12.625 2.375
    endloop
  endfacet
  facet normal 0 -1 -0
    outer loop
      vertex 9.75 12.625 2.375
      vertex 5 12.625 -2.375
      vertex 9.75 12.625 -2.375
    endloop
  endfacet
  facet normal 1 0 0
    outer loop
      vertex 5 35 5
      vertex 5 32.45 2.45
      vertex 5 35 -5
    endloop
  endfacet
  facet normal 1 0 0
    outer loop
      vertex 5 35 5
      vertex 5 27.55 2.45
      vertex 5 32.45 2.45
    endloop
  endfacet
  facet normal 1 0 0
    outer loop
      vertex 5 27.55 2.45
      vertex 5 25 5
      vertex 5 27.55 -2.45
    endloop
  endfacet
  facet normal 1 -0 0
    outer loop
      vertex 5 25 5
      vertex 5 27.55 2.45
      vertex 5 35 5
    endloop
  endfacet
  facet normal 1 -0 0
    outer loop
      vertex 5 32.45 -2.45
      vertex 5 35 -5
      vertex 5 32.45 2.45
    endloop
  endfacet
  facet normal 1 -0 0
    outer loop
      vertex 5 27.55 -2.45
      vertex 5 35 -5
      vertex 5 32.45 -2.45
    endloop
  endfacet
  facet normal 1 0 0
    outer loop
      vertex 5 27.55 -2.45
      vertex 5 25 -5
      vertex 5 35 -5
    endloop
  endfacet
  facet normal 1 0 0
    outer loop
      vertex 5 25 -5
      vertex 5 27.55 -2.45
      vertex 5 25 5
    endloop
  endfacet
  facet normal -0 0 1
    outer loop
      vertex -5 35 5
      vertex 5 25 5
      vertex 5 35 5
    endloop
  endfacet
  facet normal 0 0 1
    outer loop
      vertex 5 25 5
      vertex -5 35 5
      vertex -5 25 5
    endloop
  endfacet
  facet normal 0 0 -1
    outer loop
      vertex -5 25 -5
      vertex 5 35 -5
      vertex 5 25 -5
    endloop
  endfacet
  facet normal -0 0 -1
    outer loop
      vertex 5 35 -5
      vertex -5 25 -5
      vertex -5 35 -5
    endloop
  endfacet
  facet normal -1 0 0
    outer loop
      vertex -5 25 -5
      vertex -5 35 5
      vertex -5 35 -5
    endloop
  endfacet
  facet normal -1 -0 0
    outer loop
      vertex -5 35 5
      vertex -5 25 -5
      vertex -5 25 5
    endloop
  endfacet
  facet normal 0 1 -0
    outer loop
      vertex 5 35 -5
      vertex -5 35 5
      vertex 5 35 5
    endloop
  endfacet
  facet normal 0 1 0
    outer loop
      vertex -5 35 5
      vertex 5 35 -5
      vertex -5 35 -5
    endloop
  endfacet
  facet normal 0 -1 0
    outer loop
      vertex -5 25 -5
      vertex 5 25 5
      vertex -5 25 5
    endloop
  endfacet
  facet normal 0 -1 -0
    outer loop
      vertex 5 25 5
      vertex -5 25 -5
      vertex 5 25 -5
    endloop
  endfacet
  facet normal 1 -0 0
    outer loop
      vertex 9.9 27.55 2.45
      vertex 9.9 32.45 -2.45
      vertex 9.9 32.45 2.45
    endloop
  endfacet
  facet normal 1 0 0
    outer loop
      vertex 9.9 32.45 -2.45
      vertex 9.9 27.55 2.45
      vertex 9.9 27.55 -2.45
    endloop
  endfacet
  facet normal -0 0 1
    outer loop
      vertex 5 32.45 2.45
      vertex 9.9 27.55 2.45
      vertex 9.9 32.45 2.45
    endloop
  endfacet
  facet normal 0 0 1
    outer loop
      vertex 9.9 27.55 2.45
      vertex 5 32.45 2.45
      vertex 5 27.55 2.45
    endloop
  endfacet
  facet normal 0 0 -1
    outer loop
      vertex 5 27.55 -2.45
      vertex 9.9 32.45 -2.45
      vertex 9.9 27.55 -2.45
    endloop
  endfacet
  facet normal -0 0 -1
    outer loop
      vertex 9.9 32.45 -2.45
      vertex 5 27.55 -2.45
      vertex 5 32.45 -2.45
    endloop
  endfacet
  facet normal 0 1 -0
    outer loop
      vertex 9.9 32.45 -2.45
      vertex 5 32.45 2.45
      vertex 9.9 32.45 2.45
    endloop
  endfacet
  facet normal 0 1 0
    outer loop
      vertex 5 32.45 2.45
      vertex 9.9 32.45 -2.45
      vertex 5 32.45 -2.45
    endloop
  endfacet
  facet normal 0 -1 0
    outer loop
      vertex 5 27.55 -2.45
      vertex 9.9 27.55 2.45
      vertex 5 27.55 2.45
    endloop
  endfacet
  facet normal 0 -1 -0
    outer loop
      vertex 9.9 27.55 2.45
      vertex 5 27.55 -2.45
      vertex 9.9 27.55 -2.45
    endloop
  endfacet
endsolid OpenSCAD_Model
