solid OpenSCAD_Model
  facet normal 0 0 -1
    outer loop
      vertex 2.68468 0 -5
      vertex 4.5 70 -5
      vertex 4.5 0 -5
    endloop
  endfacet
  facet normal -0 0 -1
    outer loop
      vertex 4.5 70 -5
      vertex 2.68468 0 -5
      vertex 2.68468 70 -5
    endloop
  endfacet
  facet normal 0 0 -1
    outer loop
      vertex -4.5 0 -5
      vertex -2.68468 70 -5
      vertex -2.68468 0 -5
    endloop
  endfacet
  facet normal -0 0 -1
    outer loop
      vertex -2.68468 70 -5
      vertex -4.5 0 -5
      vertex -4.5 70 -5
    endloop
  endfacet
  facet normal 0 0 -1
    outer loop
      vertex -4.02702 0 -7.325
      vertex 4.02702 70 -7.325
      vertex 4.02702 0 -7.325
    endloop
  endfacet
  facet normal -0 0 -1
    outer loop
      vertex 4.02702 70 -7.325
      vertex -4.02702 0 -7.325
      vertex -4.02702 70 -7.325
    endloop
  endfacet
  facet normal 0.866025 -0 0.5
    outer loop
      vertex 2.68468 0 -5
      vertex 4.02702 70 -7.325
      vertex 2.68468 70 -5
    endloop
  endfacet
  facet normal 0.866025 0 0.5
    outer loop
      vertex 4.02702 70 -7.325
      vertex 2.68468 0 -5
      vertex 4.02702 0 -7.325
    endloop
  endfacet
  facet normal -0.866025 0 0.5
    outer loop
      vertex -4.02702 0 -7.325
      vertex -2.68468 70 -5
      vertex -4.02702 70 -7.325
    endloop
  endfacet
  facet normal -0.866025 0 0.5
    outer loop
      vertex -2.68468 70 -5
      vertex -4.02702 0 -7.325
      vertex -2.68468 0 -5
    endloop
  endfacet
  facet normal 0 1 0
    outer loop
      vertex 4.02702 70 -7.325
      vertex -2.68468 70 -5
      vertex 2.68468 70 -5
    endloop
  endfacet
  facet normal 0 1 0
    outer loop
      vertex -2.68468 70 -5
      vertex 4.02702 70 -7.325
      vertex -4.02702 70 -7.325
    endloop
  endfacet
  facet normal 0 1 0
    outer loop
      vertex 184.027 70 -7.325
      vertex 177.315 70 -5
      vertex 182.685 70 -5
    endloop
  endfacet
  facet normal 0 1 0
    outer loop
      vertex 177.315 70 -5
      vertex 184.027 70 -7.325
      vertex 175.973 70 -7.325
    endloop
  endfacet
  facet normal 0 1 0
    outer loop
      vertex 2.68468 70 -5
      vertex 4.5 70 -3
      vertex 4.5 70 -5
    endloop
  endfacet
  facet normal 0 1 0
    outer loop
      vertex 4.5 70 -3
      vertex 2.68468 70 -5
      vertex -4.5 70 -3
    endloop
  endfacet
  facet normal 0 1 -0
    outer loop
      vertex -2.68468 70 -5
      vertex -4.5 70 -3
      vertex 2.68468 70 -5
    endloop
  endfacet
  facet normal 0 1 0
    outer loop
      vertex -4.5 70 -3
      vertex -2.68468 70 -5
      vertex -4.5 70 -5
    endloop
  endfacet
  facet normal 0 1 0
    outer loop
      vertex 182.685 70 -5
      vertex 184.5 70 -3
      vertex 184.5 70 -5
    endloop
  endfacet
  facet normal 0 1 0
    outer loop
      vertex 184.5 70 -3
      vertex 182.685 70 -5
      vertex 175.5 70 -3
    endloop
  endfacet
  facet normal 0 1 -0
    outer loop
      vertex 177.315 70 -5
      vertex 175.5 70 -3
      vertex 182.685 70 -5
    endloop
  endfacet
  facet normal 0 1 0
    outer loop
      vertex 175.5 70 -3
      vertex 177.315 70 -5
      vertex 175.5 70 -5
    endloop
  endfacet
  facet normal 0 1 0
    outer loop
      vertex 184.5 70 -3
      vertex 190 70 0
      vertex 190 70 -3
    endloop
  endfacet
  facet normal 0 1 0
    outer loop
      vertex 175.5 70 -3
      vertex 190 70 0
      vertex 184.5 70 -3
    endloop
  endfacet
  facet normal 0 1 0
    outer loop
      vertex 190 70 0
      vertex 175.5 70 -3
      vertex -10 70 0
    endloop
  endfacet
  facet normal 0 1 -0
    outer loop
      vertex 4.5 70 -3
      vertex -10 70 0
      vertex 175.5 70 -3
    endloop
  endfacet
  facet normal 0 1 -0
    outer loop
      vertex -4.5 70 -3
      vertex -10 70 0
      vertex 4.5 70 -3
    endloop
  endfacet
  facet normal 0 1 0
    outer loop
      vertex -10 70 0
      vertex -4.5 70 -3
      vertex -10 70 -3
    endloop
  endfacet
  facet normal 0 -1 0
    outer loop
      vertex -4.02702 0 -7.325
      vertex 2.68468 0 -5
      vertex -2.68468 0 -5
    endloop
  endfacet
  facet normal 0 -1 -0
    outer loop
      vertex 2.68468 0 -5
      vertex -4.02702 0 -7.325
      vertex 4.02702 0 -7.325
    endloop
  endfacet
  facet normal 0 -1 0
    outer loop
      vertex -2.68468 0 -5
      vertex -4.5 0 -3
      vertex -4.5 0 -5
    endloop
  endfacet
  facet normal 0 -1 0
    outer loop
      vertex -4.5 0 -3
      vertex -2.68468 0 -5
      vertex 4.5 0 -3
    endloop
  endfacet
  facet normal 0 -1 0
    outer loop
      vertex 2.68468 0 -5
      vertex 4.5 0 -3
      vertex -2.68468 0 -5
    endloop
  endfacet
  facet normal 0 -1 -0
    outer loop
      vertex 4.5 0 -3
      vertex 2.68468 0 -5
      vertex 4.5 0 -5
    endloop
  endfacet
  facet normal 1 -0 0
    outer loop
      vertex 4.5 0 -3
      vertex 4.5 70 -5
      vertex 4.5 70 -3
    endloop
  endfacet
  facet normal 1 0 0
    outer loop
      vertex 4.5 70 -5
      vertex 4.5 0 -3
      vertex 4.5 0 -5
    endloop
  endfacet
  facet normal -1 0 0
    outer loop
      vertex -4.5 0 -5
      vertex -4.5 70 -3
      vertex -4.5 70 -5
    endloop
  endfacet
  facet normal -1 -0 0
    outer loop
      vertex -4.5 70 -3
      vertex -4.5 0 -5
      vertex -4.5 0 -3
    endloop
  endfacet
  facet normal 0 0 -1
    outer loop
      vertex 182.685 0 -5
      vertex 184.5 70 -5
      vertex 184.5 0 -5
    endloop
  endfacet
  facet normal -0 0 -1
    outer loop
      vertex 184.5 70 -5
      vertex 182.685 0 -5
      vertex 182.685 70 -5
    endloop
  endfacet
  facet normal 0 0 -1
    outer loop
      vertex 175.5 0 -5
      vertex 177.315 70 -5
      vertex 177.315 0 -5
    endloop
  endfacet
  facet normal -0 0 -1
    outer loop
      vertex 177.315 70 -5
      vertex 175.5 0 -5
      vertex 175.5 70 -5
    endloop
  endfacet
  facet normal 0 0 -1
    outer loop
      vertex 175.973 0 -7.325
      vertex 184.027 70 -7.325
      vertex 184.027 0 -7.325
    endloop
  endfacet
  facet normal -0 0 -1
    outer loop
      vertex 184.027 70 -7.325
      vertex 175.973 0 -7.325
      vertex 175.973 70 -7.325
    endloop
  endfacet
  facet normal 0.86608 -0 0.499905
    outer loop
      vertex 182.685 0 -5
      vertex 184.027 70 -7.325
      vertex 182.685 70 -5
    endloop
  endfacet
  facet normal 0.86608 0 0.499905
    outer loop
      vertex 184.027 70 -7.325
      vertex 182.685 0 -5
      vertex 184.027 0 -7.325
    endloop
  endfacet
  facet normal -0.86608 0 0.499905
    outer loop
      vertex 175.973 0 -7.325
      vertex 177.315 70 -5
      vertex 175.973 70 -7.325
    endloop
  endfacet
  facet normal -0.86608 0 0.499905
    outer loop
      vertex 177.315 70 -5
      vertex 175.973 0 -7.325
      vertex 177.315 0 -5
    endloop
  endfacet
  facet normal 0 -1 0
    outer loop
      vertex 175.973 0 -7.325
      vertex 182.685 0 -5
      vertex 177.315 0 -5
    endloop
  endfacet
  facet normal 0 -1 -0
    outer loop
      vertex 182.685 0 -5
      vertex 175.973 0 -7.325
      vertex 184.027 0 -7.325
    endloop
  endfacet
  facet normal 0 -1 0
    outer loop
      vertex 177.315 0 -5
      vertex 175.5 0 -3
      vertex 175.5 0 -5
    endloop
  endfacet
  facet normal 0 -1 0
    outer loop
      vertex 175.5 0 -3
      vertex 177.315 0 -5
      vertex 184.5 0 -3
    endloop
  endfacet
  facet normal 0 -1 0
    outer loop
      vertex 182.685 0 -5
      vertex 184.5 0 -3
      vertex 177.315 0 -5
    endloop
  endfacet
  facet normal 0 -1 -0
    outer loop
      vertex 184.5 0 -3
      vertex 182.685 0 -5
      vertex 184.5 0 -5
    endloop
  endfacet
  facet normal 1 -0 0
    outer loop
      vertex 184.5 0 -3
      vertex 184.5 70 -5
      vertex 184.5 70 -3
    endloop
  endfacet
  facet normal 1 0 0
    outer loop
      vertex 184.5 70 -5
      vertex 184.5 0 -3
      vertex 184.5 0 -5
    endloop
  endfacet
  facet normal -1 0 0
    outer loop
      vertex 175.5 0 -5
      vertex 175.5 70 -3
      vertex 175.5 70 -5
    endloop
  endfacet
  facet normal -1 -0 0
    outer loop
      vertex 175.5 70 -3
      vertex 175.5 0 -5
      vertex 175.5 0 -3
    endloop
  endfacet
  facet normal 0 0 1
    outer loop
      vertex 5 26.3431 0
      vertex 25.6569 0 0
      vertex 31.3431 0 0
    endloop
  endfacet
  facet normal 0 0 1
    outer loop
      vertex 25.6569 0 0
      vertex 5 26.3431 0
      vertex 5 20.6569 0
    endloop
  endfacet
  facet normal 0 0 1
    outer loop
      vertex 5 43.3431 0
      vertex 42.6569 0 0
      vertex 48.3431 0 0
    endloop
  endfacet
  facet normal 0 0 1
    outer loop
      vertex 42.6569 0 0
      vertex 5 43.3431 0
      vertex 5 37.6569 0
    endloop
  endfacet
  facet normal 0 0 1
    outer loop
      vertex 5 60.3431 0
      vertex 59.6569 0 0
      vertex 65.3431 0 0
    endloop
  endfacet
  facet normal 0 0 1
    outer loop
      vertex 59.6569 0 0
      vertex 5 60.3431 0
      vertex 5 54.6569 0
    endloop
  endfacet
  facet normal 0 0 1
    outer loop
      vertex 17.3431 65 0
      vertex 76.6569 0 0
      vertex 82.3431 0 0
    endloop
  endfacet
  facet normal 0 0 1
    outer loop
      vertex 76.6569 0 0
      vertex 17.3431 65 0
      vertex 11.6569 65 0
    endloop
  endfacet
  facet normal 0 0 1
    outer loop
      vertex 34.3431 65 0
      vertex 93.6569 0 0
      vertex 99.3431 0 0
    endloop
  endfacet
  facet normal 0 0 1
    outer loop
      vertex 93.6569 0 0
      vertex 34.3431 65 0
      vertex 28.6569 65 0
    endloop
  endfacet
  facet normal 0 0 1
    outer loop
      vertex 51.3431 65 0
      vertex 110.657 0 0
      vertex 116.343 0 0
    endloop
  endfacet
  facet normal 0 0 1
    outer loop
      vertex 110.657 0 0
      vertex 51.3431 65 0
      vertex 45.6569 65 0
    endloop
  endfacet
  facet normal 0 0 1
    outer loop
      vertex 68.3431 65 0
      vertex 127.657 0 0
      vertex 133.343 0 0
    endloop
  endfacet
  facet normal 0 0 1
    outer loop
      vertex 127.657 0 0
      vertex 68.3431 65 0
      vertex 62.6569 65 0
    endloop
  endfacet
  facet normal 0 0 1
    outer loop
      vertex 85.3431 65 0
      vertex 144.657 0 0
      vertex 150.343 0 0
    endloop
  endfacet
  facet normal 0 0 1
    outer loop
      vertex 144.657 0 0
      vertex 85.3431 65 0
      vertex 79.6569 65 0
    endloop
  endfacet
  facet normal 0 0 1
    outer loop
      vertex 102.343 65 0
      vertex 161.657 0 0
      vertex 167.343 0 0
    endloop
  endfacet
  facet normal 0 0 1
    outer loop
      vertex 161.657 0 0
      vertex 102.343 65 0
      vertex 96.6569 65 0
    endloop
  endfacet
  facet normal 0 0 1
    outer loop
      vertex 119.343 65 0
      vertex 175 3.65685 0
      vertex 175 9.34315 0
    endloop
  endfacet
  facet normal 0 0 1
    outer loop
      vertex 175 3.65685 0
      vertex 119.343 65 0
      vertex 113.657 65 0
    endloop
  endfacet
  facet normal 0 0 1
    outer loop
      vertex 136.343 65 0
      vertex 175 20.6569 0
      vertex 175 26.3431 0
    endloop
  endfacet
  facet normal 0 0 1
    outer loop
      vertex 175 20.6569 0
      vertex 136.343 65 0
      vertex 130.657 65 0
    endloop
  endfacet
  facet normal 0 0 1
    outer loop
      vertex 190 70 0
      vertex 175 37.6569 0
      vertex 190 -5 0
    endloop
  endfacet
  facet normal 0 0 1
    outer loop
      vertex 190 70 0
      vertex 147.657 65 0
      vertex 175 37.6569 0
    endloop
  endfacet
  facet normal 0 0 1
    outer loop
      vertex 190 70 0
      vertex 136.343 65 0
      vertex 147.657 65 0
    endloop
  endfacet
  facet normal 0 0 1
    outer loop
      vertex 190 70 0
      vertex 130.657 65 0
      vertex 136.343 65 0
    endloop
  endfacet
  facet normal 0 0 1
    outer loop
      vertex 190 70 0
      vertex 119.343 65 0
      vertex 130.657 65 0
    endloop
  endfacet
  facet normal 0 0 1
    outer loop
      vertex 190 70 0
      vertex 113.657 65 0
      vertex 119.343 65 0
    endloop
  endfacet
  facet normal 0 0 1
    outer loop
      vertex 190 70 0
      vertex 102.343 65 0
      vertex 113.657 65 0
    endloop
  endfacet
  facet normal 0 0 1
    outer loop
      vertex 190 70 0
      vertex 96.6569 65 0
      vertex 102.343 65 0
    endloop
  endfacet
  facet normal 0 0 1
    outer loop
      vertex 190 70 0
      vertex 85.3431 65 0
      vertex 96.6569 65 0
    endloop
  endfacet
  facet normal 0 0 1
    outer loop
      vertex 190 70 0
      vertex 79.6569 65 0
      vertex 85.3431 65 0
    endloop
  endfacet
  facet normal -0 0 1
    outer loop
      vertex -10 70 0
      vertex 79.6569 65 0
      vertex 190 70 0
    endloop
  endfacet
  facet normal 0 0 1
    outer loop
      vertex 79.6569 65 0
      vertex -10 70 0
      vertex 68.3431 65 0
    endloop
  endfacet
  facet normal 0 0 1
    outer loop
      vertex 68.3431 65 0
      vertex -10 70 0
      vertex 62.6569 65 0
    endloop
  endfacet
  facet normal 0 0 1
    outer loop
      vertex 62.6569 65 0
      vertex -10 70 0
      vertex 51.3431 65 0
    endloop
  endfacet
  facet normal 0 0 1
    outer loop
      vertex 51.3431 65 0
      vertex -10 70 0
      vertex 45.6569 65 0
    endloop
  endfacet
  facet normal 0 0 1
    outer loop
      vertex 45.6569 65 0
      vertex -10 70 0
      vertex 34.3431 65 0
    endloop
  endfacet
  facet normal 0 0 1
    outer loop
      vertex 34.3431 65 0
      vertex -10 70 0
      vertex 28.6569 65 0
    endloop
  endfacet
  facet normal 0 0 1
    outer loop
      vertex 28.6569 65 0
      vertex -10 70 0
      vertex 17.3431 65 0
    endloop
  endfacet
  facet normal 0 0 1
    outer loop
      vertex 17.3431 65 0
      vertex -10 70 0
      vertex 11.6569 65 0
    endloop
  endfacet
  facet normal 0 0 1
    outer loop
      vertex -10 70 0
      vertex 5 60.3431 0
      vertex 5 65 0
    endloop
  endfacet
  facet normal 0 0 1
    outer loop
      vertex 5 60.3431 0
      vertex -10 70 0
      vertex 5 54.6569 0
    endloop
  endfacet
  facet normal 0 0 1
    outer loop
      vertex 5 54.6569 0
      vertex -10 70 0
      vertex 5 43.3431 0
    endloop
  endfacet
  facet normal 0 0 1
    outer loop
      vertex 5 43.3431 0
      vertex -10 70 0
      vertex 5 37.6569 0
    endloop
  endfacet
  facet normal 0 0 1
    outer loop
      vertex -10 -5 0
      vertex 5 37.6569 0
      vertex -10 70 0
    endloop
  endfacet
  facet normal 0 0 1
    outer loop
      vertex 5 37.6569 0
      vertex -10 -5 0
      vertex 5 26.3431 0
    endloop
  endfacet
  facet normal 0 0 1
    outer loop
      vertex 5 26.3431 0
      vertex -10 -5 0
      vertex 5 20.6569 0
    endloop
  endfacet
  facet normal 0 0 1
    outer loop
      vertex 11.6569 65 0
      vertex -10 70 0
      vertex 5 65 0
    endloop
  endfacet
  facet normal -0 0 1
    outer loop
      vertex 175 26.3431 0
      vertex 190 -5 0
      vertex 175 37.6569 0
    endloop
  endfacet
  facet normal -0 0 1
    outer loop
      vertex 175 20.6569 0
      vertex 190 -5 0
      vertex 175 26.3431 0
    endloop
  endfacet
  facet normal -0 0 1
    outer loop
      vertex 175 9.34315 0
      vertex 190 -5 0
      vertex 175 20.6569 0
    endloop
  endfacet
  facet normal -0 0 1
    outer loop
      vertex 175 3.65685 0
      vertex 190 -5 0
      vertex 175 9.34315 0
    endloop
  endfacet
  facet normal -0 0 1
    outer loop
      vertex 175 0 0
      vertex 190 -5 0
      vertex 175 3.65685 0
    endloop
  endfacet
  facet normal -0 0 1
    outer loop
      vertex 167.343 0 0
      vertex 190 -5 0
      vertex 175 0 0
    endloop
  endfacet
  facet normal -0 0 1
    outer loop
      vertex 161.657 0 0
      vertex 190 -5 0
      vertex 167.343 0 0
    endloop
  endfacet
  facet normal -0 0 1
    outer loop
      vertex 150.343 0 0
      vertex 190 -5 0
      vertex 161.657 0 0
    endloop
  endfacet
  facet normal -0 0 1
    outer loop
      vertex 144.657 0 0
      vertex 190 -5 0
      vertex 150.343 0 0
    endloop
  endfacet
  facet normal -0 0 1
    outer loop
      vertex 133.343 0 0
      vertex 190 -5 0
      vertex 144.657 0 0
    endloop
  endfacet
  facet normal -0 0 1
    outer loop
      vertex 127.657 0 0
      vertex 190 -5 0
      vertex 133.343 0 0
    endloop
  endfacet
  facet normal -0 0 1
    outer loop
      vertex 116.343 0 0
      vertex 190 -5 0
      vertex 127.657 0 0
    endloop
  endfacet
  facet normal -0 0 1
    outer loop
      vertex 110.657 0 0
      vertex 190 -5 0
      vertex 116.343 0 0
    endloop
  endfacet
  facet normal -0 0 1
    outer loop
      vertex 99.3431 0 0
      vertex 190 -5 0
      vertex 110.657 0 0
    endloop
  endfacet
  facet normal -0 0 1
    outer loop
      vertex 93.6569 0 0
      vertex 190 -5 0
      vertex 99.3431 0 0
    endloop
  endfacet
  facet normal -0 0 1
    outer loop
      vertex 82.3431 0 0
      vertex 190 -5 0
      vertex 93.6569 0 0
    endloop
  endfacet
  facet normal 0 0 1
    outer loop
      vertex -10 -5 0
      vertex 82.3431 0 0
      vertex 76.6569 0 0
    endloop
  endfacet
  facet normal 0 0 1
    outer loop
      vertex -10 -5 0
      vertex 76.6569 0 0
      vertex 65.3431 0 0
    endloop
  endfacet
  facet normal 0 0 1
    outer loop
      vertex -10 -5 0
      vertex 65.3431 0 0
      vertex 59.6569 0 0
    endloop
  endfacet
  facet normal 0 0 1
    outer loop
      vertex -10 -5 0
      vertex 59.6569 0 0
      vertex 48.3431 0 0
    endloop
  endfacet
  facet normal 0 0 1
    outer loop
      vertex -10 -5 0
      vertex 48.3431 0 0
      vertex 42.6569 0 0
    endloop
  endfacet
  facet normal 0 0 1
    outer loop
      vertex -10 -5 0
      vertex 42.6569 0 0
      vertex 31.3431 0 0
    endloop
  endfacet
  facet normal 0 0 1
    outer loop
      vertex -10 -5 0
      vertex 31.3431 0 0
      vertex 25.6569 0 0
    endloop
  endfacet
  facet normal 0 0 1
    outer loop
      vertex -10 -5 0
      vertex 25.6569 0 0
      vertex 14.3431 0 0
    endloop
  endfacet
  facet normal 0 0 1
    outer loop
      vertex 82.3431 0 0
      vertex -10 -5 0
      vertex 190 -5 0
    endloop
  endfacet
  facet normal 0 0 1
    outer loop
      vertex 5 9.34315 0
      vertex -10 -5 0
      vertex 14.3431 0 0
    endloop
  endfacet
  facet normal 0 0 1
    outer loop
      vertex 5 20.6569 0
      vertex -10 -5 0
      vertex 5 9.34315 0
    endloop
  endfacet
  facet normal 0 -1 0
    outer loop
      vertex -10 -5 -3
      vertex 190 -5 0
      vertex -10 -5 0
    endloop
  endfacet
  facet normal 0 -1 -0
    outer loop
      vertex 190 -5 0
      vertex -10 -5 -3
      vertex 190 -5 -3
    endloop
  endfacet
  facet normal 0 0 -1
    outer loop
      vertex 5 20.6569 -3
      vertex 31.3431 0 -3
      vertex 25.6569 0 -3
    endloop
  endfacet
  facet normal 0 0 -1
    outer loop
      vertex 31.3431 0 -3
      vertex 5 20.6569 -3
      vertex 5 26.3431 -3
    endloop
  endfacet
  facet normal 0 0 -1
    outer loop
      vertex 5 37.6569 -3
      vertex 48.3431 0 -3
      vertex 42.6569 0 -3
    endloop
  endfacet
  facet normal 0 0 -1
    outer loop
      vertex 48.3431 0 -3
      vertex 5 37.6569 -3
      vertex 5 43.3431 -3
    endloop
  endfacet
  facet normal 0 0 -1
    outer loop
      vertex 5 54.6569 -3
      vertex 65.3431 0 -3
      vertex 59.6569 0 -3
    endloop
  endfacet
  facet normal 0 0 -1
    outer loop
      vertex 65.3431 0 -3
      vertex 5 54.6569 -3
      vertex 5 60.3431 -3
    endloop
  endfacet
  facet normal 0 0 -1
    outer loop
      vertex 76.6569 0 -3
      vertex 17.3431 65 -3
      vertex 82.3431 0 -3
    endloop
  endfacet
  facet normal -0 -0 -1
    outer loop
      vertex 17.3431 65 -3
      vertex 76.6569 0 -3
      vertex 11.6569 65 -3
    endloop
  endfacet
  facet normal 0 0 -1
    outer loop
      vertex 93.6569 0 -3
      vertex 34.3431 65 -3
      vertex 99.3431 0 -3
    endloop
  endfacet
  facet normal -0 -0 -1
    outer loop
      vertex 34.3431 65 -3
      vertex 93.6569 0 -3
      vertex 28.6569 65 -3
    endloop
  endfacet
  facet normal 0 0 -1
    outer loop
      vertex 110.657 0 -3
      vertex 51.3431 65 -3
      vertex 116.343 0 -3
    endloop
  endfacet
  facet normal -0 -0 -1
    outer loop
      vertex 51.3431 65 -3
      vertex 110.657 0 -3
      vertex 45.6569 65 -3
    endloop
  endfacet
  facet normal 0 0 -1
    outer loop
      vertex 127.657 0 -3
      vertex 68.3431 65 -3
      vertex 133.343 0 -3
    endloop
  endfacet
  facet normal -0 -0 -1
    outer loop
      vertex 68.3431 65 -3
      vertex 127.657 0 -3
      vertex 62.6569 65 -3
    endloop
  endfacet
  facet normal 0 0 -1
    outer loop
      vertex 175 20.6569 -3
      vertex 136.343 65 -3
      vertex 175 26.3431 -3
    endloop
  endfacet
  facet normal -0 -0 -1
    outer loop
      vertex 136.343 65 -3
      vertex 175 20.6569 -3
      vertex 130.657 65 -3
    endloop
  endfacet
  facet normal 0 0 -1
    outer loop
      vertex 175 3.65685 -3
      vertex 119.343 65 -3
      vertex 175 9.34315 -3
    endloop
  endfacet
  facet normal -0 -0 -1
    outer loop
      vertex 119.343 65 -3
      vertex 175 3.65685 -3
      vertex 113.657 65 -3
    endloop
  endfacet
  facet normal 0 0 -1
    outer loop
      vertex 190 -5 -3
      vertex 184.5 0 -3
      vertex 190 70 -3
    endloop
  endfacet
  facet normal 0 0 -1
    outer loop
      vertex 190 -5 -3
      vertex 175.5 0 -3
      vertex 184.5 0 -3
    endloop
  endfacet
  facet normal 0 0 -1
    outer loop
      vertex 175 3.65685 -3
      vertex 175.5 0 -3
      vertex 175 0 -3
    endloop
  endfacet
  facet normal 0 0 -1
    outer loop
      vertex 190 -5 -3
      vertex 175 0 -3
      vertex 175.5 0 -3
    endloop
  endfacet
  facet normal 0 0 -1
    outer loop
      vertex 190 -5 -3
      vertex 167.343 0 -3
      vertex 175 0 -3
    endloop
  endfacet
  facet normal 0 0 -1
    outer loop
      vertex 190 -5 -3
      vertex 161.657 0 -3
      vertex 167.343 0 -3
    endloop
  endfacet
  facet normal 0 0 -1
    outer loop
      vertex 190 -5 -3
      vertex 150.343 0 -3
      vertex 161.657 0 -3
    endloop
  endfacet
  facet normal 0 0 -1
    outer loop
      vertex 190 -5 -3
      vertex 144.657 0 -3
      vertex 150.343 0 -3
    endloop
  endfacet
  facet normal 0 0 -1
    outer loop
      vertex 190 -5 -3
      vertex 133.343 0 -3
      vertex 144.657 0 -3
    endloop
  endfacet
  facet normal 0 0 -1
    outer loop
      vertex 190 -5 -3
      vertex 127.657 0 -3
      vertex 133.343 0 -3
    endloop
  endfacet
  facet normal 0 0 -1
    outer loop
      vertex 190 -5 -3
      vertex 116.343 0 -3
      vertex 127.657 0 -3
    endloop
  endfacet
  facet normal 0 0 -1
    outer loop
      vertex 190 -5 -3
      vertex 110.657 0 -3
      vertex 116.343 0 -3
    endloop
  endfacet
  facet normal 0 0 -1
    outer loop
      vertex 190 -5 -3
      vertex 99.3431 0 -3
      vertex 110.657 0 -3
    endloop
  endfacet
  facet normal 0 0 -1
    outer loop
      vertex 190 -5 -3
      vertex 93.6569 0 -3
      vertex 99.3431 0 -3
    endloop
  endfacet
  facet normal 0 0 -1
    outer loop
      vertex 190 -5 -3
      vertex 82.3431 0 -3
      vertex 93.6569 0 -3
    endloop
  endfacet
  facet normal 0 0 -1
    outer loop
      vertex -10 -5 -3
      vertex 82.3431 0 -3
      vertex 190 -5 -3
    endloop
  endfacet
  facet normal -0 0 -1
    outer loop
      vertex 82.3431 0 -3
      vertex -10 -5 -3
      vertex 76.6569 0 -3
    endloop
  endfacet
  facet normal -0 0 -1
    outer loop
      vertex 76.6569 0 -3
      vertex -10 -5 -3
      vertex 65.3431 0 -3
    endloop
  endfacet
  facet normal -0 0 -1
    outer loop
      vertex 65.3431 0 -3
      vertex -10 -5 -3
      vertex 59.6569 0 -3
    endloop
  endfacet
  facet normal -0 0 -1
    outer loop
      vertex 59.6569 0 -3
      vertex -10 -5 -3
      vertex 48.3431 0 -3
    endloop
  endfacet
  facet normal -0 0 -1
    outer loop
      vertex 48.3431 0 -3
      vertex -10 -5 -3
      vertex 42.6569 0 -3
    endloop
  endfacet
  facet normal -0 0 -1
    outer loop
      vertex 42.6569 0 -3
      vertex -10 -5 -3
      vertex 31.3431 0 -3
    endloop
  endfacet
  facet normal -0 0 -1
    outer loop
      vertex 31.3431 0 -3
      vertex -10 -5 -3
      vertex 25.6569 0 -3
    endloop
  endfacet
  facet normal 0 0 -1
    outer loop
      vertex 4.5 0 -3
      vertex 5 20.6569 -3
      vertex 5 9.34315 -3
    endloop
  endfacet
  facet normal -0 0 -1
    outer loop
      vertex 5 20.6569 -3
      vertex 4.5 0 -3
      vertex 5 26.3431 -3
    endloop
  endfacet
  facet normal -0 0 -1
    outer loop
      vertex 5 26.3431 -3
      vertex 4.5 0 -3
      vertex 5 37.6569 -3
    endloop
  endfacet
  facet normal -0 0 -1
    outer loop
      vertex 5 37.6569 -3
      vertex 4.5 0 -3
      vertex 5 43.3431 -3
    endloop
  endfacet
  facet normal 0 0 -1
    outer loop
      vertex 4.5 70 -3
      vertex 5 43.3431 -3
      vertex 4.5 0 -3
    endloop
  endfacet
  facet normal 0 0 -1
    outer loop
      vertex 5 54.6569 -3
      vertex 4.5 70 -3
      vertex 5 60.3431 -3
    endloop
  endfacet
  facet normal 0 0 -1
    outer loop
      vertex 5 43.3431 -3
      vertex 4.5 70 -3
      vertex 5 54.6569 -3
    endloop
  endfacet
  facet normal 0 0 -1
    outer loop
      vertex 14.3431 0 -3
      vertex 4.5 0 -3
      vertex 5 9.34315 -3
    endloop
  endfacet
  facet normal -0 0 -1
    outer loop
      vertex 25.6569 0 -3
      vertex -10 -5 -3
      vertex 14.3431 0 -3
    endloop
  endfacet
  facet normal -0 0 -1
    outer loop
      vertex 14.3431 0 -3
      vertex -10 -5 -3
      vertex 4.5 0 -3
    endloop
  endfacet
  facet normal -0 0 -1
    outer loop
      vertex 4.5 0 -3
      vertex -10 -5 -3
      vertex -4.5 0 -3
    endloop
  endfacet
  facet normal 0 0 -1
    outer loop
      vertex -10 70 -3
      vertex -4.5 0 -3
      vertex -10 -5 -3
    endloop
  endfacet
  facet normal 0 0 -1
    outer loop
      vertex -4.5 0 -3
      vertex -10 70 -3
      vertex -4.5 70 -3
    endloop
  endfacet
  facet normal -0 0 -1
    outer loop
      vertex 190 70 -3
      vertex 184.5 0 -3
      vertex 184.5 70 -3
    endloop
  endfacet
  facet normal 0 0 -1
    outer loop
      vertex 175 9.34315 -3
      vertex 175.5 0 -3
      vertex 175 3.65685 -3
    endloop
  endfacet
  facet normal 0 0 -1
    outer loop
      vertex 175 20.6569 -3
      vertex 175.5 0 -3
      vertex 175 9.34315 -3
    endloop
  endfacet
  facet normal 0 0 -1
    outer loop
      vertex 175 26.3431 -3
      vertex 175.5 0 -3
      vertex 175 20.6569 -3
    endloop
  endfacet
  facet normal 0 0 -1
    outer loop
      vertex 175.5 0 -3
      vertex 175 26.3431 -3
      vertex 175.5 70 -3
    endloop
  endfacet
  facet normal 0 0 -1
    outer loop
      vertex 175 37.6569 -3
      vertex 175.5 70 -3
      vertex 175 26.3431 -3
    endloop
  endfacet
  facet normal 0 0 -1
    outer loop
      vertex 147.657 65 -3
      vertex 175.5 70 -3
      vertex 175 37.6569 -3
    endloop
  endfacet
  facet normal 0 0 -1
    outer loop
      vertex 136.343 65 -3
      vertex 175.5 70 -3
      vertex 147.657 65 -3
    endloop
  endfacet
  facet normal 0 0 -1
    outer loop
      vertex 130.657 65 -3
      vertex 175.5 70 -3
      vertex 136.343 65 -3
    endloop
  endfacet
  facet normal 0 0 -1
    outer loop
      vertex 119.343 65 -3
      vertex 175.5 70 -3
      vertex 130.657 65 -3
    endloop
  endfacet
  facet normal 0 0 -1
    outer loop
      vertex 113.657 65 -3
      vertex 175.5 70 -3
      vertex 119.343 65 -3
    endloop
  endfacet
  facet normal 0 0 -1
    outer loop
      vertex 102.343 65 -3
      vertex 175.5 70 -3
      vertex 113.657 65 -3
    endloop
  endfacet
  facet normal 0 0 -1
    outer loop
      vertex 96.6569 65 -3
      vertex 175.5 70 -3
      vertex 102.343 65 -3
    endloop
  endfacet
  facet normal 0 0 -1
    outer loop
      vertex 85.3431 65 -3
      vertex 175.5 70 -3
      vertex 96.6569 65 -3
    endloop
  endfacet
  facet normal 0 0 -1
    outer loop
      vertex 4.5 70 -3
      vertex 85.3431 65 -3
      vertex 79.6569 65 -3
    endloop
  endfacet
  facet normal 0 0 -1
    outer loop
      vertex 4.5 70 -3
      vertex 79.6569 65 -3
      vertex 68.3431 65 -3
    endloop
  endfacet
  facet normal 0 0 -1
    outer loop
      vertex 4.5 70 -3
      vertex 68.3431 65 -3
      vertex 62.6569 65 -3
    endloop
  endfacet
  facet normal 0 0 -1
    outer loop
      vertex 4.5 70 -3
      vertex 62.6569 65 -3
      vertex 51.3431 65 -3
    endloop
  endfacet
  facet normal 0 0 -1
    outer loop
      vertex 4.5 70 -3
      vertex 51.3431 65 -3
      vertex 45.6569 65 -3
    endloop
  endfacet
  facet normal 0 0 -1
    outer loop
      vertex 4.5 70 -3
      vertex 45.6569 65 -3
      vertex 34.3431 65 -3
    endloop
  endfacet
  facet normal 0 0 -1
    outer loop
      vertex 4.5 70 -3
      vertex 34.3431 65 -3
      vertex 28.6569 65 -3
    endloop
  endfacet
  facet normal 0 0 -1
    outer loop
      vertex 4.5 70 -3
      vertex 28.6569 65 -3
      vertex 17.3431 65 -3
    endloop
  endfacet
  facet normal 0 0 -1
    outer loop
      vertex 4.5 70 -3
      vertex 17.3431 65 -3
      vertex 11.6569 65 -3
    endloop
  endfacet
  facet normal 0 0 -1
    outer loop
      vertex 4.5 70 -3
      vertex 11.6569 65 -3
      vertex 5 65 -3
    endloop
  endfacet
  facet normal 0 0 -1
    outer loop
      vertex 85.3431 65 -3
      vertex 4.5 70 -3
      vertex 175.5 70 -3
    endloop
  endfacet
  facet normal 0 0 -1
    outer loop
      vertex 5 60.3431 -3
      vertex 4.5 70 -3
      vertex 5 65 -3
    endloop
  endfacet
  facet normal 0 0 -1
    outer loop
      vertex 161.657 0 -3
      vertex 102.343 65 -3
      vertex 167.343 0 -3
    endloop
  endfacet
  facet normal -0 -0 -1
    outer loop
      vertex 102.343 65 -3
      vertex 161.657 0 -3
      vertex 96.6569 65 -3
    endloop
  endfacet
  facet normal 0 0 -1
    outer loop
      vertex 144.657 0 -3
      vertex 85.3431 65 -3
      vertex 150.343 0 -3
    endloop
  endfacet
  facet normal -0 -0 -1
    outer loop
      vertex 85.3431 65 -3
      vertex 144.657 0 -3
      vertex 79.6569 65 -3
    endloop
  endfacet
  facet normal 1 -0 0
    outer loop
      vertex 190 -5 0
      vertex 190 70 -3
      vertex 190 70 0
    endloop
  endfacet
  facet normal 1 0 0
    outer loop
      vertex 190 70 -3
      vertex 190 -5 0
      vertex 190 -5 -3
    endloop
  endfacet
  facet normal -1 0 0
    outer loop
      vertex -10 -5 -3
      vertex -10 70 0
      vertex -10 70 -3
    endloop
  endfacet
  facet normal -1 -0 0
    outer loop
      vertex -10 70 0
      vertex -10 -5 -3
      vertex -10 -5 0
    endloop
  endfacet
  facet normal -0.707107 -0.707107 0
    outer loop
      vertex 25.6569 0 -3
      vertex 5 20.6569 0
      vertex 5 20.6569 -3
    endloop
  endfacet
  facet normal -0.707107 -0.707107 0
    outer loop
      vertex 5 20.6569 0
      vertex 25.6569 0 -3
      vertex 25.6569 0 0
    endloop
  endfacet
  facet normal 0.707109 0.707105 0
    outer loop
      vertex 14.3431 0 0
      vertex 5 9.34315 -3
      vertex 5 9.34315 0
    endloop
  endfacet
  facet normal 0.707109 0.707105 0
    outer loop
      vertex 5 9.34315 -3
      vertex 14.3431 0 0
      vertex 14.3431 0 -3
    endloop
  endfacet
  facet normal 0.707107 0.707107 0
    outer loop
      vertex 31.3431 0 0
      vertex 5 26.3431 -3
      vertex 5 26.3431 0
    endloop
  endfacet
  facet normal 0.707107 0.707107 0
    outer loop
      vertex 5 26.3431 -3
      vertex 31.3431 0 0
      vertex 31.3431 0 -3
    endloop
  endfacet
  facet normal -0.707107 -0.707107 0
    outer loop
      vertex 42.6569 0 -3
      vertex 5 37.6569 0
      vertex 5 37.6569 -3
    endloop
  endfacet
  facet normal -0.707107 -0.707107 0
    outer loop
      vertex 5 37.6569 0
      vertex 42.6569 0 -3
      vertex 42.6569 0 0
    endloop
  endfacet
  facet normal -0.707107 -0.707107 0
    outer loop
      vertex 59.6569 0 -3
      vertex 5 54.6569 0
      vertex 5 54.6569 -3
    endloop
  endfacet
  facet normal -0.707107 -0.707107 0
    outer loop
      vertex 5 54.6569 0
      vertex 59.6569 0 -3
      vertex 59.6569 0 0
    endloop
  endfacet
  facet normal 0.707107 0.707107 0
    outer loop
      vertex 48.3431 0 0
      vertex 5 43.3431 -3
      vertex 5 43.3431 0
    endloop
  endfacet
  facet normal 0.707107 0.707107 0
    outer loop
      vertex 5 43.3431 -3
      vertex 48.3431 0 0
      vertex 48.3431 0 -3
    endloop
  endfacet
  facet normal -0.707107 -0.707107 0
    outer loop
      vertex 76.6569 0 -3
      vertex 11.6569 65 0
      vertex 11.6569 65 -3
    endloop
  endfacet
  facet normal -0.707107 -0.707107 0
    outer loop
      vertex 11.6569 65 0
      vertex 76.6569 0 -3
      vertex 76.6569 0 0
    endloop
  endfacet
  facet normal 0.707107 0.707107 0
    outer loop
      vertex 65.3431 0 0
      vertex 5 60.3431 -3
      vertex 5 60.3431 0
    endloop
  endfacet
  facet normal 0.707107 0.707107 0
    outer loop
      vertex 5 60.3431 -3
      vertex 65.3431 0 0
      vertex 65.3431 0 -3
    endloop
  endfacet
  facet normal -0.707107 -0.707107 0
    outer loop
      vertex 93.6569 0 -3
      vertex 28.6569 65 0
      vertex 28.6569 65 -3
    endloop
  endfacet
  facet normal -0.707107 -0.707107 0
    outer loop
      vertex 28.6569 65 0
      vertex 93.6569 0 -3
      vertex 93.6569 0 0
    endloop
  endfacet
  facet normal 0.707107 0.707107 0
    outer loop
      vertex 82.3431 0 0
      vertex 17.3431 65 -3
      vertex 17.3431 65 0
    endloop
  endfacet
  facet normal 0.707107 0.707107 0
    outer loop
      vertex 17.3431 65 -3
      vertex 82.3431 0 0
      vertex 82.3431 0 -3
    endloop
  endfacet
  facet normal 0.707107 0.707107 0
    outer loop
      vertex 99.3431 0 0
      vertex 34.3431 65 -3
      vertex 34.3431 65 0
    endloop
  endfacet
  facet normal 0.707107 0.707107 0
    outer loop
      vertex 34.3431 65 -3
      vertex 99.3431 0 0
      vertex 99.3431 0 -3
    endloop
  endfacet
  facet normal -0.707106 -0.707107 0
    outer loop
      vertex 110.657 0 -3
      vertex 45.6569 65 0
      vertex 45.6569 65 -3
    endloop
  endfacet
  facet normal -0.707106 -0.707107 0
    outer loop
      vertex 45.6569 65 0
      vertex 110.657 0 -3
      vertex 110.657 0 0
    endloop
  endfacet
  facet normal -0.707106 -0.707107 0
    outer loop
      vertex 127.657 0 -3
      vertex 62.6569 65 0
      vertex 62.6569 65 -3
    endloop
  endfacet
  facet normal -0.707106 -0.707107 0
    outer loop
      vertex 62.6569 65 0
      vertex 127.657 0 -3
      vertex 127.657 0 0
    endloop
  endfacet
  facet normal 0.707107 0.707106 0
    outer loop
      vertex 116.343 0 0
      vertex 51.3431 65 -3
      vertex 51.3431 65 0
    endloop
  endfacet
  facet normal 0.707107 0.707106 0
    outer loop
      vertex 51.3431 65 -3
      vertex 116.343 0 0
      vertex 116.343 0 -3
    endloop
  endfacet
  facet normal 0.707107 0.707106 0
    outer loop
      vertex 133.343 0 0
      vertex 68.3431 65 -3
      vertex 68.3431 65 0
    endloop
  endfacet
  facet normal 0.707107 0.707106 0
    outer loop
      vertex 68.3431 65 -3
      vertex 133.343 0 0
      vertex 133.343 0 -3
    endloop
  endfacet
  facet normal -0.707106 -0.707107 0
    outer loop
      vertex 79.6569 65 -3
      vertex 144.657 0 0
      vertex 79.6569 65 0
    endloop
  endfacet
  facet normal -0.707106 -0.707107 -0
    outer loop
      vertex 144.657 0 0
      vertex 79.6569 65 -3
      vertex 144.657 0 -3
    endloop
  endfacet
  facet normal -0.707106 -0.707107 0
    outer loop
      vertex 96.6569 65 -3
      vertex 161.657 0 0
      vertex 96.6569 65 0
    endloop
  endfacet
  facet normal -0.707106 -0.707107 -0
    outer loop
      vertex 161.657 0 0
      vertex 96.6569 65 -3
      vertex 161.657 0 -3
    endloop
  endfacet
  facet normal 0.707107 0.707106 0
    outer loop
      vertex 150.343 0 0
      vertex 85.3431 65 -3
      vertex 85.3431 65 0
    endloop
  endfacet
  facet normal 0.707107 0.707106 0
    outer loop
      vertex 85.3431 65 -3
      vertex 150.343 0 0
      vertex 150.343 0 -3
    endloop
  endfacet
  facet normal -0.707108 -0.707106 0
    outer loop
      vertex 175 3.65685 -3
      vertex 113.657 65 0
      vertex 113.657 65 -3
    endloop
  endfacet
  facet normal -0.707108 -0.707106 0
    outer loop
      vertex 113.657 65 0
      vertex 175 3.65685 -3
      vertex 175 3.65685 0
    endloop
  endfacet
  facet normal 0.707107 0.707107 0
    outer loop
      vertex 167.343 0 0
      vertex 102.343 65 -3
      vertex 102.343 65 0
    endloop
  endfacet
  facet normal 0.707107 0.707107 0
    outer loop
      vertex 102.343 65 -3
      vertex 167.343 0 0
      vertex 167.343 0 -3
    endloop
  endfacet
  facet normal -0.707108 -0.707106 0
    outer loop
      vertex 175 20.6569 -3
      vertex 130.657 65 0
      vertex 130.657 65 -3
    endloop
  endfacet
  facet normal -0.707108 -0.707106 0
    outer loop
      vertex 130.657 65 0
      vertex 175 20.6569 -3
      vertex 175 20.6569 0
    endloop
  endfacet
  facet normal 0.707106 0.707108 0
    outer loop
      vertex 175 9.34315 0
      vertex 119.343 65 -3
      vertex 119.343 65 0
    endloop
  endfacet
  facet normal 0.707106 0.707108 0
    outer loop
      vertex 119.343 65 -3
      vertex 175 9.34315 0
      vertex 175 9.34315 -3
    endloop
  endfacet
  facet normal -0.707108 -0.707105 0
    outer loop
      vertex 175 37.6569 -3
      vertex 147.657 65 0
      vertex 147.657 65 -3
    endloop
  endfacet
  facet normal -0.707108 -0.707105 0
    outer loop
      vertex 147.657 65 0
      vertex 175 37.6569 -3
      vertex 175 37.6569 0
    endloop
  endfacet
  facet normal 0.707106 0.707108 -0
    outer loop
      vertex 175 26.3431 -3
      vertex 136.343 65 0
      vertex 175 26.3431 0
    endloop
  endfacet
  facet normal 0.707106 0.707108 0
    outer loop
      vertex 136.343 65 0
      vertex 175 26.3431 -3
      vertex 136.343 65 -3
    endloop
  endfacet
  facet normal -1 0 0
    outer loop
      vertex 175 0 -3
      vertex 175 3.65685 0
      vertex 175 3.65685 -3
    endloop
  endfacet
  facet normal -1 -0 0
    outer loop
      vertex 175 3.65685 0
      vertex 175 0 -3
      vertex 175 0 0
    endloop
  endfacet
  facet normal -1 0 0
    outer loop
      vertex 175 9.34315 -3
      vertex 175 20.6569 0
      vertex 175 20.6569 -3
    endloop
  endfacet
  facet normal -1 -0 0
    outer loop
      vertex 175 20.6569 0
      vertex 175 9.34315 -3
      vertex 175 9.34315 0
    endloop
  endfacet
  facet normal -1 0 0
    outer loop
      vertex 175 26.3431 -3
      vertex 175 37.6569 0
      vertex 175 37.6569 -3
    endloop
  endfacet
  facet normal -1 -0 0
    outer loop
      vertex 175 37.6569 0
      vertex 175 26.3431 -3
      vertex 175 26.3431 0
    endloop
  endfacet
  facet normal 1 -0 0
    outer loop
      vertex 5 60.3431 0
      vertex 5 65 -3
      vertex 5 65 0
    endloop
  endfacet
  facet normal 1 0 0
    outer loop
      vertex 5 65 -3
      vertex 5 60.3431 0
      vertex 5 60.3431 -3
    endloop
  endfacet
  facet normal 1 -0 0
    outer loop
      vertex 5 9.34315 0
      vertex 5 20.6569 -3
      vertex 5 20.6569 0
    endloop
  endfacet
  facet normal 1 0 0
    outer loop
      vertex 5 20.6569 -3
      vertex 5 9.34315 0
      vertex 5 9.34315 -3
    endloop
  endfacet
  facet normal 1 -0 0
    outer loop
      vertex 5 26.3431 0
      vertex 5 37.6569 -3
      vertex 5 37.6569 0
    endloop
  endfacet
  facet normal 1 0 0
    outer loop
      vertex 5 37.6569 -3
      vertex 5 26.3431 0
      vertex 5 26.3431 -3
    endloop
  endfacet
  facet normal 1 -0 0
    outer loop
      vertex 5 43.3431 0
      vertex 5 54.6569 -3
      vertex 5 54.6569 0
    endloop
  endfacet
  facet normal 1 0 0
    outer loop
      vertex 5 54.6569 -3
      vertex 5 43.3431 0
      vertex 5 43.3431 -3
    endloop
  endfacet
  facet normal 0 -1 0
    outer loop
      vertex 5 65 -3
      vertex 11.6569 65 0
      vertex 5 65 0
    endloop
  endfacet
  facet normal 0 -1 -0
    outer loop
      vertex 11.6569 65 0
      vertex 5 65 -3
      vertex 11.6569 65 -3
    endloop
  endfacet
  facet normal 0 -1 0
    outer loop
      vertex 17.3431 65 -3
      vertex 28.6569 65 0
      vertex 17.3431 65 0
    endloop
  endfacet
  facet normal 0 -1 -0
    outer loop
      vertex 28.6569 65 0
      vertex 17.3431 65 -3
      vertex 28.6569 65 -3
    endloop
  endfacet
  facet normal 0 -1 0
    outer loop
      vertex 34.3431 65 -3
      vertex 45.6569 65 0
      vertex 34.3431 65 0
    endloop
  endfacet
  facet normal 0 -1 -0
    outer loop
      vertex 45.6569 65 0
      vertex 34.3431 65 -3
      vertex 45.6569 65 -3
    endloop
  endfacet
  facet normal 0 -1 0
    outer loop
      vertex 51.3431 65 -3
      vertex 62.6569 65 0
      vertex 51.3431 65 0
    endloop
  endfacet
  facet normal 0 -1 -0
    outer loop
      vertex 62.6569 65 0
      vertex 51.3431 65 -3
      vertex 62.6569 65 -3
    endloop
  endfacet
  facet normal 0 -1 0
    outer loop
      vertex 68.3431 65 -3
      vertex 79.6569 65 0
      vertex 68.3431 65 0
    endloop
  endfacet
  facet normal 0 -1 -0
    outer loop
      vertex 79.6569 65 0
      vertex 68.3431 65 -3
      vertex 79.6569 65 -3
    endloop
  endfacet
  facet normal 0 -1 0
    outer loop
      vertex 85.3431 65 -3
      vertex 96.6569 65 0
      vertex 85.3431 65 0
    endloop
  endfacet
  facet normal 0 -1 -0
    outer loop
      vertex 96.6569 65 0
      vertex 85.3431 65 -3
      vertex 96.6569 65 -3
    endloop
  endfacet
  facet normal 0 -1 0
    outer loop
      vertex 102.343 65 -3
      vertex 113.657 65 0
      vertex 102.343 65 0
    endloop
  endfacet
  facet normal 0 -1 -0
    outer loop
      vertex 113.657 65 0
      vertex 102.343 65 -3
      vertex 113.657 65 -3
    endloop
  endfacet
  facet normal 0 -1 0
    outer loop
      vertex 119.343 65 -3
      vertex 130.657 65 0
      vertex 119.343 65 0
    endloop
  endfacet
  facet normal 0 -1 -0
    outer loop
      vertex 130.657 65 0
      vertex 119.343 65 -3
      vertex 130.657 65 -3
    endloop
  endfacet
  facet normal 0 -1 0
    outer loop
      vertex 136.343 65 -3
      vertex 147.657 65 0
      vertex 136.343 65 0
    endloop
  endfacet
  facet normal 0 -1 -0
    outer loop
      vertex 147.657 65 0
      vertex 136.343 65 -3
      vertex 147.657 65 -3
    endloop
  endfacet
  facet normal 0 1 -0
    outer loop
      vertex 25.6569 0 -3
      vertex 14.3431 0 0
      vertex 25.6569 0 0
    endloop
  endfacet
  facet normal 0 1 0
    outer loop
      vertex 14.3431 0 0
      vertex 25.6569 0 -3
      vertex 14.3431 0 -3
    endloop
  endfacet
  facet normal 0 1 -0
    outer loop
      vertex 42.6569 0 -3
      vertex 31.3431 0 0
      vertex 42.6569 0 0
    endloop
  endfacet
  facet normal 0 1 0
    outer loop
      vertex 31.3431 0 0
      vertex 42.6569 0 -3
      vertex 31.3431 0 -3
    endloop
  endfacet
  facet normal 0 1 -0
    outer loop
      vertex 59.6569 0 -3
      vertex 48.3431 0 0
      vertex 59.6569 0 0
    endloop
  endfacet
  facet normal 0 1 0
    outer loop
      vertex 48.3431 0 0
      vertex 59.6569 0 -3
      vertex 48.3431 0 -3
    endloop
  endfacet
  facet normal 0 1 -0
    outer loop
      vertex 76.6569 0 -3
      vertex 65.3431 0 0
      vertex 76.6569 0 0
    endloop
  endfacet
  facet normal 0 1 0
    outer loop
      vertex 65.3431 0 0
      vertex 76.6569 0 -3
      vertex 65.3431 0 -3
    endloop
  endfacet
  facet normal 0 1 -0
    outer loop
      vertex 93.6569 0 -3
      vertex 82.3431 0 0
      vertex 93.6569 0 0
    endloop
  endfacet
  facet normal 0 1 0
    outer loop
      vertex 82.3431 0 0
      vertex 93.6569 0 -3
      vertex 82.3431 0 -3
    endloop
  endfacet
  facet normal 0 1 -0
    outer loop
      vertex 110.657 0 -3
      vertex 99.3431 0 0
      vertex 110.657 0 0
    endloop
  endfacet
  facet normal 0 1 0
    outer loop
      vertex 99.3431 0 0
      vertex 110.657 0 -3
      vertex 99.3431 0 -3
    endloop
  endfacet
  facet normal 0 1 -0
    outer loop
      vertex 127.657 0 -3
      vertex 116.343 0 0
      vertex 127.657 0 0
    endloop
  endfacet
  facet normal 0 1 0
    outer loop
      vertex 116.343 0 0
      vertex 127.657 0 -3
      vertex 116.343 0 -3
    endloop
  endfacet
  facet normal 0 1 -0
    outer loop
      vertex 144.657 0 -3
      vertex 133.343 0 0
      vertex 144.657 0 0
    endloop
  endfacet
  facet normal 0 1 0
    outer loop
      vertex 133.343 0 0
      vertex 144.657 0 -3
      vertex 133.343 0 -3
    endloop
  endfacet
  facet normal 0 1 -0
    outer loop
      vertex 161.657 0 -3
      vertex 150.343 0 0
      vertex 161.657 0 0
    endloop
  endfacet
  facet normal 0 1 0
    outer loop
      vertex 150.343 0 0
      vertex 161.657 0 -3
      vertex 150.343 0 -3
    endloop
  endfacet
  facet normal 0 1 -0
    outer loop
      vertex 175 0 -3
      vertex 167.343 0 0
      vertex 175 0 0
    endloop
  endfacet
  facet normal 0 1 0
    outer loop
      vertex 167.343 0 0
      vertex 175 0 -3
      vertex 167.343 0 -3
    endloop
  endfacet
endsolid OpenSCAD_Model
