solid OpenSCAD_Model
  facet normal 0.980296 0.0240741 -0.196059
    outer loop
      vertex 7.99036 0.392541 0
      vertex 10 0 10
      vertex 8 0 0
    endloop
  endfacet
  facet normal 0.980296 0.024074 -0.196059
    outer loop
      vertex 7.99036 0.392541 0
      vertex 9.98795 0.490677 10
      vertex 10 0 10
    endloop
  endfacet
  facet normal 0.977936 0.0721223 -0.196059
    outer loop
      vertex 7.96148 0.784137 0
      vertex 9.98795 0.490677 10
      vertex 7.99036 0.392541 0
    endloop
  endfacet
  facet normal 0.977936 0.0721224 -0.196059
    outer loop
      vertex 7.96148 0.784137 0
      vertex 9.95185 0.980171 10
      vertex 9.98795 0.490677 10
    endloop
  endfacet
  facet normal 0.973216 0.120047 -0.196059
    outer loop
      vertex 7.91341 1.17384 0
      vertex 9.95185 0.980171 10
      vertex 7.96148 0.784137 0
    endloop
  endfacet
  facet normal 0.973216 0.120051 -0.196059
    outer loop
      vertex 7.91341 1.17384 0
      vertex 9.89176 1.4673 10
      vertex 9.95185 0.980171 10
    endloop
  endfacet
  facet normal 0.966155 0.167644 -0.196059
    outer loop
      vertex 7.84628 1.56072 0
      vertex 9.89176 1.4673 10
      vertex 7.91341 1.17384 0
    endloop
  endfacet
  facet normal 0.966156 0.167639 -0.196059
    outer loop
      vertex 7.84628 1.56072 0
      vertex 9.80785 1.9509 10
      vertex 9.89176 1.4673 10
    endloop
  endfacet
  facet normal 0.956767 0.214843 -0.196059
    outer loop
      vertex 7.76025 1.94384 0
      vertex 9.80785 1.9509 10
      vertex 7.84628 1.56072 0
    endloop
  endfacet
  facet normal 0.956766 0.214848 -0.196059
    outer loop
      vertex 7.76025 1.94384 0
      vertex 9.70031 2.4298 10
      vertex 9.80785 1.9509 10
    endloop
  endfacet
  facet normal 0.94507 0.26154 -0.196059
    outer loop
      vertex 7.65552 2.32228 0
      vertex 9.70031 2.4298 10
      vertex 7.76025 1.94384 0
    endloop
  endfacet
  facet normal 0.945071 0.261535 -0.196059
    outer loop
      vertex 7.65552 2.32228 0
      vertex 9.5694 2.90285 10
      vertex 9.70031 2.4298 10
    endloop
  endfacet
  facet normal 0.9311 0.307594 -0.196059
    outer loop
      vertex 7.53235 2.69512 0
      vertex 9.5694 2.90285 10
      vertex 7.65552 2.32228 0
    endloop
  endfacet
  facet normal 0.931101 0.30759 -0.196059
    outer loop
      vertex 7.53235 2.69512 0
      vertex 9.41544 3.3689 10
      vertex 9.5694 2.90285 10
    endloop
  endfacet
  facet normal 0.914891 0.352895 -0.19606
    outer loop
      vertex 7.39104 3.06147 0
      vertex 9.41544 3.3689 10
      vertex 7.53235 2.69512 0
    endloop
  endfacet
  facet normal 0.914887 0.352905 -0.196059
    outer loop
      vertex 7.39104 3.06147 0
      vertex 9.2388 3.82683 10
      vertex 9.41544 3.3689 10
    endloop
  endfacet
  facet normal 0.896458 0.397396 -0.196059
    outer loop
      vertex 7.23191 3.42044 0
      vertex 9.2388 3.82683 10
      vertex 7.39104 3.06147 0
    endloop
  endfacet
  facet normal 0.896462 0.397387 -0.19606
    outer loop
      vertex 7.23191 3.42044 0
      vertex 9.03989 4.27555 10
      vertex 9.2388 3.82683 10
    endloop
  endfacet
  facet normal 0.875891 0.44088 -0.196059
    outer loop
      vertex 7.05537 3.77117 0
      vertex 9.03989 4.27555 10
      vertex 7.23191 3.42044 0
    endloop
  endfacet
  facet normal 0.87589 0.440882 -0.196059
    outer loop
      vertex 7.05537 3.77117 0
      vertex 8.81921 4.71397 10
      vertex 9.03989 4.27555 10
    endloop
  endfacet
  facet normal 0.853203 0.483328 -0.196059
    outer loop
      vertex 6.86183 4.11282 0
      vertex 8.81921 4.71397 10
      vertex 7.05537 3.77117 0
    endloop
  endfacet
  facet normal 0.853206 0.483322 -0.19606
    outer loop
      vertex 6.86183 4.11282 0
      vertex 8.57729 5.14103 10
      vertex 8.81921 4.71397 10
    endloop
  endfacet
  facet normal 0.828459 0.524611 -0.19606
    outer loop
      vertex 6.65176 4.44456 0
      vertex 8.57729 5.14103 10
      vertex 6.86183 4.11282 0
    endloop
  endfacet
  facet normal 0.828454 0.524619 -0.196059
    outer loop
      vertex 6.65176 4.44456 0
      vertex 8.3147 5.5557 10
      vertex 8.57729 5.14103 10
    endloop
  endfacet
  facet normal 0.801711 0.564642 -0.196059
    outer loop
      vertex 6.42566 4.76559 0
      vertex 8.3147 5.5557 10
      vertex 6.65176 4.44456 0
    endloop
  endfacet
  facet normal 0.801708 0.564646 -0.196059
    outer loop
      vertex 6.42566 4.76559 0
      vertex 8.03207 5.95699 10
      vertex 8.3147 5.5557 10
    endloop
  endfacet
  facet normal 0.77305 0.603287 -0.196059
    outer loop
      vertex 6.18408 5.07515 0
      vertex 8.03207 5.95699 10
      vertex 6.42566 4.76559 0
    endloop
  endfacet
  facet normal 0.773047 0.60329 -0.196059
    outer loop
      vertex 6.18408 5.07515 0
      vertex 7.7301 6.34393 10
      vertex 8.03207 5.95699 10
    endloop
  endfacet
  facet normal 0.742513 0.640496 -0.196059
    outer loop
      vertex 5.92761 5.37247 0
      vertex 7.7301 6.34393 10
      vertex 6.18408 5.07515 0
    endloop
  endfacet
  facet normal 0.742519 0.640489 -0.196059
    outer loop
      vertex 5.92761 5.37247 0
      vertex 7.40951 6.71559 10
      vertex 7.7301 6.34393 10
    endloop
  endfacet
  facet normal 0.710181 0.676168 -0.196059
    outer loop
      vertex 5.65685 5.65685 0
      vertex 7.40951 6.71559 10
      vertex 5.92761 5.37247 0
    endloop
  endfacet
  facet normal 0.710196 0.676153 -0.19606
    outer loop
      vertex 5.65685 5.65685 0
      vertex 7.07107 7.07107 10
      vertex 7.40951 6.71559 10
    endloop
  endfacet
  facet normal 0.676168 0.710181 -0.19606
    outer loop
      vertex 5.37247 5.92761 0
      vertex 7.07107 7.07107 10
      vertex 5.65685 5.65685 0
    endloop
  endfacet
  facet normal 0.676153 0.710196 -0.196059
    outer loop
      vertex 5.37247 5.92761 0
      vertex 6.71559 7.40951 10
      vertex 7.07107 7.07107 10
    endloop
  endfacet
  facet normal 0.640496 0.742513 -0.196059
    outer loop
      vertex 5.07515 6.18408 0
      vertex 6.71559 7.40951 10
      vertex 5.37247 5.92761 0
    endloop
  endfacet
  facet normal 0.640489 0.742519 -0.196059
    outer loop
      vertex 5.07515 6.18408 0
      vertex 6.34393 7.7301 10
      vertex 6.71559 7.40951 10
    endloop
  endfacet
  facet normal 0.603287 0.77305 -0.196059
    outer loop
      vertex 4.76559 6.42566 0
      vertex 6.34393 7.7301 10
      vertex 5.07515 6.18408 0
    endloop
  endfacet
  facet normal 0.60329 0.773047 -0.196059
    outer loop
      vertex 4.76559 6.42566 0
      vertex 5.95699 8.03207 10
      vertex 6.34393 7.7301 10
    endloop
  endfacet
  facet normal 0.564642 0.801711 -0.196059
    outer loop
      vertex 4.44456 6.65176 0
      vertex 5.95699 8.03207 10
      vertex 4.76559 6.42566 0
    endloop
  endfacet
  facet normal 0.564646 0.801708 -0.196059
    outer loop
      vertex 4.44456 6.65176 0
      vertex 5.5557 8.3147 10
      vertex 5.95699 8.03207 10
    endloop
  endfacet
  facet normal 0.524611 0.828459 -0.196059
    outer loop
      vertex 4.11282 6.86183 0
      vertex 5.5557 8.3147 10
      vertex 4.44456 6.65176 0
    endloop
  endfacet
  facet normal 0.524619 0.828454 -0.19606
    outer loop
      vertex 4.11282 6.86183 0
      vertex 5.14103 8.57729 10
      vertex 5.5557 8.3147 10
    endloop
  endfacet
  facet normal 0.483328 0.853203 -0.19606
    outer loop
      vertex 3.77117 7.05537 0
      vertex 5.14103 8.57729 10
      vertex 4.11282 6.86183 0
    endloop
  endfacet
  facet normal 0.483322 0.853206 -0.196059
    outer loop
      vertex 3.77117 7.05537 0
      vertex 4.71397 8.81921 10
      vertex 5.14103 8.57729 10
    endloop
  endfacet
  facet normal 0.44088 0.875891 -0.196059
    outer loop
      vertex 3.42044 7.23191 0
      vertex 4.71397 8.81921 10
      vertex 3.77117 7.05537 0
    endloop
  endfacet
  facet normal 0.440882 0.87589 -0.196059
    outer loop
      vertex 3.42044 7.23191 0
      vertex 4.27555 9.03989 10
      vertex 4.71397 8.81921 10
    endloop
  endfacet
  facet normal 0.397396 0.896458 -0.19606
    outer loop
      vertex 3.06147 7.39104 0
      vertex 4.27555 9.03989 10
      vertex 3.42044 7.23191 0
    endloop
  endfacet
  facet normal 0.397387 0.896462 -0.196059
    outer loop
      vertex 3.06147 7.39104 0
      vertex 3.82683 9.2388 10
      vertex 4.27555 9.03989 10
    endloop
  endfacet
  facet normal 0.352895 0.914891 -0.196059
    outer loop
      vertex 2.69512 7.53235 0
      vertex 3.82683 9.2388 10
      vertex 3.06147 7.39104 0
    endloop
  endfacet
  facet normal 0.352905 0.914887 -0.19606
    outer loop
      vertex 2.69512 7.53235 0
      vertex 3.3689 9.41544 10
      vertex 3.82683 9.2388 10
    endloop
  endfacet
  facet normal 0.307594 0.9311 -0.19606
    outer loop
      vertex 2.32228 7.65552 0
      vertex 3.3689 9.41544 10
      vertex 2.69512 7.53235 0
    endloop
  endfacet
  facet normal 0.30759 0.931101 -0.196059
    outer loop
      vertex 2.32228 7.65552 0
      vertex 2.90285 9.5694 10
      vertex 3.3689 9.41544 10
    endloop
  endfacet
  facet normal 0.26154 0.94507 -0.196059
    outer loop
      vertex 1.94384 7.76025 0
      vertex 2.90285 9.5694 10
      vertex 2.32228 7.65552 0
    endloop
  endfacet
  facet normal 0.261535 0.945071 -0.196059
    outer loop
      vertex 1.94384 7.76025 0
      vertex 2.4298 9.70031 10
      vertex 2.90285 9.5694 10
    endloop
  endfacet
  facet normal 0.214843 0.956767 -0.196059
    outer loop
      vertex 1.56072 7.84628 0
      vertex 2.4298 9.70031 10
      vertex 1.94384 7.76025 0
    endloop
  endfacet
  facet normal 0.214848 0.956766 -0.196059
    outer loop
      vertex 1.56072 7.84628 0
      vertex 1.9509 9.80785 10
      vertex 2.4298 9.70031 10
    endloop
  endfacet
  facet normal 0.167644 0.966155 -0.196059
    outer loop
      vertex 1.17384 7.91341 0
      vertex 1.9509 9.80785 10
      vertex 1.56072 7.84628 0
    endloop
  endfacet
  facet normal 0.167639 0.966156 -0.196059
    outer loop
      vertex 1.17384 7.91341 0
      vertex 1.4673 9.89176 10
      vertex 1.9509 9.80785 10
    endloop
  endfacet
  facet normal 0.120047 0.973216 -0.196059
    outer loop
      vertex 0.784137 7.96148 0
      vertex 1.4673 9.89176 10
      vertex 1.17384 7.91341 0
    endloop
  endfacet
  facet normal 0.120051 0.973215 -0.196059
    outer loop
      vertex 0.784137 7.96148 0
      vertex 0.980171 9.95185 10
      vertex 1.4673 9.89176 10
    endloop
  endfacet
  facet normal 0.0721223 0.977936 -0.196059
    outer loop
      vertex 0.392541 7.99036 0
      vertex 0.980171 9.95185 10
      vertex 0.784137 7.96148 0
    endloop
  endfacet
  facet normal 0.0721224 0.977936 -0.196059
    outer loop
      vertex 0.392541 7.99036 0
      vertex 0.490677 9.98795 10
      vertex 0.980171 9.95185 10
    endloop
  endfacet
  facet normal 0.0240741 0.980296 -0.196059
    outer loop
      vertex 0 8 0
      vertex 0.490677 9.98795 10
      vertex 0.392541 7.99036 0
    endloop
  endfacet
  facet normal 0.024074 0.980296 -0.196059
    outer loop
      vertex 0 8 0
      vertex 0 10 10
      vertex 0.490677 9.98795 10
    endloop
  endfacet
  facet normal -0.0240741 0.980296 -0.196059
    outer loop
      vertex -0.392541 7.99036 0
      vertex 0 10 10
      vertex 0 8 0
    endloop
  endfacet
  facet normal -0.024074 0.980296 -0.196059
    outer loop
      vertex -0.392541 7.99036 0
      vertex -0.490677 9.98795 10
      vertex 0 10 10
    endloop
  endfacet
  facet normal -0.0721223 0.977936 -0.196059
    outer loop
      vertex -0.784137 7.96148 0
      vertex -0.490677 9.98795 10
      vertex -0.392541 7.99036 0
    endloop
  endfacet
  facet normal -0.0721224 0.977936 -0.196059
    outer loop
      vertex -0.784137 7.96148 0
      vertex -0.980171 9.95185 10
      vertex -0.490677 9.98795 10
    endloop
  endfacet
  facet normal -0.120047 0.973216 -0.196059
    outer loop
      vertex -1.17384 7.91341 0
      vertex -0.980171 9.95185 10
      vertex -0.784137 7.96148 0
    endloop
  endfacet
  facet normal -0.120051 0.973216 -0.196059
    outer loop
      vertex -1.17384 7.91341 0
      vertex -1.4673 9.89176 10
      vertex -0.980171 9.95185 10
    endloop
  endfacet
  facet normal -0.167644 0.966155 -0.196059
    outer loop
      vertex -1.56072 7.84628 0
      vertex -1.4673 9.89176 10
      vertex -1.17384 7.91341 0
    endloop
  endfacet
  facet normal -0.167639 0.966156 -0.196059
    outer loop
      vertex -1.56072 7.84628 0
      vertex -1.9509 9.80785 10
      vertex -1.4673 9.89176 10
    endloop
  endfacet
  facet normal -0.214843 0.956767 -0.196059
    outer loop
      vertex -1.94384 7.76025 0
      vertex -1.9509 9.80785 10
      vertex -1.56072 7.84628 0
    endloop
  endfacet
  facet normal -0.214848 0.956766 -0.196059
    outer loop
      vertex -1.94384 7.76025 0
      vertex -2.4298 9.70031 10
      vertex -1.9509 9.80785 10
    endloop
  endfacet
  facet normal -0.26154 0.94507 -0.196059
    outer loop
      vertex -2.32228 7.65552 0
      vertex -2.4298 9.70031 10
      vertex -1.94384 7.76025 0
    endloop
  endfacet
  facet normal -0.261535 0.945071 -0.196059
    outer loop
      vertex -2.32228 7.65552 0
      vertex -2.90285 9.5694 10
      vertex -2.4298 9.70031 10
    endloop
  endfacet
  facet normal -0.307594 0.9311 -0.196059
    outer loop
      vertex -2.69512 7.53235 0
      vertex -2.90285 9.5694 10
      vertex -2.32228 7.65552 0
    endloop
  endfacet
  facet normal -0.30759 0.931101 -0.196059
    outer loop
      vertex -2.69512 7.53235 0
      vertex -3.3689 9.41544 10
      vertex -2.90285 9.5694 10
    endloop
  endfacet
  facet normal -0.352895 0.914891 -0.19606
    outer loop
      vertex -3.06147 7.39104 0
      vertex -3.3689 9.41544 10
      vertex -2.69512 7.53235 0
    endloop
  endfacet
  facet normal -0.352905 0.914887 -0.196059
    outer loop
      vertex -3.06147 7.39104 0
      vertex -3.82683 9.2388 10
      vertex -3.3689 9.41544 10
    endloop
  endfacet
  facet normal -0.397396 0.896458 -0.196059
    outer loop
      vertex -3.42044 7.23191 0
      vertex -3.82683 9.2388 10
      vertex -3.06147 7.39104 0
    endloop
  endfacet
  facet normal -0.397387 0.896462 -0.19606
    outer loop
      vertex -3.42044 7.23191 0
      vertex -4.27555 9.03989 10
      vertex -3.82683 9.2388 10
    endloop
  endfacet
  facet normal -0.44088 0.875891 -0.196059
    outer loop
      vertex -3.77117 7.05537 0
      vertex -4.27555 9.03989 10
      vertex -3.42044 7.23191 0
    endloop
  endfacet
  facet normal -0.440882 0.87589 -0.196059
    outer loop
      vertex -3.77117 7.05537 0
      vertex -4.71397 8.81921 10
      vertex -4.27555 9.03989 10
    endloop
  endfacet
  facet normal -0.483328 0.853203 -0.196059
    outer loop
      vertex -4.11282 6.86183 0
      vertex -4.71397 8.81921 10
      vertex -3.77117 7.05537 0
    endloop
  endfacet
  facet normal -0.483322 0.853206 -0.19606
    outer loop
      vertex -4.11282 6.86183 0
      vertex -5.14103 8.57729 10
      vertex -4.71397 8.81921 10
    endloop
  endfacet
  facet normal -0.524611 0.828459 -0.19606
    outer loop
      vertex -4.44456 6.65176 0
      vertex -5.14103 8.57729 10
      vertex -4.11282 6.86183 0
    endloop
  endfacet
  facet normal -0.524619 0.828454 -0.196059
    outer loop
      vertex -4.44456 6.65176 0
      vertex -5.5557 8.3147 10
      vertex -5.14103 8.57729 10
    endloop
  endfacet
  facet normal -0.564642 0.801711 -0.196059
    outer loop
      vertex -4.76559 6.42566 0
      vertex -5.5557 8.3147 10
      vertex -4.44456 6.65176 0
    endloop
  endfacet
  facet normal -0.564646 0.801708 -0.196059
    outer loop
      vertex -4.76559 6.42566 0
      vertex -5.95699 8.03207 10
      vertex -5.5557 8.3147 10
    endloop
  endfacet
  facet normal -0.603287 0.77305 -0.196059
    outer loop
      vertex -5.07515 6.18408 0
      vertex -5.95699 8.03207 10
      vertex -4.76559 6.42566 0
    endloop
  endfacet
  facet normal -0.60329 0.773047 -0.196059
    outer loop
      vertex -5.07515 6.18408 0
      vertex -6.34393 7.7301 10
      vertex -5.95699 8.03207 10
    endloop
  endfacet
  facet normal -0.640496 0.742513 -0.196059
    outer loop
      vertex -5.37247 5.92761 0
      vertex -6.34393 7.7301 10
      vertex -5.07515 6.18408 0
    endloop
  endfacet
  facet normal -0.640489 0.742519 -0.196059
    outer loop
      vertex -5.37247 5.92761 0
      vertex -6.71559 7.40951 10
      vertex -6.34393 7.7301 10
    endloop
  endfacet
  facet normal -0.676168 0.710181 -0.196059
    outer loop
      vertex -5.65685 5.65685 0
      vertex -6.71559 7.40951 10
      vertex -5.37247 5.92761 0
    endloop
  endfacet
  facet normal -0.676153 0.710196 -0.19606
    outer loop
      vertex -5.65685 5.65685 0
      vertex -7.07107 7.07107 10
      vertex -6.71559 7.40951 10
    endloop
  endfacet
  facet normal -0.710181 0.676168 -0.19606
    outer loop
      vertex -5.92761 5.37247 0
      vertex -7.07107 7.07107 10
      vertex -5.65685 5.65685 0
    endloop
  endfacet
  facet normal -0.710196 0.676153 -0.196059
    outer loop
      vertex -5.92761 5.37247 0
      vertex -7.40951 6.71559 10
      vertex -7.07107 7.07107 10
    endloop
  endfacet
  facet normal -0.742513 0.640496 -0.196059
    outer loop
      vertex -6.18408 5.07515 0
      vertex -7.40951 6.71559 10
      vertex -5.92761 5.37247 0
    endloop
  endfacet
  facet normal -0.742519 0.640489 -0.196059
    outer loop
      vertex -6.18408 5.07515 0
      vertex -7.7301 6.34393 10
      vertex -7.40951 6.71559 10
    endloop
  endfacet
  facet normal -0.77305 0.603287 -0.196059
    outer loop
      vertex -6.42566 4.76559 0
      vertex -7.7301 6.34393 10
      vertex -6.18408 5.07515 0
    endloop
  endfacet
  facet normal -0.773047 0.60329 -0.196059
    outer loop
      vertex -6.42566 4.76559 0
      vertex -8.03207 5.95699 10
      vertex -7.7301 6.34393 10
    endloop
  endfacet
  facet normal -0.801711 0.564642 -0.196059
    outer loop
      vertex -6.65176 4.44456 0
      vertex -8.03207 5.95699 10
      vertex -6.42566 4.76559 0
    endloop
  endfacet
  facet normal -0.801708 0.564646 -0.196059
    outer loop
      vertex -6.65176 4.44456 0
      vertex -8.3147 5.5557 10
      vertex -8.03207 5.95699 10
    endloop
  endfacet
  facet normal -0.828459 0.524611 -0.196059
    outer loop
      vertex -6.86183 4.11282 0
      vertex -8.3147 5.5557 10
      vertex -6.65176 4.44456 0
    endloop
  endfacet
  facet normal -0.828454 0.524619 -0.19606
    outer loop
      vertex -6.86183 4.11282 0
      vertex -8.57729 5.14103 10
      vertex -8.3147 5.5557 10
    endloop
  endfacet
  facet normal -0.853203 0.483328 -0.19606
    outer loop
      vertex -7.05537 3.77117 0
      vertex -8.57729 5.14103 10
      vertex -6.86183 4.11282 0
    endloop
  endfacet
  facet normal -0.853206 0.483322 -0.196059
    outer loop
      vertex -7.05537 3.77117 0
      vertex -8.81921 4.71397 10
      vertex -8.57729 5.14103 10
    endloop
  endfacet
  facet normal -0.875891 0.44088 -0.196059
    outer loop
      vertex -7.23191 3.42044 0
      vertex -8.81921 4.71397 10
      vertex -7.05537 3.77117 0
    endloop
  endfacet
  facet normal -0.87589 0.440882 -0.196059
    outer loop
      vertex -7.23191 3.42044 0
      vertex -9.03989 4.27555 10
      vertex -8.81921 4.71397 10
    endloop
  endfacet
  facet normal -0.896458 0.397396 -0.19606
    outer loop
      vertex -7.39104 3.06147 0
      vertex -9.03989 4.27555 10
      vertex -7.23191 3.42044 0
    endloop
  endfacet
  facet normal -0.896462 0.397387 -0.196059
    outer loop
      vertex -7.39104 3.06147 0
      vertex -9.2388 3.82683 10
      vertex -9.03989 4.27555 10
    endloop
  endfacet
  facet normal -0.914891 0.352895 -0.196059
    outer loop
      vertex -7.53235 2.69512 0
      vertex -9.2388 3.82683 10
      vertex -7.39104 3.06147 0
    endloop
  endfacet
  facet normal -0.914887 0.352905 -0.19606
    outer loop
      vertex -7.53235 2.69512 0
      vertex -9.41544 3.3689 10
      vertex -9.2388 3.82683 10
    endloop
  endfacet
  facet normal -0.9311 0.307594 -0.19606
    outer loop
      vertex -7.65552 2.32228 0
      vertex -9.41544 3.3689 10
      vertex -7.53235 2.69512 0
    endloop
  endfacet
  facet normal -0.931101 0.30759 -0.196059
    outer loop
      vertex -7.65552 2.32228 0
      vertex -9.5694 2.90285 10
      vertex -9.41544 3.3689 10
    endloop
  endfacet
  facet normal -0.94507 0.26154 -0.196059
    outer loop
      vertex -7.76025 1.94384 0
      vertex -9.5694 2.90285 10
      vertex -7.65552 2.32228 0
    endloop
  endfacet
  facet normal -0.945071 0.261535 -0.196059
    outer loop
      vertex -7.76025 1.94384 0
      vertex -9.70031 2.4298 10
      vertex -9.5694 2.90285 10
    endloop
  endfacet
  facet normal -0.956767 0.214843 -0.196059
    outer loop
      vertex -7.84628 1.56072 0
      vertex -9.70031 2.4298 10
      vertex -7.76025 1.94384 0
    endloop
  endfacet
  facet normal -0.956766 0.214848 -0.196059
    outer loop
      vertex -7.84628 1.56072 0
      vertex -9.80785 1.9509 10
      vertex -9.70031 2.4298 10
    endloop
  endfacet
  facet normal -0.966155 0.167644 -0.196059
    outer loop
      vertex -7.91341 1.17384 0
      vertex -9.80785 1.9509 10
      vertex -7.84628 1.56072 0
    endloop
  endfacet
  facet normal -0.966156 0.167639 -0.196059
    outer loop
      vertex -7.91341 1.17384 0
      vertex -9.89176 1.4673 10
      vertex -9.80785 1.9509 10
    endloop
  endfacet
  facet normal -0.973216 0.120047 -0.196059
    outer loop
      vertex -7.96148 0.784137 0
      vertex -9.89176 1.4673 10
      vertex -7.91341 1.17384 0
    endloop
  endfacet
  facet normal -0.973215 0.120051 -0.196059
    outer loop
      vertex -7.96148 0.784137 0
      vertex -9.95185 0.980171 10
      vertex -9.89176 1.4673 10
    endloop
  endfacet
  facet normal -0.977936 0.0721223 -0.196059
    outer loop
      vertex -7.99036 0.392541 0
      vertex -9.95185 0.980171 10
      vertex -7.96148 0.784137 0
    endloop
  endfacet
  facet normal -0.977936 0.0721224 -0.196059
    outer loop
      vertex -7.99036 0.392541 0
      vertex -9.98795 0.490677 10
      vertex -9.95185 0.980171 10
    endloop
  endfacet
  facet normal -0.980296 0.0240741 -0.196059
    outer loop
      vertex -8 -0 0
      vertex -9.98795 0.490677 10
      vertex -7.99036 0.392541 0
    endloop
  endfacet
  facet normal -0.980296 0.024074 -0.196059
    outer loop
      vertex -8 -0 0
      vertex -10 -0 10
      vertex -9.98795 0.490677 10
    endloop
  endfacet
  facet normal -0.980296 -0.0240741 -0.196059
    outer loop
      vertex -7.99036 -0.392541 0
      vertex -10 -0 10
      vertex -8 -0 0
    endloop
  endfacet
  facet normal -0.980296 -0.024074 -0.196059
    outer loop
      vertex -7.99036 -0.392541 0
      vertex -9.98795 -0.490677 10
      vertex -10 -0 10
    endloop
  endfacet
  facet normal -0.977936 -0.0721223 -0.196059
    outer loop
      vertex -7.96148 -0.784137 0
      vertex -9.98795 -0.490677 10
      vertex -7.99036 -0.392541 0
    endloop
  endfacet
  facet normal -0.977936 -0.0721224 -0.196059
    outer loop
      vertex -7.96148 -0.784137 0
      vertex -9.95185 -0.980171 10
      vertex -9.98795 -0.490677 10
    endloop
  endfacet
  facet normal -0.973216 -0.120047 -0.196059
    outer loop
      vertex -7.91341 -1.17384 0
      vertex -9.95185 -0.980171 10
      vertex -7.96148 -0.784137 0
    endloop
  endfacet
  facet normal -0.973216 -0.120051 -0.196059
    outer loop
      vertex -7.91341 -1.17384 0
      vertex -9.89176 -1.4673 10
      vertex -9.95185 -0.980171 10
    endloop
  endfacet
  facet normal -0.966155 -0.167644 -0.196059
    outer loop
      vertex -7.84628 -1.56072 0
      vertex -9.89176 -1.4673 10
      vertex -7.91341 -1.17384 0
    endloop
  endfacet
  facet normal -0.966156 -0.167639 -0.196059
    outer loop
      vertex -7.84628 -1.56072 0
      vertex -9.80785 -1.9509 10
      vertex -9.89176 -1.4673 10
    endloop
  endfacet
  facet normal -0.956767 -0.214843 -0.196059
    outer loop
      vertex -7.76025 -1.94384 0
      vertex -9.80785 -1.9509 10
      vertex -7.84628 -1.56072 0
    endloop
  endfacet
  facet normal -0.956766 -0.214848 -0.196059
    outer loop
      vertex -7.76025 -1.94384 0
      vertex -9.70031 -2.4298 10
      vertex -9.80785 -1.9509 10
    endloop
  endfacet
  facet normal -0.94507 -0.26154 -0.196059
    outer loop
      vertex -7.65552 -2.32228 0
      vertex -9.70031 -2.4298 10
      vertex -7.76025 -1.94384 0
    endloop
  endfacet
  facet normal -0.945071 -0.261535 -0.196059
    outer loop
      vertex -7.65552 -2.32228 0
      vertex -9.5694 -2.90285 10
      vertex -9.70031 -2.4298 10
    endloop
  endfacet
  facet normal -0.9311 -0.307594 -0.196059
    outer loop
      vertex -7.53235 -2.69512 0
      vertex -9.5694 -2.90285 10
      vertex -7.65552 -2.32228 0
    endloop
  endfacet
  facet normal -0.931101 -0.30759 -0.196059
    outer loop
      vertex -7.53235 -2.69512 0
      vertex -9.41544 -3.3689 10
      vertex -9.5694 -2.90285 10
    endloop
  endfacet
  facet normal -0.914891 -0.352895 -0.19606
    outer loop
      vertex -7.39104 -3.06147 0
      vertex -9.41544 -3.3689 10
      vertex -7.53235 -2.69512 0
    endloop
  endfacet
  facet normal -0.914887 -0.352905 -0.196059
    outer loop
      vertex -7.39104 -3.06147 0
      vertex -9.2388 -3.82683 10
      vertex -9.41544 -3.3689 10
    endloop
  endfacet
  facet normal -0.896458 -0.397396 -0.196059
    outer loop
      vertex -7.23191 -3.42044 0
      vertex -9.2388 -3.82683 10
      vertex -7.39104 -3.06147 0
    endloop
  endfacet
  facet normal -0.896462 -0.397387 -0.19606
    outer loop
      vertex -7.23191 -3.42044 0
      vertex -9.03989 -4.27555 10
      vertex -9.2388 -3.82683 10
    endloop
  endfacet
  facet normal -0.875891 -0.44088 -0.196059
    outer loop
      vertex -7.05537 -3.77117 0
      vertex -9.03989 -4.27555 10
      vertex -7.23191 -3.42044 0
    endloop
  endfacet
  facet normal -0.87589 -0.440882 -0.196059
    outer loop
      vertex -7.05537 -3.77117 0
      vertex -8.81921 -4.71397 10
      vertex -9.03989 -4.27555 10
    endloop
  endfacet
  facet normal -0.853203 -0.483328 -0.196059
    outer loop
      vertex -6.86183 -4.11282 0
      vertex -8.81921 -4.71397 10
      vertex -7.05537 -3.77117 0
    endloop
  endfacet
  facet normal -0.853206 -0.483322 -0.19606
    outer loop
      vertex -6.86183 -4.11282 0
      vertex -8.57729 -5.14103 10
      vertex -8.81921 -4.71397 10
    endloop
  endfacet
  facet normal -0.828459 -0.524611 -0.19606
    outer loop
      vertex -6.65176 -4.44456 0
      vertex -8.57729 -5.14103 10
      vertex -6.86183 -4.11282 0
    endloop
  endfacet
  facet normal -0.828454 -0.524619 -0.196059
    outer loop
      vertex -6.65176 -4.44456 0
      vertex -8.3147 -5.5557 10
      vertex -8.57729 -5.14103 10
    endloop
  endfacet
  facet normal -0.801711 -0.564642 -0.196059
    outer loop
      vertex -6.42566 -4.76559 0
      vertex -8.3147 -5.5557 10
      vertex -6.65176 -4.44456 0
    endloop
  endfacet
  facet normal -0.801708 -0.564646 -0.196059
    outer loop
      vertex -6.42566 -4.76559 0
      vertex -8.03207 -5.95699 10
      vertex -8.3147 -5.5557 10
    endloop
  endfacet
  facet normal -0.77305 -0.603287 -0.196059
    outer loop
      vertex -6.18408 -5.07515 0
      vertex -8.03207 -5.95699 10
      vertex -6.42566 -4.76559 0
    endloop
  endfacet
  facet normal -0.773047 -0.60329 -0.196059
    outer loop
      vertex -6.18408 -5.07515 0
      vertex -7.7301 -6.34393 10
      vertex -8.03207 -5.95699 10
    endloop
  endfacet
  facet normal -0.742513 -0.640496 -0.196059
    outer loop
      vertex -5.92761 -5.37247 0
      vertex -7.7301 -6.34393 10
      vertex -6.18408 -5.07515 0
    endloop
  endfacet
  facet normal -0.742519 -0.640489 -0.196059
    outer loop
      vertex -5.92761 -5.37247 0
      vertex -7.40951 -6.71559 10
      vertex -7.7301 -6.34393 10
    endloop
  endfacet
  facet normal -0.710181 -0.676168 -0.196059
    outer loop
      vertex -5.65685 -5.65685 0
      vertex -7.40951 -6.71559 10
      vertex -5.92761 -5.37247 0
    endloop
  endfacet
  facet normal -0.710196 -0.676153 -0.19606
    outer loop
      vertex -5.65685 -5.65685 0
      vertex -7.07107 -7.07107 10
      vertex -7.40951 -6.71559 10
    endloop
  endfacet
  facet normal -0.676168 -0.710181 -0.19606
    outer loop
      vertex -5.37247 -5.92761 0
      vertex -7.07107 -7.07107 10
      vertex -5.65685 -5.65685 0
    endloop
  endfacet
  facet normal -0.676153 -0.710196 -0.196059
    outer loop
      vertex -5.37247 -5.92761 0
      vertex -6.71559 -7.40951 10
      vertex -7.07107 -7.07107 10
    endloop
  endfacet
  facet normal -0.640496 -0.742513 -0.196059
    outer loop
      vertex -5.07515 -6.18408 0
      vertex -6.71559 -7.40951 10
      vertex -5.37247 -5.92761 0
    endloop
  endfacet
  facet normal -0.640489 -0.742519 -0.196059
    outer loop
      vertex -5.07515 -6.18408 0
      vertex -6.34393 -7.7301 10
      vertex -6.71559 -7.40951 10
    endloop
  endfacet
  facet normal -0.603287 -0.77305 -0.196059
    outer loop
      vertex -4.76559 -6.42566 0
      vertex -6.34393 -7.7301 10
      vertex -5.07515 -6.18408 0
    endloop
  endfacet
  facet normal -0.60329 -0.773047 -0.196059
    outer loop
      vertex -4.76559 -6.42566 0
      vertex -5.95699 -8.03207 10
      vertex -6.34393 -7.7301 10
    endloop
  endfacet
  facet normal -0.564642 -0.801711 -0.196059
    outer loop
      vertex -4.44456 -6.65176 0
      vertex -5.95699 -8.03207 10
      vertex -4.76559 -6.42566 0
    endloop
  endfacet
  facet normal -0.564646 -0.801708 -0.196059
    outer loop
      vertex -4.44456 -6.65176 0
      vertex -5.5557 -8.3147 10
      vertex -5.95699 -8.03207 10
    endloop
  endfacet
  facet normal -0.524611 -0.828459 -0.196059
    outer loop
      vertex -4.11282 -6.86183 0
      vertex -5.5557 -8.3147 10
      vertex -4.44456 -6.65176 0
    endloop
  endfacet
  facet normal -0.524619 -0.828454 -0.19606
    outer loop
      vertex -4.11282 -6.86183 0
      vertex -5.14103 -8.57729 10
      vertex -5.5557 -8.3147 10
    endloop
  endfacet
  facet normal -0.483328 -0.853203 -0.19606
    outer loop
      vertex -3.77117 -7.05537 0
      vertex -5.14103 -8.57729 10
      vertex -4.11282 -6.86183 0
    endloop
  endfacet
  facet normal -0.483322 -0.853206 -0.196059
    outer loop
      vertex -3.77117 -7.05537 0
      vertex -4.71397 -8.81921 10
      vertex -5.14103 -8.57729 10
    endloop
  endfacet
  facet normal -0.44088 -0.875891 -0.196059
    outer loop
      vertex -3.42044 -7.23191 0
      vertex -4.71397 -8.81921 10
      vertex -3.77117 -7.05537 0
    endloop
  endfacet
  facet normal -0.440882 -0.87589 -0.196059
    outer loop
      vertex -3.42044 -7.23191 0
      vertex -4.27555 -9.03989 10
      vertex -4.71397 -8.81921 10
    endloop
  endfacet
  facet normal -0.397396 -0.896458 -0.19606
    outer loop
      vertex -3.06147 -7.39104 0
      vertex -4.27555 -9.03989 10
      vertex -3.42044 -7.23191 0
    endloop
  endfacet
  facet normal -0.397387 -0.896462 -0.196059
    outer loop
      vertex -3.06147 -7.39104 0
      vertex -3.82683 -9.2388 10
      vertex -4.27555 -9.03989 10
    endloop
  endfacet
  facet normal -0.352895 -0.914891 -0.196059
    outer loop
      vertex -2.69512 -7.53235 0
      vertex -3.82683 -9.2388 10
      vertex -3.06147 -7.39104 0
    endloop
  endfacet
  facet normal -0.352905 -0.914887 -0.19606
    outer loop
      vertex -2.69512 -7.53235 0
      vertex -3.3689 -9.41544 10
      vertex -3.82683 -9.2388 10
    endloop
  endfacet
  facet normal -0.307594 -0.9311 -0.19606
    outer loop
      vertex -2.32228 -7.65552 0
      vertex -3.3689 -9.41544 10
      vertex -2.69512 -7.53235 0
    endloop
  endfacet
  facet normal -0.30759 -0.931101 -0.196059
    outer loop
      vertex -2.32228 -7.65552 0
      vertex -2.90285 -9.5694 10
      vertex -3.3689 -9.41544 10
    endloop
  endfacet
  facet normal -0.26154 -0.94507 -0.196059
    outer loop
      vertex -1.94384 -7.76025 0
      vertex -2.90285 -9.5694 10
      vertex -2.32228 -7.65552 0
    endloop
  endfacet
  facet normal -0.261535 -0.945071 -0.196059
    outer loop
      vertex -1.94384 -7.76025 0
      vertex -2.4298 -9.70031 10
      vertex -2.90285 -9.5694 10
    endloop
  endfacet
  facet normal -0.214843 -0.956767 -0.196059
    outer loop
      vertex -1.56072 -7.84628 0
      vertex -2.4298 -9.70031 10
      vertex -1.94384 -7.76025 0
    endloop
  endfacet
  facet normal -0.214848 -0.956766 -0.196059
    outer loop
      vertex -1.56072 -7.84628 0
      vertex -1.9509 -9.80785 10
      vertex -2.4298 -9.70031 10
    endloop
  endfacet
  facet normal -0.167644 -0.966155 -0.196059
    outer loop
      vertex -1.17384 -7.91341 0
      vertex -1.9509 -9.80785 10
      vertex -1.56072 -7.84628 0
    endloop
  endfacet
  facet normal -0.167639 -0.966156 -0.196059
    outer loop
      vertex -1.17384 -7.91341 0
      vertex -1.4673 -9.89176 10
      vertex -1.9509 -9.80785 10
    endloop
  endfacet
  facet normal -0.120047 -0.973216 -0.196059
    outer loop
      vertex -0.784137 -7.96148 0
      vertex -1.4673 -9.89176 10
      vertex -1.17384 -7.91341 0
    endloop
  endfacet
  facet normal -0.120051 -0.973215 -0.196059
    outer loop
      vertex -0.784137 -7.96148 0
      vertex -0.980171 -9.95185 10
      vertex -1.4673 -9.89176 10
    endloop
  endfacet
  facet normal -0.0721223 -0.977936 -0.196059
    outer loop
      vertex -0.392541 -7.99036 0
      vertex -0.980171 -9.95185 10
      vertex -0.784137 -7.96148 0
    endloop
  endfacet
  facet normal -0.0721224 -0.977936 -0.196059
    outer loop
      vertex -0.392541 -7.99036 0
      vertex -0.490677 -9.98795 10
      vertex -0.980171 -9.95185 10
    endloop
  endfacet
  facet normal -0.0240741 -0.980296 -0.196059
    outer loop
      vertex -0 -8 0
      vertex -0.490677 -9.98795 10
      vertex -0.392541 -7.99036 0
    endloop
  endfacet
  facet normal -0.024074 -0.980296 -0.196059
    outer loop
      vertex -0 -8 0
      vertex -0 -10 10
      vertex -0.490677 -9.98795 10
    endloop
  endfacet
  facet normal 0.0240741 -0.980296 -0.196059
    outer loop
      vertex 0.392541 -7.99036 0
      vertex -0 -10 10
      vertex -0 -8 0
    endloop
  endfacet
  facet normal 0.024074 -0.980296 -0.196059
    outer loop
      vertex 0.392541 -7.99036 0
      vertex 0.490677 -9.98795 10
      vertex -0 -10 10
    endloop
  endfacet
  facet normal 0.0721223 -0.977936 -0.196059
    outer loop
      vertex 0.784137 -7.96148 0
      vertex 0.490677 -9.98795 10
      vertex 0.392541 -7.99036 0
    endloop
  endfacet
  facet normal 0.0721224 -0.977936 -0.196059
    outer loop
      vertex 0.784137 -7.96148 0
      vertex 0.980171 -9.95185 10
      vertex 0.490677 -9.98795 10
    endloop
  endfacet
  facet normal 0.120047 -0.973216 -0.196059
    outer loop
      vertex 1.17384 -7.91341 0
      vertex 0.980171 -9.95185 10
      vertex 0.784137 -7.96148 0
    endloop
  endfacet
  facet normal 0.120051 -0.973216 -0.196059
    outer loop
      vertex 1.17384 -7.91341 0
      vertex 1.4673 -9.89176 10
      vertex 0.980171 -9.95185 10
    endloop
  endfacet
  facet normal 0.167644 -0.966155 -0.196059
    outer loop
      vertex 1.56072 -7.84628 0
      vertex 1.4673 -9.89176 10
      vertex 1.17384 -7.91341 0
    endloop
  endfacet
  facet normal 0.167639 -0.966156 -0.196059
    outer loop
      vertex 1.56072 -7.84628 0
      vertex 1.9509 -9.80785 10
      vertex 1.4673 -9.89176 10
    endloop
  endfacet
  facet normal 0.214843 -0.956767 -0.196059
    outer loop
      vertex 1.94384 -7.76025 0
      vertex 1.9509 -9.80785 10
      vertex 1.56072 -7.84628 0
    endloop
  endfacet
  facet normal 0.214848 -0.956766 -0.196059
    outer loop
      vertex 1.94384 -7.76025 0
      vertex 2.4298 -9.70031 10
      vertex 1.9509 -9.80785 10
    endloop
  endfacet
  facet normal 0.26154 -0.94507 -0.196059
    outer loop
      vertex 2.32228 -7.65552 0
      vertex 2.4298 -9.70031 10
      vertex 1.94384 -7.76025 0
    endloop
  endfacet
  facet normal 0.261535 -0.945071 -0.196059
    outer loop
      vertex 2.32228 -7.65552 0
      vertex 2.90285 -9.5694 10
      vertex 2.4298 -9.70031 10
    endloop
  endfacet
  facet normal 0.307594 -0.9311 -0.196059
    outer loop
      vertex 2.69512 -7.53235 0
      vertex 2.90285 -9.5694 10
      vertex 2.32228 -7.65552 0
    endloop
  endfacet
  facet normal 0.30759 -0.931101 -0.196059
    outer loop
      vertex 2.69512 -7.53235 0
      vertex 3.3689 -9.41544 10
      vertex 2.90285 -9.5694 10
    endloop
  endfacet
  facet normal 0.352895 -0.914891 -0.19606
    outer loop
      vertex 3.06147 -7.39104 0
      vertex 3.3689 -9.41544 10
      vertex 2.69512 -7.53235 0
    endloop
  endfacet
  facet normal 0.352905 -0.914887 -0.196059
    outer loop
      vertex 3.06147 -7.39104 0
      vertex 3.82683 -9.2388 10
      vertex 3.3689 -9.41544 10
    endloop
  endfacet
  facet normal 0.397396 -0.896458 -0.196059
    outer loop
      vertex 3.42044 -7.23191 0
      vertex 3.82683 -9.2388 10
      vertex 3.06147 -7.39104 0
    endloop
  endfacet
  facet normal 0.397387 -0.896462 -0.19606
    outer loop
      vertex 3.42044 -7.23191 0
      vertex 4.27555 -9.03989 10
      vertex 3.82683 -9.2388 10
    endloop
  endfacet
  facet normal 0.44088 -0.875891 -0.196059
    outer loop
      vertex 3.77117 -7.05537 0
      vertex 4.27555 -9.03989 10
      vertex 3.42044 -7.23191 0
    endloop
  endfacet
  facet normal 0.440882 -0.87589 -0.196059
    outer loop
      vertex 3.77117 -7.05537 0
      vertex 4.71397 -8.81921 10
      vertex 4.27555 -9.03989 10
    endloop
  endfacet
  facet normal 0.483328 -0.853203 -0.196059
    outer loop
      vertex 4.11282 -6.86183 0
      vertex 4.71397 -8.81921 10
      vertex 3.77117 -7.05537 0
    endloop
  endfacet
  facet normal 0.483322 -0.853206 -0.19606
    outer loop
      vertex 4.11282 -6.86183 0
      vertex 5.14103 -8.57729 10
      vertex 4.71397 -8.81921 10
    endloop
  endfacet
  facet normal 0.524611 -0.828459 -0.19606
    outer loop
      vertex 4.44456 -6.65176 0
      vertex 5.14103 -8.57729 10
      vertex 4.11282 -6.86183 0
    endloop
  endfacet
  facet normal 0.524619 -0.828454 -0.196059
    outer loop
      vertex 4.44456 -6.65176 0
      vertex 5.5557 -8.3147 10
      vertex 5.14103 -8.57729 10
    endloop
  endfacet
  facet normal 0.564642 -0.801711 -0.196059
    outer loop
      vertex 4.76559 -6.42566 0
      vertex 5.5557 -8.3147 10
      vertex 4.44456 -6.65176 0
    endloop
  endfacet
  facet normal 0.564646 -0.801708 -0.196059
    outer loop
      vertex 4.76559 -6.42566 0
      vertex 5.95699 -8.03207 10
      vertex 5.5557 -8.3147 10
    endloop
  endfacet
  facet normal 0.603287 -0.77305 -0.196059
    outer loop
      vertex 5.07515 -6.18408 0
      vertex 5.95699 -8.03207 10
      vertex 4.76559 -6.42566 0
    endloop
  endfacet
  facet normal 0.60329 -0.773047 -0.196059
    outer loop
      vertex 5.07515 -6.18408 0
      vertex 6.34393 -7.7301 10
      vertex 5.95699 -8.03207 10
    endloop
  endfacet
  facet normal 0.640496 -0.742513 -0.196059
    outer loop
      vertex 5.37247 -5.92761 0
      vertex 6.34393 -7.7301 10
      vertex 5.07515 -6.18408 0
    endloop
  endfacet
  facet normal 0.640489 -0.742519 -0.196059
    outer loop
      vertex 5.37247 -5.92761 0
      vertex 6.71559 -7.40951 10
      vertex 6.34393 -7.7301 10
    endloop
  endfacet
  facet normal 0.676168 -0.710181 -0.196059
    outer loop
      vertex 5.65685 -5.65685 0
      vertex 6.71559 -7.40951 10
      vertex 5.37247 -5.92761 0
    endloop
  endfacet
  facet normal 0.676153 -0.710196 -0.19606
    outer loop
      vertex 5.65685 -5.65685 0
      vertex 7.07107 -7.07107 10
      vertex 6.71559 -7.40951 10
    endloop
  endfacet
  facet normal 0.710181 -0.676168 -0.19606
    outer loop
      vertex 5.92761 -5.37247 0
      vertex 7.07107 -7.07107 10
      vertex 5.65685 -5.65685 0
    endloop
  endfacet
  facet normal 0.710196 -0.676153 -0.196059
    outer loop
      vertex 5.92761 -5.37247 0
      vertex 7.40951 -6.71559 10
      vertex 7.07107 -7.07107 10
    endloop
  endfacet
  facet normal 0.742513 -0.640496 -0.196059
    outer loop
      vertex 6.18408 -5.07515 0
      vertex 7.40951 -6.71559 10
      vertex 5.92761 -5.37247 0
    endloop
  endfacet
  facet normal 0.742519 -0.640489 -0.196059
    outer loop
      vertex 6.18408 -5.07515 0
      vertex 7.7301 -6.34393 10
      vertex 7.40951 -6.71559 10
    endloop
  endfacet
  facet normal 0.77305 -0.603287 -0.196059
    outer loop
      vertex 6.42566 -4.76559 0
      vertex 7.7301 -6.34393 10
      vertex 6.18408 -5.07515 0
    endloop
  endfacet
  facet normal 0.773047 -0.60329 -0.196059
    outer loop
      vertex 6.42566 -4.76559 0
      vertex 8.03207 -5.95699 10
      vertex 7.7301 -6.34393 10
    endloop
  endfacet
  facet normal 0.801711 -0.564642 -0.196059
    outer loop
      vertex 6.65176 -4.44456 0
      vertex 8.03207 -5.95699 10
      vertex 6.42566 -4.76559 0
    endloop
  endfacet
  facet normal 0.801708 -0.564646 -0.196059
    outer loop
      vertex 6.65176 -4.44456 0
      vertex 8.3147 -5.5557 10
      vertex 8.03207 -5.95699 10
    endloop
  endfacet
  facet normal 0.828459 -0.524611 -0.196059
    outer loop
      vertex 6.86183 -4.11282 0
      vertex 8.3147 -5.5557 10
      vertex 6.65176 -4.44456 0
    endloop
  endfacet
  facet normal 0.828454 -0.524619 -0.19606
    outer loop
      vertex 6.86183 -4.11282 0
      vertex 8.57729 -5.14103 10
      vertex 8.3147 -5.5557 10
    endloop
  endfacet
  facet normal 0.853203 -0.483328 -0.19606
    outer loop
      vertex 7.05537 -3.77117 0
      vertex 8.57729 -5.14103 10
      vertex 6.86183 -4.11282 0
    endloop
  endfacet
  facet normal 0.853206 -0.483322 -0.196059
    outer loop
      vertex 7.05537 -3.77117 0
      vertex 8.81921 -4.71397 10
      vertex 8.57729 -5.14103 10
    endloop
  endfacet
  facet normal 0.875891 -0.44088 -0.196059
    outer loop
      vertex 7.23191 -3.42044 0
      vertex 8.81921 -4.71397 10
      vertex 7.05537 -3.77117 0
    endloop
  endfacet
  facet normal 0.87589 -0.440882 -0.196059
    outer loop
      vertex 7.23191 -3.42044 0
      vertex 9.03989 -4.27555 10
      vertex 8.81921 -4.71397 10
    endloop
  endfacet
  facet normal 0.896458 -0.397396 -0.19606
    outer loop
      vertex 7.39104 -3.06147 0
      vertex 9.03989 -4.27555 10
      vertex 7.23191 -3.42044 0
    endloop
  endfacet
  facet normal 0.896462 -0.397387 -0.196059
    outer loop
      vertex 7.39104 -3.06147 0
      vertex 9.2388 -3.82683 10
      vertex 9.03989 -4.27555 10
    endloop
  endfacet
  facet normal 0.914891 -0.352895 -0.196059
    outer loop
      vertex 7.53235 -2.69512 0
      vertex 9.2388 -3.82683 10
      vertex 7.39104 -3.06147 0
    endloop
  endfacet
  facet normal 0.914887 -0.352905 -0.19606
    outer loop
      vertex 7.53235 -2.69512 0
      vertex 9.41544 -3.3689 10
      vertex 9.2388 -3.82683 10
    endloop
  endfacet
  facet normal 0.9311 -0.307594 -0.19606
    outer loop
      vertex 7.65552 -2.32228 0
      vertex 9.41544 -3.3689 10
      vertex 7.53235 -2.69512 0
    endloop
  endfacet
  facet normal 0.931101 -0.30759 -0.196059
    outer loop
      vertex 7.65552 -2.32228 0
      vertex 9.5694 -2.90285 10
      vertex 9.41544 -3.3689 10
    endloop
  endfacet
  facet normal 0.94507 -0.26154 -0.196059
    outer loop
      vertex 7.76025 -1.94384 0
      vertex 9.5694 -2.90285 10
      vertex 7.65552 -2.32228 0
    endloop
  endfacet
  facet normal 0.945071 -0.261535 -0.196059
    outer loop
      vertex 7.76025 -1.94384 0
      vertex 9.70031 -2.4298 10
      vertex 9.5694 -2.90285 10
    endloop
  endfacet
  facet normal 0.956767 -0.214843 -0.196059
    outer loop
      vertex 7.84628 -1.56072 0
      vertex 9.70031 -2.4298 10
      vertex 7.76025 -1.94384 0
    endloop
  endfacet
  facet normal 0.956766 -0.214848 -0.196059
    outer loop
      vertex 7.84628 -1.56072 0
      vertex 9.80785 -1.9509 10
      vertex 9.70031 -2.4298 10
    endloop
  endfacet
  facet normal 0.966155 -0.167644 -0.196059
    outer loop
      vertex 7.91341 -1.17384 0
      vertex 9.80785 -1.9509 10
      vertex 7.84628 -1.56072 0
    endloop
  endfacet
  facet normal 0.966156 -0.167639 -0.196059
    outer loop
      vertex 7.91341 -1.17384 0
      vertex 9.89176 -1.4673 10
      vertex 9.80785 -1.9509 10
    endloop
  endfacet
  facet normal 0.973216 -0.120047 -0.196059
    outer loop
      vertex 7.96148 -0.784137 0
      vertex 9.89176 -1.4673 10
      vertex 7.91341 -1.17384 0
    endloop
  endfacet
  facet normal 0.973215 -0.120051 -0.196059
    outer loop
      vertex 7.96148 -0.784137 0
      vertex 9.95185 -0.980171 10
      vertex 9.89176 -1.4673 10
    endloop
  endfacet
  facet normal 0.977936 -0.0721223 -0.196059
    outer loop
      vertex 7.99036 -0.392541 0
      vertex 9.95185 -0.980171 10
      vertex 7.96148 -0.784137 0
    endloop
  endfacet
  facet normal 0.977936 -0.0721224 -0.196059
    outer loop
      vertex 7.99036 -0.392541 0
      vertex 9.98795 -0.490677 10
      vertex 9.95185 -0.980171 10
    endloop
  endfacet
  facet normal 0.980296 -0.0240741 -0.196059
    outer loop
      vertex 8 0 0
      vertex 9.98795 -0.490677 10
      vertex 7.99036 -0.392541 0
    endloop
  endfacet
  facet normal 0.980296 -0.024074 -0.196059
    outer loop
      vertex 8 0 0
      vertex 10 0 10
      vertex 9.98795 -0.490677 10
    endloop
  endfacet
  facet normal 0 0 -1
    outer loop
      vertex 7.99036 -0.392541 0
      vertex 7.99036 0.392541 0
      vertex 8 0 0
    endloop
  endfacet
  facet normal 0 0 -1
    outer loop
      vertex 7.96148 -0.784137 0
      vertex 7.99036 0.392541 0
      vertex 7.99036 -0.392541 0
    endloop
  endfacet
  facet normal 0 0 -1
    outer loop
      vertex 7.96148 -0.784137 0
      vertex 7.96148 0.784137 0
      vertex 7.99036 0.392541 0
    endloop
  endfacet
  facet normal 0 0 -1
    outer loop
      vertex 7.91341 -1.17384 0
      vertex 7.96148 0.784137 0
      vertex 7.96148 -0.784137 0
    endloop
  endfacet
  facet normal 0 0 -1
    outer loop
      vertex 7.91341 -1.17384 0
      vertex 7.91341 1.17384 0
      vertex 7.96148 0.784137 0
    endloop
  endfacet
  facet normal 0 0 -1
    outer loop
      vertex 7.84628 -1.56072 0
      vertex 7.91341 1.17384 0
      vertex 7.91341 -1.17384 0
    endloop
  endfacet
  facet normal 0 0 -1
    outer loop
      vertex 7.84628 -1.56072 0
      vertex 7.84628 1.56072 0
      vertex 7.91341 1.17384 0
    endloop
  endfacet
  facet normal 0 0 -1
    outer loop
      vertex 7.76025 -1.94384 0
      vertex 7.84628 1.56072 0
      vertex 7.84628 -1.56072 0
    endloop
  endfacet
  facet normal 0 0 -1
    outer loop
      vertex 7.76025 -1.94384 0
      vertex 7.76025 1.94384 0
      vertex 7.84628 1.56072 0
    endloop
  endfacet
  facet normal 0 0 -1
    outer loop
      vertex 7.65552 -2.32228 0
      vertex 7.76025 1.94384 0
      vertex 7.76025 -1.94384 0
    endloop
  endfacet
  facet normal 0 0 -1
    outer loop
      vertex 7.65552 -2.32228 0
      vertex 7.65552 2.32228 0
      vertex 7.76025 1.94384 0
    endloop
  endfacet
  facet normal 0 0 -1
    outer loop
      vertex 7.53235 -2.69512 0
      vertex 7.65552 2.32228 0
      vertex 7.65552 -2.32228 0
    endloop
  endfacet
  facet normal 0 0 -1
    outer loop
      vertex 7.53235 -2.69512 0
      vertex 7.53235 2.69512 0
      vertex 7.65552 2.32228 0
    endloop
  endfacet
  facet normal 0 0 -1
    outer loop
      vertex 7.39104 -3.06147 0
      vertex 7.53235 2.69512 0
      vertex 7.53235 -2.69512 0
    endloop
  endfacet
  facet normal 0 0 -1
    outer loop
      vertex 7.39104 -3.06147 0
      vertex 7.39104 3.06147 0
      vertex 7.53235 2.69512 0
    endloop
  endfacet
  facet normal 0 0 -1
    outer loop
      vertex 7.23191 -3.42044 0
      vertex 7.39104 3.06147 0
      vertex 7.39104 -3.06147 0
    endloop
  endfacet
  facet normal 0 0 -1
    outer loop
      vertex 7.23191 -3.42044 0
      vertex 7.23191 3.42044 0
      vertex 7.39104 3.06147 0
    endloop
  endfacet
  facet normal 0 0 -1
    outer loop
      vertex 7.05537 -3.77117 0
      vertex 7.23191 3.42044 0
      vertex 7.23191 -3.42044 0
    endloop
  endfacet
  facet normal 0 0 -1
    outer loop
      vertex 7.05537 -3.77117 0
      vertex 7.05537 3.77117 0
      vertex 7.23191 3.42044 0
    endloop
  endfacet
  facet normal 0 0 -1
    outer loop
      vertex 6.86183 -4.11282 0
      vertex 7.05537 3.77117 0
      vertex 7.05537 -3.77117 0
    endloop
  endfacet
  facet normal 0 0 -1
    outer loop
      vertex 6.86183 -4.11282 0
      vertex 6.86183 4.11282 0
      vertex 7.05537 3.77117 0
    endloop
  endfacet
  facet normal 0 0 -1
    outer loop
      vertex 6.65176 -4.44456 0
      vertex 6.86183 4.11282 0
      vertex 6.86183 -4.11282 0
    endloop
  endfacet
  facet normal 0 0 -1
    outer loop
      vertex 6.65176 -4.44456 0
      vertex 6.65176 4.44456 0
      vertex 6.86183 4.11282 0
    endloop
  endfacet
  facet normal 0 0 -1
    outer loop
      vertex 6.42566 -4.76559 0
      vertex 6.65176 4.44456 0
      vertex 6.65176 -4.44456 0
    endloop
  endfacet
  facet normal 0 0 -1
    outer loop
      vertex 6.42566 -4.76559 0
      vertex 6.42566 4.76559 0
      vertex 6.65176 4.44456 0
    endloop
  endfacet
  facet normal 0 0 -1
    outer loop
      vertex 6.18408 -5.07515 0
      vertex 6.42566 4.76559 0
      vertex 6.42566 -4.76559 0
    endloop
  endfacet
  facet normal 0 0 -1
    outer loop
      vertex 6.18408 -5.07515 0
      vertex 6.18408 5.07515 0
      vertex 6.42566 4.76559 0
    endloop
  endfacet
  facet normal 0 0 -1
    outer loop
      vertex 5.92761 -5.37247 0
      vertex 6.18408 5.07515 0
      vertex 6.18408 -5.07515 0
    endloop
  endfacet
  facet normal 0 0 -1
    outer loop
      vertex 5.92761 -5.37247 0
      vertex 5.92761 5.37247 0
      vertex 6.18408 5.07515 0
    endloop
  endfacet
  facet normal 0 0 -1
    outer loop
      vertex 5.65685 -5.65685 0
      vertex 5.92761 5.37247 0
      vertex 5.92761 -5.37247 0
    endloop
  endfacet
  facet normal 0 0 -1
    outer loop
      vertex 5.65685 -5.65685 0
      vertex 5.65685 5.65685 0
      vertex 5.92761 5.37247 0
    endloop
  endfacet
  facet normal 0 0 -1
    outer loop
      vertex 5.37247 -5.92761 0
      vertex 5.65685 5.65685 0
      vertex 5.65685 -5.65685 0
    endloop
  endfacet
  facet normal 0 0 -1
    outer loop
      vertex 5.37247 -5.92761 0
      vertex 5.37247 5.92761 0
      vertex 5.65685 5.65685 0
    endloop
  endfacet
  facet normal 0 0 -1
    outer loop
      vertex 5.07515 -6.18408 0
      vertex 5.37247 5.92761 0
      vertex 5.37247 -5.92761 0
    endloop
  endfacet
  facet normal 0 0 -1
    outer loop
      vertex 5.07515 -6.18408 0
      vertex 5.07515 6.18408 0
      vertex 5.37247 5.92761 0
    endloop
  endfacet
  facet normal 0 0 -1
    outer loop
      vertex 4.76559 -6.42566 0
      vertex 5.07515 6.18408 0
      vertex 5.07515 -6.18408 0
    endloop
  endfacet
  facet normal 0 0 -1
    outer loop
      vertex 4.76559 -6.42566 0
      vertex 4.76559 6.42566 0
      vertex 5.07515 6.18408 0
    endloop
  endfacet
  facet normal 0 0 -1
    outer loop
      vertex 4.44456 -6.65176 0
      vertex 4.76559 6.42566 0
      vertex 4.76559 -6.42566 0
    endloop
  endfacet
  facet normal 0 0 -1
    outer loop
      vertex 4.44456 -6.65176 0
      vertex 4.44456 6.65176 0
      vertex 4.76559 6.42566 0
    endloop
  endfacet
  facet normal 0 0 -1
    outer loop
      vertex 4.11282 -6.86183 0
      vertex 4.44456 6.65176 0
      vertex 4.44456 -6.65176 0
    endloop
  endfacet
  facet normal 0 0 -1
    outer loop
      vertex 4.11282 -6.86183 0
      vertex 4.11282 6.86183 0
      vertex 4.44456 6.65176 0
    endloop
  endfacet
  facet normal 0 0 -1
    outer loop
      vertex 3.77117 -7.05537 0
      vertex 4.11282 6.86183 0
      vertex 4.11282 -6.86183 0
    endloop
  endfacet
  facet normal 0 0 -1
    outer loop
      vertex 3.77117 -7.05537 0
      vertex 3.77117 7.05537 0
      vertex 4.11282 6.86183 0
    endloop
  endfacet
  facet normal 0 0 -1
    outer loop
      vertex 3.42044 -7.23191 0
      vertex 3.77117 7.05537 0
      vertex 3.77117 -7.05537 0
    endloop
  endfacet
  facet normal 0 0 -1
    outer loop
      vertex 3.42044 -7.23191 0
      vertex 3.42044 7.23191 0
      vertex 3.77117 7.05537 0
    endloop
  endfacet
  facet normal 0 0 -1
    outer loop
      vertex 3.06147 -7.39104 0
      vertex 3.42044 7.23191 0
      vertex 3.42044 -7.23191 0
    endloop
  endfacet
  facet normal 0 0 -1
    outer loop
      vertex 3.06147 -7.39104 0
      vertex 3.06147 7.39104 0
      vertex 3.42044 7.23191 0
    endloop
  endfacet
  facet normal 0 0 -1
    outer loop
      vertex 2.69512 -7.53235 0
      vertex 3.06147 7.39104 0
      vertex 3.06147 -7.39104 0
    endloop
  endfacet
  facet normal 0 0 -1
    outer loop
      vertex 2.69512 -7.53235 0
      vertex 2.69512 7.53235 0
      vertex 3.06147 7.39104 0
    endloop
  endfacet
  facet normal 0 0 -1
    outer loop
      vertex 2.32228 -7.65552 0
      vertex 2.69512 7.53235 0
      vertex 2.69512 -7.53235 0
    endloop
  endfacet
  facet normal 0 0 -1
    outer loop
      vertex 2.32228 -7.65552 0
      vertex 2.32228 7.65552 0
      vertex 2.69512 7.53235 0
    endloop
  endfacet
  facet normal 0 0 -1
    outer loop
      vertex 1.94384 -7.76025 0
      vertex 2.32228 7.65552 0
      vertex 2.32228 -7.65552 0
    endloop
  endfacet
  facet normal 0 0 -1
    outer loop
      vertex 1.94384 -7.76025 0
      vertex 1.94384 7.76025 0
      vertex 2.32228 7.65552 0
    endloop
  endfacet
  facet normal 0 0 -1
    outer loop
      vertex 1.56072 -7.84628 0
      vertex 1.94384 7.76025 0
      vertex 1.94384 -7.76025 0
    endloop
  endfacet
  facet normal 0 0 -1
    outer loop
      vertex 1.56072 -7.84628 0
      vertex 1.56072 7.84628 0
      vertex 1.94384 7.76025 0
    endloop
  endfacet
  facet normal 0 0 -1
    outer loop
      vertex 1.17384 -7.91341 0
      vertex 1.56072 7.84628 0
      vertex 1.56072 -7.84628 0
    endloop
  endfacet
  facet normal 0 0 -1
    outer loop
      vertex 1.17384 -7.91341 0
      vertex 1.17384 7.91341 0
      vertex 1.56072 7.84628 0
    endloop
  endfacet
  facet normal 0 0 -1
    outer loop
      vertex 0.784137 -7.96148 0
      vertex 1.17384 7.91341 0
      vertex 1.17384 -7.91341 0
    endloop
  endfacet
  facet normal 0 0 -1
    outer loop
      vertex 0.784137 -7.96148 0
      vertex 0.784137 7.96148 0
      vertex 1.17384 7.91341 0
    endloop
  endfacet
  facet normal 0 0 -1
    outer loop
      vertex 0.392541 -7.99036 0
      vertex 0.784137 7.96148 0
      vertex 0.784137 -7.96148 0
    endloop
  endfacet
  facet normal 0 0 -1
    outer loop
      vertex 0.392541 -7.99036 0
      vertex 0.392541 7.99036 0
      vertex 0.784137 7.96148 0
    endloop
  endfacet
  facet normal 0 0 -1
    outer loop
      vertex -0 -8 0
      vertex 0.392541 7.99036 0
      vertex 0.392541 -7.99036 0
    endloop
  endfacet
  facet normal 0 0 -1
    outer loop
      vertex -0 -8 0
      vertex 0 8 0
      vertex 0.392541 7.99036 0
    endloop
  endfacet
  facet normal 0 0 -1
    outer loop
      vertex -0.392541 -7.99036 0
      vertex 0 8 0
      vertex -0 -8 0
    endloop
  endfacet
  facet normal 0 0 -1
    outer loop
      vertex -0.392541 -7.99036 0
      vertex -0.392541 7.99036 0
      vertex 0 8 0
    endloop
  endfacet
  facet normal 0 0 -1
    outer loop
      vertex -0.784137 -7.96148 0
      vertex -0.392541 7.99036 0
      vertex -0.392541 -7.99036 0
    endloop
  endfacet
  facet normal 0 0 -1
    outer loop
      vertex -0.784137 -7.96148 0
      vertex -0.784137 7.96148 0
      vertex -0.392541 7.99036 0
    endloop
  endfacet
  facet normal 0 0 -1
    outer loop
      vertex -1.17384 -7.91341 0
      vertex -0.784137 7.96148 0
      vertex -0.784137 -7.96148 0
    endloop
  endfacet
  facet normal 0 0 -1
    outer loop
      vertex -1.17384 -7.91341 0
      vertex -1.17384 7.91341 0
      vertex -0.784137 7.96148 0
    endloop
  endfacet
  facet normal 0 0 -1
    outer loop
      vertex -1.56072 -7.84628 0
      vertex -1.17384 7.91341 0
      vertex -1.17384 -7.91341 0
    endloop
  endfacet
  facet normal 0 0 -1
    outer loop
      vertex -1.56072 -7.84628 0
      vertex -1.56072 7.84628 0
      vertex -1.17384 7.91341 0
    endloop
  endfacet
  facet normal 0 0 -1
    outer loop
      vertex -1.94384 -7.76025 0
      vertex -1.56072 7.84628 0
      vertex -1.56072 -7.84628 0
    endloop
  endfacet
  facet normal 0 0 -1
    outer loop
      vertex -1.94384 -7.76025 0
      vertex -1.94384 7.76025 0
      vertex -1.56072 7.84628 0
    endloop
  endfacet
  facet normal 0 0 -1
    outer loop
      vertex -2.32228 -7.65552 0
      vertex -1.94384 7.76025 0
      vertex -1.94384 -7.76025 0
    endloop
  endfacet
  facet normal 0 0 -1
    outer loop
      vertex -2.32228 -7.65552 0
      vertex -2.32228 7.65552 0
      vertex -1.94384 7.76025 0
    endloop
  endfacet
  facet normal 0 0 -1
    outer loop
      vertex -2.69512 -7.53235 0
      vertex -2.32228 7.65552 0
      vertex -2.32228 -7.65552 0
    endloop
  endfacet
  facet normal 0 0 -1
    outer loop
      vertex -2.69512 -7.53235 0
      vertex -2.69512 7.53235 0
      vertex -2.32228 7.65552 0
    endloop
  endfacet
  facet normal 0 0 -1
    outer loop
      vertex -3.06147 -7.39104 0
      vertex -2.69512 7.53235 0
      vertex -2.69512 -7.53235 0
    endloop
  endfacet
  facet normal 0 0 -1
    outer loop
      vertex -3.06147 -7.39104 0
      vertex -3.06147 7.39104 0
      vertex -2.69512 7.53235 0
    endloop
  endfacet
  facet normal 0 0 -1
    outer loop
      vertex -3.42044 -7.23191 0
      vertex -3.06147 7.39104 0
      vertex -3.06147 -7.39104 0
    endloop
  endfacet
  facet normal 0 0 -1
    outer loop
      vertex -3.42044 -7.23191 0
      vertex -3.42044 7.23191 0
      vertex -3.06147 7.39104 0
    endloop
  endfacet
  facet normal 0 0 -1
    outer loop
      vertex -3.77117 -7.05537 0
      vertex -3.42044 7.23191 0
      vertex -3.42044 -7.23191 0
    endloop
  endfacet
  facet normal 0 0 -1
    outer loop
      vertex -3.77117 -7.05537 0
      vertex -3.77117 7.05537 0
      vertex -3.42044 7.23191 0
    endloop
  endfacet
  facet normal 0 0 -1
    outer loop
      vertex -4.11282 -6.86183 0
      vertex -3.77117 7.05537 0
      vertex -3.77117 -7.05537 0
    endloop
  endfacet
  facet normal 0 0 -1
    outer loop
      vertex -4.11282 -6.86183 0
      vertex -4.11282 6.86183 0
      vertex -3.77117 7.05537 0
    endloop
  endfacet
  facet normal 0 0 -1
    outer loop
      vertex -4.44456 -6.65176 0
      vertex -4.11282 6.86183 0
      vertex -4.11282 -6.86183 0
    endloop
  endfacet
  facet normal 0 0 -1
    outer loop
      vertex -4.44456 -6.65176 0
      vertex -4.44456 6.65176 0
      vertex -4.11282 6.86183 0
    endloop
  endfacet
  facet normal 0 0 -1
    outer loop
      vertex -4.76559 -6.42566 0
      vertex -4.44456 6.65176 0
      vertex -4.44456 -6.65176 0
    endloop
  endfacet
  facet normal 0 0 -1
    outer loop
      vertex -4.76559 -6.42566 0
      vertex -4.76559 6.42566 0
      vertex -4.44456 6.65176 0
    endloop
  endfacet
  facet normal 0 0 -1
    outer loop
      vertex -5.07515 -6.18408 0
      vertex -4.76559 6.42566 0
      vertex -4.76559 -6.42566 0
    endloop
  endfacet
  facet normal 0 0 -1
    outer loop
      vertex -5.07515 -6.18408 0
      vertex -5.07515 6.18408 0
      vertex -4.76559 6.42566 0
    endloop
  endfacet
  facet normal 0 0 -1
    outer loop
      vertex -5.37247 -5.92761 0
      vertex -5.07515 6.18408 0
      vertex -5.07515 -6.18408 0
    endloop
  endfacet
  facet normal 0 0 -1
    outer loop
      vertex -5.37247 -5.92761 0
      vertex -5.37247 5.92761 0
      vertex -5.07515 6.18408 0
    endloop
  endfacet
  facet normal 0 0 -1
    outer loop
      vertex -5.65685 -5.65685 0
      vertex -5.37247 5.92761 0
      vertex -5.37247 -5.92761 0
    endloop
  endfacet
  facet normal 0 0 -1
    outer loop
      vertex -5.65685 -5.65685 0
      vertex -5.65685 5.65685 0
      vertex -5.37247 5.92761 0
    endloop
  endfacet
  facet normal 0 0 -1
    outer loop
      vertex -5.92761 -5.37247 0
      vertex -5.65685 5.65685 0
      vertex -5.65685 -5.65685 0
    endloop
  endfacet
  facet normal 0 0 -1
    outer loop
      vertex -5.92761 -5.37247 0
      vertex -5.92761 5.37247 0
      vertex -5.65685 5.65685 0
    endloop
  endfacet
  facet normal 0 0 -1
    outer loop
      vertex -6.18408 -5.07515 0
      vertex -5.92761 5.37247 0
      vertex -5.92761 -5.37247 0
    endloop
  endfacet
  facet normal 0 0 -1
    outer loop
      vertex -6.18408 -5.07515 0
      vertex -6.18408 5.07515 0
      vertex -5.92761 5.37247 0
    endloop
  endfacet
  facet normal 0 0 -1
    outer loop
      vertex -6.42566 -4.76559 0
      vertex -6.18408 5.07515 0
      vertex -6.18408 -5.07515 0
    endloop
  endfacet
  facet normal 0 0 -1
    outer loop
      vertex -6.42566 -4.76559 0
      vertex -6.42566 4.76559 0
      vertex -6.18408 5.07515 0
    endloop
  endfacet
  facet normal 0 0 -1
    outer loop
      vertex -6.65176 -4.44456 0
      vertex -6.42566 4.76559 0
      vertex -6.42566 -4.76559 0
    endloop
  endfacet
  facet normal 0 0 -1
    outer loop
      vertex -6.65176 -4.44456 0
      vertex -6.65176 4.44456 0
      vertex -6.42566 4.76559 0
    endloop
  endfacet
  facet normal 0 0 -1
    outer loop
      vertex -6.86183 -4.11282 0
      vertex -6.65176 4.44456 0
      vertex -6.65176 -4.44456 0
    endloop
  endfacet
  facet normal 0 0 -1
    outer loop
      vertex -6.86183 -4.11282 0
      vertex -6.86183 4.11282 0
      vertex -6.65176 4.44456 0
    endloop
  endfacet
  facet normal 0 0 -1
    outer loop
      vertex -7.05537 -3.77117 0
      vertex -6.86183 4.11282 0
      vertex -6.86183 -4.11282 0
    endloop
  endfacet
  facet normal 0 0 -1
    outer loop
      vertex -7.05537 -3.77117 0
      vertex -7.05537 3.77117 0
      vertex -6.86183 4.11282 0
    endloop
  endfacet
  facet normal 0 0 -1
    outer loop
      vertex -7.23191 -3.42044 0
      vertex -7.05537 3.77117 0
      vertex -7.05537 -3.77117 0
    endloop
  endfacet
  facet normal 0 0 -1
    outer loop
      vertex -7.23191 -3.42044 0
      vertex -7.23191 3.42044 0
      vertex -7.05537 3.77117 0
    endloop
  endfacet
  facet normal 0 0 -1
    outer loop
      vertex -7.39104 -3.06147 0
      vertex -7.23191 3.42044 0
      vertex -7.23191 -3.42044 0
    endloop
  endfacet
  facet normal 0 0 -1
    outer loop
      vertex -7.39104 -3.06147 0
      vertex -7.39104 3.06147 0
      vertex -7.23191 3.42044 0
    endloop
  endfacet
  facet normal 0 0 -1
    outer loop
      vertex -7.53235 -2.69512 0
      vertex -7.39104 3.06147 0
      vertex -7.39104 -3.06147 0
    endloop
  endfacet
  facet normal 0 0 -1
    outer loop
      vertex -7.53235 -2.69512 0
      vertex -7.53235 2.69512 0
      vertex -7.39104 3.06147 0
    endloop
  endfacet
  facet normal 0 0 -1
    outer loop
      vertex -7.65552 -2.32228 0
      vertex -7.53235 2.69512 0
      vertex -7.53235 -2.69512 0
    endloop
  endfacet
  facet normal 0 0 -1
    outer loop
      vertex -7.65552 -2.32228 0
      vertex -7.65552 2.32228 0
      vertex -7.53235 2.69512 0
    endloop
  endfacet
  facet normal 0 0 -1
    outer loop
      vertex -7.76025 -1.94384 0
      vertex -7.65552 2.32228 0
      vertex -7.65552 -2.32228 0
    endloop
  endfacet
  facet normal 0 0 -1
    outer loop
      vertex -7.76025 -1.94384 0
      vertex -7.76025 1.94384 0
      vertex -7.65552 2.32228 0
    endloop
  endfacet
  facet normal 0 0 -1
    outer loop
      vertex -7.84628 -1.56072 0
      vertex -7.76025 1.94384 0
      vertex -7.76025 -1.94384 0
    endloop
  endfacet
  facet normal 0 0 -1
    outer loop
      vertex -7.84628 -1.56072 0
      vertex -7.84628 1.56072 0
      vertex -7.76025 1.94384 0
    endloop
  endfacet
  facet normal 0 0 -1
    outer loop
      vertex -7.91341 -1.17384 0
      vertex -7.84628 1.56072 0
      vertex -7.84628 -1.56072 0
    endloop
  endfacet
  facet normal 0 0 -1
    outer loop
      vertex -7.91341 -1.17384 0
      vertex -7.91341 1.17384 0
      vertex -7.84628 1.56072 0
    endloop
  endfacet
  facet normal 0 0 -1
    outer loop
      vertex -7.96148 -0.784137 0
      vertex -7.91341 1.17384 0
      vertex -7.91341 -1.17384 0
    endloop
  endfacet
  facet normal 0 0 -1
    outer loop
      vertex -7.96148 -0.784137 0
      vertex -7.96148 0.784137 0
      vertex -7.91341 1.17384 0
    endloop
  endfacet
  facet normal 0 0 -1
    outer loop
      vertex -7.99036 -0.392541 0
      vertex -7.96148 0.784137 0
      vertex -7.96148 -0.784137 0
    endloop
  endfacet
  facet normal 0 0 -1
    outer loop
      vertex -7.99036 -0.392541 0
      vertex -7.99036 0.392541 0
      vertex -7.96148 0.784137 0
    endloop
  endfacet
  facet normal 0 -0 -1
    outer loop
      vertex -7.99036 0.392541 0
      vertex -7.99036 -0.392541 0
      vertex -8 -0 0
    endloop
  endfacet
  facet normal 0 0 1
    outer loop
      vertex 9.98795 0.490677 10
      vertex 9.98795 -0.490677 10
      vertex 10 0 10
    endloop
  endfacet
  facet normal 0 0 1
    outer loop
      vertex 9.95185 0.980171 10
      vertex 9.98795 -0.490677 10
      vertex 9.98795 0.490677 10
    endloop
  endfacet
  facet normal 0 0 1
    outer loop
      vertex 9.95185 0.980171 10
      vertex 9.95185 -0.980171 10
      vertex 9.98795 -0.490677 10
    endloop
  endfacet
  facet normal 0 0 1
    outer loop
      vertex 9.89176 1.4673 10
      vertex 9.95185 -0.980171 10
      vertex 9.95185 0.980171 10
    endloop
  endfacet
  facet normal 0 0 1
    outer loop
      vertex 9.89176 1.4673 10
      vertex 9.89176 -1.4673 10
      vertex 9.95185 -0.980171 10
    endloop
  endfacet
  facet normal 0 0 1
    outer loop
      vertex 9.80785 1.9509 10
      vertex 9.89176 -1.4673 10
      vertex 9.89176 1.4673 10
    endloop
  endfacet
  facet normal 0 0 1
    outer loop
      vertex 9.80785 1.9509 10
      vertex 9.80785 -1.9509 10
      vertex 9.89176 -1.4673 10
    endloop
  endfacet
  facet normal 0 0 1
    outer loop
      vertex 9.70031 2.4298 10
      vertex 9.80785 -1.9509 10
      vertex 9.80785 1.9509 10
    endloop
  endfacet
  facet normal 0 0 1
    outer loop
      vertex 9.70031 2.4298 10
      vertex 9.70031 -2.4298 10
      vertex 9.80785 -1.9509 10
    endloop
  endfacet
  facet normal 0 0 1
    outer loop
      vertex 9.5694 2.90285 10
      vertex 9.70031 -2.4298 10
      vertex 9.70031 2.4298 10
    endloop
  endfacet
  facet normal 0 0 1
    outer loop
      vertex 9.5694 2.90285 10
      vertex 9.5694 -2.90285 10
      vertex 9.70031 -2.4298 10
    endloop
  endfacet
  facet normal 0 0 1
    outer loop
      vertex 9.41544 3.3689 10
      vertex 9.5694 -2.90285 10
      vertex 9.5694 2.90285 10
    endloop
  endfacet
  facet normal 0 0 1
    outer loop
      vertex 9.41544 3.3689 10
      vertex 9.41544 -3.3689 10
      vertex 9.5694 -2.90285 10
    endloop
  endfacet
  facet normal 0 0 1
    outer loop
      vertex 9.2388 3.82683 10
      vertex 9.41544 -3.3689 10
      vertex 9.41544 3.3689 10
    endloop
  endfacet
  facet normal 0 0 1
    outer loop
      vertex 9.2388 3.82683 10
      vertex 9.2388 -3.82683 10
      vertex 9.41544 -3.3689 10
    endloop
  endfacet
  facet normal 0 0 1
    outer loop
      vertex 9.03989 4.27555 10
      vertex 9.2388 -3.82683 10
      vertex 9.2388 3.82683 10
    endloop
  endfacet
  facet normal 0 0 1
    outer loop
      vertex 9.03989 4.27555 10
      vertex 9.03989 -4.27555 10
      vertex 9.2388 -3.82683 10
    endloop
  endfacet
  facet normal 0 0 1
    outer loop
      vertex 8.81921 4.71397 10
      vertex 9.03989 -4.27555 10
      vertex 9.03989 4.27555 10
    endloop
  endfacet
  facet normal 0 0 1
    outer loop
      vertex 8.81921 4.71397 10
      vertex 8.81921 -4.71397 10
      vertex 9.03989 -4.27555 10
    endloop
  endfacet
  facet normal 0 0 1
    outer loop
      vertex 8.57729 5.14103 10
      vertex 8.81921 -4.71397 10
      vertex 8.81921 4.71397 10
    endloop
  endfacet
  facet normal 0 0 1
    outer loop
      vertex 8.57729 5.14103 10
      vertex 8.57729 -5.14103 10
      vertex 8.81921 -4.71397 10
    endloop
  endfacet
  facet normal 0 0 1
    outer loop
      vertex 8.3147 5.5557 10
      vertex 8.57729 -5.14103 10
      vertex 8.57729 5.14103 10
    endloop
  endfacet
  facet normal 0 0 1
    outer loop
      vertex 8.3147 5.5557 10
      vertex 8.3147 -5.5557 10
      vertex 8.57729 -5.14103 10
    endloop
  endfacet
  facet normal 0 0 1
    outer loop
      vertex 8.03207 5.95699 10
      vertex 8.3147 -5.5557 10
      vertex 8.3147 5.5557 10
    endloop
  endfacet
  facet normal 0 0 1
    outer loop
      vertex 8.03207 5.95699 10
      vertex 8.03207 -5.95699 10
      vertex 8.3147 -5.5557 10
    endloop
  endfacet
  facet normal 0 0 1
    outer loop
      vertex 7.7301 6.34393 10
      vertex 8.03207 -5.95699 10
      vertex 8.03207 5.95699 10
    endloop
  endfacet
  facet normal 0 0 1
    outer loop
      vertex 7.7301 6.34393 10
      vertex 7.7301 -6.34393 10
      vertex 8.03207 -5.95699 10
    endloop
  endfacet
  facet normal 0 0 1
    outer loop
      vertex 7.40951 6.71559 10
      vertex 7.7301 -6.34393 10
      vertex 7.7301 6.34393 10
    endloop
  endfacet
  facet normal 0 0 1
    outer loop
      vertex 7.40951 6.71559 10
      vertex 7.40951 -6.71559 10
      vertex 7.7301 -6.34393 10
    endloop
  endfacet
  facet normal 0 0 1
    outer loop
      vertex 7.07107 7.07107 10
      vertex 7.40951 -6.71559 10
      vertex 7.40951 6.71559 10
    endloop
  endfacet
  facet normal 0 0 1
    outer loop
      vertex 7.07107 7.07107 10
      vertex 7.07107 -7.07107 10
      vertex 7.40951 -6.71559 10
    endloop
  endfacet
  facet normal 0 0 1
    outer loop
      vertex 6.71559 7.40951 10
      vertex 7.07107 -7.07107 10
      vertex 7.07107 7.07107 10
    endloop
  endfacet
  facet normal 0 0 1
    outer loop
      vertex 6.71559 7.40951 10
      vertex 6.71559 -7.40951 10
      vertex 7.07107 -7.07107 10
    endloop
  endfacet
  facet normal 0 0 1
    outer loop
      vertex 6.34393 7.7301 10
      vertex 6.71559 -7.40951 10
      vertex 6.71559 7.40951 10
    endloop
  endfacet
  facet normal 0 0 1
    outer loop
      vertex 6.34393 7.7301 10
      vertex 6.34393 -7.7301 10
      vertex 6.71559 -7.40951 10
    endloop
  endfacet
  facet normal 0 0 1
    outer loop
      vertex 5.95699 8.03207 10
      vertex 6.34393 -7.7301 10
      vertex 6.34393 7.7301 10
    endloop
  endfacet
  facet normal 0 0 1
    outer loop
      vertex 5.95699 8.03207 10
      vertex 5.95699 -8.03207 10
      vertex 6.34393 -7.7301 10
    endloop
  endfacet
  facet normal 0 0 1
    outer loop
      vertex 5.5557 8.3147 10
      vertex 5.95699 -8.03207 10
      vertex 5.95699 8.03207 10
    endloop
  endfacet
  facet normal 0 0 1
    outer loop
      vertex 5.5557 8.3147 10
      vertex 5.5557 -8.3147 10
      vertex 5.95699 -8.03207 10
    endloop
  endfacet
  facet normal 0 0 1
    outer loop
      vertex 5.14103 8.57729 10
      vertex 5.5557 -8.3147 10
      vertex 5.5557 8.3147 10
    endloop
  endfacet
  facet normal 0 0 1
    outer loop
      vertex 5.14103 8.57729 10
      vertex 5.14103 -8.57729 10
      vertex 5.5557 -8.3147 10
    endloop
  endfacet
  facet normal 0 0 1
    outer loop
      vertex 4.71397 8.81921 10
      vertex 5.14103 -8.57729 10
      vertex 5.14103 8.57729 10
    endloop
  endfacet
  facet normal 0 0 1
    outer loop
      vertex 4.71397 8.81921 10
      vertex 4.71397 -8.81921 10
      vertex 5.14103 -8.57729 10
    endloop
  endfacet
  facet normal 0 0 1
    outer loop
      vertex 4.27555 9.03989 10
      vertex 4.71397 -8.81921 10
      vertex 4.71397 8.81921 10
    endloop
  endfacet
  facet normal 0 0 1
    outer loop
      vertex 4.27555 9.03989 10
      vertex 4.27555 -9.03989 10
      vertex 4.71397 -8.81921 10
    endloop
  endfacet
  facet normal 0 0 1
    outer loop
      vertex 3.82683 9.2388 10
      vertex 4.27555 -9.03989 10
      vertex 4.27555 9.03989 10
    endloop
  endfacet
  facet normal 0 0 1
    outer loop
      vertex 3.82683 9.2388 10
      vertex 3.82683 -9.2388 10
      vertex 4.27555 -9.03989 10
    endloop
  endfacet
  facet normal 0 0 1
    outer loop
      vertex 3.3689 9.41544 10
      vertex 3.82683 -9.2388 10
      vertex 3.82683 9.2388 10
    endloop
  endfacet
  facet normal 0 0 1
    outer loop
      vertex 3.3689 9.41544 10
      vertex 3.3689 -9.41544 10
      vertex 3.82683 -9.2388 10
    endloop
  endfacet
  facet normal 0 0 1
    outer loop
      vertex 2.90285 9.5694 10
      vertex 3.3689 -9.41544 10
      vertex 3.3689 9.41544 10
    endloop
  endfacet
  facet normal 0 0 1
    outer loop
      vertex 2.90285 9.5694 10
      vertex 2.90285 -9.5694 10
      vertex 3.3689 -9.41544 10
    endloop
  endfacet
  facet normal 0 0 1
    outer loop
      vertex 2.4298 9.70031 10
      vertex 2.90285 -9.5694 10
      vertex 2.90285 9.5694 10
    endloop
  endfacet
  facet normal 0 0 1
    outer loop
      vertex 2.4298 9.70031 10
      vertex 2.4298 -9.70031 10
      vertex 2.90285 -9.5694 10
    endloop
  endfacet
  facet normal 0 0 1
    outer loop
      vertex 1.9509 9.80785 10
      vertex 2.4298 -9.70031 10
      vertex 2.4298 9.70031 10
    endloop
  endfacet
  facet normal 0 0 1
    outer loop
      vertex 1.9509 9.80785 10
      vertex 1.9509 -9.80785 10
      vertex 2.4298 -9.70031 10
    endloop
  endfacet
  facet normal 0 0 1
    outer loop
      vertex 1.4673 9.89176 10
      vertex 1.9509 -9.80785 10
      vertex 1.9509 9.80785 10
    endloop
  endfacet
  facet normal 0 0 1
    outer loop
      vertex 1.4673 9.89176 10
      vertex 1.4673 -9.89176 10
      vertex 1.9509 -9.80785 10
    endloop
  endfacet
  facet normal 0 0 1
    outer loop
      vertex 0.980171 9.95185 10
      vertex 1.4673 -9.89176 10
      vertex 1.4673 9.89176 10
    endloop
  endfacet
  facet normal 0 0 1
    outer loop
      vertex 0.980171 9.95185 10
      vertex 0.980171 -9.95185 10
      vertex 1.4673 -9.89176 10
    endloop
  endfacet
  facet normal 0 0 1
    outer loop
      vertex 0.490677 9.98795 10
      vertex 0.980171 -9.95185 10
      vertex 0.980171 9.95185 10
    endloop
  endfacet
  facet normal 0 0 1
    outer loop
      vertex 0.490677 9.98795 10
      vertex 0.490677 -9.98795 10
      vertex 0.980171 -9.95185 10
    endloop
  endfacet
  facet normal 0 0 1
    outer loop
      vertex 0 10 10
      vertex 0.490677 -9.98795 10
      vertex 0.490677 9.98795 10
    endloop
  endfacet
  facet normal 0 0 1
    outer loop
      vertex 0 10 10
      vertex -0 -10 10
      vertex 0.490677 -9.98795 10
    endloop
  endfacet
  facet normal -0 0 1
    outer loop
      vertex -0.490677 9.98795 10
      vertex -0 -10 10
      vertex 0 10 10
    endloop
  endfacet
  facet normal 0 0 1
    outer loop
      vertex -0.490677 9.98795 10
      vertex -0.490677 -9.98795 10
      vertex -0 -10 10
    endloop
  endfacet
  facet normal -0 0 1
    outer loop
      vertex -0.980171 9.95185 10
      vertex -0.490677 -9.98795 10
      vertex -0.490677 9.98795 10
    endloop
  endfacet
  facet normal 0 0 1
    outer loop
      vertex -0.980171 9.95185 10
      vertex -0.980171 -9.95185 10
      vertex -0.490677 -9.98795 10
    endloop
  endfacet
  facet normal -0 0 1
    outer loop
      vertex -1.4673 9.89176 10
      vertex -0.980171 -9.95185 10
      vertex -0.980171 9.95185 10
    endloop
  endfacet
  facet normal 0 0 1
    outer loop
      vertex -1.4673 9.89176 10
      vertex -1.4673 -9.89176 10
      vertex -0.980171 -9.95185 10
    endloop
  endfacet
  facet normal -0 0 1
    outer loop
      vertex -1.9509 9.80785 10
      vertex -1.4673 -9.89176 10
      vertex -1.4673 9.89176 10
    endloop
  endfacet
  facet normal 0 0 1
    outer loop
      vertex -1.9509 9.80785 10
      vertex -1.9509 -9.80785 10
      vertex -1.4673 -9.89176 10
    endloop
  endfacet
  facet normal -0 0 1
    outer loop
      vertex -2.4298 9.70031 10
      vertex -1.9509 -9.80785 10
      vertex -1.9509 9.80785 10
    endloop
  endfacet
  facet normal 0 0 1
    outer loop
      vertex -2.4298 9.70031 10
      vertex -2.4298 -9.70031 10
      vertex -1.9509 -9.80785 10
    endloop
  endfacet
  facet normal -0 0 1
    outer loop
      vertex -2.90285 9.5694 10
      vertex -2.4298 -9.70031 10
      vertex -2.4298 9.70031 10
    endloop
  endfacet
  facet normal 0 0 1
    outer loop
      vertex -2.90285 9.5694 10
      vertex -2.90285 -9.5694 10
      vertex -2.4298 -9.70031 10
    endloop
  endfacet
  facet normal -0 0 1
    outer loop
      vertex -3.3689 9.41544 10
      vertex -2.90285 -9.5694 10
      vertex -2.90285 9.5694 10
    endloop
  endfacet
  facet normal 0 0 1
    outer loop
      vertex -3.3689 9.41544 10
      vertex -3.3689 -9.41544 10
      vertex -2.90285 -9.5694 10
    endloop
  endfacet
  facet normal -0 0 1
    outer loop
      vertex -3.82683 9.2388 10
      vertex -3.3689 -9.41544 10
      vertex -3.3689 9.41544 10
    endloop
  endfacet
  facet normal 0 0 1
    outer loop
      vertex -3.82683 9.2388 10
      vertex -3.82683 -9.2388 10
      vertex -3.3689 -9.41544 10
    endloop
  endfacet
  facet normal -0 0 1
    outer loop
      vertex -4.27555 9.03989 10
      vertex -3.82683 -9.2388 10
      vertex -3.82683 9.2388 10
    endloop
  endfacet
  facet normal 0 0 1
    outer loop
      vertex -4.27555 9.03989 10
      vertex -4.27555 -9.03989 10
      vertex -3.82683 -9.2388 10
    endloop
  endfacet
  facet normal -0 0 1
    outer loop
      vertex -4.71397 8.81921 10
      vertex -4.27555 -9.03989 10
      vertex -4.27555 9.03989 10
    endloop
  endfacet
  facet normal 0 0 1
    outer loop
      vertex -4.71397 8.81921 10
      vertex -4.71397 -8.81921 10
      vertex -4.27555 -9.03989 10
    endloop
  endfacet
  facet normal -0 0 1
    outer loop
      vertex -5.14103 8.57729 10
      vertex -4.71397 -8.81921 10
      vertex -4.71397 8.81921 10
    endloop
  endfacet
  facet normal 0 0 1
    outer loop
      vertex -5.14103 8.57729 10
      vertex -5.14103 -8.57729 10
      vertex -4.71397 -8.81921 10
    endloop
  endfacet
  facet normal -0 0 1
    outer loop
      vertex -5.5557 8.3147 10
      vertex -5.14103 -8.57729 10
      vertex -5.14103 8.57729 10
    endloop
  endfacet
  facet normal 0 0 1
    outer loop
      vertex -5.5557 8.3147 10
      vertex -5.5557 -8.3147 10
      vertex -5.14103 -8.57729 10
    endloop
  endfacet
  facet normal -0 0 1
    outer loop
      vertex -5.95699 8.03207 10
      vertex -5.5557 -8.3147 10
      vertex -5.5557 8.3147 10
    endloop
  endfacet
  facet normal 0 0 1
    outer loop
      vertex -5.95699 8.03207 10
      vertex -5.95699 -8.03207 10
      vertex -5.5557 -8.3147 10
    endloop
  endfacet
  facet normal -0 0 1
    outer loop
      vertex -6.34393 7.7301 10
      vertex -5.95699 -8.03207 10
      vertex -5.95699 8.03207 10
    endloop
  endfacet
  facet normal 0 0 1
    outer loop
      vertex -6.34393 7.7301 10
      vertex -6.34393 -7.7301 10
      vertex -5.95699 -8.03207 10
    endloop
  endfacet
  facet normal -0 0 1
    outer loop
      vertex -6.71559 7.40951 10
      vertex -6.34393 -7.7301 10
      vertex -6.34393 7.7301 10
    endloop
  endfacet
  facet normal 0 0 1
    outer loop
      vertex -6.71559 7.40951 10
      vertex -6.71559 -7.40951 10
      vertex -6.34393 -7.7301 10
    endloop
  endfacet
  facet normal -0 0 1
    outer loop
      vertex -7.07107 7.07107 10
      vertex -6.71559 -7.40951 10
      vertex -6.71559 7.40951 10
    endloop
  endfacet
  facet normal 0 0 1
    outer loop
      vertex -7.07107 7.07107 10
      vertex -7.07107 -7.07107 10
      vertex -6.71559 -7.40951 10
    endloop
  endfacet
  facet normal -0 0 1
    outer loop
      vertex -7.40951 6.71559 10
      vertex -7.07107 -7.07107 10
      vertex -7.07107 7.07107 10
    endloop
  endfacet
  facet normal 0 0 1
    outer loop
      vertex -7.40951 6.71559 10
      vertex -7.40951 -6.71559 10
      vertex -7.07107 -7.07107 10
    endloop
  endfacet
  facet normal -0 0 1
    outer loop
      vertex -7.7301 6.34393 10
      vertex -7.40951 -6.71559 10
      vertex -7.40951 6.71559 10
    endloop
  endfacet
  facet normal 0 0 1
    outer loop
      vertex -7.7301 6.34393 10
      vertex -7.7301 -6.34393 10
      vertex -7.40951 -6.71559 10
    endloop
  endfacet
  facet normal -0 0 1
    outer loop
      vertex -8.03207 5.95699 10
      vertex -7.7301 -6.34393 10
      vertex -7.7301 6.34393 10
    endloop
  endfacet
  facet normal 0 0 1
    outer loop
      vertex -8.03207 5.95699 10
      vertex -8.03207 -5.95699 10
      vertex -7.7301 -6.34393 10
    endloop
  endfacet
  facet normal -0 0 1
    outer loop
      vertex -8.3147 5.5557 10
      vertex -8.03207 -5.95699 10
      vertex -8.03207 5.95699 10
    endloop
  endfacet
  facet normal 0 0 1
    outer loop
      vertex -8.3147 5.5557 10
      vertex -8.3147 -5.5557 10
      vertex -8.03207 -5.95699 10
    endloop
  endfacet
  facet normal -0 0 1
    outer loop
      vertex -8.57729 5.14103 10
      vertex -8.3147 -5.5557 10
      vertex -8.3147 5.5557 10
    endloop
  endfacet
  facet normal 0 0 1
    outer loop
      vertex -8.57729 5.14103 10
      vertex -8.57729 -5.14103 10
      vertex -8.3147 -5.5557 10
    endloop
  endfacet
  facet normal -0 0 1
    outer loop
      vertex -8.81921 4.71397 10
      vertex -8.57729 -5.14103 10
      vertex -8.57729 5.14103 10
    endloop
  endfacet
  facet normal 0 0 1
    outer loop
      vertex -8.81921 4.71397 10
      vertex -8.81921 -4.71397 10
      vertex -8.57729 -5.14103 10
    endloop
  endfacet
  facet normal -0 0 1
    outer loop
      vertex -9.03989 4.27555 10
      vertex -8.81921 -4.71397 10
      vertex -8.81921 4.71397 10
    endloop
  endfacet
  facet normal 0 0 1
    outer loop
      vertex -9.03989 4.27555 10
      vertex -9.03989 -4.27555 10
      vertex -8.81921 -4.71397 10
    endloop
  endfacet
  facet normal -0 0 1
    outer loop
      vertex -9.2388 3.82683 10
      vertex -9.03989 -4.27555 10
      vertex -9.03989 4.27555 10
    endloop
  endfacet
  facet normal 0 0 1
    outer loop
      vertex -9.2388 3.82683 10
      vertex -9.2388 -3.82683 10
      vertex -9.03989 -4.27555 10
    endloop
  endfacet
  facet normal -0 0 1
    outer loop
      vertex -9.41544 3.3689 10
      vertex -9.2388 -3.82683 10
      vertex -9.2388 3.82683 10
    endloop
  endfacet
  facet normal 0 0 1
    outer loop
      vertex -9.41544 3.3689 10
      vertex -9.41544 -3.3689 10
      vertex -9.2388 -3.82683 10
    endloop
  endfacet
  facet normal -0 0 1
    outer loop
      vertex -9.5694 2.90285 10
      vertex -9.41544 -3.3689 10
      vertex -9.41544 3.3689 10
    endloop
  endfacet
  facet normal 0 0 1
    outer loop
      vertex -9.5694 2.90285 10
      vertex -9.5694 -2.90285 10
      vertex -9.41544 -3.3689 10
    endloop
  endfacet
  facet normal -0 0 1
    outer loop
      vertex -9.70031 2.4298 10
      vertex -9.5694 -2.90285 10
      vertex -9.5694 2.90285 10
    endloop
  endfacet
  facet normal 0 0 1
    outer loop
      vertex -9.70031 2.4298 10
      vertex -9.70031 -2.4298 10
      vertex -9.5694 -2.90285 10
    endloop
  endfacet
  facet normal -0 0 1
    outer loop
      vertex -9.80785 1.9509 10
      vertex -9.70031 -2.4298 10
      vertex -9.70031 2.4298 10
    endloop
  endfacet
  facet normal 0 0 1
    outer loop
      vertex -9.80785 1.9509 10
      vertex -9.80785 -1.9509 10
      vertex -9.70031 -2.4298 10
    endloop
  endfacet
  facet normal -0 0 1
    outer loop
      vertex -9.89176 1.4673 10
      vertex -9.80785 -1.9509 10
      vertex -9.80785 1.9509 10
    endloop
  endfacet
  facet normal 0 0 1
    outer loop
      vertex -9.89176 1.4673 10
      vertex -9.89176 -1.4673 10
      vertex -9.80785 -1.9509 10
    endloop
  endfacet
  facet normal -0 0 1
    outer loop
      vertex -9.95185 0.980171 10
      vertex -9.89176 -1.4673 10
      vertex -9.89176 1.4673 10
    endloop
  endfacet
  facet normal 0 0 1
    outer loop
      vertex -9.95185 0.980171 10
      vertex -9.95185 -0.980171 10
      vertex -9.89176 -1.4673 10
    endloop
  endfacet
  facet normal -0 0 1
    outer loop
      vertex -9.98795 0.490677 10
      vertex -9.95185 -0.980171 10
      vertex -9.95185 0.980171 10
    endloop
  endfacet
  facet normal 0 0 1
    outer loop
      vertex -9.98795 0.490677 10
      vertex -9.98795 -0.490677 10
      vertex -9.95185 -0.980171 10
    endloop
  endfacet
  facet normal 0 -0 1
    outer loop
      vertex -9.98795 -0.490677 10
      vertex -9.98795 0.490677 10
      vertex -10 -0 10
    endloop
  endfacet
endsolid OpenSCAD_Model
