solid OpenSCAD_Model
  facet normal 1 0 0
    outer loop
      vertex 35 0 0
      vertex 35 8 1.5
      vertex 35 1.5 8
    endloop
  endfacet
  facet normal 1 0 0
    outer loop
      vertex 35 0 0
      vertex 35 1.5 8
      vertex 35 0 8
    endloop
  endfacet
  facet normal 1 0 0
    outer loop
      vertex 35 8 1.5
      vertex 35 0 0
      vertex 35 8 0
    endloop
  endfacet
  facet normal -0 0 1
    outer loop
      vertex 33.5 1.5 8
      vertex 35 0 8
      vertex 35 1.5 8
    endloop
  endfacet
  facet normal -0 0 1
    outer loop
      vertex 18.25 1.5 8
      vertex 35 0 8
      vertex 33.5 1.5 8
    endloop
  endfacet
  facet normal -0 0 1
    outer loop
      vertex 16.75 1.5 8
      vertex 35 0 8
      vertex 18.25 1.5 8
    endloop
  endfacet
  facet normal 0 0 1
    outer loop
      vertex 0 0 8
      vertex 16.75 1.5 8
      vertex 1.5 1.5 8
    endloop
  endfacet
  facet normal 0 0 1
    outer loop
      vertex 0 0 8
      vertex 1.5 1.5 8
      vertex 0 1.5 8
    endloop
  endfacet
  facet normal 0 0 1
    outer loop
      vertex 16.75 1.5 8
      vertex 0 0 8
      vertex 35 0 8
    endloop
  endfacet
  facet normal 0 0 -1
    outer loop
      vertex 0 0 0
      vertex 35 8 0
      vertex 35 0 0
    endloop
  endfacet
  facet normal -0 0 -1
    outer loop
      vertex 35 8 0
      vertex 0 0 0
      vertex 0 8 0
    endloop
  endfacet
  facet normal -1 0 0
    outer loop
      vertex 0 0 0
      vertex 0 8 1.5
      vertex 0 8 0
    endloop
  endfacet
  facet normal -1 -0 0
    outer loop
      vertex 0 8 1.5
      vertex 0 0 0
      vertex 0 1.5 8
    endloop
  endfacet
  facet normal -1 -0 0
    outer loop
      vertex 0 1.5 8
      vertex 0 0 0
      vertex 0 0 8
    endloop
  endfacet
  facet normal 0 1 -0
    outer loop
      vertex 35 8 0
      vertex 33.5 8 1.5
      vertex 35 8 1.5
    endloop
  endfacet
  facet normal 0 1 0
    outer loop
      vertex 33.5 8 1.5
      vertex 35 8 0
      vertex 18.25 8 1.5
    endloop
  endfacet
  facet normal 0 1 0
    outer loop
      vertex 18.25 8 1.5
      vertex 35 8 0
      vertex 16.75 8 1.5
    endloop
  endfacet
  facet normal 0 1 0
    outer loop
      vertex 0 8 0
      vertex 16.75 8 1.5
      vertex 35 8 0
    endloop
  endfacet
  facet normal 0 1 0
    outer loop
      vertex 16.75 8 1.5
      vertex 0 8 0
      vertex 1.5 8 1.5
    endloop
  endfacet
  facet normal 0 1 0
    outer loop
      vertex 1.5 8 1.5
      vertex 0 8 0
      vertex 0 8 1.5
    endloop
  endfacet
  facet normal 0 -1 0
    outer loop
      vertex 0 0 0
      vertex 35 0 8
      vertex 0 0 8
    endloop
  endfacet
  facet normal 0 -1 -0
    outer loop
      vertex 35 0 8
      vertex 0 0 0
      vertex 35 0 0
    endloop
  endfacet
  facet normal -0 0 1
    outer loop
      vertex 18.25 8 1.5
      vertex 33.5 1.5 1.5
      vertex 33.5 8 1.5
    endloop
  endfacet
  facet normal 0 0 1
    outer loop
      vertex 33.5 1.5 1.5
      vertex 18.25 8 1.5
      vertex 18.25 1.5 1.5
    endloop
  endfacet
  facet normal -0 0 1
    outer loop
      vertex 1.5 8 1.5
      vertex 16.75 1.5 1.5
      vertex 16.75 8 1.5
    endloop
  endfacet
  facet normal 0 0 1
    outer loop
      vertex 16.75 1.5 1.5
      vertex 1.5 8 1.5
      vertex 1.5 1.5 1.5
    endloop
  endfacet
  facet normal 0 1 -0
    outer loop
      vertex 33.5 1.5 1.5
      vertex 18.25 1.5 8
      vertex 33.5 1.5 8
    endloop
  endfacet
  facet normal 0 1 0
    outer loop
      vertex 18.25 1.5 8
      vertex 33.5 1.5 1.5
      vertex 18.25 1.5 1.5
    endloop
  endfacet
  facet normal 0 1 -0
    outer loop
      vertex 16.75 1.5 1.5
      vertex 1.5 1.5 8
      vertex 16.75 1.5 8
    endloop
  endfacet
  facet normal 0 1 0
    outer loop
      vertex 1.5 1.5 8
      vertex 16.75 1.5 1.5
      vertex 1.5 1.5 1.5
    endloop
  endfacet
  facet normal 0 0.707107 0.707107
    outer loop
      vertex 1.5 8 1.5
      vertex 0 1.5 8
      vertex 1.5 1.5 8
    endloop
  endfacet
  facet normal 0 0.707107 0.707107
    outer loop
      vertex 0 1.5 8
      vertex 1.5 8 1.5
      vertex 0 8 1.5
    endloop
  endfacet
  facet normal 1 0 0
    outer loop
      vertex 1.5 1.5 8
      vertex 1.5 1.5 1.5
      vertex 1.5 8 1.5
    endloop
  endfacet
  facet normal 0 0.707107 0.707107
    outer loop
      vertex 18.25 8 1.5
      vertex 16.75 1.5 8
      vertex 18.25 1.5 8
    endloop
  endfacet
  facet normal 0 0.707107 0.707107
    outer loop
      vertex 16.75 1.5 8
      vertex 18.25 8 1.5
      vertex 16.75 8 1.5
    endloop
  endfacet
  facet normal 1 0 0
    outer loop
      vertex 18.25 1.5 8
      vertex 18.25 1.5 1.5
      vertex 18.25 8 1.5
    endloop
  endfacet
  facet normal -1 0 0
    outer loop
      vertex 16.75 8 1.5
      vertex 16.75 1.5 1.5
      vertex 16.75 1.5 8
    endloop
  endfacet
  facet normal 0 0.707107 0.707107
    outer loop
      vertex 35 8 1.5
      vertex 33.5 1.5 8
      vertex 35 1.5 8
    endloop
  endfacet
  facet normal 0 0.707107 0.707107
    outer loop
      vertex 33.5 1.5 8
      vertex 35 8 1.5
      vertex 33.5 8 1.5
    endloop
  endfacet
  facet normal -1 0 0
    outer loop
      vertex 33.5 8 1.5
      vertex 33.5 1.5 1.5
      vertex 33.5 1.5 8
    endloop
  endfacet
endsolid OpenSCAD_Model
