solid OpenSCAD_Model
  facet normal 1 -0 0
    outer loop
      vertex 10 -10 0
      vertex 10 10 -10
      vertex 10 10 0
    endloop
  endfacet
  facet normal 1 0 0
    outer loop
      vertex 10 10 -10
      vertex 10 -10 0
      vertex 10 -10 -10
    endloop
  endfacet
  facet normal 0 0 -1
    outer loop
      vertex 10 -10 -10
      vertex 4.7 -4.7 -10
      vertex 10 10 -10
    endloop
  endfacet
  facet normal 0 0 -1
    outer loop
      vertex 10 -10 -10
      vertex -4.7 -4.7 -10
      vertex 4.7 -4.7 -10
    endloop
  endfacet
  facet normal -0 0 -1
    outer loop
      vertex -4.7 -4.7 -10
      vertex -10 -10 -10
      vertex -4.7 4.7 -10
    endloop
  endfacet
  facet normal 0 0 -1
    outer loop
      vertex -10 -10 -10
      vertex -4.7 -4.7 -10
      vertex 10 -10 -10
    endloop
  endfacet
  facet normal 0 0 -1
    outer loop
      vertex 4.7 4.7 -10
      vertex 10 10 -10
      vertex 4.7 -4.7 -10
    endloop
  endfacet
  facet normal 0 0 -1
    outer loop
      vertex -4.7 4.7 -10
      vertex 10 10 -10
      vertex 4.7 4.7 -10
    endloop
  endfacet
  facet normal 0 0 -1
    outer loop
      vertex -4.7 4.7 -10
      vertex -10 10 -10
      vertex 10 10 -10
    endloop
  endfacet
  facet normal 0 0 -1
    outer loop
      vertex -10 10 -10
      vertex -4.7 4.7 -10
      vertex -10 -10 -10
    endloop
  endfacet
  facet normal -0 0 1
    outer loop
      vertex -10 10 0
      vertex 10 -10 0
      vertex 10 10 0
    endloop
  endfacet
  facet normal 0 0 1
    outer loop
      vertex 10 -10 0
      vertex -10 10 0
      vertex -10 -10 0
    endloop
  endfacet
  facet normal -1 0 0
    outer loop
      vertex -10 -10 -10
      vertex -10 10 0
      vertex -10 10 -10
    endloop
  endfacet
  facet normal -1 -0 0
    outer loop
      vertex -10 10 0
      vertex -10 -10 -10
      vertex -10 -10 0
    endloop
  endfacet
  facet normal 0 -1 0
    outer loop
      vertex -10 -10 -10
      vertex 10 -10 0
      vertex -10 -10 0
    endloop
  endfacet
  facet normal 0 -1 -0
    outer loop
      vertex 10 -10 0
      vertex -10 -10 -10
      vertex 10 -10 -10
    endloop
  endfacet
  facet normal 0 1 -0
    outer loop
      vertex 10 10 -10
      vertex -10 10 0
      vertex 10 10 0
    endloop
  endfacet
  facet normal 0 1 0
    outer loop
      vertex -10 10 0
      vertex 10 10 -10
      vertex -10 10 -10
    endloop
  endfacet
  facet normal 1 -0 0
    outer loop
      vertex 4.7 -4.7 -10
      vertex 4.7 4.7 -14.7
      vertex 4.7 4.7 -10
    endloop
  endfacet
  facet normal 1 0 0
    outer loop
      vertex 4.7 4.7 -14.7
      vertex 4.7 -4.7 -10
      vertex 4.7 -4.7 -14.7
    endloop
  endfacet
  facet normal 0 0 -1
    outer loop
      vertex -4.7 -4.7 -14.7
      vertex 4.7 4.7 -14.7
      vertex 4.7 -4.7 -14.7
    endloop
  endfacet
  facet normal -0 0 -1
    outer loop
      vertex 4.7 4.7 -14.7
      vertex -4.7 -4.7 -14.7
      vertex -4.7 4.7 -14.7
    endloop
  endfacet
  facet normal -1 0 0
    outer loop
      vertex -4.7 -4.7 -14.7
      vertex -4.7 4.7 -10
      vertex -4.7 4.7 -14.7
    endloop
  endfacet
  facet normal -1 -0 0
    outer loop
      vertex -4.7 4.7 -10
      vertex -4.7 -4.7 -14.7
      vertex -4.7 -4.7 -10
    endloop
  endfacet
  facet normal 0 -1 0
    outer loop
      vertex -4.7 -4.7 -14.7
      vertex 4.7 -4.7 -10
      vertex -4.7 -4.7 -10
    endloop
  endfacet
  facet normal 0 -1 -0
    outer loop
      vertex 4.7 -4.7 -10
      vertex -4.7 -4.7 -14.7
      vertex 4.7 -4.7 -14.7
    endloop
  endfacet
  facet normal 0 1 -0
    outer loop
      vertex 4.7 4.7 -14.7
      vertex -4.7 4.7 -10
      vertex 4.7 4.7 -10
    endloop
  endfacet
  facet normal 0 1 0
    outer loop
      vertex -4.7 4.7 -10
      vertex 4.7 4.7 -14.7
      vertex -4.7 4.7 -14.7
    endloop
  endfacet
endsolid OpenSCAD_Model
