solid OpenSCAD_Model
  facet normal -0.34202 0.939693 0
    outer loop
      vertex 5 -1.9384 -1.635
      vertex -0.708127 -4.01599 1.635
      vertex 5 -1.9384 1.635
    endloop
  endfacet
  facet normal -0.34202 0.939693 0
    outer loop
      vertex -0.708127 -4.01599 1.635
      vertex 5 -1.9384 -1.635
      vertex -0.708127 -4.01599 -1.635
    endloop
  endfacet
  facet normal 0.984808 -0.173649 0
    outer loop
      vertex -3.83201 -1.39474 1.635
      vertex -3.12388 2.62125 -1.635
      vertex -3.12388 2.62125 1.635
    endloop
  endfacet
  facet normal 0.984808 -0.173649 0
    outer loop
      vertex -3.12388 2.62125 -1.635
      vertex -3.83201 -1.39474 1.635
      vertex -3.83201 -1.39474 -1.635
    endloop
  endfacet
  facet normal 0.642788 0.766044 -0
    outer loop
      vertex -0.708127 -4.01599 -1.635
      vertex -3.83201 -1.39474 1.635
      vertex -0.708127 -4.01599 1.635
    endloop
  endfacet
  facet normal 0.642788 0.766044 0
    outer loop
      vertex -3.83201 -1.39474 1.635
      vertex -0.708127 -4.01599 -1.635
      vertex -3.83201 -1.39474 -1.635
    endloop
  endfacet
  facet normal 0.34202 -0.939693 0
    outer loop
      vertex -3.12388 2.62125 -1.635
      vertex 5 5.5781 1.635
      vertex -3.12388 2.62125 1.635
    endloop
  endfacet
  facet normal 0.34202 -0.939693 0
    outer loop
      vertex 5 5.5781 1.635
      vertex -3.12388 2.62125 -1.635
      vertex 5 5.5781 -1.635
    endloop
  endfacet
  facet normal -0 0 -1
    outer loop
      vertex 5 -1.9384 1.635
      vertex 0.735343 -2.02034 1.635
      vertex 5 -0.468131 1.635
    endloop
  endfacet
  facet normal 0 0 -1
    outer loop
      vertex -0.708127 -4.01599 1.635
      vertex 0.735343 -2.02034 1.635
      vertex 5 -1.9384 1.635
    endloop
  endfacet
  facet normal 0 0 -1
    outer loop
      vertex 0.735343 -2.02034 1.635
      vertex -0.708127 -4.01599 1.635
      vertex 0.327065 -2.12498 1.635
    endloop
  endfacet
  facet normal 0 0 -1
    outer loop
      vertex 0.327065 -2.12498 1.635
      vertex -0.708127 -4.01599 1.635
      vertex -0.0937816 -2.14795 1.635
    endloop
  endfacet
  facet normal 0 0 -1
    outer loop
      vertex -0.708127 -4.01599 1.635
      vertex -0.511024 -2.08839 1.635
      vertex -0.0937816 -2.14795 1.635
    endloop
  endfacet
  facet normal 0 0 -1
    outer loop
      vertex -0.708127 -4.01599 1.635
      vertex -0.908629 -1.94856 1.635
      vertex -0.511024 -2.08839 1.635
    endloop
  endfacet
  facet normal 0 0 -1
    outer loop
      vertex -0.708127 -4.01599 1.635
      vertex -1.27132 -1.73386 1.635
      vertex -0.908629 -1.94856 1.635
    endloop
  endfacet
  facet normal 0 0 -1
    outer loop
      vertex -3.83201 -1.39474 1.635
      vertex -1.27132 -1.73386 1.635
      vertex -0.708127 -4.01599 1.635
    endloop
  endfacet
  facet normal 0 0 -1
    outer loop
      vertex -1.27132 -1.73386 1.635
      vertex -3.83201 -1.39474 1.635
      vertex -1.58515 -1.45252 1.635
    endloop
  endfacet
  facet normal 0 0 -1
    outer loop
      vertex -1.58515 -1.45252 1.635
      vertex -3.83201 -1.39474 1.635
      vertex -1.83806 -1.11536 1.635
    endloop
  endfacet
  facet normal 0 0 -1
    outer loop
      vertex -3.83201 -1.39474 1.635
      vertex -2.14795 0.0937816 1.635
      vertex -2.12498 -0.327065 1.635
    endloop
  endfacet
  facet normal 0 0 -1
    outer loop
      vertex -3.83201 -1.39474 1.635
      vertex -2.12498 -0.327065 1.635
      vertex -2.02034 -0.735343 1.635
    endloop
  endfacet
  facet normal -0 0 -1
    outer loop
      vertex -2.14795 0.0937816 1.635
      vertex -3.83201 -1.39474 1.635
      vertex -3.12388 2.62125 1.635
    endloop
  endfacet
  facet normal -0 0 -1
    outer loop
      vertex -1.83806 -1.11536 1.635
      vertex -3.83201 -1.39474 1.635
      vertex -2.02034 -0.735343 1.635
    endloop
  endfacet
  facet normal 0 0 -1
    outer loop
      vertex -0.735343 2.02034 1.635
      vertex 5 5.5781 1.635
      vertex 5 4.10783 1.635
    endloop
  endfacet
  facet normal 0 0 -1
    outer loop
      vertex -3.12388 2.62125 1.635
      vertex -0.735343 2.02034 1.635
      vertex -1.11536 1.83806 1.635
    endloop
  endfacet
  facet normal 0 0 -1
    outer loop
      vertex -0.735343 2.02034 1.635
      vertex -3.12388 2.62125 1.635
      vertex 5 5.5781 1.635
    endloop
  endfacet
  facet normal 0 0 -1
    outer loop
      vertex -1.45252 1.58515 1.635
      vertex -3.12388 2.62125 1.635
      vertex -1.11536 1.83806 1.635
    endloop
  endfacet
  facet normal 0 0 -1
    outer loop
      vertex -1.73386 1.27132 1.635
      vertex -3.12388 2.62125 1.635
      vertex -1.45252 1.58515 1.635
    endloop
  endfacet
  facet normal 0 0 -1
    outer loop
      vertex -1.94856 0.908629 1.635
      vertex -3.12388 2.62125 1.635
      vertex -1.73386 1.27132 1.635
    endloop
  endfacet
  facet normal 0 0 -1
    outer loop
      vertex -2.08839 0.511024 1.635
      vertex -3.12388 2.62125 1.635
      vertex -1.94856 0.908629 1.635
    endloop
  endfacet
  facet normal 0 0 -1
    outer loop
      vertex -3.12388 2.62125 1.635
      vertex -2.08839 0.511024 1.635
      vertex -2.14795 0.0937816 1.635
    endloop
  endfacet
  facet normal -0 0 1
    outer loop
      vertex 2.02034 0.735343 -1.635
      vertex 5 -1.9384 -1.635
      vertex 5 5.5781 -1.635
    endloop
  endfacet
  facet normal 0 0 1
    outer loop
      vertex 5 -1.9384 -1.635
      vertex 2.12498 0.327065 -1.635
      vertex 2.14795 -0.0937816 -1.635
    endloop
  endfacet
  facet normal 0 0 1
    outer loop
      vertex 5 -1.9384 -1.635
      vertex 2.02034 0.735343 -1.635
      vertex 2.12498 0.327065 -1.635
    endloop
  endfacet
  facet normal 0 0 1
    outer loop
      vertex 5 5.5781 -1.635
      vertex 1.83806 1.11536 -1.635
      vertex 2.02034 0.735343 -1.635
    endloop
  endfacet
  facet normal 0 0 1
    outer loop
      vertex 5 5.5781 -1.635
      vertex 1.58515 1.45252 -1.635
      vertex 1.83806 1.11536 -1.635
    endloop
  endfacet
  facet normal 0 0 1
    outer loop
      vertex 5 5.5781 -1.635
      vertex 1.27132 1.73386 -1.635
      vertex 1.58515 1.45252 -1.635
    endloop
  endfacet
  facet normal 0 0 1
    outer loop
      vertex 5 5.5781 -1.635
      vertex 0.908629 1.94856 -1.635
      vertex 1.27132 1.73386 -1.635
    endloop
  endfacet
  facet normal 0 0 1
    outer loop
      vertex 5 5.5781 -1.635
      vertex 0.511024 2.08839 -1.635
      vertex 0.908629 1.94856 -1.635
    endloop
  endfacet
  facet normal 0 0 1
    outer loop
      vertex 5 5.5781 -1.635
      vertex 0.0937816 2.14795 -1.635
      vertex 0.511024 2.08839 -1.635
    endloop
  endfacet
  facet normal 0 0 1
    outer loop
      vertex 5 5.5781 -1.635
      vertex -0.327065 2.12498 -1.635
      vertex 0.0937816 2.14795 -1.635
    endloop
  endfacet
  facet normal -0 0 1
    outer loop
      vertex -3.12388 2.62125 -1.635
      vertex -0.327065 2.12498 -1.635
      vertex 5 5.5781 -1.635
    endloop
  endfacet
  facet normal 0 0 1
    outer loop
      vertex -0.327065 2.12498 -1.635
      vertex -3.12388 2.62125 -1.635
      vertex -0.735343 2.02034 -1.635
    endloop
  endfacet
  facet normal 0 0 1
    outer loop
      vertex -3.83201 -1.39474 -1.635
      vertex -2.08839 0.511024 -1.635
      vertex -3.12388 2.62125 -1.635
    endloop
  endfacet
  facet normal 0 0 1
    outer loop
      vertex -1.94856 0.908629 -1.635
      vertex -3.12388 2.62125 -1.635
      vertex -2.08839 0.511024 -1.635
    endloop
  endfacet
  facet normal 0 0 1
    outer loop
      vertex -1.73386 1.27132 -1.635
      vertex -3.12388 2.62125 -1.635
      vertex -1.94856 0.908629 -1.635
    endloop
  endfacet
  facet normal 0 0 1
    outer loop
      vertex -1.45252 1.58515 -1.635
      vertex -3.12388 2.62125 -1.635
      vertex -1.73386 1.27132 -1.635
    endloop
  endfacet
  facet normal 0 0 1
    outer loop
      vertex -1.11536 1.83806 -1.635
      vertex -3.12388 2.62125 -1.635
      vertex -1.45252 1.58515 -1.635
    endloop
  endfacet
  facet normal 0 0 1
    outer loop
      vertex -0.735343 2.02034 -1.635
      vertex -3.12388 2.62125 -1.635
      vertex -1.11536 1.83806 -1.635
    endloop
  endfacet
  facet normal -0 0 1
    outer loop
      vertex 2.08839 -0.511024 -1.635
      vertex 5 -1.9384 -1.635
      vertex 2.14795 -0.0937816 -1.635
    endloop
  endfacet
  facet normal -0 0 1
    outer loop
      vertex 1.94856 -0.908629 -1.635
      vertex 5 -1.9384 -1.635
      vertex 2.08839 -0.511024 -1.635
    endloop
  endfacet
  facet normal -0 0 1
    outer loop
      vertex 1.73386 -1.27132 -1.635
      vertex 5 -1.9384 -1.635
      vertex 1.94856 -0.908629 -1.635
    endloop
  endfacet
  facet normal -0 0 1
    outer loop
      vertex 1.45252 -1.58515 -1.635
      vertex 5 -1.9384 -1.635
      vertex 1.73386 -1.27132 -1.635
    endloop
  endfacet
  facet normal -0 0 1
    outer loop
      vertex 1.11536 -1.83806 -1.635
      vertex 5 -1.9384 -1.635
      vertex 1.45252 -1.58515 -1.635
    endloop
  endfacet
  facet normal 0 0 1
    outer loop
      vertex -0.708127 -4.01599 -1.635
      vertex 1.11536 -1.83806 -1.635
      vertex 0.735343 -2.02034 -1.635
    endloop
  endfacet
  facet normal 0 0 1
    outer loop
      vertex -0.708127 -4.01599 -1.635
      vertex 0.735343 -2.02034 -1.635
      vertex 0.327065 -2.12498 -1.635
    endloop
  endfacet
  facet normal 0 0 1
    outer loop
      vertex -0.708127 -4.01599 -1.635
      vertex 0.327065 -2.12498 -1.635
      vertex -0.0937816 -2.14795 -1.635
    endloop
  endfacet
  facet normal 0 0 1
    outer loop
      vertex 1.11536 -1.83806 -1.635
      vertex -0.708127 -4.01599 -1.635
      vertex 5 -1.9384 -1.635
    endloop
  endfacet
  facet normal 0 0 1
    outer loop
      vertex -0.511024 -2.08839 -1.635
      vertex -0.708127 -4.01599 -1.635
      vertex -0.0937816 -2.14795 -1.635
    endloop
  endfacet
  facet normal 0 0 1
    outer loop
      vertex -0.908629 -1.94856 -1.635
      vertex -0.708127 -4.01599 -1.635
      vertex -0.511024 -2.08839 -1.635
    endloop
  endfacet
  facet normal 0 0 1
    outer loop
      vertex -1.27132 -1.73386 -1.635
      vertex -0.708127 -4.01599 -1.635
      vertex -0.908629 -1.94856 -1.635
    endloop
  endfacet
  facet normal 0 0 1
    outer loop
      vertex -3.83201 -1.39474 -1.635
      vertex -1.27132 -1.73386 -1.635
      vertex -1.58515 -1.45252 -1.635
    endloop
  endfacet
  facet normal -0 0 1
    outer loop
      vertex -3.83201 -1.39474 -1.635
      vertex -1.58515 -1.45252 -1.635
      vertex -1.83806 -1.11536 -1.635
    endloop
  endfacet
  facet normal 0 0 1
    outer loop
      vertex -3.83201 -1.39474 -1.635
      vertex -1.83806 -1.11536 -1.635
      vertex -2.02034 -0.735343 -1.635
    endloop
  endfacet
  facet normal 0 0 1
    outer loop
      vertex -2.08839 0.511024 -1.635
      vertex -3.83201 -1.39474 -1.635
      vertex -2.14795 0.0937816 -1.635
    endloop
  endfacet
  facet normal 0 0 1
    outer loop
      vertex -2.14795 0.0937816 -1.635
      vertex -3.83201 -1.39474 -1.635
      vertex -2.12498 -0.327065 -1.635
    endloop
  endfacet
  facet normal 0 0 1
    outer loop
      vertex -1.27132 -1.73386 -1.635
      vertex -3.83201 -1.39474 -1.635
      vertex -0.708127 -4.01599 -1.635
    endloop
  endfacet
  facet normal 0 0 1
    outer loop
      vertex -2.12498 -0.327065 -1.635
      vertex -3.83201 -1.39474 -1.635
      vertex -2.02034 -0.735343 -1.635
    endloop
  endfacet
  facet normal 0.744599 -0.667512 0
    outer loop
      vertex -1.73386 1.27132 3
      vertex -1.45252 1.58515 1.635
      vertex -1.45252 1.58515 3
    endloop
  endfacet
  facet normal 0.744599 -0.667512 0
    outer loop
      vertex -1.45252 1.58515 1.635
      vertex -1.73386 1.27132 3
      vertex -1.73386 1.27132 1.635
    endloop
  endfacet
  facet normal 0.744599 -0.667512 0
    outer loop
      vertex -1.73386 1.27132 -1.635
      vertex -1.45252 1.58515 -3
      vertex -1.45252 1.58515 -1.635
    endloop
  endfacet
  facet normal 0.744599 -0.667512 0
    outer loop
      vertex -1.45252 1.58515 -3
      vertex -1.73386 1.27132 -1.635
      vertex -1.73386 1.27132 -3
    endloop
  endfacet
  facet normal -0.799954 -0.600061 0
    outer loop
      vertex 1.83806 1.11536 -3
      vertex 1.58515 1.45252 -1.635
      vertex 1.58515 1.45252 -3
    endloop
  endfacet
  facet normal -0.799954 -0.600061 0
    outer loop
      vertex 1.58515 1.45252 -1.635
      vertex 1.83806 1.11536 -3
      vertex 1.83806 1.11536 -1.635
    endloop
  endfacet
  facet normal -0.901642 -0.432484 0
    outer loop
      vertex 2.02034 0.735343 -3
      vertex 1.83806 1.11536 -1.635
      vertex 1.83806 1.11536 -3
    endloop
  endfacet
  facet normal -0.901642 -0.432484 0
    outer loop
      vertex 1.83806 1.11536 -1.635
      vertex 2.02034 0.735343 -3
      vertex 2.02034 0.735343 -1.635
    endloop
  endfacet
  facet normal -0.667512 -0.744599 0
    outer loop
      vertex 1.27132 1.73386 -3
      vertex 1.58515 1.45252 -1.635
      vertex 1.27132 1.73386 -1.635
    endloop
  endfacet
  facet normal -0.667512 -0.744599 -0
    outer loop
      vertex 1.58515 1.45252 -1.635
      vertex 1.27132 1.73386 -3
      vertex 1.58515 1.45252 -3
    endloop
  endfacet
  facet normal 0.799954 0.600061 0
    outer loop
      vertex -1.58515 -1.45252 3
      vertex -1.83806 -1.11536 1.635
      vertex -1.83806 -1.11536 3
    endloop
  endfacet
  facet normal 0.799954 0.600061 0
    outer loop
      vertex -1.83806 -1.11536 1.635
      vertex -1.58515 -1.45252 3
      vertex -1.58515 -1.45252 1.635
    endloop
  endfacet
  facet normal 0.799954 0.600061 0
    outer loop
      vertex -1.58515 -1.45252 -1.635
      vertex -1.83806 -1.11536 -3
      vertex -1.83806 -1.11536 -1.635
    endloop
  endfacet
  facet normal 0.799954 0.600061 0
    outer loop
      vertex -1.83806 -1.11536 -3
      vertex -1.58515 -1.45252 -1.635
      vertex -1.58515 -1.45252 -3
    endloop
  endfacet
  facet normal -0.744599 0.667512 0
    outer loop
      vertex 1.45252 -1.58515 -3
      vertex 1.73386 -1.27132 -1.635
      vertex 1.73386 -1.27132 -3
    endloop
  endfacet
  facet normal -0.744599 0.667512 0
    outer loop
      vertex 1.73386 -1.27132 -1.635
      vertex 1.45252 -1.58515 -3
      vertex 1.45252 -1.58515 -1.635
    endloop
  endfacet
  facet normal 0.989965 -0.141314 0
    outer loop
      vertex -2.14795 0.0937816 3
      vertex -2.08839 0.511024 1.635
      vertex -2.08839 0.511024 3
    endloop
  endfacet
  facet normal 0.989965 -0.141314 0
    outer loop
      vertex -2.08839 0.511024 1.635
      vertex -2.14795 0.0937816 3
      vertex -2.14795 0.0937816 1.635
    endloop
  endfacet
  facet normal 0.989965 -0.141314 0
    outer loop
      vertex -2.14795 0.0937816 -1.635
      vertex -2.08839 0.511024 -3
      vertex -2.08839 0.511024 -1.635
    endloop
  endfacet
  facet normal 0.989965 -0.141314 0
    outer loop
      vertex -2.08839 0.511024 -3
      vertex -2.14795 0.0937816 -1.635
      vertex -2.14795 0.0937816 -3
    endloop
  endfacet
  facet normal -0.509402 -0.860529 0
    outer loop
      vertex 0.908629 1.94856 -3
      vertex 1.27132 1.73386 -1.635
      vertex 0.908629 1.94856 -1.635
    endloop
  endfacet
  facet normal -0.509402 -0.860529 -0
    outer loop
      vertex 1.27132 1.73386 -1.635
      vertex 0.908629 1.94856 -3
      vertex 1.27132 1.73386 -3
    endloop
  endfacet
  facet normal -0.998514 -0.0544993 0
    outer loop
      vertex 2.14795 -0.0937816 -3
      vertex 2.12498 0.327065 -1.635
      vertex 2.12498 0.327065 -3
    endloop
  endfacet
  facet normal -0.998514 -0.0544993 0
    outer loop
      vertex 2.12498 0.327065 -1.635
      vertex 2.14795 -0.0937816 -3
      vertex 2.14795 -0.0937816 -1.635
    endloop
  endfacet
  facet normal 0.667512 0.744599 -0
    outer loop
      vertex -1.27132 -1.73386 1.635
      vertex -1.58515 -1.45252 3
      vertex -1.27132 -1.73386 3
    endloop
  endfacet
  facet normal 0.667512 0.744599 0
    outer loop
      vertex -1.58515 -1.45252 3
      vertex -1.27132 -1.73386 1.635
      vertex -1.58515 -1.45252 1.635
    endloop
  endfacet
  facet normal 0.667512 0.744599 -0
    outer loop
      vertex -1.27132 -1.73386 -3
      vertex -1.58515 -1.45252 -1.635
      vertex -1.27132 -1.73386 -1.635
    endloop
  endfacet
  facet normal 0.667512 0.744599 0
    outer loop
      vertex -1.58515 -1.45252 -1.635
      vertex -1.27132 -1.73386 -3
      vertex -1.58515 -1.45252 -3
    endloop
  endfacet
  facet normal -0.96869 -0.248271 0
    outer loop
      vertex 2.12498 0.327065 -3
      vertex 2.02034 0.735343 -1.635
      vertex 2.02034 0.735343 -3
    endloop
  endfacet
  facet normal -0.96869 -0.248271 0
    outer loop
      vertex 2.02034 0.735343 -1.635
      vertex 2.12498 0.327065 -3
      vertex 2.12498 0.327065 -1.635
    endloop
  endfacet
  facet normal -0.141314 -0.989965 0
    outer loop
      vertex 0.0937816 2.14795 -3
      vertex 0.511024 2.08839 -1.635
      vertex 0.0937816 2.14795 -1.635
    endloop
  endfacet
  facet normal -0.141314 -0.989965 -0
    outer loop
      vertex 0.511024 2.08839 -1.635
      vertex 0.0937816 2.14795 -3
      vertex 0.511024 2.08839 -3
    endloop
  endfacet
  facet normal 0.248271 -0.96869 0
    outer loop
      vertex -0.735343 2.02034 -3
      vertex -0.327065 2.12498 -1.635
      vertex -0.735343 2.02034 -1.635
    endloop
  endfacet
  facet normal 0.248271 -0.96869 0
    outer loop
      vertex -0.327065 2.12498 -1.635
      vertex -0.735343 2.02034 -3
      vertex -0.327065 2.12498 -3
    endloop
  endfacet
  facet normal -0.331763 -0.943363 0
    outer loop
      vertex 0.511024 2.08839 -3
      vertex 0.908629 1.94856 -1.635
      vertex 0.511024 2.08839 -1.635
    endloop
  endfacet
  facet normal -0.331763 -0.943363 -0
    outer loop
      vertex 0.908629 1.94856 -1.635
      vertex 0.511024 2.08839 -3
      vertex 0.908629 1.94856 -3
    endloop
  endfacet
  facet normal -0.989965 0.141314 0
    outer loop
      vertex 2.08839 -0.511024 -3
      vertex 2.14795 -0.0937816 -1.635
      vertex 2.14795 -0.0937816 -3
    endloop
  endfacet
  facet normal -0.989965 0.141314 0
    outer loop
      vertex 2.14795 -0.0937816 -1.635
      vertex 2.08839 -0.511024 -3
      vertex 2.08839 -0.511024 -1.635
    endloop
  endfacet
  facet normal -0.432484 0.901642 0
    outer loop
      vertex 1.11536 -1.83806 -3
      vertex 0.735343 -2.02034 -1.635
      vertex 1.11536 -1.83806 -1.635
    endloop
  endfacet
  facet normal -0.432484 0.901642 0
    outer loop
      vertex 0.735343 -2.02034 -1.635
      vertex 1.11536 -1.83806 -3
      vertex 0.735343 -2.02034 -3
    endloop
  endfacet
  facet normal 0.141314 0.989965 -0
    outer loop
      vertex -0.0937816 -2.14795 1.635
      vertex -0.511024 -2.08839 3
      vertex -0.0937816 -2.14795 3
    endloop
  endfacet
  facet normal 0.141314 0.989965 0
    outer loop
      vertex -0.511024 -2.08839 3
      vertex -0.0937816 -2.14795 1.635
      vertex -0.511024 -2.08839 1.635
    endloop
  endfacet
  facet normal 0.141314 0.989965 -0
    outer loop
      vertex -0.0937816 -2.14795 -3
      vertex -0.511024 -2.08839 -1.635
      vertex -0.0937816 -2.14795 -1.635
    endloop
  endfacet
  facet normal 0.141314 0.989965 0
    outer loop
      vertex -0.511024 -2.08839 -1.635
      vertex -0.0937816 -2.14795 -3
      vertex -0.511024 -2.08839 -3
    endloop
  endfacet
  facet normal -0.943363 0.331763 0
    outer loop
      vertex 1.94856 -0.908629 -3
      vertex 2.08839 -0.511024 -1.635
      vertex 2.08839 -0.511024 -3
    endloop
  endfacet
  facet normal -0.943363 0.331763 0
    outer loop
      vertex 2.08839 -0.511024 -1.635
      vertex 1.94856 -0.908629 -3
      vertex 1.94856 -0.908629 -1.635
    endloop
  endfacet
  facet normal 0.96869 0.248271 0
    outer loop
      vertex -2.02034 -0.735343 3
      vertex -2.12498 -0.327065 1.635
      vertex -2.12498 -0.327065 3
    endloop
  endfacet
  facet normal 0.96869 0.248271 0
    outer loop
      vertex -2.12498 -0.327065 1.635
      vertex -2.02034 -0.735343 3
      vertex -2.02034 -0.735343 1.635
    endloop
  endfacet
  facet normal 0.96869 0.248271 0
    outer loop
      vertex -2.02034 -0.735343 -1.635
      vertex -2.12498 -0.327065 -3
      vertex -2.12498 -0.327065 -1.635
    endloop
  endfacet
  facet normal 0.96869 0.248271 0
    outer loop
      vertex -2.12498 -0.327065 -3
      vertex -2.02034 -0.735343 -1.635
      vertex -2.02034 -0.735343 -3
    endloop
  endfacet
  facet normal -0.860529 0.509402 0
    outer loop
      vertex 1.73386 -1.27132 -3
      vertex 1.94856 -0.908629 -1.635
      vertex 1.94856 -0.908629 -3
    endloop
  endfacet
  facet normal -0.860529 0.509402 0
    outer loop
      vertex 1.94856 -0.908629 -1.635
      vertex 1.73386 -1.27132 -3
      vertex 1.73386 -1.27132 -1.635
    endloop
  endfacet
  facet normal 0.943363 -0.331763 0
    outer loop
      vertex -2.08839 0.511024 3
      vertex -1.94856 0.908629 1.635
      vertex -1.94856 0.908629 3
    endloop
  endfacet
  facet normal 0.943363 -0.331763 0
    outer loop
      vertex -1.94856 0.908629 1.635
      vertex -2.08839 0.511024 3
      vertex -2.08839 0.511024 1.635
    endloop
  endfacet
  facet normal 0.943363 -0.331763 0
    outer loop
      vertex -2.08839 0.511024 -1.635
      vertex -1.94856 0.908629 -3
      vertex -1.94856 0.908629 -1.635
    endloop
  endfacet
  facet normal 0.943363 -0.331763 0
    outer loop
      vertex -1.94856 0.908629 -3
      vertex -2.08839 0.511024 -1.635
      vertex -2.08839 0.511024 -3
    endloop
  endfacet
  facet normal 0.0544993 -0.998514 0
    outer loop
      vertex -0.327065 2.12498 -3
      vertex 0.0937816 2.14795 -1.635
      vertex -0.327065 2.12498 -1.635
    endloop
  endfacet
  facet normal 0.0544993 -0.998514 0
    outer loop
      vertex 0.0937816 2.14795 -1.635
      vertex -0.327065 2.12498 -3
      vertex 0.0937816 2.14795 -3
    endloop
  endfacet
  facet normal 0.860529 -0.509402 0
    outer loop
      vertex -1.94856 0.908629 3
      vertex -1.73386 1.27132 1.635
      vertex -1.73386 1.27132 3
    endloop
  endfacet
  facet normal 0.860529 -0.509402 0
    outer loop
      vertex -1.73386 1.27132 1.635
      vertex -1.94856 0.908629 3
      vertex -1.94856 0.908629 1.635
    endloop
  endfacet
  facet normal 0.860529 -0.509402 0
    outer loop
      vertex -1.94856 0.908629 -1.635
      vertex -1.73386 1.27132 -3
      vertex -1.73386 1.27132 -1.635
    endloop
  endfacet
  facet normal 0.860529 -0.509402 0
    outer loop
      vertex -1.73386 1.27132 -3
      vertex -1.94856 0.908629 -1.635
      vertex -1.94856 0.908629 -3
    endloop
  endfacet
  facet normal 0.432484 -0.901642 0
    outer loop
      vertex -1.11536 1.83806 1.635
      vertex -0.735343 2.02034 3
      vertex -1.11536 1.83806 3
    endloop
  endfacet
  facet normal 0.432484 -0.901642 0
    outer loop
      vertex -0.735343 2.02034 3
      vertex -1.11536 1.83806 1.635
      vertex -0.735343 2.02034 1.635
    endloop
  endfacet
  facet normal 0.432484 -0.901642 0
    outer loop
      vertex -1.11536 1.83806 -3
      vertex -0.735343 2.02034 -1.635
      vertex -1.11536 1.83806 -1.635
    endloop
  endfacet
  facet normal 0.432484 -0.901642 0
    outer loop
      vertex -0.735343 2.02034 -1.635
      vertex -1.11536 1.83806 -3
      vertex -0.735343 2.02034 -3
    endloop
  endfacet
  facet normal 0.600061 -0.799954 0
    outer loop
      vertex -1.45252 1.58515 1.635
      vertex -1.11536 1.83806 3
      vertex -1.45252 1.58515 3
    endloop
  endfacet
  facet normal 0.600061 -0.799954 0
    outer loop
      vertex -1.11536 1.83806 3
      vertex -1.45252 1.58515 1.635
      vertex -1.11536 1.83806 1.635
    endloop
  endfacet
  facet normal 0.600061 -0.799954 0
    outer loop
      vertex -1.45252 1.58515 -3
      vertex -1.11536 1.83806 -1.635
      vertex -1.45252 1.58515 -1.635
    endloop
  endfacet
  facet normal 0.600061 -0.799954 0
    outer loop
      vertex -1.11536 1.83806 -1.635
      vertex -1.45252 1.58515 -3
      vertex -1.11536 1.83806 -3
    endloop
  endfacet
  facet normal 0.509402 0.860529 -0
    outer loop
      vertex -0.908629 -1.94856 1.635
      vertex -1.27132 -1.73386 3
      vertex -0.908629 -1.94856 3
    endloop
  endfacet
  facet normal 0.509402 0.860529 0
    outer loop
      vertex -1.27132 -1.73386 3
      vertex -0.908629 -1.94856 1.635
      vertex -1.27132 -1.73386 1.635
    endloop
  endfacet
  facet normal 0.509402 0.860529 -0
    outer loop
      vertex -0.908629 -1.94856 -3
      vertex -1.27132 -1.73386 -1.635
      vertex -0.908629 -1.94856 -1.635
    endloop
  endfacet
  facet normal 0.509402 0.860529 0
    outer loop
      vertex -1.27132 -1.73386 -1.635
      vertex -0.908629 -1.94856 -3
      vertex -1.27132 -1.73386 -3
    endloop
  endfacet
  facet normal -0.248271 0.96869 0
    outer loop
      vertex 0.735343 -2.02034 1.635
      vertex 0.327065 -2.12498 3
      vertex 0.735343 -2.02034 3
    endloop
  endfacet
  facet normal -0.248271 0.96869 0
    outer loop
      vertex 0.327065 -2.12498 3
      vertex 0.735343 -2.02034 1.635
      vertex 0.327065 -2.12498 1.635
    endloop
  endfacet
  facet normal -0.248271 0.96869 0
    outer loop
      vertex 0.735343 -2.02034 -3
      vertex 0.327065 -2.12498 -1.635
      vertex 0.735343 -2.02034 -1.635
    endloop
  endfacet
  facet normal -0.248271 0.96869 0
    outer loop
      vertex 0.327065 -2.12498 -1.635
      vertex 0.735343 -2.02034 -3
      vertex 0.327065 -2.12498 -3
    endloop
  endfacet
  facet normal -0.0544993 0.998514 0
    outer loop
      vertex 0.327065 -2.12498 1.635
      vertex -0.0937816 -2.14795 3
      vertex 0.327065 -2.12498 3
    endloop
  endfacet
  facet normal -0.0544993 0.998514 0
    outer loop
      vertex -0.0937816 -2.14795 3
      vertex 0.327065 -2.12498 1.635
      vertex -0.0937816 -2.14795 1.635
    endloop
  endfacet
  facet normal -0.0544993 0.998514 0
    outer loop
      vertex 0.327065 -2.12498 -3
      vertex -0.0937816 -2.14795 -1.635
      vertex 0.327065 -2.12498 -1.635
    endloop
  endfacet
  facet normal -0.0544993 0.998514 0
    outer loop
      vertex -0.0937816 -2.14795 -1.635
      vertex 0.327065 -2.12498 -3
      vertex -0.0937816 -2.14795 -3
    endloop
  endfacet
  facet normal 0.901642 0.432484 0
    outer loop
      vertex -1.83806 -1.11536 3
      vertex -2.02034 -0.735343 1.635
      vertex -2.02034 -0.735343 3
    endloop
  endfacet
  facet normal 0.901642 0.432484 0
    outer loop
      vertex -2.02034 -0.735343 1.635
      vertex -1.83806 -1.11536 3
      vertex -1.83806 -1.11536 1.635
    endloop
  endfacet
  facet normal 0.901642 0.432484 0
    outer loop
      vertex -1.83806 -1.11536 -1.635
      vertex -2.02034 -0.735343 -3
      vertex -2.02034 -0.735343 -1.635
    endloop
  endfacet
  facet normal 0.901642 0.432484 0
    outer loop
      vertex -2.02034 -0.735343 -3
      vertex -1.83806 -1.11536 -1.635
      vertex -1.83806 -1.11536 -3
    endloop
  endfacet
  facet normal 0.331763 0.943363 -0
    outer loop
      vertex -0.511024 -2.08839 1.635
      vertex -0.908629 -1.94856 3
      vertex -0.511024 -2.08839 3
    endloop
  endfacet
  facet normal 0.331763 0.943363 0
    outer loop
      vertex -0.908629 -1.94856 3
      vertex -0.511024 -2.08839 1.635
      vertex -0.908629 -1.94856 1.635
    endloop
  endfacet
  facet normal 0.331763 0.943363 -0
    outer loop
      vertex -0.511024 -2.08839 -3
      vertex -0.908629 -1.94856 -1.635
      vertex -0.511024 -2.08839 -1.635
    endloop
  endfacet
  facet normal 0.331763 0.943363 0
    outer loop
      vertex -0.908629 -1.94856 -1.635
      vertex -0.511024 -2.08839 -3
      vertex -0.908629 -1.94856 -3
    endloop
  endfacet
  facet normal -0.600061 0.799954 0
    outer loop
      vertex 1.45252 -1.58515 -3
      vertex 1.11536 -1.83806 -1.635
      vertex 1.45252 -1.58515 -1.635
    endloop
  endfacet
  facet normal -0.600061 0.799954 0
    outer loop
      vertex 1.11536 -1.83806 -1.635
      vertex 1.45252 -1.58515 -3
      vertex 1.11536 -1.83806 -3
    endloop
  endfacet
  facet normal 0.998514 0.0544993 0
    outer loop
      vertex -2.12498 -0.327065 3
      vertex -2.14795 0.0937816 1.635
      vertex -2.14795 0.0937816 3
    endloop
  endfacet
  facet normal 0.998514 0.0544993 0
    outer loop
      vertex -2.14795 0.0937816 1.635
      vertex -2.12498 -0.327065 3
      vertex -2.12498 -0.327065 1.635
    endloop
  endfacet
  facet normal 0.998514 0.0544993 0
    outer loop
      vertex -2.12498 -0.327065 -1.635
      vertex -2.14795 0.0937816 -3
      vertex -2.14795 0.0937816 -1.635
    endloop
  endfacet
  facet normal 0.998514 0.0544993 0
    outer loop
      vertex -2.14795 0.0937816 -3
      vertex -2.12498 -0.327065 -1.635
      vertex -2.12498 -0.327065 -3
    endloop
  endfacet
  facet normal 0.34202 -0.939693 0
    outer loop
      vertex -0.735343 2.02034 1.635
      vertex 5 4.10783 3
      vertex -0.735343 2.02034 3
    endloop
  endfacet
  facet normal 0.34202 -0.939693 0
    outer loop
      vertex 5 4.10783 3
      vertex -0.735343 2.02034 1.635
      vertex 5 4.10783 1.635
    endloop
  endfacet
  facet normal -0.34202 0.939693 0
    outer loop
      vertex 5 -0.468131 1.635
      vertex 0.735343 -2.02034 3
      vertex 5 -0.468131 3
    endloop
  endfacet
  facet normal -0.34202 0.939693 0
    outer loop
      vertex 0.735343 -2.02034 3
      vertex 5 -0.468131 1.635
      vertex 0.735343 -2.02034 1.635
    endloop
  endfacet
  facet normal 1 0 0
    outer loop
      vertex 5 -0.468131 3
      vertex 5 -1.9384 1.635
      vertex 5 -0.468131 1.635
    endloop
  endfacet
  facet normal 1 0 0
    outer loop
      vertex 5 -1.9384 1.635
      vertex 5 -5 3
      vertex 5 -1.9384 -1.635
    endloop
  endfacet
  facet normal 1 -0 0
    outer loop
      vertex 5 -5 3
      vertex 5 -1.9384 1.635
      vertex 5 -0.468131 3
    endloop
  endfacet
  facet normal 1 0 0
    outer loop
      vertex 5 7 3
      vertex 5 5.5781 1.635
      vertex 5 7 -3
    endloop
  endfacet
  facet normal 1 -0 0
    outer loop
      vertex 5 4.10783 3
      vertex 5 5.5781 1.635
      vertex 5 7 3
    endloop
  endfacet
  facet normal 1 0 0
    outer loop
      vertex 5 5.5781 1.635
      vertex 5 4.10783 3
      vertex 5 4.10783 1.635
    endloop
  endfacet
  facet normal 1 -0 0
    outer loop
      vertex 5 5.5781 -1.635
      vertex 5 7 -3
      vertex 5 5.5781 1.635
    endloop
  endfacet
  facet normal 1 -0 0
    outer loop
      vertex 5 -1.9384 -1.635
      vertex 5 7 -3
      vertex 5 5.5781 -1.635
    endloop
  endfacet
  facet normal 1 0 0
    outer loop
      vertex 5 -1.9384 -1.635
      vertex 5 -5 -3
      vertex 5 7 -3
    endloop
  endfacet
  facet normal 1 0 0
    outer loop
      vertex 5 -5 -3
      vertex 5 -1.9384 -1.635
      vertex 5 -5 3
    endloop
  endfacet
  facet normal 0 0 1
    outer loop
      vertex 5 7 3
      vertex -0.735343 2.02034 3
      vertex 5 4.10783 3
    endloop
  endfacet
  facet normal -0 0 1
    outer loop
      vertex -5 7 3
      vertex -0.735343 2.02034 3
      vertex 5 7 3
    endloop
  endfacet
  facet normal 0 0 1
    outer loop
      vertex -0.735343 2.02034 3
      vertex -5 7 3
      vertex -1.11536 1.83806 3
    endloop
  endfacet
  facet normal 0 0 1
    outer loop
      vertex -2.08839 0.511024 3
      vertex -5 7 3
      vertex -2.14795 0.0937816 3
    endloop
  endfacet
  facet normal 0 0 1
    outer loop
      vertex -1.94856 0.908629 3
      vertex -5 7 3
      vertex -2.08839 0.511024 3
    endloop
  endfacet
  facet normal 0 0 1
    outer loop
      vertex -1.73386 1.27132 3
      vertex -5 7 3
      vertex -1.94856 0.908629 3
    endloop
  endfacet
  facet normal 0 0 1
    outer loop
      vertex -1.45252 1.58515 3
      vertex -5 7 3
      vertex -1.73386 1.27132 3
    endloop
  endfacet
  facet normal 0 0 1
    outer loop
      vertex -1.11536 1.83806 3
      vertex -5 7 3
      vertex -1.45252 1.58515 3
    endloop
  endfacet
  facet normal -0 0 1
    outer loop
      vertex 0.735343 -2.02034 3
      vertex 5 -5 3
      vertex 5 -0.468131 3
    endloop
  endfacet
  facet normal -0 0 1
    outer loop
      vertex 0.327065 -2.12498 3
      vertex 5 -5 3
      vertex 0.735343 -2.02034 3
    endloop
  endfacet
  facet normal -0 0 1
    outer loop
      vertex -0.0937816 -2.14795 3
      vertex 5 -5 3
      vertex 0.327065 -2.12498 3
    endloop
  endfacet
  facet normal 0 0 1
    outer loop
      vertex -5 -5 3
      vertex -0.0937816 -2.14795 3
      vertex -0.511024 -2.08839 3
    endloop
  endfacet
  facet normal 0 0 1
    outer loop
      vertex -5 -5 3
      vertex -0.511024 -2.08839 3
      vertex -0.908629 -1.94856 3
    endloop
  endfacet
  facet normal 0 0 1
    outer loop
      vertex -5 -5 3
      vertex -2.14795 0.0937816 3
      vertex -5 7 3
    endloop
  endfacet
  facet normal 0 0 1
    outer loop
      vertex -2.14795 0.0937816 3
      vertex -5 -5 3
      vertex -2.12498 -0.327065 3
    endloop
  endfacet
  facet normal 0 0 1
    outer loop
      vertex -0.0937816 -2.14795 3
      vertex -5 -5 3
      vertex 5 -5 3
    endloop
  endfacet
  facet normal 0 0 1
    outer loop
      vertex -1.27132 -1.73386 3
      vertex -5 -5 3
      vertex -0.908629 -1.94856 3
    endloop
  endfacet
  facet normal 0 0 1
    outer loop
      vertex -1.58515 -1.45252 3
      vertex -5 -5 3
      vertex -1.27132 -1.73386 3
    endloop
  endfacet
  facet normal 0 0 1
    outer loop
      vertex -1.83806 -1.11536 3
      vertex -5 -5 3
      vertex -1.58515 -1.45252 3
    endloop
  endfacet
  facet normal 0 0 1
    outer loop
      vertex -2.02034 -0.735343 3
      vertex -5 -5 3
      vertex -1.83806 -1.11536 3
    endloop
  endfacet
  facet normal 0 0 1
    outer loop
      vertex -2.12498 -0.327065 3
      vertex -5 -5 3
      vertex -2.02034 -0.735343 3
    endloop
  endfacet
  facet normal 0 0 -1
    outer loop
      vertex 2.12498 0.327065 -3
      vertex 5 -5 -3
      vertex 2.14795 -0.0937816 -3
    endloop
  endfacet
  facet normal 0 0 -1
    outer loop
      vertex 5 -5 -3
      vertex 2.08839 -0.511024 -3
      vertex 2.14795 -0.0937816 -3
    endloop
  endfacet
  facet normal 0 0 -1
    outer loop
      vertex 5 -5 -3
      vertex 1.94856 -0.908629 -3
      vertex 2.08839 -0.511024 -3
    endloop
  endfacet
  facet normal 0 0 -1
    outer loop
      vertex 5 -5 -3
      vertex 1.73386 -1.27132 -3
      vertex 1.94856 -0.908629 -3
    endloop
  endfacet
  facet normal 0 0 -1
    outer loop
      vertex 5 -5 -3
      vertex 1.45252 -1.58515 -3
      vertex 1.73386 -1.27132 -3
    endloop
  endfacet
  facet normal 0 0 -1
    outer loop
      vertex 5 -5 -3
      vertex 1.11536 -1.83806 -3
      vertex 1.45252 -1.58515 -3
    endloop
  endfacet
  facet normal 0 0 -1
    outer loop
      vertex 5 -5 -3
      vertex 0.735343 -2.02034 -3
      vertex 1.11536 -1.83806 -3
    endloop
  endfacet
  facet normal 0 0 -1
    outer loop
      vertex 5 -5 -3
      vertex 0.327065 -2.12498 -3
      vertex 0.735343 -2.02034 -3
    endloop
  endfacet
  facet normal 0 0 -1
    outer loop
      vertex 5 -5 -3
      vertex -0.0937816 -2.14795 -3
      vertex 0.327065 -2.12498 -3
    endloop
  endfacet
  facet normal 0 0 -1
    outer loop
      vertex -5 -5 -3
      vertex -0.0937816 -2.14795 -3
      vertex 5 -5 -3
    endloop
  endfacet
  facet normal -0 0 -1
    outer loop
      vertex -0.0937816 -2.14795 -3
      vertex -5 -5 -3
      vertex -0.511024 -2.08839 -3
    endloop
  endfacet
  facet normal -0 0 -1
    outer loop
      vertex -2.12498 -0.327065 -3
      vertex -5 -5 -3
      vertex -2.14795 0.0937816 -3
    endloop
  endfacet
  facet normal -0 0 -1
    outer loop
      vertex -2.02034 -0.735343 -3
      vertex -5 -5 -3
      vertex -2.12498 -0.327065 -3
    endloop
  endfacet
  facet normal -0 0 -1
    outer loop
      vertex -1.83806 -1.11536 -3
      vertex -5 -5 -3
      vertex -2.02034 -0.735343 -3
    endloop
  endfacet
  facet normal -0 0 -1
    outer loop
      vertex -1.58515 -1.45252 -3
      vertex -5 -5 -3
      vertex -1.83806 -1.11536 -3
    endloop
  endfacet
  facet normal -0 0 -1
    outer loop
      vertex -1.27132 -1.73386 -3
      vertex -5 -5 -3
      vertex -1.58515 -1.45252 -3
    endloop
  endfacet
  facet normal -0 0 -1
    outer loop
      vertex -0.908629 -1.94856 -3
      vertex -5 -5 -3
      vertex -1.27132 -1.73386 -3
    endloop
  endfacet
  facet normal -0 0 -1
    outer loop
      vertex -0.511024 -2.08839 -3
      vertex -5 -5 -3
      vertex -0.908629 -1.94856 -3
    endloop
  endfacet
  facet normal 0 0 -1
    outer loop
      vertex 5 -5 -3
      vertex 2.12498 0.327065 -3
      vertex 5 7 -3
    endloop
  endfacet
  facet normal 0 0 -1
    outer loop
      vertex 2.02034 0.735343 -3
      vertex 5 7 -3
      vertex 2.12498 0.327065 -3
    endloop
  endfacet
  facet normal 0 0 -1
    outer loop
      vertex 1.83806 1.11536 -3
      vertex 5 7 -3
      vertex 2.02034 0.735343 -3
    endloop
  endfacet
  facet normal 0 0 -1
    outer loop
      vertex 1.58515 1.45252 -3
      vertex 5 7 -3
      vertex 1.83806 1.11536 -3
    endloop
  endfacet
  facet normal 0 0 -1
    outer loop
      vertex 1.27132 1.73386 -3
      vertex 5 7 -3
      vertex 1.58515 1.45252 -3
    endloop
  endfacet
  facet normal 0 0 -1
    outer loop
      vertex 0.908629 1.94856 -3
      vertex 5 7 -3
      vertex 1.27132 1.73386 -3
    endloop
  endfacet
  facet normal 0 0 -1
    outer loop
      vertex 0.511024 2.08839 -3
      vertex 5 7 -3
      vertex 0.908629 1.94856 -3
    endloop
  endfacet
  facet normal 0 0 -1
    outer loop
      vertex 0.0937816 2.14795 -3
      vertex 5 7 -3
      vertex 0.511024 2.08839 -3
    endloop
  endfacet
  facet normal 0 0 -1
    outer loop
      vertex -5 7 -3
      vertex 0.0937816 2.14795 -3
      vertex -0.327065 2.12498 -3
    endloop
  endfacet
  facet normal 0 0 -1
    outer loop
      vertex -5 7 -3
      vertex -0.327065 2.12498 -3
      vertex -0.735343 2.02034 -3
    endloop
  endfacet
  facet normal 0 0 -1
    outer loop
      vertex -5 7 -3
      vertex -0.735343 2.02034 -3
      vertex -1.11536 1.83806 -3
    endloop
  endfacet
  facet normal 0 0 -1
    outer loop
      vertex -5 7 -3
      vertex -1.11536 1.83806 -3
      vertex -1.45252 1.58515 -3
    endloop
  endfacet
  facet normal 0 0 -1
    outer loop
      vertex -5 7 -3
      vertex -2.14795 0.0937816 -3
      vertex -5 -5 -3
    endloop
  endfacet
  facet normal 0 0 -1
    outer loop
      vertex -2.14795 0.0937816 -3
      vertex -5 7 -3
      vertex -2.08839 0.511024 -3
    endloop
  endfacet
  facet normal 0 0 -1
    outer loop
      vertex 0.0937816 2.14795 -3
      vertex -5 7 -3
      vertex 5 7 -3
    endloop
  endfacet
  facet normal 0 0 -1
    outer loop
      vertex -1.73386 1.27132 -3
      vertex -5 7 -3
      vertex -1.45252 1.58515 -3
    endloop
  endfacet
  facet normal 0 0 -1
    outer loop
      vertex -1.94856 0.908629 -3
      vertex -5 7 -3
      vertex -1.73386 1.27132 -3
    endloop
  endfacet
  facet normal 0 0 -1
    outer loop
      vertex -2.08839 0.511024 -3
      vertex -5 7 -3
      vertex -1.94856 0.908629 -3
    endloop
  endfacet
  facet normal -1 0 0
    outer loop
      vertex -5 -5 -3
      vertex -5 7 3
      vertex -5 7 -3
    endloop
  endfacet
  facet normal -1 -0 0
    outer loop
      vertex -5 7 3
      vertex -5 -5 -3
      vertex -5 -5 3
    endloop
  endfacet
  facet normal 0 1 -0
    outer loop
      vertex 5 7 -3
      vertex -5 7 3
      vertex 5 7 3
    endloop
  endfacet
  facet normal 0 1 0
    outer loop
      vertex -5 7 3
      vertex 5 7 -3
      vertex -5 7 -3
    endloop
  endfacet
  facet normal 0 -1 0
    outer loop
      vertex -5 -5 -3
      vertex 5 -5 3
      vertex -5 -5 3
    endloop
  endfacet
  facet normal 0 -1 -0
    outer loop
      vertex 5 -5 3
      vertex -5 -5 -3
      vertex 5 -5 -3
    endloop
  endfacet
endsolid OpenSCAD_Model
