solid OpenSCAD_Model
  facet normal 1 0 0
    outer loop
      vertex 10 10 10
      vertex 10 4.7 4.7
      vertex 10 10 -10
    endloop
  endfacet
  facet normal 1 0 0
    outer loop
      vertex 10 10 10
      vertex 10 -4.7 4.7
      vertex 10 4.7 4.7
    endloop
  endfacet
  facet normal 1 0 0
    outer loop
      vertex 10 -4.7 4.7
      vertex 10 -10 10
      vertex 10 -4.7 -4.7
    endloop
  endfacet
  facet normal 1 -0 0
    outer loop
      vertex 10 -10 10
      vertex 10 -4.7 4.7
      vertex 10 10 10
    endloop
  endfacet
  facet normal 1 -0 0
    outer loop
      vertex 10 4.7 -4.7
      vertex 10 10 -10
      vertex 10 4.7 4.7
    endloop
  endfacet
  facet normal 1 -0 0
    outer loop
      vertex 10 -4.7 -4.7
      vertex 10 10 -10
      vertex 10 4.7 -4.7
    endloop
  endfacet
  facet normal 1 0 0
    outer loop
      vertex 10 -4.7 -4.7
      vertex 10 -10 -10
      vertex 10 10 -10
    endloop
  endfacet
  facet normal 1 0 0
    outer loop
      vertex 10 -10 -10
      vertex 10 -4.7 -4.7
      vertex 10 -10 10
    endloop
  endfacet
  facet normal -0 0 1
    outer loop
      vertex -10 10 10
      vertex 10 -10 10
      vertex 10 10 10
    endloop
  endfacet
  facet normal 0 0 1
    outer loop
      vertex 10 -10 10
      vertex -10 10 10
      vertex -10 -10 10
    endloop
  endfacet
  facet normal 0 0 -1
    outer loop
      vertex -10 -10 -10
      vertex 10 10 -10
      vertex 10 -10 -10
    endloop
  endfacet
  facet normal -0 0 -1
    outer loop
      vertex 10 10 -10
      vertex -10 -10 -10
      vertex -10 10 -10
    endloop
  endfacet
  facet normal -1 0 0
    outer loop
      vertex -10 -10 -10
      vertex -10 10 10
      vertex -10 10 -10
    endloop
  endfacet
  facet normal -1 -0 0
    outer loop
      vertex -10 10 10
      vertex -10 -10 -10
      vertex -10 -10 10
    endloop
  endfacet
  facet normal 0 1 -0
    outer loop
      vertex 10 10 -10
      vertex -10 10 10
      vertex 10 10 10
    endloop
  endfacet
  facet normal 0 1 0
    outer loop
      vertex -10 10 10
      vertex 10 10 -10
      vertex -10 10 -10
    endloop
  endfacet
  facet normal 0 -1 0
    outer loop
      vertex -10 -10 -10
      vertex 10 -10 10
      vertex -10 -10 10
    endloop
  endfacet
  facet normal 0 -1 -0
    outer loop
      vertex 10 -10 10
      vertex -10 -10 -10
      vertex 10 -10 -10
    endloop
  endfacet
  facet normal 1 -0 0
    outer loop
      vertex 19.4 -4.7 4.7
      vertex 19.4 4.7 -4.7
      vertex 19.4 4.7 4.7
    endloop
  endfacet
  facet normal 1 0 0
    outer loop
      vertex 19.4 4.7 -4.7
      vertex 19.4 -4.7 4.7
      vertex 19.4 -4.7 -4.7
    endloop
  endfacet
  facet normal -0 0 1
    outer loop
      vertex 10 4.7 4.7
      vertex 19.4 -4.7 4.7
      vertex 19.4 4.7 4.7
    endloop
  endfacet
  facet normal 0 0 1
    outer loop
      vertex 19.4 -4.7 4.7
      vertex 10 4.7 4.7
      vertex 10 -4.7 4.7
    endloop
  endfacet
  facet normal 0 0 -1
    outer loop
      vertex 10 -4.7 -4.7
      vertex 19.4 4.7 -4.7
      vertex 19.4 -4.7 -4.7
    endloop
  endfacet
  facet normal -0 0 -1
    outer loop
      vertex 19.4 4.7 -4.7
      vertex 10 -4.7 -4.7
      vertex 10 4.7 -4.7
    endloop
  endfacet
  facet normal 0 1 -0
    outer loop
      vertex 19.4 4.7 -4.7
      vertex 10 4.7 4.7
      vertex 19.4 4.7 4.7
    endloop
  endfacet
  facet normal 0 1 0
    outer loop
      vertex 10 4.7 4.7
      vertex 19.4 4.7 -4.7
      vertex 10 4.7 -4.7
    endloop
  endfacet
  facet normal 0 -1 0
    outer loop
      vertex 10 -4.7 -4.7
      vertex 19.4 -4.7 4.7
      vertex 10 -4.7 4.7
    endloop
  endfacet
  facet normal 0 -1 -0
    outer loop
      vertex 19.4 -4.7 4.7
      vertex 10 -4.7 -4.7
      vertex 19.4 -4.7 -4.7
    endloop
  endfacet
  facet normal 1 0 0
    outer loop
      vertex 10 40 10
      vertex 10 34.65 4.65
      vertex 10 40 -10
    endloop
  endfacet
  facet normal 1 0 0
    outer loop
      vertex 10 40 10
      vertex 10 25.35 4.65
      vertex 10 34.65 4.65
    endloop
  endfacet
  facet normal 1 0 0
    outer loop
      vertex 10 25.35 4.65
      vertex 10 20 10
      vertex 10 25.35 -4.65
    endloop
  endfacet
  facet normal 1 -0 0
    outer loop
      vertex 10 20 10
      vertex 10 25.35 4.65
      vertex 10 40 10
    endloop
  endfacet
  facet normal 1 -0 0
    outer loop
      vertex 10 34.65 -4.65
      vertex 10 40 -10
      vertex 10 34.65 4.65
    endloop
  endfacet
  facet normal 1 -0 0
    outer loop
      vertex 10 25.35 -4.65
      vertex 10 40 -10
      vertex 10 34.65 -4.65
    endloop
  endfacet
  facet normal 1 0 0
    outer loop
      vertex 10 25.35 -4.65
      vertex 10 20 -10
      vertex 10 40 -10
    endloop
  endfacet
  facet normal 1 0 0
    outer loop
      vertex 10 20 -10
      vertex 10 25.35 -4.65
      vertex 10 20 10
    endloop
  endfacet
  facet normal -0 0 1
    outer loop
      vertex -10 40 10
      vertex 10 20 10
      vertex 10 40 10
    endloop
  endfacet
  facet normal 0 0 1
    outer loop
      vertex 10 20 10
      vertex -10 40 10
      vertex -10 20 10
    endloop
  endfacet
  facet normal 0 0 -1
    outer loop
      vertex -10 20 -10
      vertex 10 40 -10
      vertex 10 20 -10
    endloop
  endfacet
  facet normal -0 0 -1
    outer loop
      vertex 10 40 -10
      vertex -10 20 -10
      vertex -10 40 -10
    endloop
  endfacet
  facet normal -1 0 0
    outer loop
      vertex -10 20 -10
      vertex -10 40 10
      vertex -10 40 -10
    endloop
  endfacet
  facet normal -1 -0 0
    outer loop
      vertex -10 40 10
      vertex -10 20 -10
      vertex -10 20 10
    endloop
  endfacet
  facet normal 0 1 -0
    outer loop
      vertex 10 40 -10
      vertex -10 40 10
      vertex 10 40 10
    endloop
  endfacet
  facet normal 0 1 0
    outer loop
      vertex -10 40 10
      vertex 10 40 -10
      vertex -10 40 -10
    endloop
  endfacet
  facet normal 0 -1 0
    outer loop
      vertex -10 20 -10
      vertex 10 20 10
      vertex -10 20 10
    endloop
  endfacet
  facet normal 0 -1 -0
    outer loop
      vertex 10 20 10
      vertex -10 20 -10
      vertex 10 20 -10
    endloop
  endfacet
  facet normal 1 -0 0
    outer loop
      vertex 19.3 25.35 4.65
      vertex 19.3 34.65 -4.65
      vertex 19.3 34.65 4.65
    endloop
  endfacet
  facet normal 1 0 0
    outer loop
      vertex 19.3 34.65 -4.65
      vertex 19.3 25.35 4.65
      vertex 19.3 25.35 -4.65
    endloop
  endfacet
  facet normal -0 0 1
    outer loop
      vertex 10 34.65 4.65
      vertex 19.3 25.35 4.65
      vertex 19.3 34.65 4.65
    endloop
  endfacet
  facet normal 0 0 1
    outer loop
      vertex 19.3 25.35 4.65
      vertex 10 34.65 4.65
      vertex 10 25.35 4.65
    endloop
  endfacet
  facet normal 0 0 -1
    outer loop
      vertex 10 25.35 -4.65
      vertex 19.3 34.65 -4.65
      vertex 19.3 25.35 -4.65
    endloop
  endfacet
  facet normal -0 0 -1
    outer loop
      vertex 19.3 34.65 -4.65
      vertex 10 25.35 -4.65
      vertex 10 34.65 -4.65
    endloop
  endfacet
  facet normal 0 1 -0
    outer loop
      vertex 19.3 34.65 -4.65
      vertex 10 34.65 4.65
      vertex 19.3 34.65 4.65
    endloop
  endfacet
  facet normal 0 1 0
    outer loop
      vertex 10 34.65 4.65
      vertex 19.3 34.65 -4.65
      vertex 10 34.65 -4.65
    endloop
  endfacet
  facet normal 0 -1 0
    outer loop
      vertex 10 25.35 -4.65
      vertex 19.3 25.35 4.65
      vertex 10 25.35 4.65
    endloop
  endfacet
  facet normal 0 -1 -0
    outer loop
      vertex 19.3 25.35 4.65
      vertex 10 25.35 -4.65
      vertex 19.3 25.35 -4.65
    endloop
  endfacet
  facet normal 1 0 0
    outer loop
      vertex 10 70 10
      vertex 10 64.6 4.6
      vertex 10 70 -10
    endloop
  endfacet
  facet normal 1 0 0
    outer loop
      vertex 10 70 10
      vertex 10 55.4 4.6
      vertex 10 64.6 4.6
    endloop
  endfacet
  facet normal 1 0 0
    outer loop
      vertex 10 55.4 4.6
      vertex 10 50 10
      vertex 10 55.4 -4.6
    endloop
  endfacet
  facet normal 1 -0 0
    outer loop
      vertex 10 50 10
      vertex 10 55.4 4.6
      vertex 10 70 10
    endloop
  endfacet
  facet normal 1 -0 0
    outer loop
      vertex 10 64.6 -4.6
      vertex 10 70 -10
      vertex 10 64.6 4.6
    endloop
  endfacet
  facet normal 1 -0 0
    outer loop
      vertex 10 55.4 -4.6
      vertex 10 70 -10
      vertex 10 64.6 -4.6
    endloop
  endfacet
  facet normal 1 0 0
    outer loop
      vertex 10 55.4 -4.6
      vertex 10 50 -10
      vertex 10 70 -10
    endloop
  endfacet
  facet normal 1 0 0
    outer loop
      vertex 10 50 -10
      vertex 10 55.4 -4.6
      vertex 10 50 10
    endloop
  endfacet
  facet normal -0 0 1
    outer loop
      vertex -10 70 10
      vertex 10 50 10
      vertex 10 70 10
    endloop
  endfacet
  facet normal 0 0 1
    outer loop
      vertex 10 50 10
      vertex -10 70 10
      vertex -10 50 10
    endloop
  endfacet
  facet normal 0 0 -1
    outer loop
      vertex -10 50 -10
      vertex 10 70 -10
      vertex 10 50 -10
    endloop
  endfacet
  facet normal -0 0 -1
    outer loop
      vertex 10 70 -10
      vertex -10 50 -10
      vertex -10 70 -10
    endloop
  endfacet
  facet normal -1 0 0
    outer loop
      vertex -10 50 -10
      vertex -10 70 10
      vertex -10 70 -10
    endloop
  endfacet
  facet normal -1 -0 0
    outer loop
      vertex -10 70 10
      vertex -10 50 -10
      vertex -10 50 10
    endloop
  endfacet
  facet normal 0 1 -0
    outer loop
      vertex 10 70 -10
      vertex -10 70 10
      vertex 10 70 10
    endloop
  endfacet
  facet normal 0 1 0
    outer loop
      vertex -10 70 10
      vertex 10 70 -10
      vertex -10 70 -10
    endloop
  endfacet
  facet normal 0 -1 0
    outer loop
      vertex -10 50 -10
      vertex 10 50 10
      vertex -10 50 10
    endloop
  endfacet
  facet normal 0 -1 -0
    outer loop
      vertex 10 50 10
      vertex -10 50 -10
      vertex 10 50 -10
    endloop
  endfacet
  facet normal 1 -0 0
    outer loop
      vertex 19.2 55.4 4.6
      vertex 19.2 64.6 -4.6
      vertex 19.2 64.6 4.6
    endloop
  endfacet
  facet normal 1 0 0
    outer loop
      vertex 19.2 64.6 -4.6
      vertex 19.2 55.4 4.6
      vertex 19.2 55.4 -4.6
    endloop
  endfacet
  facet normal -0 0 1
    outer loop
      vertex 10 64.6 4.6
      vertex 19.2 55.4 4.6
      vertex 19.2 64.6 4.6
    endloop
  endfacet
  facet normal 0 0 1
    outer loop
      vertex 19.2 55.4 4.6
      vertex 10 64.6 4.6
      vertex 10 55.4 4.6
    endloop
  endfacet
  facet normal 0 0 -1
    outer loop
      vertex 10 55.4 -4.6
      vertex 19.2 64.6 -4.6
      vertex 19.2 55.4 -4.6
    endloop
  endfacet
  facet normal -0 0 -1
    outer loop
      vertex 19.2 64.6 -4.6
      vertex 10 55.4 -4.6
      vertex 10 64.6 -4.6
    endloop
  endfacet
  facet normal 0 1 -0
    outer loop
      vertex 19.2 64.6 -4.6
      vertex 10 64.6 4.6
      vertex 19.2 64.6 4.6
    endloop
  endfacet
  facet normal 0 1 0
    outer loop
      vertex 10 64.6 4.6
      vertex 19.2 64.6 -4.6
      vertex 10 64.6 -4.6
    endloop
  endfacet
  facet normal 0 -1 0
    outer loop
      vertex 10 55.4 -4.6
      vertex 19.2 55.4 4.6
      vertex 10 55.4 4.6
    endloop
  endfacet
  facet normal 0 -1 -0
    outer loop
      vertex 19.2 55.4 4.6
      vertex 10 55.4 -4.6
      vertex 19.2 55.4 -4.6
    endloop
  endfacet
endsolid OpenSCAD_Model
