solid OpenSCAD_Model
  facet normal 1 -0 0
    outer loop
      vertex 10 2.88675 35
      vertex 10 10 -35
      vertex 10 10 35
    endloop
  endfacet
  facet normal 1 0 0
    outer loop
      vertex 10 10 -35
      vertex 10 2.88675 35
      vertex 10 2.88675 -35
    endloop
  endfacet
  facet normal 1 -0 0
    outer loop
      vertex 10 -10 35
      vertex 10 -2.88675 -35
      vertex 10 -2.88675 35
    endloop
  endfacet
  facet normal 1 0 0
    outer loop
      vertex 10 -2.88675 -35
      vertex 10 -10 35
      vertex 10 -10 -35
    endloop
  endfacet
  facet normal 0 0 1
    outer loop
      vertex -4.8 4.8 35
      vertex -7.5 4.33013 35
      vertex -4.8 -4.8 35
    endloop
  endfacet
  facet normal 0 0 1
    outer loop
      vertex -4.33013 7.5 35
      vertex -7.5 4.33013 35
      vertex -4.8 4.8 35
    endloop
  endfacet
  facet normal -0 0 1
    outer loop
      vertex -10 10 35
      vertex -4.33013 7.5 35
      vertex -2.88675 10 35
    endloop
  endfacet
  facet normal 0 0 1
    outer loop
      vertex -4.33013 7.5 35
      vertex -10 10 35
      vertex -7.5 4.33013 35
    endloop
  endfacet
  facet normal 0 0 1
    outer loop
      vertex -7.5 4.33013 35
      vertex -10 10 35
      vertex -10 2.88675 35
    endloop
  endfacet
  facet normal 0 0 1
    outer loop
      vertex 4.8 -4.8 35
      vertex -4.33013 -7.5 35
      vertex 4.33013 -7.5 35
    endloop
  endfacet
  facet normal 0 -0 1
    outer loop
      vertex -4.33013 -7.5 35
      vertex 4.8 -4.8 35
      vertex -4.8 -4.8 35
    endloop
  endfacet
  facet normal 0 0 1
    outer loop
      vertex 10 10 35
      vertex 7.5 4.33013 35
      vertex 10 2.88675 35
    endloop
  endfacet
  facet normal 0 0 1
    outer loop
      vertex 7.5 4.33013 35
      vertex 4.8 4.8 35
      vertex 7.5 -4.33013 35
    endloop
  endfacet
  facet normal -0 0 1
    outer loop
      vertex 4.33013 7.5 35
      vertex 7.5 4.33013 35
      vertex 10 10 35
    endloop
  endfacet
  facet normal 0 0 1
    outer loop
      vertex 7.5 4.33013 35
      vertex 4.33013 7.5 35
      vertex 4.8 4.8 35
    endloop
  endfacet
  facet normal 0 -0 1
    outer loop
      vertex 4.33013 7.5 35
      vertex 10 10 35
      vertex 2.88675 10 35
    endloop
  endfacet
  facet normal -0 0 1
    outer loop
      vertex 7.5 -4.33013 35
      vertex 10 -10 35
      vertex 10 -2.88675 35
    endloop
  endfacet
  facet normal 0 0 1
    outer loop
      vertex 4.8 -4.8 35
      vertex 7.5 -4.33013 35
      vertex 4.8 4.8 35
    endloop
  endfacet
  facet normal 0 0 1
    outer loop
      vertex 4.33013 -7.5 35
      vertex 7.5 -4.33013 35
      vertex 4.8 -4.8 35
    endloop
  endfacet
  facet normal 0 0 1
    outer loop
      vertex 7.5 -4.33013 35
      vertex 4.33013 -7.5 35
      vertex 10 -10 35
    endloop
  endfacet
  facet normal 0 0 1
    outer loop
      vertex 10 -10 35
      vertex 4.33013 -7.5 35
      vertex 2.88675 -10 35
    endloop
  endfacet
  facet normal -0 0 1
    outer loop
      vertex -4.33013 7.5 35
      vertex 4.8 4.8 35
      vertex 4.33013 7.5 35
    endloop
  endfacet
  facet normal 0 0 1
    outer loop
      vertex 4.8 4.8 35
      vertex -4.33013 7.5 35
      vertex -4.8 4.8 35
    endloop
  endfacet
  facet normal -0 0 1
    outer loop
      vertex -7.5 -4.33013 35
      vertex -4.8 -4.8 35
      vertex -7.5 4.33013 35
    endloop
  endfacet
  facet normal 0 0 1
    outer loop
      vertex -4.8 -4.8 35
      vertex -7.5 -4.33013 35
      vertex -4.33013 -7.5 35
    endloop
  endfacet
  facet normal 0 0 1
    outer loop
      vertex -10 -10 35
      vertex -4.33013 -7.5 35
      vertex -7.5 -4.33013 35
    endloop
  endfacet
  facet normal 0 0 1
    outer loop
      vertex -10 -10 35
      vertex -7.5 -4.33013 35
      vertex -10 -2.88675 35
    endloop
  endfacet
  facet normal 0 0 1
    outer loop
      vertex -4.33013 -7.5 35
      vertex -10 -10 35
      vertex -2.88675 -10 35
    endloop
  endfacet
  facet normal 0 0 -1
    outer loop
      vertex -5 -5 -35
      vertex -7.5 -4.33013 -35
      vertex -5 5 -35
    endloop
  endfacet
  facet normal 0 0 -1
    outer loop
      vertex -4.33013 -7.5 -35
      vertex -7.5 -4.33013 -35
      vertex -5 -5 -35
    endloop
  endfacet
  facet normal 0 0 -1
    outer loop
      vertex -10 -10 -35
      vertex -4.33013 -7.5 -35
      vertex -2.88675 -10 -35
    endloop
  endfacet
  facet normal -0 0 -1
    outer loop
      vertex -4.33013 -7.5 -35
      vertex -10 -10 -35
      vertex -7.5 -4.33013 -35
    endloop
  endfacet
  facet normal -0 0 -1
    outer loop
      vertex -7.5 -4.33013 -35
      vertex -10 -10 -35
      vertex -10 -2.88675 -35
    endloop
  endfacet
  facet normal 0 0 -1
    outer loop
      vertex 5 5 -35
      vertex -4.33013 7.5 -35
      vertex 4.33013 7.5 -35
    endloop
  endfacet
  facet normal 0 -0 -1
    outer loop
      vertex -4.33013 7.5 -35
      vertex 5 5 -35
      vertex -5 5 -35
    endloop
  endfacet
  facet normal 0 0 -1
    outer loop
      vertex 10 -10 -35
      vertex 7.5 -4.33013 -35
      vertex 10 -2.88675 -35
    endloop
  endfacet
  facet normal -0 0 -1
    outer loop
      vertex 7.5 -4.33013 -35
      vertex 5 -5 -35
      vertex 7.5 4.33013 -35
    endloop
  endfacet
  facet normal 0 0 -1
    outer loop
      vertex 4.33013 -7.5 -35
      vertex 7.5 -4.33013 -35
      vertex 10 -10 -35
    endloop
  endfacet
  facet normal 0 0 -1
    outer loop
      vertex 7.5 -4.33013 -35
      vertex 4.33013 -7.5 -35
      vertex 5 -5 -35
    endloop
  endfacet
  facet normal 0 -0 -1
    outer loop
      vertex 4.33013 -7.5 -35
      vertex 10 -10 -35
      vertex 2.88675 -10 -35
    endloop
  endfacet
  facet normal 0 0 -1
    outer loop
      vertex 7.5 4.33013 -35
      vertex 10 10 -35
      vertex 10 2.88675 -35
    endloop
  endfacet
  facet normal 0 0 -1
    outer loop
      vertex 5 5 -35
      vertex 7.5 4.33013 -35
      vertex 5 -5 -35
    endloop
  endfacet
  facet normal 0 0 -1
    outer loop
      vertex 4.33013 7.5 -35
      vertex 7.5 4.33013 -35
      vertex 5 5 -35
    endloop
  endfacet
  facet normal 0 0 -1
    outer loop
      vertex 7.5 4.33013 -35
      vertex 4.33013 7.5 -35
      vertex 10 10 -35
    endloop
  endfacet
  facet normal -0 0 -1
    outer loop
      vertex 10 10 -35
      vertex 4.33013 7.5 -35
      vertex 2.88675 10 -35
    endloop
  endfacet
  facet normal 0 0 -1
    outer loop
      vertex -4.33013 -7.5 -35
      vertex 5 -5 -35
      vertex 4.33013 -7.5 -35
    endloop
  endfacet
  facet normal -0 0 -1
    outer loop
      vertex 5 -5 -35
      vertex -4.33013 -7.5 -35
      vertex -5 -5 -35
    endloop
  endfacet
  facet normal 0 0 -1
    outer loop
      vertex -7.5 4.33013 -35
      vertex -5 5 -35
      vertex -7.5 -4.33013 -35
    endloop
  endfacet
  facet normal 0 0 -1
    outer loop
      vertex -7.5 4.33013 -35
      vertex -4.33013 7.5 -35
      vertex -5 5 -35
    endloop
  endfacet
  facet normal 0 0 -1
    outer loop
      vertex -10 10 -35
      vertex -4.33013 7.5 -35
      vertex -7.5 4.33013 -35
    endloop
  endfacet
  facet normal 0 0 -1
    outer loop
      vertex -10 10 -35
      vertex -7.5 4.33013 -35
      vertex -10 2.88675 -35
    endloop
  endfacet
  facet normal 0 0 -1
    outer loop
      vertex -4.33013 7.5 -35
      vertex -10 10 -35
      vertex -2.88675 10 -35
    endloop
  endfacet
  facet normal -1 0 0
    outer loop
      vertex -10 2.88675 -35
      vertex -10 10 35
      vertex -10 10 -35
    endloop
  endfacet
  facet normal -1 -0 0
    outer loop
      vertex -10 10 35
      vertex -10 2.88675 -35
      vertex -10 2.88675 35
    endloop
  endfacet
  facet normal -1 0 0
    outer loop
      vertex -10 -10 -35
      vertex -10 -2.88675 35
      vertex -10 -2.88675 -35
    endloop
  endfacet
  facet normal -1 -0 0
    outer loop
      vertex -10 -2.88675 35
      vertex -10 -10 -35
      vertex -10 -10 35
    endloop
  endfacet
  facet normal 0 1 -0
    outer loop
      vertex -2.88675 10 -35
      vertex -10 10 35
      vertex -2.88675 10 35
    endloop
  endfacet
  facet normal 0 1 0
    outer loop
      vertex -10 10 35
      vertex -2.88675 10 -35
      vertex -10 10 -35
    endloop
  endfacet
  facet normal 0 1 -0
    outer loop
      vertex 10 10 -35
      vertex 2.88675 10 35
      vertex 10 10 35
    endloop
  endfacet
  facet normal 0 1 0
    outer loop
      vertex 2.88675 10 35
      vertex 10 10 -35
      vertex 2.88675 10 -35
    endloop
  endfacet
  facet normal 0 -1 0
    outer loop
      vertex -10 -10 -35
      vertex -2.88675 -10 35
      vertex -10 -10 35
    endloop
  endfacet
  facet normal 0 -1 -0
    outer loop
      vertex -2.88675 -10 35
      vertex -10 -10 -35
      vertex -2.88675 -10 -35
    endloop
  endfacet
  facet normal 0 -1 0
    outer loop
      vertex 2.88675 -10 -35
      vertex 10 -10 35
      vertex 2.88675 -10 35
    endloop
  endfacet
  facet normal 0 -1 -0
    outer loop
      vertex 10 -10 35
      vertex 2.88675 -10 -35
      vertex 10 -10 -35
    endloop
  endfacet
  facet normal 1 -0 0
    outer loop
      vertex 4.8 -4.8 39.6
      vertex 4.8 4.8 35
      vertex 4.8 4.8 39.6
    endloop
  endfacet
  facet normal 1 0 0
    outer loop
      vertex 4.8 4.8 35
      vertex 4.8 -4.8 39.6
      vertex 4.8 -4.8 35
    endloop
  endfacet
  facet normal -0 0 1
    outer loop
      vertex -4.8 4.8 39.6
      vertex 4.8 -4.8 39.6
      vertex 4.8 4.8 39.6
    endloop
  endfacet
  facet normal 0 0 1
    outer loop
      vertex 4.8 -4.8 39.6
      vertex -4.8 4.8 39.6
      vertex -4.8 -4.8 39.6
    endloop
  endfacet
  facet normal -1 0 0
    outer loop
      vertex -4.8 -4.8 35
      vertex -4.8 4.8 39.6
      vertex -4.8 4.8 35
    endloop
  endfacet
  facet normal -1 -0 0
    outer loop
      vertex -4.8 4.8 39.6
      vertex -4.8 -4.8 35
      vertex -4.8 -4.8 39.6
    endloop
  endfacet
  facet normal 0 1 -0
    outer loop
      vertex 4.8 4.8 35
      vertex -4.8 4.8 39.6
      vertex 4.8 4.8 39.6
    endloop
  endfacet
  facet normal 0 1 0
    outer loop
      vertex -4.8 4.8 39.6
      vertex 4.8 4.8 35
      vertex -4.8 4.8 35
    endloop
  endfacet
  facet normal 0 -1 0
    outer loop
      vertex -4.8 -4.8 35
      vertex 4.8 -4.8 39.6
      vertex -4.8 -4.8 39.6
    endloop
  endfacet
  facet normal 0 -1 -0
    outer loop
      vertex 4.8 -4.8 39.6
      vertex -4.8 -4.8 35
      vertex 4.8 -4.8 35
    endloop
  endfacet
  facet normal -1 0 0
    outer loop
      vertex 5 -5 -35
      vertex 5 5 -30
      vertex 5 5 -35
    endloop
  endfacet
  facet normal -1 -0 0
    outer loop
      vertex 5 5 -30
      vertex 5 -5 -35
      vertex 5 -5 -30
    endloop
  endfacet
  facet normal 0 0 -1
    outer loop
      vertex -5 -5 -30
      vertex 5 5 -30
      vertex 5 -5 -30
    endloop
  endfacet
  facet normal -0 0 -1
    outer loop
      vertex 5 5 -30
      vertex -5 -5 -30
      vertex -5 5 -30
    endloop
  endfacet
  facet normal 1 -0 0
    outer loop
      vertex -5 -5 -30
      vertex -5 5 -35
      vertex -5 5 -30
    endloop
  endfacet
  facet normal 1 0 0
    outer loop
      vertex -5 5 -35
      vertex -5 -5 -30
      vertex -5 -5 -35
    endloop
  endfacet
  facet normal 0 -1 0
    outer loop
      vertex -5 5 -35
      vertex 5 5 -30
      vertex -5 5 -30
    endloop
  endfacet
  facet normal 0 -1 -0
    outer loop
      vertex 5 5 -30
      vertex -5 5 -35
      vertex 5 5 -35
    endloop
  endfacet
  facet normal 0 1 -0
    outer loop
      vertex 5 -5 -35
      vertex -5 -5 -30
      vertex 5 -5 -30
    endloop
  endfacet
  facet normal 0 1 0
    outer loop
      vertex -5 -5 -30
      vertex 5 -5 -35
      vertex -5 -5 -35
    endloop
  endfacet
  facet normal 1 -0 0
    outer loop
      vertex 7.5 -4.33013 35
      vertex 7.5 4.33013 -35
      vertex 7.5 4.33013 35
    endloop
  endfacet
  facet normal 1 0 0
    outer loop
      vertex 7.5 4.33013 -35
      vertex 7.5 -4.33013 35
      vertex 7.5 -4.33013 -35
    endloop
  endfacet
  facet normal -0.500001 -0.866025 0
    outer loop
      vertex 7.5 4.33013 -35
      vertex 10 2.88675 35
      vertex 7.5 4.33013 35
    endloop
  endfacet
  facet normal -0.500001 -0.866025 -0
    outer loop
      vertex 10 2.88675 35
      vertex 7.5 4.33013 -35
      vertex 10 2.88675 -35
    endloop
  endfacet
  facet normal -0.500001 0.866025 0
    outer loop
      vertex 10 -2.88675 -35
      vertex 7.5 -4.33013 35
      vertex 10 -2.88675 35
    endloop
  endfacet
  facet normal -0.500001 0.866025 0
    outer loop
      vertex 7.5 -4.33013 35
      vertex 10 -2.88675 -35
      vertex 7.5 -4.33013 -35
    endloop
  endfacet
  facet normal 0.866025 -0.500001 0
    outer loop
      vertex -4.33013 7.5 35
      vertex -2.88675 10 -35
      vertex -2.88675 10 35
    endloop
  endfacet
  facet normal 0.866025 -0.500001 0
    outer loop
      vertex -2.88675 10 -35
      vertex -4.33013 7.5 35
      vertex -4.33013 7.5 -35
    endloop
  endfacet
  facet normal 0 1 -0
    outer loop
      vertex 4.33013 7.5 -35
      vertex -4.33013 7.5 35
      vertex 4.33013 7.5 35
    endloop
  endfacet
  facet normal 0 1 0
    outer loop
      vertex -4.33013 7.5 35
      vertex 4.33013 7.5 -35
      vertex -4.33013 7.5 -35
    endloop
  endfacet
  facet normal -0.866025 -0.500001 0
    outer loop
      vertex 4.33013 7.5 -35
      vertex 2.88675 10 35
      vertex 2.88675 10 -35
    endloop
  endfacet
  facet normal -0.866025 -0.500001 0
    outer loop
      vertex 2.88675 10 35
      vertex 4.33013 7.5 -35
      vertex 4.33013 7.5 35
    endloop
  endfacet
  facet normal 0.500001 0.866025 -0
    outer loop
      vertex -7.5 -4.33013 -35
      vertex -10 -2.88675 35
      vertex -7.5 -4.33013 35
    endloop
  endfacet
  facet normal 0.500001 0.866025 0
    outer loop
      vertex -10 -2.88675 35
      vertex -7.5 -4.33013 -35
      vertex -10 -2.88675 -35
    endloop
  endfacet
  facet normal -1 0 0
    outer loop
      vertex -7.5 -4.33013 -35
      vertex -7.5 4.33013 35
      vertex -7.5 4.33013 -35
    endloop
  endfacet
  facet normal -1 -0 0
    outer loop
      vertex -7.5 4.33013 35
      vertex -7.5 -4.33013 -35
      vertex -7.5 -4.33013 35
    endloop
  endfacet
  facet normal 0.500001 -0.866025 0
    outer loop
      vertex -10 2.88675 -35
      vertex -7.5 4.33013 35
      vertex -10 2.88675 35
    endloop
  endfacet
  facet normal 0.500001 -0.866025 0
    outer loop
      vertex -7.5 4.33013 35
      vertex -10 2.88675 -35
      vertex -7.5 4.33013 -35
    endloop
  endfacet
  facet normal -0.866025 0.500001 0
    outer loop
      vertex 2.88675 -10 -35
      vertex 4.33013 -7.5 35
      vertex 4.33013 -7.5 -35
    endloop
  endfacet
  facet normal -0.866025 0.500001 0
    outer loop
      vertex 4.33013 -7.5 35
      vertex 2.88675 -10 -35
      vertex 2.88675 -10 35
    endloop
  endfacet
  facet normal 0 -1 0
    outer loop
      vertex -4.33013 -7.5 -35
      vertex 4.33013 -7.5 35
      vertex -4.33013 -7.5 35
    endloop
  endfacet
  facet normal 0 -1 -0
    outer loop
      vertex 4.33013 -7.5 35
      vertex -4.33013 -7.5 -35
      vertex 4.33013 -7.5 -35
    endloop
  endfacet
  facet normal 0.866025 0.500001 0
    outer loop
      vertex -2.88675 -10 35
      vertex -4.33013 -7.5 -35
      vertex -4.33013 -7.5 35
    endloop
  endfacet
  facet normal 0.866025 0.500001 0
    outer loop
      vertex -4.33013 -7.5 -35
      vertex -2.88675 -10 35
      vertex -2.88675 -10 -35
    endloop
  endfacet
endsolid OpenSCAD_Model
