solid OpenSCAD_Model
  facet normal -1 0 0
    outer loop
      vertex 10 2.71355 -10
      vertex 10 4.5 10
      vertex 10 4.5 -10
    endloop
  endfacet
  facet normal -1 -0 0
    outer loop
      vertex 10 4.5 10
      vertex 10 2.71355 -10
      vertex 10 2.71355 10
    endloop
  endfacet
  facet normal -1 0 0
    outer loop
      vertex 10 -4.5 -10
      vertex 10 -2.71355 10
      vertex 10 -2.71355 -10
    endloop
  endfacet
  facet normal -1 -0 0
    outer loop
      vertex 10 -2.71355 10
      vertex 10 -4.5 -10
      vertex 10 -4.5 10
    endloop
  endfacet
  facet normal 0 0 1
    outer loop
      vertex 7.65 4.07032 10
      vertex 10 -2.71355 10
      vertex 10 2.71355 10
    endloop
  endfacet
  facet normal 0 0 1
    outer loop
      vertex 10 -2.71355 10
      vertex 7.65 4.07032 10
      vertex 7.65 -4.07032 10
    endloop
  endfacet
  facet normal 0 0 1
    outer loop
      vertex 10 2.71355 10
      vertex 14.5 4.5 10
      vertex 10 4.5 10
    endloop
  endfacet
  facet normal 0 0 1
    outer loop
      vertex 14.5 4.5 10
      vertex 10 2.71355 10
      vertex 14.5 -4.5 10
    endloop
  endfacet
  facet normal -0 0 1
    outer loop
      vertex 10 -2.71355 10
      vertex 14.5 -4.5 10
      vertex 10 2.71355 10
    endloop
  endfacet
  facet normal 0 0 1
    outer loop
      vertex 14.5 -4.5 10
      vertex 10 -2.71355 10
      vertex 10 -4.5 10
    endloop
  endfacet
  facet normal 0 0 -1
    outer loop
      vertex 7.65 -4.07032 -10
      vertex 10 2.71355 -10
      vertex 10 -2.71355 -10
    endloop
  endfacet
  facet normal -0 0 -1
    outer loop
      vertex 10 2.71355 -10
      vertex 7.65 -4.07032 -10
      vertex 7.65 4.07032 -10
    endloop
  endfacet
  facet normal 0 0 -1
    outer loop
      vertex 10 -2.71355 -10
      vertex 14.5 -4.5 -10
      vertex 10 -4.5 -10
    endloop
  endfacet
  facet normal 0 0 -1
    outer loop
      vertex 14.5 -4.5 -10
      vertex 10 -2.71355 -10
      vertex 14.5 4.5 -10
    endloop
  endfacet
  facet normal 0 0 -1
    outer loop
      vertex 10 2.71355 -10
      vertex 14.5 4.5 -10
      vertex 10 -2.71355 -10
    endloop
  endfacet
  facet normal -0 0 -1
    outer loop
      vertex 14.5 4.5 -10
      vertex 10 2.71355 -10
      vertex 10 4.5 -10
    endloop
  endfacet
  facet normal -1 0 0
    outer loop
      vertex 7.65 -4.07032 -10
      vertex 7.65 4.07032 10
      vertex 7.65 4.07032 -10
    endloop
  endfacet
  facet normal -1 -0 0
    outer loop
      vertex 7.65 4.07032 10
      vertex 7.65 -4.07032 -10
      vertex 7.65 -4.07032 10
    endloop
  endfacet
  facet normal 0.499999 0.866026 -0
    outer loop
      vertex 10 2.71355 -10
      vertex 7.65 4.07032 10
      vertex 10 2.71355 10
    endloop
  endfacet
  facet normal 0.499999 0.866026 0
    outer loop
      vertex 7.65 4.07032 10
      vertex 10 2.71355 -10
      vertex 7.65 4.07032 -10
    endloop
  endfacet
  facet normal 0.499999 -0.866026 0
    outer loop
      vertex 7.65 -4.07032 -10
      vertex 10 -2.71355 10
      vertex 7.65 -4.07032 10
    endloop
  endfacet
  facet normal 0.499999 -0.866026 0
    outer loop
      vertex 10 -2.71355 10
      vertex 7.65 -4.07032 -10
      vertex 10 -2.71355 -10
    endloop
  endfacet
  facet normal 1 -0 0
    outer loop
      vertex 14.5 -4.5 10
      vertex 14.5 4.5 -10
      vertex 14.5 4.5 10
    endloop
  endfacet
  facet normal 1 0 0
    outer loop
      vertex 14.5 4.5 -10
      vertex 14.5 -4.5 10
      vertex 14.5 -4.5 -10
    endloop
  endfacet
  facet normal 0 1 -0
    outer loop
      vertex 14.5 4.5 -10
      vertex 10 4.5 10
      vertex 14.5 4.5 10
    endloop
  endfacet
  facet normal 0 1 0
    outer loop
      vertex 10 4.5 10
      vertex 14.5 4.5 -10
      vertex 10 4.5 -10
    endloop
  endfacet
  facet normal 0 -1 0
    outer loop
      vertex 10 -4.5 -10
      vertex 14.5 -4.5 10
      vertex 10 -4.5 10
    endloop
  endfacet
  facet normal 0 -1 -0
    outer loop
      vertex 14.5 -4.5 10
      vertex 10 -4.5 -10
      vertex 14.5 -4.5 -10
    endloop
  endfacet
endsolid OpenSCAD_Model
