solid OpenSCAD_Model
  facet normal 1 0 0
    outer loop
      vertex 50 0 0
      vertex 50 8 2
      vertex 50 2 10
    endloop
  endfacet
  facet normal 1 0 0
    outer loop
      vertex 50 0 0
      vertex 50 2 10
      vertex 50 0 10
    endloop
  endfacet
  facet normal 1 0 0
    outer loop
      vertex 50 8 2
      vertex 50 0 0
      vertex 50 8 0
    endloop
  endfacet
  facet normal -0 0 1
    outer loop
      vertex 48 2 10
      vertex 50 0 10
      vertex 50 2 10
    endloop
  endfacet
  facet normal -0 0 1
    outer loop
      vertex 26 2 10
      vertex 50 0 10
      vertex 48 2 10
    endloop
  endfacet
  facet normal -0 0 1
    outer loop
      vertex 24 2 10
      vertex 50 0 10
      vertex 26 2 10
    endloop
  endfacet
  facet normal 0 0 1
    outer loop
      vertex 0 0 10
      vertex 24 2 10
      vertex 2 2 10
    endloop
  endfacet
  facet normal 0 0 1
    outer loop
      vertex 0 0 10
      vertex 2 2 10
      vertex 0 2 10
    endloop
  endfacet
  facet normal 0 0 1
    outer loop
      vertex 24 2 10
      vertex 0 0 10
      vertex 50 0 10
    endloop
  endfacet
  facet normal 0 0 -1
    outer loop
      vertex 0 0 0
      vertex 50 8 0
      vertex 50 0 0
    endloop
  endfacet
  facet normal -0 0 -1
    outer loop
      vertex 50 8 0
      vertex 0 0 0
      vertex 0 8 0
    endloop
  endfacet
  facet normal -1 0 0
    outer loop
      vertex 0 0 0
      vertex 0 8 2
      vertex 0 8 0
    endloop
  endfacet
  facet normal -1 -0 0
    outer loop
      vertex 0 8 2
      vertex 0 0 0
      vertex 0 2 10
    endloop
  endfacet
  facet normal -1 -0 0
    outer loop
      vertex 0 2 10
      vertex 0 0 0
      vertex 0 0 10
    endloop
  endfacet
  facet normal 0 1 -0
    outer loop
      vertex 50 8 0
      vertex 48 8 2
      vertex 50 8 2
    endloop
  endfacet
  facet normal 0 1 0
    outer loop
      vertex 48 8 2
      vertex 50 8 0
      vertex 26 8 2
    endloop
  endfacet
  facet normal 0 1 0
    outer loop
      vertex 26 8 2
      vertex 50 8 0
      vertex 24 8 2
    endloop
  endfacet
  facet normal 0 1 0
    outer loop
      vertex 0 8 0
      vertex 24 8 2
      vertex 50 8 0
    endloop
  endfacet
  facet normal 0 1 0
    outer loop
      vertex 24 8 2
      vertex 0 8 0
      vertex 2 8 2
    endloop
  endfacet
  facet normal 0 1 0
    outer loop
      vertex 2 8 2
      vertex 0 8 0
      vertex 0 8 2
    endloop
  endfacet
  facet normal 0 -1 0
    outer loop
      vertex 0 0 0
      vertex 50 0 10
      vertex 0 0 10
    endloop
  endfacet
  facet normal 0 -1 -0
    outer loop
      vertex 50 0 10
      vertex 0 0 0
      vertex 50 0 0
    endloop
  endfacet
  facet normal -0 0 1
    outer loop
      vertex 26 8 2
      vertex 48 2 2
      vertex 48 8 2
    endloop
  endfacet
  facet normal 0 0 1
    outer loop
      vertex 48 2 2
      vertex 26 8 2
      vertex 26 2 2
    endloop
  endfacet
  facet normal -0 0 1
    outer loop
      vertex 2 8 2
      vertex 24 2 2
      vertex 24 8 2
    endloop
  endfacet
  facet normal 0 0 1
    outer loop
      vertex 24 2 2
      vertex 2 8 2
      vertex 2 2 2
    endloop
  endfacet
  facet normal 0 1 -0
    outer loop
      vertex 48 2 2
      vertex 26 2 10
      vertex 48 2 10
    endloop
  endfacet
  facet normal 0 1 0
    outer loop
      vertex 26 2 10
      vertex 48 2 2
      vertex 26 2 2
    endloop
  endfacet
  facet normal 0 1 -0
    outer loop
      vertex 24 2 2
      vertex 2 2 10
      vertex 24 2 10
    endloop
  endfacet
  facet normal 0 1 0
    outer loop
      vertex 2 2 10
      vertex 24 2 2
      vertex 2 2 2
    endloop
  endfacet
  facet normal 0 0.8 0.6
    outer loop
      vertex 2 8 2
      vertex 0 2 10
      vertex 2 2 10
    endloop
  endfacet
  facet normal 0 0.8 0.6
    outer loop
      vertex 0 2 10
      vertex 2 8 2
      vertex 0 8 2
    endloop
  endfacet
  facet normal 1 0 0
    outer loop
      vertex 2 2 10
      vertex 2 2 2
      vertex 2 8 2
    endloop
  endfacet
  facet normal 0 0.8 0.6
    outer loop
      vertex 26 8 2
      vertex 24 2 10
      vertex 26 2 10
    endloop
  endfacet
  facet normal 0 0.8 0.6
    outer loop
      vertex 24 2 10
      vertex 26 8 2
      vertex 24 8 2
    endloop
  endfacet
  facet normal -1 0 0
    outer loop
      vertex 24 8 2
      vertex 24 2 2
      vertex 24 2 10
    endloop
  endfacet
  facet normal 1 0 0
    outer loop
      vertex 26 2 10
      vertex 26 2 2
      vertex 26 8 2
    endloop
  endfacet
  facet normal 0 0.8 0.6
    outer loop
      vertex 50 8 2
      vertex 48 2 10
      vertex 50 2 10
    endloop
  endfacet
  facet normal 0 0.8 0.6
    outer loop
      vertex 48 2 10
      vertex 50 8 2
      vertex 48 8 2
    endloop
  endfacet
  facet normal -1 0 0
    outer loop
      vertex 48 8 2
      vertex 48 2 2
      vertex 48 2 10
    endloop
  endfacet
endsolid OpenSCAD_Model
